<?xml version="1.0" encoding="UTF-8" standalone="no"?>
<!DOCTYPE svg PUBLIC "-//W3C//DTD SVG 1.1//EN"
 "http://www.w3.org/Graphics/SVG/1.1/DTD/svg11.dtd">
<!-- Generated by graphviz version 2.26.3 (20100126.1600)
 -->
<!-- Title: G Pages: 1 -->
<svg width="2298pt" height="930pt"
 viewBox="0.00 0.00 2298.00 930.00" xmlns="http://www.w3.org/2000/svg" xmlns:xlink="http://www.w3.org/1999/xlink">
<g id="graph1" class="graph" transform="scale(1 1) rotate(0) translate(4 926)">
<title>G</title>
<polygon fill="white" stroke="white" points="-4,5 -4,-926 2295,-926 2295,5 -4,5"/>
<!-- Arch -->
<g id="node1" class="node"><title>Arch</title>
<polygon fill="none" stroke="black" points="-0.5,-781.5 -0.5,-892.5 142.5,-892.5 142.5,-781.5 -0.5,-781.5"/>
<text text-anchor="middle" x="71" y="-875.9" font-family="Times Roman,serif" font-size="14.00">Arch</text>
<polyline fill="none" stroke="black" points="-0.5,-865.5 142.5,-865.5 "/>
<text text-anchor="middle" x="71" y="-848.9" font-family="Times Roman,serif" font-size="14.00">name: String</text>
<text text-anchor="middle" x="71" y="-829.9" font-family="Times Roman,serif" font-size="14.00">id: Serial</text>
<text text-anchor="middle" x="71" y="-810.9" font-family="Times Roman,serif" font-size="14.00">endian: String</text>
<text text-anchor="middle" x="71" y="-791.9" font-family="Times Roman,serif" font-size="14.00">address_length: Integer</text>
</g>
<!-- Organization -->
<g id="node2" class="node"><title>Organization</title>
<polygon fill="none" stroke="black" points="159.5,-781.5 159.5,-892.5 306.5,-892.5 306.5,-781.5 159.5,-781.5"/>
<text text-anchor="middle" x="233" y="-875.9" font-family="Times Roman,serif" font-size="14.00">Organization</text>
<polyline fill="none" stroke="black" points="159.5,-865.5 306.5,-865.5 "/>
<text text-anchor="middle" x="233" y="-848.9" font-family="Times Roman,serif" font-size="14.00">name: String</text>
<text text-anchor="middle" x="233" y="-829.9" font-family="Times Roman,serif" font-size="14.00">description: Description</text>
<text text-anchor="middle" x="233" y="-810.9" font-family="Times Roman,serif" font-size="14.00">id: Serial</text>
<text text-anchor="middle" x="233" y="-791.9" font-family="Times Roman,serif" font-size="14.00">created_at: DateTime</text>
</g>
<!-- Address -->
<g id="node5" class="node"><title>Address</title>
<polygon fill="none" stroke="black" points="152,-499 152,-629 314,-629 314,-499 152,-499"/>
<text text-anchor="middle" x="233" y="-612.4" font-family="Times Roman,serif" font-size="14.00">Address</text>
<polyline fill="none" stroke="black" points="152,-602 314,-602 "/>
<text text-anchor="middle" x="233" y="-585.4" font-family="Times Roman,serif" font-size="14.00">id: Serial</text>
<text text-anchor="middle" x="233" y="-566.4" font-family="Times Roman,serif" font-size="14.00">type: Discriminator</text>
<text text-anchor="middle" x="233" y="-547.4" font-family="Times Roman,serif" font-size="14.00">address: String</text>
<text text-anchor="middle" x="233" y="-528.4" font-family="Times Roman,serif" font-size="14.00">created_at: DateTime</text>
<text text-anchor="middle" x="233" y="-509.4" font-family="Times Roman,serif" font-size="14.00">organization: Organization</text>
</g>
<!-- Organization&#45;&gt;Address -->
<g id="edge2" class="edge"><title>Organization&#45;&gt;Address</title>
<path fill="none" stroke="blue" d="M233,-781.425C233,-740.408 233,-684.132 233,-639.11"/>
<polygon fill="blue" stroke="blue" points="236.5,-639.1 233,-629.1 229.5,-639.1 236.5,-639.1"/>
<text text-anchor="middle" x="246" y="-720.9" font-family="Times Roman,serif" font-size="14.00"> 1:m</text>
</g>
<!-- Campaign -->
<g id="node3" class="node"><title>Campaign</title>
<polygon fill="none" stroke="black" points="331.5,-499 331.5,-629 478.5,-629 478.5,-499 331.5,-499"/>
<text text-anchor="middle" x="405" y="-612.4" font-family="Times Roman,serif" font-size="14.00">Campaign</text>
<polyline fill="none" stroke="black" points="331.5,-602 478.5,-602 "/>
<text text-anchor="middle" x="405" y="-585.4" font-family="Times Roman,serif" font-size="14.00">name: String</text>
<text text-anchor="middle" x="405" y="-566.4" font-family="Times Roman,serif" font-size="14.00">description: Description</text>
<text text-anchor="middle" x="405" y="-547.4" font-family="Times Roman,serif" font-size="14.00">id: Serial</text>
<text text-anchor="middle" x="405" y="-528.4" font-family="Times Roman,serif" font-size="14.00">created_at: DateTime</text>
<text text-anchor="middle" x="405" y="-509.4" font-family="Times Roman,serif" font-size="14.00">updated_at: DateTime</text>
</g>
<!-- Target -->
<g id="node4" class="node"><title>Target</title>
<polygon fill="none" stroke="black" points="411,-226.5 411,-337.5 545,-337.5 545,-226.5 411,-226.5"/>
<text text-anchor="middle" x="478" y="-320.9" font-family="Times Roman,serif" font-size="14.00">Target</text>
<polyline fill="none" stroke="black" points="411,-310.5 545,-310.5 "/>
<text text-anchor="middle" x="478" y="-293.9" font-family="Times Roman,serif" font-size="14.00">id: Serial</text>
<text text-anchor="middle" x="478" y="-274.9" font-family="Times Roman,serif" font-size="14.00">created_at: DateTime</text>
<text text-anchor="middle" x="478" y="-255.9" font-family="Times Roman,serif" font-size="14.00">campaign: Campaign</text>
<text text-anchor="middle" x="478" y="-236.9" font-family="Times Roman,serif" font-size="14.00">address: Address</text>
</g>
<!-- Campaign&#45;&gt;Target -->
<g id="edge4" class="edge"><title>Campaign&#45;&gt;Target</title>
<path fill="none" stroke="blue" d="M414.094,-498.806C419.249,-466.907 426.572,-428.122 436,-394 440.219,-378.729 445.654,-362.614 451.204,-347.513"/>
<polygon fill="blue" stroke="blue" points="454.629,-348.348 454.857,-337.756 448.073,-345.894 454.629,-348.348"/>
<text text-anchor="middle" x="449" y="-400.9" font-family="Times Roman,serif" font-size="14.00"> 1:m</text>
</g>
<!-- Address&#45;&gt;Target -->
<g id="edge6" class="edge"><title>Address&#45;&gt;Target</title>
<path fill="none" stroke="blue" d="M273.517,-498.977C288.193,-477.004 305.487,-452.788 323,-432 348.582,-401.634 379.563,-370.69 407.082,-344.856"/>
<polygon fill="blue" stroke="blue" points="409.818,-347.09 414.744,-337.71 405.044,-341.97 409.818,-347.09"/>
<text text-anchor="middle" x="368" y="-400.9" font-family="Times Roman,serif" font-size="14.00"> 1:m</text>
</g>
<!-- MACAddress -->
<g id="node6" class="node"><title>MACAddress</title>
<polygon fill="none" stroke="black" points="496,-499 496,-629 658,-629 658,-499 496,-499"/>
<text text-anchor="middle" x="577" y="-612.4" font-family="Times Roman,serif" font-size="14.00">MACAddress</text>
<polyline fill="none" stroke="black" points="496,-602 658,-602 "/>
<text text-anchor="middle" x="577" y="-585.4" font-family="Times Roman,serif" font-size="14.00">id: Serial</text>
<text text-anchor="middle" x="577" y="-566.4" font-family="Times Roman,serif" font-size="14.00">type: Discriminator</text>
<text text-anchor="middle" x="577" y="-547.4" font-family="Times Roman,serif" font-size="14.00">address: String</text>
<text text-anchor="middle" x="577" y="-528.4" font-family="Times Roman,serif" font-size="14.00">created_at: DateTime</text>
<text text-anchor="middle" x="577" y="-509.4" font-family="Times Roman,serif" font-size="14.00">organization: Organization</text>
</g>
<!-- MACAddress&#45;&gt;Target -->
<g id="edge8" class="edge"><title>MACAddress&#45;&gt;Target</title>
<path fill="none" stroke="blue" d="M542.768,-498.834C530.191,-472.951 516.676,-442.581 507,-414 499.823,-392.8 493.967,-369.071 489.446,-347.641"/>
<polygon fill="blue" stroke="blue" points="492.835,-346.745 487.398,-337.652 485.978,-348.151 492.835,-346.745"/>
<text text-anchor="middle" x="520" y="-400.9" font-family="Times Roman,serif" font-size="14.00"> 1:m</text>
</g>
<!-- IPAddressMACAddress -->
<g id="node15" class="node"><title>IPAddressMACAddress</title>
<polygon fill="none" stroke="black" points="563,-226.5 563,-337.5 733,-337.5 733,-226.5 563,-226.5"/>
<text text-anchor="middle" x="648" y="-320.9" font-family="Times Roman,serif" font-size="14.00">IPAddressMACAddress</text>
<polyline fill="none" stroke="black" points="563,-310.5 733,-310.5 "/>
<text text-anchor="middle" x="648" y="-293.9" font-family="Times Roman,serif" font-size="14.00">id: Serial</text>
<text text-anchor="middle" x="648" y="-274.9" font-family="Times Roman,serif" font-size="14.00">created_at: DateTime</text>
<text text-anchor="middle" x="648" y="-255.9" font-family="Times Roman,serif" font-size="14.00">ip_address: IPAddress</text>
<text text-anchor="middle" x="648" y="-236.9" font-family="Times Roman,serif" font-size="14.00">mac_address: MACAddress</text>
</g>
<!-- MACAddress&#45;&gt;IPAddressMACAddress -->
<g id="edge10" class="edge"><title>MACAddress&#45;&gt;IPAddressMACAddress</title>
<path fill="none" stroke="blue" d="M593.378,-498.949C604.824,-453.487 620.05,-393.011 631.519,-347.459"/>
<polygon fill="blue" stroke="blue" points="634.932,-348.237 633.98,-337.685 628.144,-346.528 634.932,-348.237"/>
<text text-anchor="middle" x="632" y="-400.9" font-family="Times Roman,serif" font-size="14.00"> 1:m</text>
</g>
<!-- IPAddress -->
<g id="node7" class="node"><title>IPAddress</title>
<polygon fill="none" stroke="black" points="790,-489.5 790,-638.5 952,-638.5 952,-489.5 790,-489.5"/>
<text text-anchor="middle" x="871" y="-621.9" font-family="Times Roman,serif" font-size="14.00">IPAddress</text>
<polyline fill="none" stroke="black" points="790,-611.5 952,-611.5 "/>
<text text-anchor="middle" x="871" y="-594.9" font-family="Times Roman,serif" font-size="14.00">id: Serial</text>
<text text-anchor="middle" x="871" y="-575.9" font-family="Times Roman,serif" font-size="14.00">type: Discriminator</text>
<text text-anchor="middle" x="871" y="-556.9" font-family="Times Roman,serif" font-size="14.00">address: IPAddress</text>
<text text-anchor="middle" x="871" y="-537.9" font-family="Times Roman,serif" font-size="14.00">created_at: DateTime</text>
<text text-anchor="middle" x="871" y="-518.9" font-family="Times Roman,serif" font-size="14.00">version: Integer</text>
<text text-anchor="middle" x="871" y="-499.9" font-family="Times Roman,serif" font-size="14.00">organization: Organization</text>
</g>
<!-- IPAddress&#45;&gt;Target -->
<g id="edge12" class="edge"><title>IPAddress&#45;&gt;Target</title>
<path fill="none" stroke="blue" d="M836.141,-489.26C822.141,-467.23 803.822,-445.447 781,-432 706.395,-388.042 664.041,-453.534 587,-414 557.414,-398.818 532.868,-371.691 514.608,-345.961"/>
<polygon fill="blue" stroke="blue" points="517.456,-343.925 508.902,-337.673 511.69,-347.894 517.456,-343.925"/>
<text text-anchor="middle" x="600" y="-400.9" font-family="Times Roman,serif" font-size="14.00"> 1:m</text>
</g>
<!-- IPAddress&#45;&gt;IPAddressMACAddress -->
<g id="edge14" class="edge"><title>IPAddress&#45;&gt;IPAddressMACAddress</title>
<path fill="none" stroke="blue" d="M828.968,-489.237C815.381,-469.101 799.093,-448.383 781,-432 768.616,-420.786 760.66,-424.901 748,-414 725.492,-394.618 704.865,-369.382 688.265,-346.173"/>
<polygon fill="blue" stroke="blue" points="690.947,-343.902 682.336,-337.729 685.218,-347.924 690.947,-343.902"/>
<text text-anchor="middle" x="761" y="-400.9" font-family="Times Roman,serif" font-size="14.00"> 1:m</text>
</g>
<!-- OSGuess -->
<g id="node16" class="node"><title>OSGuess</title>
<polygon fill="none" stroke="black" points="751,-226.5 751,-337.5 889,-337.5 889,-226.5 751,-226.5"/>
<text text-anchor="middle" x="820" y="-320.9" font-family="Times Roman,serif" font-size="14.00">OSGuess</text>
<polyline fill="none" stroke="black" points="751,-310.5 889,-310.5 "/>
<text text-anchor="middle" x="820" y="-293.9" font-family="Times Roman,serif" font-size="14.00">id: Serial</text>
<text text-anchor="middle" x="820" y="-274.9" font-family="Times Roman,serif" font-size="14.00">created_at: DateTime</text>
<text text-anchor="middle" x="820" y="-255.9" font-family="Times Roman,serif" font-size="14.00">ip_address: IPAddress</text>
<text text-anchor="middle" x="820" y="-236.9" font-family="Times Roman,serif" font-size="14.00">os: OS</text>
</g>
<!-- IPAddress&#45;&gt;OSGuess -->
<g id="edge20" class="edge"><title>IPAddress&#45;&gt;OSGuess</title>
<path fill="none" stroke="blue" d="M843.232,-489.443C835.574,-465.666 828.218,-439.027 824,-414 820.398,-392.628 818.911,-369.041 818.468,-347.789"/>
<polygon fill="blue" stroke="blue" points="821.964,-347.515 818.329,-337.564 814.965,-347.61 821.964,-347.515"/>
<text text-anchor="middle" x="837" y="-400.9" font-family="Times Roman,serif" font-size="14.00"> 1:m</text>
</g>
<!-- OpenPort -->
<g id="node22" class="node"><title>OpenPort</title>
<polygon fill="none" stroke="black" points="1066.5,-207.5 1066.5,-356.5 1205.5,-356.5 1205.5,-207.5 1066.5,-207.5"/>
<text text-anchor="middle" x="1136" y="-339.9" font-family="Times Roman,serif" font-size="14.00">OpenPort</text>
<polyline fill="none" stroke="black" points="1066.5,-329.5 1205.5,-329.5 "/>
<text text-anchor="middle" x="1136" y="-312.9" font-family="Times Roman,serif" font-size="14.00">id: Serial</text>
<text text-anchor="middle" x="1136" y="-293.9" font-family="Times Roman,serif" font-size="14.00">last_scanned_at: Time</text>
<text text-anchor="middle" x="1136" y="-274.9" font-family="Times Roman,serif" font-size="14.00">created_at: DateTime</text>
<text text-anchor="middle" x="1136" y="-255.9" font-family="Times Roman,serif" font-size="14.00">ip_address: IPAddress</text>
<text text-anchor="middle" x="1136" y="-236.9" font-family="Times Roman,serif" font-size="14.00">port: Port</text>
<text text-anchor="middle" x="1136" y="-217.9" font-family="Times Roman,serif" font-size="14.00">service: Service</text>
</g>
<!-- IPAddress&#45;&gt;OpenPort -->
<g id="edge18" class="edge"><title>IPAddress&#45;&gt;OpenPort</title>
<path fill="none" stroke="blue" d="M913.522,-489.175C927.065,-469.151 943.209,-448.507 961,-432 997.492,-398.142 1019.95,-408.102 1058,-376 1062.46,-372.233 1066.87,-368.188 1071.18,-363.969"/>
<polygon fill="blue" stroke="blue" points="1073.8,-366.297 1078.34,-356.722 1068.82,-361.379 1073.8,-366.297"/>
<text text-anchor="middle" x="1044" y="-400.9" font-family="Times Roman,serif" font-size="14.00"> 1:m</text>
</g>
<!-- HostNameIPAddress -->
<g id="node23" class="node"><title>HostNameIPAddress</title>
<polygon fill="none" stroke="black" points="907,-226.5 907,-337.5 1049,-337.5 1049,-226.5 907,-226.5"/>
<text text-anchor="middle" x="978" y="-320.9" font-family="Times Roman,serif" font-size="14.00">HostNameIPAddress</text>
<polyline fill="none" stroke="black" points="907,-310.5 1049,-310.5 "/>
<text text-anchor="middle" x="978" y="-293.9" font-family="Times Roman,serif" font-size="14.00">id: Serial</text>
<text text-anchor="middle" x="978" y="-274.9" font-family="Times Roman,serif" font-size="14.00">created_at: DateTime</text>
<text text-anchor="middle" x="978" y="-255.9" font-family="Times Roman,serif" font-size="14.00">host_name: HostName</text>
<text text-anchor="middle" x="978" y="-236.9" font-family="Times Roman,serif" font-size="14.00">ip_address: IPAddress</text>
</g>
<!-- IPAddress&#45;&gt;HostNameIPAddress -->
<g id="edge16" class="edge"><title>IPAddress&#45;&gt;HostNameIPAddress</title>
<path fill="none" stroke="blue" d="M859.185,-489.086C857.672,-458.171 860.5,-422.892 875,-394 880.822,-382.399 888.635,-384.988 898,-376 907.829,-366.567 917.709,-356.022 927.009,-345.5"/>
<polygon fill="blue" stroke="blue" points="929.738,-347.696 933.67,-337.858 924.461,-343.097 929.738,-347.696"/>
<text text-anchor="middle" x="888" y="-400.9" font-family="Times Roman,serif" font-size="14.00"> 1:m</text>
</g>
<!-- HostName -->
<g id="node8" class="node"><title>HostName</title>
<polygon fill="none" stroke="black" points="1196,-499 1196,-629 1358,-629 1358,-499 1196,-499"/>
<text text-anchor="middle" x="1277" y="-612.4" font-family="Times Roman,serif" font-size="14.00">HostName</text>
<polyline fill="none" stroke="black" points="1196,-602 1358,-602 "/>
<text text-anchor="middle" x="1277" y="-585.4" font-family="Times Roman,serif" font-size="14.00">id: Serial</text>
<text text-anchor="middle" x="1277" y="-566.4" font-family="Times Roman,serif" font-size="14.00">type: Discriminator</text>
<text text-anchor="middle" x="1277" y="-547.4" font-family="Times Roman,serif" font-size="14.00">address: String</text>
<text text-anchor="middle" x="1277" y="-528.4" font-family="Times Roman,serif" font-size="14.00">created_at: DateTime</text>
<text text-anchor="middle" x="1277" y="-509.4" font-family="Times Roman,serif" font-size="14.00">organization: Organization</text>
</g>
<!-- HostName&#45;&gt;Target -->
<g id="edge22" class="edge"><title>HostName&#45;&gt;Target</title>
<path fill="none" stroke="blue" d="M1248.13,-498.757C1233.54,-473.585 1213.27,-447.233 1187,-432 1142.84,-406.397 1007.95,-424.539 958,-414 931.731,-408.457 927.341,-399.193 901,-394 825.243,-379.066 622.795,-411.063 554,-376 539.889,-368.808 527.493,-357.687 517.027,-345.579"/>
<polygon fill="blue" stroke="blue" points="519.469,-343.037 510.43,-337.511 514.051,-347.468 519.469,-343.037"/>
<text text-anchor="middle" x="971" y="-400.9" font-family="Times Roman,serif" font-size="14.00"> 1:m</text>
</g>
<!-- HostName&#45;&gt;HostNameIPAddress -->
<g id="edge24" class="edge"><title>HostName&#45;&gt;HostNameIPAddress</title>
<path fill="none" stroke="blue" d="M1250.47,-498.784C1232.17,-462.177 1204.21,-418.968 1166,-394 1125.26,-367.383 1100.34,-399.985 1058,-376 1044.39,-368.288 1032.03,-357.33 1021.32,-345.604"/>
<polygon fill="blue" stroke="blue" points="1023.74,-343.05 1014.53,-337.814 1018.47,-347.651 1023.74,-343.05"/>
<text text-anchor="middle" x="1201" y="-400.9" font-family="Times Roman,serif" font-size="14.00"> 1:m</text>
</g>
<!-- URL -->
<g id="node27" class="node"><title>URL</title>
<polygon fill="none" stroke="black" points="1558,-188.5 1558,-375.5 1700,-375.5 1700,-188.5 1558,-188.5"/>
<text text-anchor="middle" x="1629" y="-358.9" font-family="Times Roman,serif" font-size="14.00">URL</text>
<polyline fill="none" stroke="black" points="1558,-348.5 1700,-348.5 "/>
<text text-anchor="middle" x="1629" y="-331.9" font-family="Times Roman,serif" font-size="14.00">id: Serial</text>
<text text-anchor="middle" x="1629" y="-312.9" font-family="Times Roman,serif" font-size="14.00">path: String</text>
<text text-anchor="middle" x="1629" y="-293.9" font-family="Times Roman,serif" font-size="14.00">fragment: String</text>
<text text-anchor="middle" x="1629" y="-274.9" font-family="Times Roman,serif" font-size="14.00">last_scanned_at: Time</text>
<text text-anchor="middle" x="1629" y="-255.9" font-family="Times Roman,serif" font-size="14.00">created_at: DateTime</text>
<text text-anchor="middle" x="1629" y="-236.9" font-family="Times Roman,serif" font-size="14.00">scheme: URLScheme</text>
<text text-anchor="middle" x="1629" y="-217.9" font-family="Times Roman,serif" font-size="14.00">host_name: HostName</text>
<text text-anchor="middle" x="1629" y="-198.9" font-family="Times Roman,serif" font-size="14.00">port: TCPPort</text>
</g>
<!-- HostName&#45;&gt;URL -->
<g id="edge28" class="edge"><title>HostName&#45;&gt;URL</title>
<path fill="none" stroke="blue" d="M1306.25,-498.715C1320.85,-473.696 1341.02,-447.47 1367,-432 1434.56,-391.766 1475.87,-454.941 1543,-414 1550.76,-409.268 1560.29,-398.097 1570.14,-384.149"/>
<polygon fill="blue" stroke="blue" points="1573.2,-385.872 1575.97,-375.644 1567.43,-381.915 1573.2,-385.872"/>
<text text-anchor="middle" x="1575" y="-400.9" font-family="Times Roman,serif" font-size="14.00"> 1:m</text>
</g>
<!-- EmailAddress -->
<g id="node28" class="node"><title>EmailAddress</title>
<polygon fill="none" stroke="black" points="1398,-226.5 1398,-337.5 1540,-337.5 1540,-226.5 1398,-226.5"/>
<text text-anchor="middle" x="1469" y="-320.9" font-family="Times Roman,serif" font-size="14.00">EmailAddress</text>
<polyline fill="none" stroke="black" points="1398,-310.5 1540,-310.5 "/>
<text text-anchor="middle" x="1469" y="-293.9" font-family="Times Roman,serif" font-size="14.00">id: Serial</text>
<text text-anchor="middle" x="1469" y="-274.9" font-family="Times Roman,serif" font-size="14.00">created_at: DateTime</text>
<text text-anchor="middle" x="1469" y="-255.9" font-family="Times Roman,serif" font-size="14.00">user_name: UserName</text>
<text text-anchor="middle" x="1469" y="-236.9" font-family="Times Roman,serif" font-size="14.00">host_name: HostName</text>
</g>
<!-- HostName&#45;&gt;EmailAddress -->
<g id="edge26" class="edge"><title>HostName&#45;&gt;EmailAddress</title>
<path fill="none" stroke="blue" d="M1308.07,-498.924C1322.76,-474.555 1342.5,-448.747 1367,-432 1396.37,-411.923 1420.44,-439.741 1445,-414 1461.74,-396.453 1468.84,-371.342 1471.36,-347.724"/>
<polygon fill="blue" stroke="blue" points="1474.85,-347.971 1472.18,-337.719 1467.87,-347.401 1474.85,-347.971"/>
<text text-anchor="middle" x="1471" y="-400.9" font-family="Times Roman,serif" font-size="14.00"> 1:m</text>
</g>
<!-- Author -->
<g id="node9" class="node"><title>Author</title>
<polygon fill="none" stroke="black" points="1120.5,-753 1120.5,-921 1245.5,-921 1245.5,-753 1120.5,-753"/>
<text text-anchor="middle" x="1183" y="-904.4" font-family="Times Roman,serif" font-size="14.00">Author</text>
<polyline fill="none" stroke="black" points="1120.5,-894 1245.5,-894 "/>
<text text-anchor="middle" x="1183" y="-877.4" font-family="Times Roman,serif" font-size="14.00">name: String</text>
<text text-anchor="middle" x="1183" y="-858.4" font-family="Times Roman,serif" font-size="14.00">id: Serial</text>
<text text-anchor="middle" x="1183" y="-839.4" font-family="Times Roman,serif" font-size="14.00">organization: String</text>
<text text-anchor="middle" x="1183" y="-820.4" font-family="Times Roman,serif" font-size="14.00">pgp_signature: Text</text>
<text text-anchor="middle" x="1183" y="-801.4" font-family="Times Roman,serif" font-size="14.00">email: String</text>
<text text-anchor="middle" x="1183" y="-782.4" font-family="Times Roman,serif" font-size="14.00">site: URI</text>
<text text-anchor="middle" x="1183" y="-763.4" font-family="Times Roman,serif" font-size="14.00">biography: Text</text>
</g>
<!-- UserName -->
<g id="node10" class="node"><title>UserName</title>
<polygon fill="none" stroke="black" points="1724,-518 1724,-610 1858,-610 1858,-518 1724,-518"/>
<text text-anchor="middle" x="1791" y="-593.4" font-family="Times Roman,serif" font-size="14.00">UserName</text>
<polyline fill="none" stroke="black" points="1724,-583 1858,-583 "/>
<text text-anchor="middle" x="1791" y="-566.4" font-family="Times Roman,serif" font-size="14.00">name: String</text>
<text text-anchor="middle" x="1791" y="-547.4" font-family="Times Roman,serif" font-size="14.00">id: Serial</text>
<text text-anchor="middle" x="1791" y="-528.4" font-family="Times Roman,serif" font-size="14.00">created_at: DateTime</text>
</g>
<!-- Credential -->
<g id="node12" class="node"><title>Credential</title>
<polygon fill="none" stroke="black" points="1720,-236 1720,-328 1862,-328 1862,-236 1720,-236"/>
<text text-anchor="middle" x="1791" y="-311.4" font-family="Times Roman,serif" font-size="14.00">Credential</text>
<polyline fill="none" stroke="black" points="1720,-301 1862,-301 "/>
<text text-anchor="middle" x="1791" y="-284.4" font-family="Times Roman,serif" font-size="14.00">id: Serial</text>
<text text-anchor="middle" x="1791" y="-265.4" font-family="Times Roman,serif" font-size="14.00">password: Password</text>
<text text-anchor="middle" x="1791" y="-246.4" font-family="Times Roman,serif" font-size="14.00">user_name: UserName</text>
</g>
<!-- UserName&#45;&gt;Credential -->
<g id="edge30" class="edge"><title>UserName&#45;&gt;Credential</title>
<path fill="none" stroke="blue" d="M1791,-517.749C1791,-468.675 1791,-391.102 1791,-338.457"/>
<polygon fill="blue" stroke="blue" points="1794.5,-338.276 1791,-328.276 1787.5,-338.276 1794.5,-338.276"/>
<text text-anchor="middle" x="1804" y="-400.9" font-family="Times Roman,serif" font-size="14.00"> 1:m</text>
</g>
<!-- UserName&#45;&gt;EmailAddress -->
<g id="edge32" class="edge"><title>UserName&#45;&gt;EmailAddress</title>
<path fill="none" stroke="blue" d="M1768.82,-517.853C1755.1,-491.47 1736.1,-458.47 1715,-432 1699.52,-412.57 1696.42,-404.7 1674,-394 1623.34,-369.827 1598.14,-403.124 1549,-376 1535.15,-368.355 1522.63,-357.301 1511.83,-345.441"/>
<polygon fill="blue" stroke="blue" points="1514.19,-342.814 1504.99,-337.558 1508.9,-347.404 1514.19,-342.814"/>
<text text-anchor="middle" x="1714" y="-400.9" font-family="Times Roman,serif" font-size="14.00"> 1:m</text>
</g>
<!-- Password -->
<g id="node11" class="node"><title>Password</title>
<polygon fill="none" stroke="black" points="1876,-527.5 1876,-600.5 1986,-600.5 1986,-527.5 1876,-527.5"/>
<text text-anchor="middle" x="1931" y="-583.9" font-family="Times Roman,serif" font-size="14.00">Password</text>
<polyline fill="none" stroke="black" points="1876,-573.5 1986,-573.5 "/>
<text text-anchor="middle" x="1931" y="-556.9" font-family="Times Roman,serif" font-size="14.00">id: Serial</text>
<text text-anchor="middle" x="1931" y="-537.9" font-family="Times Roman,serif" font-size="14.00">clear_text: String</text>
</g>
<!-- Password&#45;&gt;Credential -->
<g id="edge34" class="edge"><title>Password&#45;&gt;Credential</title>
<path fill="none" stroke="blue" d="M1913.51,-527.498C1900.74,-500.95 1882.95,-464.174 1867,-432 1851.38,-400.491 1833.63,-365.422 1819.22,-337.12"/>
<polygon fill="blue" stroke="blue" points="1822.32,-335.502 1814.66,-328.182 1816.09,-338.681 1822.32,-335.502"/>
<text text-anchor="middle" x="1870" y="-400.9" font-family="Times Roman,serif" font-size="14.00"> 1:m</text>
</g>
<!-- ServiceCredential -->
<g id="node13" class="node"><title>ServiceCredential</title>
<polygon fill="none" stroke="black" points="1065,-10.5 1065,-121.5 1207,-121.5 1207,-10.5 1065,-10.5"/>
<text text-anchor="middle" x="1136" y="-104.9" font-family="Times Roman,serif" font-size="14.00">ServiceCredential</text>
<polyline fill="none" stroke="black" points="1065,-94.5 1207,-94.5 "/>
<text text-anchor="middle" x="1136" y="-77.9" font-family="Times Roman,serif" font-size="14.00">id: Serial</text>
<text text-anchor="middle" x="1136" y="-58.9" font-family="Times Roman,serif" font-size="14.00">password: Password</text>
<text text-anchor="middle" x="1136" y="-39.9" font-family="Times Roman,serif" font-size="14.00">user_name: UserName</text>
<text text-anchor="middle" x="1136" y="-20.9" font-family="Times Roman,serif" font-size="14.00">open_port: OpenPort</text>
</g>
<!-- WebCredential -->
<g id="node14" class="node"><title>WebCredential</title>
<polygon fill="none" stroke="black" points="1459.5,-1 1459.5,-131 1638.5,-131 1638.5,-1 1459.5,-1"/>
<text text-anchor="middle" x="1549" y="-114.4" font-family="Times Roman,serif" font-size="14.00">WebCredential</text>
<polyline fill="none" stroke="black" points="1459.5,-104 1638.5,-104 "/>
<text text-anchor="middle" x="1549" y="-87.4" font-family="Times Roman,serif" font-size="14.00">id: Serial</text>
<text text-anchor="middle" x="1549" y="-68.4" font-family="Times Roman,serif" font-size="14.00">password: Password</text>
<text text-anchor="middle" x="1549" y="-49.4" font-family="Times Roman,serif" font-size="14.00">user_name: UserName</text>
<text text-anchor="middle" x="1549" y="-30.4" font-family="Times Roman,serif" font-size="14.00">email_address: EmailAddress</text>
<text text-anchor="middle" x="1549" y="-11.4" font-family="Times Roman,serif" font-size="14.00">url: URL</text>
</g>
<!-- OS -->
<g id="node17" class="node"><title>OS</title>
<polygon fill="none" stroke="black" points="675.5,-518 675.5,-610 772.5,-610 772.5,-518 675.5,-518"/>
<text text-anchor="middle" x="724" y="-593.4" font-family="Times Roman,serif" font-size="14.00">OS</text>
<polyline fill="none" stroke="black" points="675.5,-583 772.5,-583 "/>
<text text-anchor="middle" x="724" y="-566.4" font-family="Times Roman,serif" font-size="14.00">name: String</text>
<text text-anchor="middle" x="724" y="-547.4" font-family="Times Roman,serif" font-size="14.00">id: Serial</text>
<text text-anchor="middle" x="724" y="-528.4" font-family="Times Roman,serif" font-size="14.00">version: String</text>
</g>
<!-- OS&#45;&gt;OSGuess -->
<g id="edge36" class="edge"><title>OS&#45;&gt;OSGuess</title>
<path fill="none" stroke="blue" d="M739.745,-517.749C755.544,-471.339 780.02,-399.44 797.79,-347.242"/>
<polygon fill="blue" stroke="blue" points="801.117,-348.33 801.026,-337.736 794.49,-346.074 801.117,-348.33"/>
<text text-anchor="middle" x="794" y="-400.9" font-family="Times Roman,serif" font-size="14.00"> 1:m</text>
</g>
<!-- Port -->
<g id="node18" class="node"><title>Port</title>
<polygon fill="none" stroke="black" points="970,-518 970,-610 1074,-610 1074,-518 970,-518"/>
<text text-anchor="middle" x="1022" y="-593.4" font-family="Times Roman,serif" font-size="14.00">Port</text>
<polyline fill="none" stroke="black" points="970,-583 1074,-583 "/>
<text text-anchor="middle" x="1022" y="-566.4" font-family="Times Roman,serif" font-size="14.00">id: Serial</text>
<text text-anchor="middle" x="1022" y="-547.4" font-family="Times Roman,serif" font-size="14.00">protocol: String</text>
<text text-anchor="middle" x="1022" y="-528.4" font-family="Times Roman,serif" font-size="14.00">number: Integer</text>
</g>
<!-- Port&#45;&gt;OpenPort -->
<g id="edge38" class="edge"><title>Port&#45;&gt;OpenPort</title>
<path fill="none" stroke="blue" d="M1040.7,-517.749C1057.28,-476.72 1081.92,-415.77 1101.99,-366.122"/>
<polygon fill="blue" stroke="blue" points="1105.31,-367.255 1105.81,-356.672 1098.82,-364.631 1105.31,-367.255"/>
<text text-anchor="middle" x="1103" y="-400.9" font-family="Times Roman,serif" font-size="14.00"> 1:m</text>
</g>
<!-- TCPPort -->
<g id="node19" class="node"><title>TCPPort</title>
<polygon fill="none" stroke="black" points="1498,-518 1498,-610 1602,-610 1602,-518 1498,-518"/>
<text text-anchor="middle" x="1550" y="-593.4" font-family="Times Roman,serif" font-size="14.00">TCPPort</text>
<polyline fill="none" stroke="black" points="1498,-583 1602,-583 "/>
<text text-anchor="middle" x="1550" y="-566.4" font-family="Times Roman,serif" font-size="14.00">id: Serial</text>
<text text-anchor="middle" x="1550" y="-547.4" font-family="Times Roman,serif" font-size="14.00">protocol: String</text>
<text text-anchor="middle" x="1550" y="-528.4" font-family="Times Roman,serif" font-size="14.00">number: Integer</text>
</g>
<!-- TCPPort&#45;&gt;OpenPort -->
<g id="edge40" class="edge"><title>TCPPort&#45;&gt;OpenPort</title>
<path fill="none" stroke="blue" d="M1545.69,-517.866C1539.52,-478.94 1524.51,-424.779 1488,-394 1453.81,-365.174 1432.13,-387.833 1389,-376 1329.46,-359.664 1264.19,-335.243 1214.86,-315.387"/>
<polygon fill="blue" stroke="blue" points="1216.11,-312.117 1205.53,-311.609 1213.48,-318.605 1216.11,-312.117"/>
<text text-anchor="middle" x="1518" y="-400.9" font-family="Times Roman,serif" font-size="14.00"> 1:m</text>
</g>
<!-- TCPPort&#45;&gt;URL -->
<g id="edge42" class="edge"><title>TCPPort&#45;&gt;URL</title>
<path fill="none" stroke="blue" d="M1562.96,-517.749C1572.99,-481.938 1587.27,-430.95 1599.99,-385.548"/>
<polygon fill="blue" stroke="blue" points="1603.44,-386.226 1602.76,-375.652 1596.7,-384.338 1603.44,-386.226"/>
<text text-anchor="middle" x="1610" y="-400.9" font-family="Times Roman,serif" font-size="14.00"> 1:m</text>
</g>
<!-- UDPPort -->
<g id="node20" class="node"><title>UDPPort</title>
<polygon fill="none" stroke="black" points="1376,-518 1376,-610 1480,-610 1480,-518 1376,-518"/>
<text text-anchor="middle" x="1428" y="-593.4" font-family="Times Roman,serif" font-size="14.00">UDPPort</text>
<polyline fill="none" stroke="black" points="1376,-583 1480,-583 "/>
<text text-anchor="middle" x="1428" y="-566.4" font-family="Times Roman,serif" font-size="14.00">id: Serial</text>
<text text-anchor="middle" x="1428" y="-547.4" font-family="Times Roman,serif" font-size="14.00">protocol: String</text>
<text text-anchor="middle" x="1428" y="-528.4" font-family="Times Roman,serif" font-size="14.00">number: Integer</text>
</g>
<!-- UDPPort&#45;&gt;OpenPort -->
<g id="edge44" class="edge"><title>UDPPort&#45;&gt;OpenPort</title>
<path fill="none" stroke="blue" d="M1413.95,-517.887C1404,-490.716 1388.57,-456.901 1367,-432 1325,-383.516 1263.58,-344.655 1214.63,-318.646"/>
<polygon fill="blue" stroke="blue" points="1216.13,-315.478 1205.65,-313.94 1212.88,-321.679 1216.13,-315.478"/>
<text text-anchor="middle" x="1360" y="-400.9" font-family="Times Roman,serif" font-size="14.00"> 1:m</text>
</g>
<!-- Service -->
<g id="node21" class="node"><title>Service</title>
<polygon fill="none" stroke="black" points="1091.5,-527.5 1091.5,-600.5 1178.5,-600.5 1178.5,-527.5 1091.5,-527.5"/>
<text text-anchor="middle" x="1135" y="-583.9" font-family="Times Roman,serif" font-size="14.00">Service</text>
<polyline fill="none" stroke="black" points="1091.5,-573.5 1178.5,-573.5 "/>
<text text-anchor="middle" x="1135" y="-556.9" font-family="Times Roman,serif" font-size="14.00">name: String</text>
<text text-anchor="middle" x="1135" y="-537.9" font-family="Times Roman,serif" font-size="14.00">id: Serial</text>
</g>
<!-- Service&#45;&gt;OpenPort -->
<g id="edge46" class="edge"><title>Service&#45;&gt;OpenPort</title>
<path fill="none" stroke="blue" d="M1135.13,-527.423C1135.27,-486.961 1135.51,-420.4 1135.7,-366.797"/>
<polygon fill="blue" stroke="blue" points="1139.2,-366.617 1135.74,-356.605 1132.2,-366.592 1139.2,-366.617"/>
<text text-anchor="middle" x="1149" y="-400.9" font-family="Times Roman,serif" font-size="14.00"> 1:m</text>
</g>
<!-- OpenPort&#45;&gt;ServiceCredential -->
<g id="edge48" class="edge"><title>OpenPort&#45;&gt;ServiceCredential</title>
<path fill="none" stroke="blue" d="M1136,-207.363C1136,-182.715 1136,-155.497 1136,-131.579"/>
<polygon fill="blue" stroke="blue" points="1139.5,-131.548 1136,-121.548 1132.5,-131.548 1139.5,-131.548"/>
<text text-anchor="middle" x="1149" y="-156.9" font-family="Times Roman,serif" font-size="14.00"> 1:m</text>
</g>
<!-- URLScheme -->
<g id="node24" class="node"><title>URLScheme</title>
<polygon fill="none" stroke="black" points="1619.5,-527.5 1619.5,-600.5 1706.5,-600.5 1706.5,-527.5 1619.5,-527.5"/>
<text text-anchor="middle" x="1663" y="-583.9" font-family="Times Roman,serif" font-size="14.00">URLScheme</text>
<polyline fill="none" stroke="black" points="1619.5,-573.5 1706.5,-573.5 "/>
<text text-anchor="middle" x="1663" y="-556.9" font-family="Times Roman,serif" font-size="14.00">name: String</text>
<text text-anchor="middle" x="1663" y="-537.9" font-family="Times Roman,serif" font-size="14.00">id: Serial</text>
</g>
<!-- URLScheme&#45;&gt;URL -->
<g id="edge50" class="edge"><title>URLScheme&#45;&gt;URL</title>
<path fill="none" stroke="blue" d="M1658.59,-527.423C1654.28,-491.661 1647.51,-435.51 1641.53,-385.937"/>
<polygon fill="blue" stroke="blue" points="1644.98,-385.304 1640.31,-375.794 1638.03,-386.141 1644.98,-385.304"/>
<text text-anchor="middle" x="1657" y="-400.9" font-family="Times Roman,serif" font-size="14.00"> 1:m</text>
</g>
<!-- URLQueryParamName -->
<g id="node25" class="node"><title>URLQueryParamName</title>
<polygon fill="none" stroke="black" points="1880,-245.5 1880,-318.5 2026,-318.5 2026,-245.5 1880,-245.5"/>
<text text-anchor="middle" x="1953" y="-301.9" font-family="Times Roman,serif" font-size="14.00">URLQueryParamName</text>
<polyline fill="none" stroke="black" points="1880,-291.5 2026,-291.5 "/>
<text text-anchor="middle" x="1953" y="-274.9" font-family="Times Roman,serif" font-size="14.00">name: String</text>
<text text-anchor="middle" x="1953" y="-255.9" font-family="Times Roman,serif" font-size="14.00">id: Serial</text>
</g>
<!-- URLQueryParam -->
<g id="node26" class="node"><title>URLQueryParam</title>
<polygon fill="none" stroke="black" points="1758.5,-10.5 1758.5,-121.5 1941.5,-121.5 1941.5,-10.5 1758.5,-10.5"/>
<text text-anchor="middle" x="1850" y="-104.9" font-family="Times Roman,serif" font-size="14.00">URLQueryParam</text>
<polyline fill="none" stroke="black" points="1758.5,-94.5 1941.5,-94.5 "/>
<text text-anchor="middle" x="1850" y="-77.9" font-family="Times Roman,serif" font-size="14.00">id: Serial</text>
<text text-anchor="middle" x="1850" y="-58.9" font-family="Times Roman,serif" font-size="14.00">value: Text</text>
<text text-anchor="middle" x="1850" y="-39.9" font-family="Times Roman,serif" font-size="14.00">name: URLQueryParamName</text>
<text text-anchor="middle" x="1850" y="-20.9" font-family="Times Roman,serif" font-size="14.00">url: URL</text>
</g>
<!-- URLQueryParamName&#45;&gt;URLQueryParam -->
<g id="edge52" class="edge"><title>URLQueryParamName&#45;&gt;URLQueryParam</title>
<path fill="none" stroke="blue" d="M1935.53,-245.359C1920.61,-214.068 1898.79,-168.312 1880.92,-130.848"/>
<polygon fill="blue" stroke="blue" points="1883.94,-129.036 1876.47,-121.516 1877.62,-132.049 1883.94,-129.036"/>
<text text-anchor="middle" x="1912" y="-156.9" font-family="Times Roman,serif" font-size="14.00"> 1:m</text>
</g>
<!-- URL&#45;&gt;WebCredential -->
<g id="edge56" class="edge"><title>URL&#45;&gt;WebCredential</title>
<path fill="none" stroke="blue" d="M1594.26,-188.202C1588.36,-172.268 1582.3,-155.914 1576.62,-140.561"/>
<polygon fill="blue" stroke="blue" points="1579.88,-139.305 1573.13,-131.143 1573.32,-141.736 1579.88,-139.305"/>
<text text-anchor="middle" x="1600" y="-156.9" font-family="Times Roman,serif" font-size="14.00"> 1:m</text>
</g>
<!-- URL&#45;&gt;URLQueryParam -->
<g id="edge54" class="edge"><title>URL&#45;&gt;URLQueryParam</title>
<path fill="none" stroke="blue" d="M1700.39,-198.906C1703.94,-195.18 1707.48,-191.527 1711,-188 1731.09,-167.85 1753.93,-147.031 1775.2,-128.421"/>
<polygon fill="blue" stroke="blue" points="1777.71,-130.874 1782.96,-121.67 1773.12,-125.593 1777.71,-130.874"/>
<text text-anchor="middle" x="1761" y="-156.9" font-family="Times Roman,serif" font-size="14.00"> 1:m</text>
</g>
<!-- EmailAddress&#45;&gt;WebCredential -->
<g id="edge58" class="edge"><title>EmailAddress&#45;&gt;WebCredential</title>
<path fill="none" stroke="blue" d="M1489.6,-226.375C1499.29,-200.208 1510.99,-168.629 1521.43,-140.438"/>
<polygon fill="blue" stroke="blue" points="1524.73,-141.613 1524.92,-131.02 1518.16,-139.182 1524.73,-141.613"/>
<text text-anchor="middle" x="1530" y="-156.9" font-family="Times Roman,serif" font-size="14.00"> 1:m</text>
</g>
<!-- License -->
<g id="node29" class="node"><title>License</title>
<polygon fill="none" stroke="black" points="2058.5,-781.5 2058.5,-892.5 2167.5,-892.5 2167.5,-781.5 2058.5,-781.5"/>
<text text-anchor="middle" x="2113" y="-875.9" font-family="Times Roman,serif" font-size="14.00">License</text>
<polyline fill="none" stroke="black" points="2058.5,-865.5 2167.5,-865.5 "/>
<text text-anchor="middle" x="2113" y="-848.9" font-family="Times Roman,serif" font-size="14.00">name: String</text>
<text text-anchor="middle" x="2113" y="-829.9" font-family="Times Roman,serif" font-size="14.00">id: Serial</text>
<text text-anchor="middle" x="2113" y="-810.9" font-family="Times Roman,serif" font-size="14.00">description: Text</text>
<text text-anchor="middle" x="2113" y="-791.9" font-family="Times Roman,serif" font-size="14.00">url: URI</text>
</g>
<!-- Repository -->
<g id="node30" class="node"><title>Repository</title>
<polygon fill="none" stroke="black" points="2055.5,-432.5 2055.5,-695.5 2170.5,-695.5 2170.5,-432.5 2055.5,-432.5"/>
<text text-anchor="middle" x="2113" y="-678.9" font-family="Times Roman,serif" font-size="14.00">Repository</text>
<polyline fill="none" stroke="black" points="2055.5,-668.5 2170.5,-668.5 "/>
<text text-anchor="middle" x="2113" y="-651.9" font-family="Times Roman,serif" font-size="14.00">id: Serial</text>
<text text-anchor="middle" x="2113" y="-632.9" font-family="Times Roman,serif" font-size="14.00">scm: String</text>
<text text-anchor="middle" x="2113" y="-613.9" font-family="Times Roman,serif" font-size="14.00">path: FilePath</text>
<text text-anchor="middle" x="2113" y="-594.9" font-family="Times Roman,serif" font-size="14.00">uri: URI</text>
<text text-anchor="middle" x="2113" y="-575.9" font-family="Times Roman,serif" font-size="14.00">installed: Boolean</text>
<text text-anchor="middle" x="2113" y="-556.9" font-family="Times Roman,serif" font-size="14.00">name: String</text>
<text text-anchor="middle" x="2113" y="-537.9" font-family="Times Roman,serif" font-size="14.00">domain: String</text>
<text text-anchor="middle" x="2113" y="-518.9" font-family="Times Roman,serif" font-size="14.00">title: Text</text>
<text text-anchor="middle" x="2113" y="-499.9" font-family="Times Roman,serif" font-size="14.00">source: URI</text>
<text text-anchor="middle" x="2113" y="-480.9" font-family="Times Roman,serif" font-size="14.00">website: URI</text>
<text text-anchor="middle" x="2113" y="-461.9" font-family="Times Roman,serif" font-size="14.00">description: Text</text>
<text text-anchor="middle" x="2113" y="-442.9" font-family="Times Roman,serif" font-size="14.00">license: License</text>
</g>
<!-- License&#45;&gt;Repository -->
<g id="edge60" class="edge"><title>License&#45;&gt;Repository</title>
<path fill="none" stroke="blue" d="M2113,-781.425C2113,-759.307 2113,-732.752 2113,-705.917"/>
<polygon fill="blue" stroke="blue" points="2116.5,-705.627 2113,-695.627 2109.5,-705.627 2116.5,-705.627"/>
<text text-anchor="middle" x="2126" y="-720.9" font-family="Times Roman,serif" font-size="14.00"> 1:m</text>
</g>
<!-- Path -->
<g id="node31" class="node"><title>Path</title>
<polygon fill="none" stroke="black" points="2044,-217 2044,-347 2182,-347 2182,-217 2044,-217"/>
<text text-anchor="middle" x="2113" y="-330.4" font-family="Times Roman,serif" font-size="14.00">Path</text>
<polyline fill="none" stroke="black" points="2044,-320 2182,-320 "/>
<text text-anchor="middle" x="2113" y="-303.4" font-family="Times Roman,serif" font-size="14.00">id: Serial</text>
<text text-anchor="middle" x="2113" y="-284.4" font-family="Times Roman,serif" font-size="14.00">path: FilePath</text>
<text text-anchor="middle" x="2113" y="-265.4" font-family="Times Roman,serif" font-size="14.00">timestamp: Time</text>
<text text-anchor="middle" x="2113" y="-246.4" font-family="Times Roman,serif" font-size="14.00">class_name: String</text>
<text text-anchor="middle" x="2113" y="-227.4" font-family="Times Roman,serif" font-size="14.00">repository: Repository</text>
</g>
<!-- Repository&#45;&gt;Path -->
<g id="edge62" class="edge"><title>Repository&#45;&gt;Path</title>
<path fill="none" stroke="blue" d="M2113,-432.495C2113,-406.728 2113,-380.537 2113,-357.383"/>
<polygon fill="blue" stroke="blue" points="2116.5,-357.315 2113,-347.315 2109.5,-357.315 2116.5,-357.315"/>
<text text-anchor="middle" x="2126" y="-400.9" font-family="Times Roman,serif" font-size="14.00"> 1:m</text>
</g>
<!-- Vendor -->
<g id="node32" class="node"><title>Vendor</title>
<polygon fill="none" stroke="black" points="2195.5,-800.5 2195.5,-873.5 2282.5,-873.5 2282.5,-800.5 2195.5,-800.5"/>
<text text-anchor="middle" x="2239" y="-856.9" font-family="Times Roman,serif" font-size="14.00">Vendor</text>
<polyline fill="none" stroke="black" points="2195.5,-846.5 2282.5,-846.5 "/>
<text text-anchor="middle" x="2239" y="-829.9" font-family="Times Roman,serif" font-size="14.00">name: String</text>
<text text-anchor="middle" x="2239" y="-810.9" font-family="Times Roman,serif" font-size="14.00">id: Serial</text>
</g>
<!-- Software -->
<g id="node33" class="node"><title>Software</title>
<polygon fill="none" stroke="black" points="2188,-508.5 2188,-619.5 2290,-619.5 2290,-508.5 2188,-508.5"/>
<text text-anchor="middle" x="2239" y="-602.9" font-family="Times Roman,serif" font-size="14.00">Software</text>
<polyline fill="none" stroke="black" points="2188,-592.5 2290,-592.5 "/>
<text text-anchor="middle" x="2239" y="-575.9" font-family="Times Roman,serif" font-size="14.00">id: Serial</text>
<text text-anchor="middle" x="2239" y="-556.9" font-family="Times Roman,serif" font-size="14.00">name: String</text>
<text text-anchor="middle" x="2239" y="-537.9" font-family="Times Roman,serif" font-size="14.00">version: String</text>
<text text-anchor="middle" x="2239" y="-518.9" font-family="Times Roman,serif" font-size="14.00">vendor: Vendor</text>
</g>
<!-- Vendor&#45;&gt;Software -->
<g id="edge64" class="edge"><title>Vendor&#45;&gt;Software</title>
<path fill="none" stroke="blue" d="M2239,-800.465C2239,-756.923 2239,-683.34 2239,-629.8"/>
<polygon fill="blue" stroke="blue" points="2242.5,-629.712 2239,-619.712 2235.5,-629.712 2242.5,-629.712"/>
<text text-anchor="middle" x="2252" y="-720.9" font-family="Times Roman,serif" font-size="14.00"> 1:m</text>
</g>
</g>
</svg>
