<?xml version="1.0" encoding="UTF-8" standalone="no"?>
<!DOCTYPE svg PUBLIC "-//W3C//DTD SVG 1.1//EN"
 "http://www.w3.org/Graphics/SVG/1.1/DTD/svg11.dtd">
<!-- Generated by graphviz version 2.26.3 (20100126.1600)
 -->
<!-- Title: G Pages: 1 -->
<svg width="2048pt" height="930pt"
 viewBox="0.00 0.00 2048.00 930.00" xmlns="http://www.w3.org/2000/svg" xmlns:xlink="http://www.w3.org/1999/xlink">
<g id="graph1" class="graph" transform="scale(1 1) rotate(0) translate(4 926)">
<title>G</title>
<polygon fill="white" stroke="white" points="-4,5 -4,-926 2045,-926 2045,5 -4,5"/>
<!-- Arch -->
<g id="node1" class="node"><title>Arch</title>
<polygon fill="none" stroke="black" points="11.5,-781.5 11.5,-892.5 154.5,-892.5 154.5,-781.5 11.5,-781.5"/>
<text text-anchor="middle" x="83" y="-875.9" font-family="Times Roman,serif" font-size="14.00">Arch</text>
<polyline fill="none" stroke="black" points="11.5,-865.5 154.5,-865.5 "/>
<text text-anchor="middle" x="83" y="-848.9" font-family="Times Roman,serif" font-size="14.00">name: String</text>
<text text-anchor="middle" x="83" y="-829.9" font-family="Times Roman,serif" font-size="14.00">id: Serial</text>
<text text-anchor="middle" x="83" y="-810.9" font-family="Times Roman,serif" font-size="14.00">endian: String</text>
<text text-anchor="middle" x="83" y="-791.9" font-family="Times Roman,serif" font-size="14.00">address_length: Integer</text>
</g>
<!-- Address -->
<g id="node2" class="node"><title>Address</title>
<polygon fill="none" stroke="black" points="164,-499 164,-629 326,-629 326,-499 164,-499"/>
<text text-anchor="middle" x="245" y="-612.4" font-family="Times Roman,serif" font-size="14.00">Address</text>
<polyline fill="none" stroke="black" points="164,-602 326,-602 "/>
<text text-anchor="middle" x="245" y="-585.4" font-family="Times Roman,serif" font-size="14.00">id: Serial</text>
<text text-anchor="middle" x="245" y="-566.4" font-family="Times Roman,serif" font-size="14.00">type: Discriminator</text>
<text text-anchor="middle" x="245" y="-547.4" font-family="Times Roman,serif" font-size="14.00">address: String</text>
<text text-anchor="middle" x="245" y="-528.4" font-family="Times Roman,serif" font-size="14.00">created_at: DateTime</text>
<text text-anchor="middle" x="245" y="-509.4" font-family="Times Roman,serif" font-size="14.00">organization: Organization</text>
</g>
<!-- Target -->
<g id="node27" class="node"><title>Target</title>
<polygon fill="none" stroke="black" points="283,-236 283,-328 417,-328 417,-236 283,-236"/>
<text text-anchor="middle" x="350" y="-311.4" font-family="Times Roman,serif" font-size="14.00">Target</text>
<polyline fill="none" stroke="black" points="283,-301 417,-301 "/>
<text text-anchor="middle" x="350" y="-284.4" font-family="Times Roman,serif" font-size="14.00">id: Serial</text>
<text text-anchor="middle" x="350" y="-265.4" font-family="Times Roman,serif" font-size="14.00">campaign: Campaign</text>
<text text-anchor="middle" x="350" y="-246.4" font-family="Times Roman,serif" font-size="14.00">address: Address</text>
</g>
<!-- Address&#45;&gt;Target -->
<g id="edge2" class="edge"><title>Address&#45;&gt;Target</title>
<path fill="none" stroke="blue" d="M269.221,-498.949C287.371,-450.203 311.949,-384.195 329.212,-337.832"/>
<polygon fill="blue" stroke="blue" points="332.57,-338.843 332.779,-328.25 326.01,-336.4 332.57,-338.843"/>
<text text-anchor="middle" x="320" y="-400.9" font-family="Times Roman,serif" font-size="14.00"> 1:m</text>
</g>
<!-- HostName -->
<g id="node3" class="node"><title>HostName</title>
<polygon fill="none" stroke="black" points="818,-499 818,-629 980,-629 980,-499 818,-499"/>
<text text-anchor="middle" x="899" y="-612.4" font-family="Times Roman,serif" font-size="14.00">HostName</text>
<polyline fill="none" stroke="black" points="818,-602 980,-602 "/>
<text text-anchor="middle" x="899" y="-585.4" font-family="Times Roman,serif" font-size="14.00">id: Serial</text>
<text text-anchor="middle" x="899" y="-566.4" font-family="Times Roman,serif" font-size="14.00">type: Discriminator</text>
<text text-anchor="middle" x="899" y="-547.4" font-family="Times Roman,serif" font-size="14.00">address: String</text>
<text text-anchor="middle" x="899" y="-528.4" font-family="Times Roman,serif" font-size="14.00">created_at: DateTime</text>
<text text-anchor="middle" x="899" y="-509.4" font-family="Times Roman,serif" font-size="14.00">organization: Organization</text>
</g>
<!-- EmailAddress -->
<g id="node11" class="node"><title>EmailAddress</title>
<polygon fill="none" stroke="black" points="1363,-226.5 1363,-337.5 1505,-337.5 1505,-226.5 1363,-226.5"/>
<text text-anchor="middle" x="1434" y="-320.9" font-family="Times Roman,serif" font-size="14.00">EmailAddress</text>
<polyline fill="none" stroke="black" points="1363,-310.5 1505,-310.5 "/>
<text text-anchor="middle" x="1434" y="-293.9" font-family="Times Roman,serif" font-size="14.00">id: Serial</text>
<text text-anchor="middle" x="1434" y="-274.9" font-family="Times Roman,serif" font-size="14.00">created_at: DateTime</text>
<text text-anchor="middle" x="1434" y="-255.9" font-family="Times Roman,serif" font-size="14.00">user_name: UserName</text>
<text text-anchor="middle" x="1434" y="-236.9" font-family="Times Roman,serif" font-size="14.00">host_name: HostName</text>
</g>
<!-- HostName&#45;&gt;EmailAddress -->
<g id="edge8" class="edge"><title>HostName&#45;&gt;EmailAddress</title>
<path fill="none" stroke="blue" d="M925.199,-498.845C943.98,-461.282 973.208,-417.057 1014,-394 1079.87,-356.769 1286.18,-409.541 1354,-376 1368.63,-368.762 1381.64,-357.507 1392.7,-345.266"/>
<polygon fill="blue" stroke="blue" points="1395.47,-347.412 1399.33,-337.545 1390.16,-342.853 1395.47,-347.412"/>
<text text-anchor="middle" x="1027" y="-400.9" font-family="Times Roman,serif" font-size="14.00"> 1:m</text>
</g>
<!-- HostNameIPAddress -->
<g id="node12" class="node"><title>HostNameIPAddress</title>
<polygon fill="none" stroke="black" points="779,-226.5 779,-337.5 921,-337.5 921,-226.5 779,-226.5"/>
<text text-anchor="middle" x="850" y="-320.9" font-family="Times Roman,serif" font-size="14.00">HostNameIPAddress</text>
<polyline fill="none" stroke="black" points="779,-310.5 921,-310.5 "/>
<text text-anchor="middle" x="850" y="-293.9" font-family="Times Roman,serif" font-size="14.00">id: Serial</text>
<text text-anchor="middle" x="850" y="-274.9" font-family="Times Roman,serif" font-size="14.00">created_at: DateTime</text>
<text text-anchor="middle" x="850" y="-255.9" font-family="Times Roman,serif" font-size="14.00">host_name: HostName</text>
<text text-anchor="middle" x="850" y="-236.9" font-family="Times Roman,serif" font-size="14.00">ip_address: IPAddress</text>
</g>
<!-- HostName&#45;&gt;HostNameIPAddress -->
<g id="edge6" class="edge"><title>HostName&#45;&gt;HostNameIPAddress</title>
<path fill="none" stroke="blue" d="M873.462,-498.962C864.51,-472.966 855.557,-442.484 851,-414 847.578,-392.608 846.546,-369.016 846.607,-347.765"/>
<polygon fill="blue" stroke="blue" points="850.109,-347.578 846.719,-337.541 843.11,-347.502 850.109,-347.578"/>
<text text-anchor="middle" x="864" y="-400.9" font-family="Times Roman,serif" font-size="14.00"> 1:m</text>
</g>
<!-- HostName&#45;&gt;Target -->
<g id="edge4" class="edge"><title>HostName&#45;&gt;Target</title>
<path fill="none" stroke="blue" d="M869.986,-498.996C855.376,-473.863 835.133,-447.476 809,-432 737.92,-389.904 702.871,-438.574 624,-414 606.525,-408.555 605.437,-399.564 588,-394 518.985,-371.978 489.548,-410.78 426,-376 408.914,-366.649 394.227,-351.722 382.446,-336.493"/>
<polygon fill="blue" stroke="blue" points="384.958,-334.002 376.203,-328.034 379.326,-338.159 384.958,-334.002"/>
<text text-anchor="middle" x="637" y="-400.9" font-family="Times Roman,serif" font-size="14.00"> 1:m</text>
</g>
<!-- URL -->
<g id="node30" class="node"><title>URL</title>
<polygon fill="none" stroke="black" points="975,-188.5 975,-375.5 1117,-375.5 1117,-188.5 975,-188.5"/>
<text text-anchor="middle" x="1046" y="-358.9" font-family="Times Roman,serif" font-size="14.00">URL</text>
<polyline fill="none" stroke="black" points="975,-348.5 1117,-348.5 "/>
<text text-anchor="middle" x="1046" y="-331.9" font-family="Times Roman,serif" font-size="14.00">id: Serial</text>
<text text-anchor="middle" x="1046" y="-312.9" font-family="Times Roman,serif" font-size="14.00">path: String</text>
<text text-anchor="middle" x="1046" y="-293.9" font-family="Times Roman,serif" font-size="14.00">fragment: String</text>
<text text-anchor="middle" x="1046" y="-274.9" font-family="Times Roman,serif" font-size="14.00">last_scanned_at: Time</text>
<text text-anchor="middle" x="1046" y="-255.9" font-family="Times Roman,serif" font-size="14.00">created_at: DateTime</text>
<text text-anchor="middle" x="1046" y="-236.9" font-family="Times Roman,serif" font-size="14.00">scheme: URLScheme</text>
<text text-anchor="middle" x="1046" y="-217.9" font-family="Times Roman,serif" font-size="14.00">host_name: HostName</text>
<text text-anchor="middle" x="1046" y="-198.9" font-family="Times Roman,serif" font-size="14.00">port: TCPPort</text>
</g>
<!-- HostName&#45;&gt;URL -->
<g id="edge10" class="edge"><title>HostName&#45;&gt;URL</title>
<path fill="none" stroke="blue" d="M884.877,-498.74C881.104,-465.357 882.167,-425.281 900,-394 907.701,-380.492 917.262,-384.917 930,-376 942.194,-367.464 954.754,-358.029 966.902,-348.526"/>
<polygon fill="blue" stroke="blue" points="969.135,-351.222 974.817,-342.28 964.799,-345.727 969.135,-351.222"/>
<text text-anchor="middle" x="913" y="-400.9" font-family="Times Roman,serif" font-size="14.00"> 1:m</text>
</g>
<!-- IPAddress -->
<g id="node4" class="node"><title>IPAddress</title>
<polygon fill="none" stroke="black" points="524,-489.5 524,-638.5 686,-638.5 686,-489.5 524,-489.5"/>
<text text-anchor="middle" x="605" y="-621.9" font-family="Times Roman,serif" font-size="14.00">IPAddress</text>
<polyline fill="none" stroke="black" points="524,-611.5 686,-611.5 "/>
<text text-anchor="middle" x="605" y="-594.9" font-family="Times Roman,serif" font-size="14.00">id: Serial</text>
<text text-anchor="middle" x="605" y="-575.9" font-family="Times Roman,serif" font-size="14.00">type: Discriminator</text>
<text text-anchor="middle" x="605" y="-556.9" font-family="Times Roman,serif" font-size="14.00">address: IPAddress</text>
<text text-anchor="middle" x="605" y="-537.9" font-family="Times Roman,serif" font-size="14.00">created_at: DateTime</text>
<text text-anchor="middle" x="605" y="-518.9" font-family="Times Roman,serif" font-size="14.00">version: Integer</text>
<text text-anchor="middle" x="605" y="-499.9" font-family="Times Roman,serif" font-size="14.00">organization: Organization</text>
</g>
<!-- IPAddress&#45;&gt;HostNameIPAddress -->
<g id="edge16" class="edge"><title>IPAddress&#45;&gt;HostNameIPAddress</title>
<path fill="none" stroke="blue" d="M643.644,-489.487C657.48,-468.525 674.751,-447.3 695,-432 715.184,-416.749 728.406,-428.693 749,-414 774.005,-396.16 795.678,-370.333 812.467,-346.246"/>
<polygon fill="blue" stroke="blue" points="815.471,-348.052 818.199,-337.814 809.682,-344.116 815.471,-348.052"/>
<text text-anchor="middle" x="783" y="-400.9" font-family="Times Roman,serif" font-size="14.00"> 1:m</text>
</g>
<!-- IPAddressMACAddress -->
<g id="node13" class="node"><title>IPAddressMACAddress</title>
<polygon fill="none" stroke="black" points="435,-226.5 435,-337.5 605,-337.5 605,-226.5 435,-226.5"/>
<text text-anchor="middle" x="520" y="-320.9" font-family="Times Roman,serif" font-size="14.00">IPAddressMACAddress</text>
<polyline fill="none" stroke="black" points="435,-310.5 605,-310.5 "/>
<text text-anchor="middle" x="520" y="-293.9" font-family="Times Roman,serif" font-size="14.00">id: Serial</text>
<text text-anchor="middle" x="520" y="-274.9" font-family="Times Roman,serif" font-size="14.00">created_at: DateTime</text>
<text text-anchor="middle" x="520" y="-255.9" font-family="Times Roman,serif" font-size="14.00">ip_address: IPAddress</text>
<text text-anchor="middle" x="520" y="-236.9" font-family="Times Roman,serif" font-size="14.00">mac_address: MACAddress</text>
</g>
<!-- IPAddress&#45;&gt;IPAddressMACAddress -->
<g id="edge14" class="edge"><title>IPAddress&#45;&gt;IPAddressMACAddress</title>
<path fill="none" stroke="blue" d="M582.445,-489.17C569.167,-445.118 552.53,-389.922 539.768,-347.583"/>
<polygon fill="blue" stroke="blue" points="543.097,-346.498 536.86,-337.934 536.394,-348.519 543.097,-346.498"/>
<text text-anchor="middle" x="571" y="-400.9" font-family="Times Roman,serif" font-size="14.00"> 1:m</text>
</g>
<!-- OpenPort -->
<g id="node15" class="node"><title>OpenPort</title>
<polygon fill="none" stroke="black" points="1206.5,-207.5 1206.5,-356.5 1345.5,-356.5 1345.5,-207.5 1206.5,-207.5"/>
<text text-anchor="middle" x="1276" y="-339.9" font-family="Times Roman,serif" font-size="14.00">OpenPort</text>
<polyline fill="none" stroke="black" points="1206.5,-329.5 1345.5,-329.5 "/>
<text text-anchor="middle" x="1276" y="-312.9" font-family="Times Roman,serif" font-size="14.00">id: Serial</text>
<text text-anchor="middle" x="1276" y="-293.9" font-family="Times Roman,serif" font-size="14.00">last_scanned_at: Time</text>
<text text-anchor="middle" x="1276" y="-274.9" font-family="Times Roman,serif" font-size="14.00">created_at: DateTime</text>
<text text-anchor="middle" x="1276" y="-255.9" font-family="Times Roman,serif" font-size="14.00">ip_address: IPAddress</text>
<text text-anchor="middle" x="1276" y="-236.9" font-family="Times Roman,serif" font-size="14.00">port: Port</text>
<text text-anchor="middle" x="1276" y="-217.9" font-family="Times Roman,serif" font-size="14.00">service: Service</text>
</g>
<!-- IPAddress&#45;&gt;OpenPort -->
<g id="edge18" class="edge"><title>IPAddress&#45;&gt;OpenPort</title>
<path fill="none" stroke="blue" d="M639.523,-489.407C653.544,-467.247 671.96,-445.347 695,-432 739.553,-406.19 877.096,-430.108 926,-414 941.93,-408.753 942.148,-399.477 958,-394 1028.98,-369.477 1055.04,-400.566 1126,-376 1150.61,-367.48 1175.37,-354.298 1197.48,-340.476"/>
<polygon fill="blue" stroke="blue" points="1199.59,-343.28 1206.13,-334.948 1195.82,-337.38 1199.59,-343.28"/>
<text text-anchor="middle" x="971" y="-400.9" font-family="Times Roman,serif" font-size="14.00"> 1:m</text>
</g>
<!-- OSGuess -->
<g id="node17" class="node"><title>OSGuess</title>
<polygon fill="none" stroke="black" points="623,-226.5 623,-337.5 761,-337.5 761,-226.5 623,-226.5"/>
<text text-anchor="middle" x="692" y="-320.9" font-family="Times Roman,serif" font-size="14.00">OSGuess</text>
<polyline fill="none" stroke="black" points="623,-310.5 761,-310.5 "/>
<text text-anchor="middle" x="692" y="-293.9" font-family="Times Roman,serif" font-size="14.00">id: Serial</text>
<text text-anchor="middle" x="692" y="-274.9" font-family="Times Roman,serif" font-size="14.00">created_at: DateTime</text>
<text text-anchor="middle" x="692" y="-255.9" font-family="Times Roman,serif" font-size="14.00">ip_address: IPAddress</text>
<text text-anchor="middle" x="692" y="-236.9" font-family="Times Roman,serif" font-size="14.00">os: OS</text>
</g>
<!-- IPAddress&#45;&gt;OSGuess -->
<g id="edge20" class="edge"><title>IPAddress&#45;&gt;OSGuess</title>
<path fill="none" stroke="blue" d="M628.086,-489.17C641.676,-445.118 658.705,-389.922 671.767,-347.583"/>
<polygon fill="blue" stroke="blue" points="675.14,-348.521 674.744,-337.934 668.451,-346.458 675.14,-348.521"/>
<text text-anchor="middle" x="670" y="-400.9" font-family="Times Roman,serif" font-size="14.00"> 1:m</text>
</g>
<!-- IPAddress&#45;&gt;Target -->
<g id="edge12" class="edge"><title>IPAddress&#45;&gt;Target</title>
<path fill="none" stroke="blue" d="M568.947,-489.114C549.312,-455.556 522.025,-418.178 488,-394 464.61,-377.38 449.895,-391.886 426,-376 410.37,-365.609 396.384,-351.005 384.802,-336.4"/>
<polygon fill="blue" stroke="blue" points="387.474,-334.132 378.62,-328.313 381.913,-338.383 387.474,-334.132"/>
<text text-anchor="middle" x="523" y="-400.9" font-family="Times Roman,serif" font-size="14.00"> 1:m</text>
</g>
<!-- MACAddress -->
<g id="node5" class="node"><title>MACAddress</title>
<polygon fill="none" stroke="black" points="344,-499 344,-629 506,-629 506,-499 344,-499"/>
<text text-anchor="middle" x="425" y="-612.4" font-family="Times Roman,serif" font-size="14.00">MACAddress</text>
<polyline fill="none" stroke="black" points="344,-602 506,-602 "/>
<text text-anchor="middle" x="425" y="-585.4" font-family="Times Roman,serif" font-size="14.00">id: Serial</text>
<text text-anchor="middle" x="425" y="-566.4" font-family="Times Roman,serif" font-size="14.00">type: Discriminator</text>
<text text-anchor="middle" x="425" y="-547.4" font-family="Times Roman,serif" font-size="14.00">address: String</text>
<text text-anchor="middle" x="425" y="-528.4" font-family="Times Roman,serif" font-size="14.00">created_at: DateTime</text>
<text text-anchor="middle" x="425" y="-509.4" font-family="Times Roman,serif" font-size="14.00">organization: Organization</text>
</g>
<!-- MACAddress&#45;&gt;IPAddressMACAddress -->
<g id="edge24" class="edge"><title>MACAddress&#45;&gt;IPAddressMACAddress</title>
<path fill="none" stroke="blue" d="M435.048,-498.695C441.03,-466.595 449.859,-427.671 462,-394 467.659,-378.306 475.087,-362.034 482.729,-346.917"/>
<polygon fill="blue" stroke="blue" points="486.026,-348.161 487.501,-337.67 479.805,-344.951 486.026,-348.161"/>
<text text-anchor="middle" x="475" y="-400.9" font-family="Times Roman,serif" font-size="14.00"> 1:m</text>
</g>
<!-- MACAddress&#45;&gt;Target -->
<g id="edge22" class="edge"><title>MACAddress&#45;&gt;Target</title>
<path fill="none" stroke="blue" d="M407.699,-498.949C394.762,-450.305 377.253,-384.471 364.926,-338.123"/>
<polygon fill="blue" stroke="blue" points="368.253,-337.015 362.301,-328.25 361.488,-338.814 368.253,-337.015"/>
<text text-anchor="middle" x="397" y="-400.9" font-family="Times Roman,serif" font-size="14.00"> 1:m</text>
</g>
<!-- Author -->
<g id="node6" class="node"><title>Author</title>
<polygon fill="none" stroke="black" points="1506.5,-753 1506.5,-921 1631.5,-921 1631.5,-753 1506.5,-753"/>
<text text-anchor="middle" x="1569" y="-904.4" font-family="Times Roman,serif" font-size="14.00">Author</text>
<polyline fill="none" stroke="black" points="1506.5,-894 1631.5,-894 "/>
<text text-anchor="middle" x="1569" y="-877.4" font-family="Times Roman,serif" font-size="14.00">name: String</text>
<text text-anchor="middle" x="1569" y="-858.4" font-family="Times Roman,serif" font-size="14.00">id: Serial</text>
<text text-anchor="middle" x="1569" y="-839.4" font-family="Times Roman,serif" font-size="14.00">organization: String</text>
<text text-anchor="middle" x="1569" y="-820.4" font-family="Times Roman,serif" font-size="14.00">pgp_signature: Text</text>
<text text-anchor="middle" x="1569" y="-801.4" font-family="Times Roman,serif" font-size="14.00">email: String</text>
<text text-anchor="middle" x="1569" y="-782.4" font-family="Times Roman,serif" font-size="14.00">site: String</text>
<text text-anchor="middle" x="1569" y="-763.4" font-family="Times Roman,serif" font-size="14.00">biography: Text</text>
</g>
<!-- Campaign -->
<g id="node7" class="node"><title>Campaign</title>
<polygon fill="none" stroke="black" points="-0.5,-518 -0.5,-610 146.5,-610 146.5,-518 -0.5,-518"/>
<text text-anchor="middle" x="73" y="-593.4" font-family="Times Roman,serif" font-size="14.00">Campaign</text>
<polyline fill="none" stroke="black" points="-0.5,-583 146.5,-583 "/>
<text text-anchor="middle" x="73" y="-566.4" font-family="Times Roman,serif" font-size="14.00">name: String</text>
<text text-anchor="middle" x="73" y="-547.4" font-family="Times Roman,serif" font-size="14.00">description: Description</text>
<text text-anchor="middle" x="73" y="-528.4" font-family="Times Roman,serif" font-size="14.00">id: Serial</text>
</g>
<!-- Campaign&#45;&gt;Target -->
<g id="edge26" class="edge"><title>Campaign&#45;&gt;Target</title>
<path fill="none" stroke="blue" d="M96.2792,-517.827C111.01,-491.122 131.649,-457.806 155,-432 189.901,-393.428 235.729,-357.608 274.187,-330.65"/>
<polygon fill="blue" stroke="blue" points="276.558,-333.265 282.778,-324.689 272.567,-327.514 276.558,-333.265"/>
<text text-anchor="middle" x="207" y="-400.9" font-family="Times Roman,serif" font-size="14.00"> 1:m</text>
</g>
<!-- Credential -->
<g id="node8" class="node"><title>Credential</title>
<polygon fill="none" stroke="black" points="1587,-236 1587,-328 1729,-328 1729,-236 1587,-236"/>
<text text-anchor="middle" x="1658" y="-311.4" font-family="Times Roman,serif" font-size="14.00">Credential</text>
<polyline fill="none" stroke="black" points="1587,-301 1729,-301 "/>
<text text-anchor="middle" x="1658" y="-284.4" font-family="Times Roman,serif" font-size="14.00">id: Serial</text>
<text text-anchor="middle" x="1658" y="-265.4" font-family="Times Roman,serif" font-size="14.00">password: Password</text>
<text text-anchor="middle" x="1658" y="-246.4" font-family="Times Roman,serif" font-size="14.00">user_name: UserName</text>
</g>
<!-- ServiceCredential -->
<g id="node9" class="node"><title>ServiceCredential</title>
<polygon fill="none" stroke="black" points="1248,-10.5 1248,-121.5 1390,-121.5 1390,-10.5 1248,-10.5"/>
<text text-anchor="middle" x="1319" y="-104.9" font-family="Times Roman,serif" font-size="14.00">ServiceCredential</text>
<polyline fill="none" stroke="black" points="1248,-94.5 1390,-94.5 "/>
<text text-anchor="middle" x="1319" y="-77.9" font-family="Times Roman,serif" font-size="14.00">id: Serial</text>
<text text-anchor="middle" x="1319" y="-58.9" font-family="Times Roman,serif" font-size="14.00">password: Password</text>
<text text-anchor="middle" x="1319" y="-39.9" font-family="Times Roman,serif" font-size="14.00">user_name: UserName</text>
<text text-anchor="middle" x="1319" y="-20.9" font-family="Times Roman,serif" font-size="14.00">open_port: OpenPort</text>
</g>
<!-- WebCredential -->
<g id="node10" class="node"><title>WebCredential</title>
<polygon fill="none" stroke="black" points="1051.5,-1 1051.5,-131 1230.5,-131 1230.5,-1 1051.5,-1"/>
<text text-anchor="middle" x="1141" y="-114.4" font-family="Times Roman,serif" font-size="14.00">WebCredential</text>
<polyline fill="none" stroke="black" points="1051.5,-104 1230.5,-104 "/>
<text text-anchor="middle" x="1141" y="-87.4" font-family="Times Roman,serif" font-size="14.00">id: Serial</text>
<text text-anchor="middle" x="1141" y="-68.4" font-family="Times Roman,serif" font-size="14.00">password: Password</text>
<text text-anchor="middle" x="1141" y="-49.4" font-family="Times Roman,serif" font-size="14.00">user_name: UserName</text>
<text text-anchor="middle" x="1141" y="-30.4" font-family="Times Roman,serif" font-size="14.00">email_address: EmailAddress</text>
<text text-anchor="middle" x="1141" y="-11.4" font-family="Times Roman,serif" font-size="14.00">url: URL</text>
</g>
<!-- EmailAddress&#45;&gt;WebCredential -->
<g id="edge28" class="edge"><title>EmailAddress&#45;&gt;WebCredential</title>
<path fill="none" stroke="blue" d="M1403.93,-226.259C1386.46,-199.124 1361.96,-168.454 1332,-150 1298.67,-129.474 1280.56,-145.455 1240.29,-131.953"/>
<polygon fill="blue" stroke="blue" points="1241.35,-128.612 1230.75,-128.356 1238.87,-135.161 1241.35,-128.612"/>
<text text-anchor="middle" x="1371" y="-156.9" font-family="Times Roman,serif" font-size="14.00"> 1:m</text>
</g>
<!-- License -->
<g id="node14" class="node"><title>License</title>
<polygon fill="none" stroke="black" points="1808.5,-781.5 1808.5,-892.5 1917.5,-892.5 1917.5,-781.5 1808.5,-781.5"/>
<text text-anchor="middle" x="1863" y="-875.9" font-family="Times Roman,serif" font-size="14.00">License</text>
<polyline fill="none" stroke="black" points="1808.5,-865.5 1917.5,-865.5 "/>
<text text-anchor="middle" x="1863" y="-848.9" font-family="Times Roman,serif" font-size="14.00">name: String</text>
<text text-anchor="middle" x="1863" y="-829.9" font-family="Times Roman,serif" font-size="14.00">id: Serial</text>
<text text-anchor="middle" x="1863" y="-810.9" font-family="Times Roman,serif" font-size="14.00">description: Text</text>
<text text-anchor="middle" x="1863" y="-791.9" font-family="Times Roman,serif" font-size="14.00">url: String</text>
</g>
<!-- Repository -->
<g id="node20" class="node"><title>Repository</title>
<polygon fill="none" stroke="black" points="1805.5,-432.5 1805.5,-695.5 1920.5,-695.5 1920.5,-432.5 1805.5,-432.5"/>
<text text-anchor="middle" x="1863" y="-678.9" font-family="Times Roman,serif" font-size="14.00">Repository</text>
<polyline fill="none" stroke="black" points="1805.5,-668.5 1920.5,-668.5 "/>
<text text-anchor="middle" x="1863" y="-651.9" font-family="Times Roman,serif" font-size="14.00">id: Serial</text>
<text text-anchor="middle" x="1863" y="-632.9" font-family="Times Roman,serif" font-size="14.00">scm: String</text>
<text text-anchor="middle" x="1863" y="-613.9" font-family="Times Roman,serif" font-size="14.00">path: FilePath</text>
<text text-anchor="middle" x="1863" y="-594.9" font-family="Times Roman,serif" font-size="14.00">uri: URI</text>
<text text-anchor="middle" x="1863" y="-575.9" font-family="Times Roman,serif" font-size="14.00">installed: Boolean</text>
<text text-anchor="middle" x="1863" y="-556.9" font-family="Times Roman,serif" font-size="14.00">name: String</text>
<text text-anchor="middle" x="1863" y="-537.9" font-family="Times Roman,serif" font-size="14.00">domain: String</text>
<text text-anchor="middle" x="1863" y="-518.9" font-family="Times Roman,serif" font-size="14.00">title: Text</text>
<text text-anchor="middle" x="1863" y="-499.9" font-family="Times Roman,serif" font-size="14.00">source: URI</text>
<text text-anchor="middle" x="1863" y="-480.9" font-family="Times Roman,serif" font-size="14.00">website: URI</text>
<text text-anchor="middle" x="1863" y="-461.9" font-family="Times Roman,serif" font-size="14.00">description: Text</text>
<text text-anchor="middle" x="1863" y="-442.9" font-family="Times Roman,serif" font-size="14.00">license: License</text>
</g>
<!-- License&#45;&gt;Repository -->
<g id="edge30" class="edge"><title>License&#45;&gt;Repository</title>
<path fill="none" stroke="blue" d="M1863,-781.425C1863,-759.307 1863,-732.752 1863,-705.917"/>
<polygon fill="blue" stroke="blue" points="1866.5,-705.627 1863,-695.627 1859.5,-705.627 1866.5,-705.627"/>
<text text-anchor="middle" x="1876" y="-720.9" font-family="Times Roman,serif" font-size="14.00"> 1:m</text>
</g>
<!-- OpenPort&#45;&gt;ServiceCredential -->
<g id="edge32" class="edge"><title>OpenPort&#45;&gt;ServiceCredential</title>
<path fill="none" stroke="blue" d="M1290.86,-207.363C1295.77,-182.715 1301.18,-155.497 1305.94,-131.579"/>
<polygon fill="blue" stroke="blue" points="1309.42,-132.039 1307.94,-121.548 1302.56,-130.672 1309.42,-132.039"/>
<text text-anchor="middle" x="1315" y="-156.9" font-family="Times Roman,serif" font-size="14.00"> 1:m</text>
</g>
<!-- Organization -->
<g id="node16" class="node"><title>Organization</title>
<polygon fill="none" stroke="black" points="171.5,-781.5 171.5,-892.5 318.5,-892.5 318.5,-781.5 171.5,-781.5"/>
<text text-anchor="middle" x="245" y="-875.9" font-family="Times Roman,serif" font-size="14.00">Organization</text>
<polyline fill="none" stroke="black" points="171.5,-865.5 318.5,-865.5 "/>
<text text-anchor="middle" x="245" y="-848.9" font-family="Times Roman,serif" font-size="14.00">name: String</text>
<text text-anchor="middle" x="245" y="-829.9" font-family="Times Roman,serif" font-size="14.00">description: Description</text>
<text text-anchor="middle" x="245" y="-810.9" font-family="Times Roman,serif" font-size="14.00">id: Serial</text>
<text text-anchor="middle" x="245" y="-791.9" font-family="Times Roman,serif" font-size="14.00">created_at: DateTime</text>
</g>
<!-- Organization&#45;&gt;Address -->
<g id="edge34" class="edge"><title>Organization&#45;&gt;Address</title>
<path fill="none" stroke="blue" d="M245,-781.425C245,-740.408 245,-684.132 245,-639.11"/>
<polygon fill="blue" stroke="blue" points="248.5,-639.1 245,-629.1 241.5,-639.1 248.5,-639.1"/>
<text text-anchor="middle" x="258" y="-720.9" font-family="Times Roman,serif" font-size="14.00"> 1:m</text>
</g>
<!-- OS -->
<g id="node18" class="node"><title>OS</title>
<polygon fill="none" stroke="black" points="703.5,-518 703.5,-610 800.5,-610 800.5,-518 703.5,-518"/>
<text text-anchor="middle" x="752" y="-593.4" font-family="Times Roman,serif" font-size="14.00">OS</text>
<polyline fill="none" stroke="black" points="703.5,-583 800.5,-583 "/>
<text text-anchor="middle" x="752" y="-566.4" font-family="Times Roman,serif" font-size="14.00">name: String</text>
<text text-anchor="middle" x="752" y="-547.4" font-family="Times Roman,serif" font-size="14.00">id: Serial</text>
<text text-anchor="middle" x="752" y="-528.4" font-family="Times Roman,serif" font-size="14.00">version: String</text>
</g>
<!-- OS&#45;&gt;OSGuess -->
<g id="edge36" class="edge"><title>OS&#45;&gt;OSGuess</title>
<path fill="none" stroke="blue" d="M742.159,-517.749C732.305,-471.436 717.051,-399.738 705.95,-347.567"/>
<polygon fill="blue" stroke="blue" points="709.363,-346.788 703.859,-337.736 702.516,-348.245 709.363,-346.788"/>
<text text-anchor="middle" x="732" y="-400.9" font-family="Times Roman,serif" font-size="14.00"> 1:m</text>
</g>
<!-- CachedFile -->
<g id="node19" class="node"><title>CachedFile</title>
<polygon fill="none" stroke="black" points="1794,-217 1794,-347 1932,-347 1932,-217 1794,-217"/>
<text text-anchor="middle" x="1863" y="-330.4" font-family="Times Roman,serif" font-size="14.00">CachedFile</text>
<polyline fill="none" stroke="black" points="1794,-320 1932,-320 "/>
<text text-anchor="middle" x="1863" y="-303.4" font-family="Times Roman,serif" font-size="14.00">id: Serial</text>
<text text-anchor="middle" x="1863" y="-284.4" font-family="Times Roman,serif" font-size="14.00">path: FilePath</text>
<text text-anchor="middle" x="1863" y="-265.4" font-family="Times Roman,serif" font-size="14.00">timestamp: Time</text>
<text text-anchor="middle" x="1863" y="-246.4" font-family="Times Roman,serif" font-size="14.00">model_name: String</text>
<text text-anchor="middle" x="1863" y="-227.4" font-family="Times Roman,serif" font-size="14.00">repository: Repository</text>
</g>
<!-- Repository&#45;&gt;CachedFile -->
<g id="edge38" class="edge"><title>Repository&#45;&gt;CachedFile</title>
<path fill="none" stroke="blue" d="M1863,-432.495C1863,-406.728 1863,-380.537 1863,-357.383"/>
<polygon fill="blue" stroke="blue" points="1866.5,-357.315 1863,-347.315 1859.5,-357.315 1866.5,-357.315"/>
<text text-anchor="middle" x="1876" y="-400.9" font-family="Times Roman,serif" font-size="14.00"> 1:m</text>
</g>
<!-- Port -->
<g id="node21" class="node"><title>Port</title>
<polygon fill="none" stroke="black" points="1344,-791 1344,-883 1448,-883 1448,-791 1344,-791"/>
<text text-anchor="middle" x="1396" y="-866.4" font-family="Times Roman,serif" font-size="14.00">Port</text>
<polyline fill="none" stroke="black" points="1344,-856 1448,-856 "/>
<text text-anchor="middle" x="1396" y="-839.4" font-family="Times Roman,serif" font-size="14.00">id: Serial</text>
<text text-anchor="middle" x="1396" y="-820.4" font-family="Times Roman,serif" font-size="14.00">protocol: String</text>
<text text-anchor="middle" x="1396" y="-801.4" font-family="Times Roman,serif" font-size="14.00">number: Integer</text>
</g>
<!-- Port&#45;&gt;OpenPort -->
<g id="edge40" class="edge"><title>Port&#45;&gt;OpenPort</title>
<path fill="none" stroke="blue" d="M1417.45,-790.853C1450.71,-712.01 1504.61,-548.6 1441,-432 1418.98,-391.633 1388.42,-406.495 1354,-376 1349.83,-372.308 1345.7,-368.386 1341.64,-364.318"/>
<polygon fill="blue" stroke="blue" points="1343.89,-361.606 1334.42,-356.857 1338.86,-366.476 1343.89,-361.606"/>
<text text-anchor="middle" x="1484" y="-560.9" font-family="Times Roman,serif" font-size="14.00"> 1:m</text>
</g>
<!-- UDPPort -->
<g id="node23" class="node"><title>UDPPort</title>
<polygon fill="none" stroke="black" points="1224,-518 1224,-610 1328,-610 1328,-518 1224,-518"/>
<text text-anchor="middle" x="1276" y="-593.4" font-family="Times Roman,serif" font-size="14.00">UDPPort</text>
<polyline fill="none" stroke="black" points="1224,-583 1328,-583 "/>
<text text-anchor="middle" x="1276" y="-566.4" font-family="Times Roman,serif" font-size="14.00">id: Serial</text>
<text text-anchor="middle" x="1276" y="-547.4" font-family="Times Roman,serif" font-size="14.00">protocol: String</text>
<text text-anchor="middle" x="1276" y="-528.4" font-family="Times Roman,serif" font-size="14.00">number: Integer</text>
</g>
<!-- Port&#45;&gt;UDPPort -->
<g id="edge64" class="edge"><title>Port&#45;&gt;UDPPort</title>
<path fill="none" stroke="cyan" d="M1375.78,-790.998C1355.01,-743.745 1322.66,-670.158 1300.46,-619.655"/>
<polygon fill="cyan" stroke="cyan" points="1303.53,-617.937 1296.3,-610.191 1297.12,-620.754 1303.53,-617.937"/>
</g>
<!-- TCPPort -->
<g id="node22" class="node"><title>TCPPort</title>
<polygon fill="none" stroke="black" points="1102,-518 1102,-610 1206,-610 1206,-518 1102,-518"/>
<text text-anchor="middle" x="1154" y="-593.4" font-family="Times Roman,serif" font-size="14.00">TCPPort</text>
<polyline fill="none" stroke="black" points="1102,-583 1206,-583 "/>
<text text-anchor="middle" x="1154" y="-566.4" font-family="Times Roman,serif" font-size="14.00">id: Serial</text>
<text text-anchor="middle" x="1154" y="-547.4" font-family="Times Roman,serif" font-size="14.00">protocol: String</text>
<text text-anchor="middle" x="1154" y="-528.4" font-family="Times Roman,serif" font-size="14.00">number: Integer</text>
</g>
<!-- TCPPort&#45;&gt;OpenPort -->
<g id="edge42" class="edge"><title>TCPPort&#45;&gt;OpenPort</title>
<path fill="none" stroke="blue" d="M1174.01,-517.749C1191.76,-476.72 1218.13,-415.77 1239.61,-366.122"/>
<polygon fill="blue" stroke="blue" points="1242.94,-367.24 1243.7,-356.672 1236.51,-364.46 1242.94,-367.24"/>
<text text-anchor="middle" x="1239" y="-400.9" font-family="Times Roman,serif" font-size="14.00"> 1:m</text>
</g>
<!-- TCPPort&#45;&gt;URL -->
<g id="edge44" class="edge"><title>TCPPort&#45;&gt;URL</title>
<path fill="none" stroke="blue" d="M1136.29,-517.749C1122.54,-481.863 1102.96,-430.737 1085.55,-385.263"/>
<polygon fill="blue" stroke="blue" points="1088.71,-383.739 1081.87,-375.652 1082.17,-386.243 1088.71,-383.739"/>
<text text-anchor="middle" x="1107" y="-400.9" font-family="Times Roman,serif" font-size="14.00"> 1:m</text>
</g>
<!-- UDPPort&#45;&gt;OpenPort -->
<g id="edge46" class="edge"><title>UDPPort&#45;&gt;OpenPort</title>
<path fill="none" stroke="blue" d="M1276,-517.749C1276,-476.891 1276,-416.276 1276,-366.742"/>
<polygon fill="blue" stroke="blue" points="1279.5,-366.672 1276,-356.672 1272.5,-366.672 1279.5,-366.672"/>
<text text-anchor="middle" x="1289" y="-400.9" font-family="Times Roman,serif" font-size="14.00"> 1:m</text>
</g>
<!-- Service -->
<g id="node24" class="node"><title>Service</title>
<polygon fill="none" stroke="black" points="1345.5,-527.5 1345.5,-600.5 1432.5,-600.5 1432.5,-527.5 1345.5,-527.5"/>
<text text-anchor="middle" x="1389" y="-583.9" font-family="Times Roman,serif" font-size="14.00">Service</text>
<polyline fill="none" stroke="black" points="1345.5,-573.5 1432.5,-573.5 "/>
<text text-anchor="middle" x="1389" y="-556.9" font-family="Times Roman,serif" font-size="14.00">name: String</text>
<text text-anchor="middle" x="1389" y="-537.9" font-family="Times Roman,serif" font-size="14.00">id: Serial</text>
</g>
<!-- Service&#45;&gt;OpenPort -->
<g id="edge48" class="edge"><title>Service&#45;&gt;OpenPort</title>
<path fill="none" stroke="blue" d="M1374.65,-527.257C1364.27,-500.75 1349.86,-464.128 1337,-432 1328.45,-410.629 1319.12,-387.583 1310.4,-366.12"/>
<polygon fill="blue" stroke="blue" points="1313.58,-364.651 1306.57,-356.707 1307.09,-367.288 1313.58,-364.651"/>
<text text-anchor="middle" x="1342" y="-400.9" font-family="Times Roman,serif" font-size="14.00"> 1:m</text>
</g>
<!-- Software -->
<g id="node25" class="node"><title>Software</title>
<polygon fill="none" stroke="black" points="1938,-508.5 1938,-619.5 2040,-619.5 2040,-508.5 1938,-508.5"/>
<text text-anchor="middle" x="1989" y="-602.9" font-family="Times Roman,serif" font-size="14.00">Software</text>
<polyline fill="none" stroke="black" points="1938,-592.5 2040,-592.5 "/>
<text text-anchor="middle" x="1989" y="-575.9" font-family="Times Roman,serif" font-size="14.00">id: Serial</text>
<text text-anchor="middle" x="1989" y="-556.9" font-family="Times Roman,serif" font-size="14.00">name: String</text>
<text text-anchor="middle" x="1989" y="-537.9" font-family="Times Roman,serif" font-size="14.00">version: String</text>
<text text-anchor="middle" x="1989" y="-518.9" font-family="Times Roman,serif" font-size="14.00">vendor: Vendor</text>
</g>
<!-- Vendor -->
<g id="node26" class="node"><title>Vendor</title>
<polygon fill="none" stroke="black" points="1945.5,-800.5 1945.5,-873.5 2032.5,-873.5 2032.5,-800.5 1945.5,-800.5"/>
<text text-anchor="middle" x="1989" y="-856.9" font-family="Times Roman,serif" font-size="14.00">Vendor</text>
<polyline fill="none" stroke="black" points="1945.5,-846.5 2032.5,-846.5 "/>
<text text-anchor="middle" x="1989" y="-829.9" font-family="Times Roman,serif" font-size="14.00">name: String</text>
<text text-anchor="middle" x="1989" y="-810.9" font-family="Times Roman,serif" font-size="14.00">id: Serial</text>
</g>
<!-- Vendor&#45;&gt;Software -->
<g id="edge50" class="edge"><title>Vendor&#45;&gt;Software</title>
<path fill="none" stroke="blue" d="M1989,-800.465C1989,-756.923 1989,-683.34 1989,-629.8"/>
<polygon fill="blue" stroke="blue" points="1992.5,-629.712 1989,-619.712 1985.5,-629.712 1992.5,-629.712"/>
<text text-anchor="middle" x="2002" y="-720.9" font-family="Times Roman,serif" font-size="14.00"> 1:m</text>
</g>
<!-- URLScheme -->
<g id="node28" class="node"><title>URLScheme</title>
<polygon fill="none" stroke="black" points="997.5,-527.5 997.5,-600.5 1084.5,-600.5 1084.5,-527.5 997.5,-527.5"/>
<text text-anchor="middle" x="1041" y="-583.9" font-family="Times Roman,serif" font-size="14.00">URLScheme</text>
<polyline fill="none" stroke="black" points="997.5,-573.5 1084.5,-573.5 "/>
<text text-anchor="middle" x="1041" y="-556.9" font-family="Times Roman,serif" font-size="14.00">name: String</text>
<text text-anchor="middle" x="1041" y="-537.9" font-family="Times Roman,serif" font-size="14.00">id: Serial</text>
</g>
<!-- URLScheme&#45;&gt;URL -->
<g id="edge52" class="edge"><title>URLScheme&#45;&gt;URL</title>
<path fill="none" stroke="blue" d="M1041.65,-527.423C1042.28,-491.661 1043.28,-435.51 1044.16,-385.937"/>
<polygon fill="blue" stroke="blue" points="1047.66,-385.855 1044.34,-375.794 1040.66,-385.731 1047.66,-385.855"/>
<text text-anchor="middle" x="1057" y="-400.9" font-family="Times Roman,serif" font-size="14.00"> 1:m</text>
</g>
<!-- URLQueryParam -->
<g id="node29" class="node"><title>URLQueryParam</title>
<polygon fill="none" stroke="black" points="921.5,-10.5 921.5,-121.5 1034.5,-121.5 1034.5,-10.5 921.5,-10.5"/>
<text text-anchor="middle" x="978" y="-104.9" font-family="Times Roman,serif" font-size="14.00">URLQueryParam</text>
<polyline fill="none" stroke="black" points="921.5,-94.5 1034.5,-94.5 "/>
<text text-anchor="middle" x="978" y="-77.9" font-family="Times Roman,serif" font-size="14.00">name: String</text>
<text text-anchor="middle" x="978" y="-58.9" font-family="Times Roman,serif" font-size="14.00">id: Serial</text>
<text text-anchor="middle" x="978" y="-39.9" font-family="Times Roman,serif" font-size="14.00">value: Text</text>
<text text-anchor="middle" x="978" y="-20.9" font-family="Times Roman,serif" font-size="14.00">url: URL</text>
</g>
<!-- URL&#45;&gt;WebCredential -->
<g id="edge56" class="edge"><title>URL&#45;&gt;WebCredential</title>
<path fill="none" stroke="blue" d="M1087.25,-188.202C1094.26,-172.268 1101.45,-155.914 1108.21,-140.561"/>
<polygon fill="blue" stroke="blue" points="1111.53,-141.706 1112.35,-131.143 1105.12,-138.888 1111.53,-141.706"/>
<text text-anchor="middle" x="1116" y="-156.9" font-family="Times Roman,serif" font-size="14.00"> 1:m</text>
</g>
<!-- URL&#45;&gt;URLQueryParam -->
<g id="edge54" class="edge"><title>URL&#45;&gt;URLQueryParam</title>
<path fill="none" stroke="blue" d="M1016.47,-188.202C1010.45,-169.085 1004.24,-149.365 998.618,-131.492"/>
<polygon fill="blue" stroke="blue" points="1001.9,-130.256 995.557,-121.769 995.221,-132.358 1001.9,-130.256"/>
<text text-anchor="middle" x="1023" y="-156.9" font-family="Times Roman,serif" font-size="14.00"> 1:m</text>
</g>
<!-- UserName -->
<g id="node31" class="node"><title>UserName</title>
<polygon fill="none" stroke="black" points="1512,-518 1512,-610 1646,-610 1646,-518 1512,-518"/>
<text text-anchor="middle" x="1579" y="-593.4" font-family="Times Roman,serif" font-size="14.00">UserName</text>
<polyline fill="none" stroke="black" points="1512,-583 1646,-583 "/>
<text text-anchor="middle" x="1579" y="-566.4" font-family="Times Roman,serif" font-size="14.00">name: String</text>
<text text-anchor="middle" x="1579" y="-547.4" font-family="Times Roman,serif" font-size="14.00">id: Serial</text>
<text text-anchor="middle" x="1579" y="-528.4" font-family="Times Roman,serif" font-size="14.00">created_at: DateTime</text>
</g>
<!-- UserName&#45;&gt;Credential -->
<g id="edge58" class="edge"><title>UserName&#45;&gt;Credential</title>
<path fill="none" stroke="blue" d="M1591.96,-517.749C1605.73,-468.573 1627.53,-390.778 1642.28,-338.128"/>
<polygon fill="blue" stroke="blue" points="1645.71,-338.85 1645.04,-328.276 1638.97,-336.961 1645.71,-338.85"/>
<text text-anchor="middle" x="1639" y="-400.9" font-family="Times Roman,serif" font-size="14.00"> 1:m</text>
</g>
<!-- UserName&#45;&gt;EmailAddress -->
<g id="edge60" class="edge"><title>UserName&#45;&gt;EmailAddress</title>
<path fill="none" stroke="blue" d="M1555.22,-517.749C1531.31,-471.243 1494.23,-399.141 1467.38,-346.917"/>
<polygon fill="blue" stroke="blue" points="1470.34,-345.028 1462.66,-337.736 1464.12,-348.229 1470.34,-345.028"/>
<text text-anchor="middle" x="1511" y="-400.9" font-family="Times Roman,serif" font-size="14.00"> 1:m</text>
</g>
<!-- Password -->
<g id="node32" class="node"><title>Password</title>
<polygon fill="none" stroke="black" points="1664,-527.5 1664,-600.5 1774,-600.5 1774,-527.5 1664,-527.5"/>
<text text-anchor="middle" x="1719" y="-583.9" font-family="Times Roman,serif" font-size="14.00">Password</text>
<polyline fill="none" stroke="black" points="1664,-573.5 1774,-573.5 "/>
<text text-anchor="middle" x="1719" y="-556.9" font-family="Times Roman,serif" font-size="14.00">id: Serial</text>
<text text-anchor="middle" x="1719" y="-537.9" font-family="Times Roman,serif" font-size="14.00">clear_text: String</text>
</g>
<!-- Password&#45;&gt;Credential -->
<g id="edge62" class="edge"><title>Password&#45;&gt;Credential</title>
<path fill="none" stroke="blue" d="M1711.09,-527.423C1700.69,-479.342 1682.31,-394.406 1670.15,-338.154"/>
<polygon fill="blue" stroke="blue" points="1673.56,-337.38 1668.03,-328.346 1666.72,-338.86 1673.56,-337.38"/>
<text text-anchor="middle" x="1698" y="-400.9" font-family="Times Roman,serif" font-size="14.00"> 1:m</text>
</g>
</g>
</svg>
