<?xml version="1.0" encoding="UTF-8" standalone="no"?>
<!DOCTYPE svg PUBLIC "-//W3C//DTD SVG 1.1//EN"
 "http://www.w3.org/Graphics/SVG/1.1/DTD/svg11.dtd">
<!-- Generated by graphviz version 2.28.0 (20111211.2114)
 -->
<!-- Title: G Pages: 1 -->
<svg width="2314pt" height="774pt"
 viewBox="0.00 0.00 2314.00 774.00" xmlns="http://www.w3.org/2000/svg" xmlns:xlink="http://www.w3.org/1999/xlink">
<g id="graph1" class="graph" transform="scale(1 1) rotate(0) translate(4 770)">
<title>G</title>
<polygon fill="white" stroke="white" points="-4,5 -4,-770 2311,-770 2311,5 -4,5"/>
<!-- Arch -->
<g id="node1" class="node"><title>Arch</title>
<polygon fill="none" stroke="black" points="-0.5,-651.5 -0.5,-742.5 142.5,-742.5 142.5,-651.5 -0.5,-651.5"/>
<text text-anchor="middle" x="71" y="-727.3" font-family="Times,serif" font-size="14.00">Arch</text>
<polyline fill="none" stroke="black" points="-0.5,-719.5 142.5,-719.5 "/>
<text text-anchor="middle" x="71" y="-704.3" font-family="Times,serif" font-size="14.00">name: String</text>
<text text-anchor="middle" x="71" y="-689.3" font-family="Times,serif" font-size="14.00">id: Serial</text>
<text text-anchor="middle" x="71" y="-674.3" font-family="Times,serif" font-size="14.00">endian: String</text>
<text text-anchor="middle" x="71" y="-659.3" font-family="Times,serif" font-size="14.00">address_length: Integer</text>
</g>
<!-- Address -->
<g id="node2" class="node"><title>Address</title>
<polygon fill="none" stroke="black" points="153,-417 153,-523 315,-523 315,-417 153,-417"/>
<text text-anchor="middle" x="234" y="-507.8" font-family="Times,serif" font-size="14.00">Address</text>
<polyline fill="none" stroke="black" points="153,-500 315,-500 "/>
<text text-anchor="middle" x="234" y="-484.8" font-family="Times,serif" font-size="14.00">id: Serial</text>
<text text-anchor="middle" x="234" y="-469.8" font-family="Times,serif" font-size="14.00">type: Discriminator</text>
<text text-anchor="middle" x="234" y="-454.8" font-family="Times,serif" font-size="14.00">address: String</text>
<text text-anchor="middle" x="234" y="-439.8" font-family="Times,serif" font-size="14.00">created_at: DateTime</text>
<text text-anchor="middle" x="234" y="-424.8" font-family="Times,serif" font-size="14.00">organization: Organization</text>
</g>
<!-- Target -->
<g id="node7" class="node"><title>Target</title>
<polygon fill="none" stroke="black" points="351,-190.5 351,-281.5 485,-281.5 485,-190.5 351,-190.5"/>
<text text-anchor="middle" x="418" y="-266.3" font-family="Times,serif" font-size="14.00">Target</text>
<polyline fill="none" stroke="black" points="351,-258.5 485,-258.5 "/>
<text text-anchor="middle" x="418" y="-243.3" font-family="Times,serif" font-size="14.00">id: Serial</text>
<text text-anchor="middle" x="418" y="-228.3" font-family="Times,serif" font-size="14.00">created_at: DateTime</text>
<text text-anchor="middle" x="418" y="-213.3" font-family="Times,serif" font-size="14.00">campaign: Campaign</text>
<text text-anchor="middle" x="418" y="-198.3" font-family="Times,serif" font-size="14.00">address: Address</text>
</g>
<!-- Address&#45;&gt;Target -->
<g id="edge2" class="edge"><title>Address&#45;&gt;Target</title>
<path fill="none" stroke="blue" d="M275.293,-416.935C305.365,-379.018 345.948,-327.849 376.148,-289.77"/>
<polygon fill="blue" stroke="blue" points="378.956,-291.862 382.428,-281.852 373.471,-287.512 378.956,-291.862"/>
<text text-anchor="middle" x="356" y="-334.3" font-family="Times,serif" font-size="14.00"> 1:m</text>
</g>
<!-- IPAddress -->
<g id="node3" class="node"><title>IPAddress</title>
<polygon fill="none" stroke="black" points="679,-409.5 679,-530.5 841,-530.5 841,-409.5 679,-409.5"/>
<text text-anchor="middle" x="760" y="-515.3" font-family="Times,serif" font-size="14.00">IPAddress</text>
<polyline fill="none" stroke="black" points="679,-507.5 841,-507.5 "/>
<text text-anchor="middle" x="760" y="-492.3" font-family="Times,serif" font-size="14.00">id: Serial</text>
<text text-anchor="middle" x="760" y="-477.3" font-family="Times,serif" font-size="14.00">type: Discriminator</text>
<text text-anchor="middle" x="760" y="-462.3" font-family="Times,serif" font-size="14.00">address: IPAddress</text>
<text text-anchor="middle" x="760" y="-447.3" font-family="Times,serif" font-size="14.00">created_at: DateTime</text>
<text text-anchor="middle" x="760" y="-432.3" font-family="Times,serif" font-size="14.00">version: Integer</text>
<text text-anchor="middle" x="760" y="-417.3" font-family="Times,serif" font-size="14.00">organization: Organization</text>
</g>
<!-- IPAddress&#45;&gt;Target -->
<g id="edge4" class="edge"><title>IPAddress&#45;&gt;Target</title>
<path fill="none" stroke="blue" d="M721.172,-409.28C707.081,-392.069 689.711,-374.992 670,-364 624.818,-338.803 603.91,-362.856 555,-346 525.656,-335.887 518.828,-330.626 494,-312 484.616,-304.96 475.228,-296.818 466.41,-288.549"/>
<polygon fill="blue" stroke="blue" points="468.793,-285.984 459.151,-281.594 463.951,-291.039 468.793,-285.984"/>
<text text-anchor="middle" x="568" y="-334.3" font-family="Times,serif" font-size="14.00"> 1:m</text>
</g>
<!-- HostNameIPAddress -->
<g id="node14" class="node"><title>HostNameIPAddress</title>
<polygon fill="none" stroke="black" points="847,-190.5 847,-281.5 989,-281.5 989,-190.5 847,-190.5"/>
<text text-anchor="middle" x="918" y="-266.3" font-family="Times,serif" font-size="14.00">HostNameIPAddress</text>
<polyline fill="none" stroke="black" points="847,-258.5 989,-258.5 "/>
<text text-anchor="middle" x="918" y="-243.3" font-family="Times,serif" font-size="14.00">id: Serial</text>
<text text-anchor="middle" x="918" y="-228.3" font-family="Times,serif" font-size="14.00">created_at: DateTime</text>
<text text-anchor="middle" x="918" y="-213.3" font-family="Times,serif" font-size="14.00">host_name: HostName</text>
<text text-anchor="middle" x="918" y="-198.3" font-family="Times,serif" font-size="14.00">ip_address: IPAddress</text>
</g>
<!-- IPAddress&#45;&gt;HostNameIPAddress -->
<g id="edge8" class="edge"><title>IPAddress&#45;&gt;HostNameIPAddress</title>
<path fill="none" stroke="blue" d="M810.198,-409.425C823.035,-394.472 836.911,-378.546 850,-364 857.361,-355.82 860.812,-355.099 867,-346 878.506,-329.082 888.672,-309.157 896.84,-291.001"/>
<polygon fill="blue" stroke="blue" points="900.111,-292.257 900.925,-281.693 893.701,-289.443 900.111,-292.257"/>
<text text-anchor="middle" x="889" y="-334.3" font-family="Times,serif" font-size="14.00"> 1:m</text>
</g>
<!-- IPAddressMACAddress -->
<g id="node15" class="node"><title>IPAddressMACAddress</title>
<polygon fill="none" stroke="black" points="503,-190.5 503,-281.5 673,-281.5 673,-190.5 503,-190.5"/>
<text text-anchor="middle" x="588" y="-266.3" font-family="Times,serif" font-size="14.00">IPAddressMACAddress</text>
<polyline fill="none" stroke="black" points="503,-258.5 673,-258.5 "/>
<text text-anchor="middle" x="588" y="-243.3" font-family="Times,serif" font-size="14.00">id: Serial</text>
<text text-anchor="middle" x="588" y="-228.3" font-family="Times,serif" font-size="14.00">created_at: DateTime</text>
<text text-anchor="middle" x="588" y="-213.3" font-family="Times,serif" font-size="14.00">ip_address: IPAddress</text>
<text text-anchor="middle" x="588" y="-198.3" font-family="Times,serif" font-size="14.00">mac_address: MACAddress</text>
</g>
<!-- IPAddress&#45;&gt;IPAddressMACAddress -->
<g id="edge6" class="edge"><title>IPAddress&#45;&gt;IPAddressMACAddress</title>
<path fill="none" stroke="blue" d="M715.706,-409.254C688.338,-372.339 653.534,-325.395 627.175,-289.84"/>
<polygon fill="blue" stroke="blue" points="629.773,-287.468 621.006,-281.52 624.15,-291.637 629.773,-287.468"/>
<text text-anchor="middle" x="677" y="-334.3" font-family="Times,serif" font-size="14.00"> 1:m</text>
</g>
<!-- OpenPort -->
<g id="node17" class="node"><title>OpenPort</title>
<polygon fill="none" stroke="black" points="1725.5,-175.5 1725.5,-296.5 1864.5,-296.5 1864.5,-175.5 1725.5,-175.5"/>
<text text-anchor="middle" x="1795" y="-281.3" font-family="Times,serif" font-size="14.00">OpenPort</text>
<polyline fill="none" stroke="black" points="1725.5,-273.5 1864.5,-273.5 "/>
<text text-anchor="middle" x="1795" y="-258.3" font-family="Times,serif" font-size="14.00">id: Serial</text>
<text text-anchor="middle" x="1795" y="-243.3" font-family="Times,serif" font-size="14.00">last_scanned_at: Time</text>
<text text-anchor="middle" x="1795" y="-228.3" font-family="Times,serif" font-size="14.00">created_at: DateTime</text>
<text text-anchor="middle" x="1795" y="-213.3" font-family="Times,serif" font-size="14.00">ip_address: IPAddress</text>
<text text-anchor="middle" x="1795" y="-198.3" font-family="Times,serif" font-size="14.00">port: Port</text>
<text text-anchor="middle" x="1795" y="-183.3" font-family="Times,serif" font-size="14.00">service: Service</text>
</g>
<!-- IPAddress&#45;&gt;OpenPort -->
<g id="edge10" class="edge"><title>IPAddress&#45;&gt;OpenPort</title>
<path fill="none" stroke="blue" d="M796.685,-409.369C810.95,-391.492 828.965,-373.996 850,-364 922.078,-329.748 1492.42,-371.628 1568,-346 1579.45,-342.117 1578.97,-334.957 1590,-330 1624.03,-314.702 1637.37,-325.903 1672,-312 1686.9,-306.019 1702.05,-298.323 1716.41,-290.148"/>
<polygon fill="blue" stroke="blue" points="1718.35,-293.065 1725.23,-285.007 1714.83,-287.017 1718.35,-293.065"/>
<text text-anchor="middle" x="1603" y="-334.3" font-family="Times,serif" font-size="14.00"> 1:m</text>
</g>
<!-- OSGuess -->
<g id="node19" class="node"><title>OSGuess</title>
<polygon fill="none" stroke="black" points="691,-190.5 691,-281.5 829,-281.5 829,-190.5 691,-190.5"/>
<text text-anchor="middle" x="760" y="-266.3" font-family="Times,serif" font-size="14.00">OSGuess</text>
<polyline fill="none" stroke="black" points="691,-258.5 829,-258.5 "/>
<text text-anchor="middle" x="760" y="-243.3" font-family="Times,serif" font-size="14.00">id: Serial</text>
<text text-anchor="middle" x="760" y="-228.3" font-family="Times,serif" font-size="14.00">created_at: DateTime</text>
<text text-anchor="middle" x="760" y="-213.3" font-family="Times,serif" font-size="14.00">ip_address: IPAddress</text>
<text text-anchor="middle" x="760" y="-198.3" font-family="Times,serif" font-size="14.00">os: OS</text>
</g>
<!-- IPAddress&#45;&gt;OSGuess -->
<g id="edge12" class="edge"><title>IPAddress&#45;&gt;OSGuess</title>
<path fill="none" stroke="blue" d="M760,-409.254C760,-372.962 760,-326.977 760,-291.65"/>
<polygon fill="blue" stroke="blue" points="763.5,-291.52 760,-281.52 756.5,-291.52 763.5,-291.52"/>
<text text-anchor="middle" x="773" y="-334.3" font-family="Times,serif" font-size="14.00"> 1:m</text>
</g>
<!-- HostName -->
<g id="node4" class="node"><title>HostName</title>
<polygon fill="none" stroke="black" points="983,-417 983,-523 1145,-523 1145,-417 983,-417"/>
<text text-anchor="middle" x="1064" y="-507.8" font-family="Times,serif" font-size="14.00">HostName</text>
<polyline fill="none" stroke="black" points="983,-500 1145,-500 "/>
<text text-anchor="middle" x="1064" y="-484.8" font-family="Times,serif" font-size="14.00">id: Serial</text>
<text text-anchor="middle" x="1064" y="-469.8" font-family="Times,serif" font-size="14.00">type: Discriminator</text>
<text text-anchor="middle" x="1064" y="-454.8" font-family="Times,serif" font-size="14.00">address: String</text>
<text text-anchor="middle" x="1064" y="-439.8" font-family="Times,serif" font-size="14.00">created_at: DateTime</text>
<text text-anchor="middle" x="1064" y="-424.8" font-family="Times,serif" font-size="14.00">organization: Organization</text>
</g>
<!-- HostName&#45;&gt;Target -->
<g id="edge14" class="edge"><title>HostName&#45;&gt;Target</title>
<path fill="none" stroke="blue" d="M1025.4,-416.969C996.845,-383.666 954.585,-344.141 906,-330 818.008,-304.39 578.003,-348.632 494,-312 481.421,-306.514 469.761,-297.929 459.541,-288.496"/>
<polygon fill="blue" stroke="blue" points="461.969,-285.976 452.362,-281.51 457.088,-290.992 461.969,-285.976"/>
<text text-anchor="middle" x="956" y="-334.3" font-family="Times,serif" font-size="14.00"> 1:m</text>
</g>
<!-- EmailAddress -->
<g id="node13" class="node"><title>EmailAddress</title>
<polygon fill="none" stroke="black" points="1007,-190.5 1007,-281.5 1149,-281.5 1149,-190.5 1007,-190.5"/>
<text text-anchor="middle" x="1078" y="-266.3" font-family="Times,serif" font-size="14.00">EmailAddress</text>
<polyline fill="none" stroke="black" points="1007,-258.5 1149,-258.5 "/>
<text text-anchor="middle" x="1078" y="-243.3" font-family="Times,serif" font-size="14.00">id: Serial</text>
<text text-anchor="middle" x="1078" y="-228.3" font-family="Times,serif" font-size="14.00">created_at: DateTime</text>
<text text-anchor="middle" x="1078" y="-213.3" font-family="Times,serif" font-size="14.00">user_name: UserName</text>
<text text-anchor="middle" x="1078" y="-198.3" font-family="Times,serif" font-size="14.00">host_name: HostName</text>
</g>
<!-- HostName&#45;&gt;EmailAddress -->
<g id="edge18" class="edge"><title>HostName&#45;&gt;EmailAddress</title>
<path fill="none" stroke="blue" d="M1067.14,-416.935C1069.38,-379.812 1072.39,-329.984 1074.67,-292.177"/>
<polygon fill="blue" stroke="blue" points="1078.18,-292.045 1075.29,-281.852 1071.2,-291.623 1078.18,-292.045"/>
<text text-anchor="middle" x="1086" y="-334.3" font-family="Times,serif" font-size="14.00"> 1:m</text>
</g>
<!-- HostName&#45;&gt;HostNameIPAddress -->
<g id="edge16" class="edge"><title>HostName&#45;&gt;HostNameIPAddress</title>
<path fill="none" stroke="blue" d="M1043.65,-416.675C1032.19,-389.816 1016.66,-357.128 999,-330 990.005,-316.179 979.091,-302.257 968.227,-289.546"/>
<polygon fill="blue" stroke="blue" points="970.691,-287.046 961.486,-281.799 965.41,-291.641 970.691,-287.046"/>
<text text-anchor="middle" x="1021" y="-334.3" font-family="Times,serif" font-size="14.00"> 1:m</text>
</g>
<!-- URL -->
<g id="node32" class="node"><title>URL</title>
<polygon fill="none" stroke="black" points="1521,-160.5 1521,-311.5 1663,-311.5 1663,-160.5 1521,-160.5"/>
<text text-anchor="middle" x="1592" y="-296.3" font-family="Times,serif" font-size="14.00">URL</text>
<polyline fill="none" stroke="black" points="1521,-288.5 1663,-288.5 "/>
<text text-anchor="middle" x="1592" y="-273.3" font-family="Times,serif" font-size="14.00">id: Serial</text>
<text text-anchor="middle" x="1592" y="-258.3" font-family="Times,serif" font-size="14.00">path: String</text>
<text text-anchor="middle" x="1592" y="-243.3" font-family="Times,serif" font-size="14.00">fragment: String</text>
<text text-anchor="middle" x="1592" y="-228.3" font-family="Times,serif" font-size="14.00">last_scanned_at: Time</text>
<text text-anchor="middle" x="1592" y="-213.3" font-family="Times,serif" font-size="14.00">created_at: DateTime</text>
<text text-anchor="middle" x="1592" y="-198.3" font-family="Times,serif" font-size="14.00">scheme: URLScheme</text>
<text text-anchor="middle" x="1592" y="-183.3" font-family="Times,serif" font-size="14.00">host_name: HostName</text>
<text text-anchor="middle" x="1592" y="-168.3" font-family="Times,serif" font-size="14.00">port: TCPPort</text>
</g>
<!-- HostName&#45;&gt;URL -->
<g id="edge20" class="edge"><title>HostName&#45;&gt;URL</title>
<path fill="none" stroke="blue" d="M1116.67,-416.881C1139.34,-397.324 1167.23,-376.765 1196,-364 1323.18,-307.58 1381.69,-371.928 1511.54,-311.663"/>
<polygon fill="blue" stroke="blue" points="1513.1,-314.794 1520.6,-307.309 1510.07,-308.484 1513.1,-314.794"/>
<text text-anchor="middle" x="1476" y="-334.3" font-family="Times,serif" font-size="14.00"> 1:m</text>
</g>
<!-- MACAddress -->
<g id="node5" class="node"><title>MACAddress</title>
<polygon fill="none" stroke="black" points="499,-417 499,-523 661,-523 661,-417 499,-417"/>
<text text-anchor="middle" x="580" y="-507.8" font-family="Times,serif" font-size="14.00">MACAddress</text>
<polyline fill="none" stroke="black" points="499,-500 661,-500 "/>
<text text-anchor="middle" x="580" y="-484.8" font-family="Times,serif" font-size="14.00">id: Serial</text>
<text text-anchor="middle" x="580" y="-469.8" font-family="Times,serif" font-size="14.00">type: Discriminator</text>
<text text-anchor="middle" x="580" y="-454.8" font-family="Times,serif" font-size="14.00">address: String</text>
<text text-anchor="middle" x="580" y="-439.8" font-family="Times,serif" font-size="14.00">created_at: DateTime</text>
<text text-anchor="middle" x="580" y="-424.8" font-family="Times,serif" font-size="14.00">organization: Organization</text>
</g>
<!-- MACAddress&#45;&gt;Target -->
<g id="edge22" class="edge"><title>MACAddress&#45;&gt;Target</title>
<path fill="none" stroke="blue" d="M533.613,-416.718C515.664,-395.438 495.51,-370.192 479,-346 467.133,-328.612 455.495,-308.737 445.618,-290.761"/>
<polygon fill="blue" stroke="blue" points="448.468,-288.677 440.621,-281.558 442.316,-292.016 448.468,-288.677"/>
<text text-anchor="middle" x="492" y="-334.3" font-family="Times,serif" font-size="14.00"> 1:m</text>
</g>
<!-- MACAddress&#45;&gt;IPAddressMACAddress -->
<g id="edge24" class="edge"><title>MACAddress&#45;&gt;IPAddressMACAddress</title>
<path fill="none" stroke="blue" d="M581.795,-416.935C583.075,-379.812 584.794,-329.984 586.097,-292.177"/>
<polygon fill="blue" stroke="blue" points="589.607,-291.967 586.453,-281.852 582.611,-291.726 589.607,-291.967"/>
<text text-anchor="middle" x="598" y="-334.3" font-family="Times,serif" font-size="14.00"> 1:m</text>
</g>
<!-- Author -->
<g id="node6" class="node"><title>Author</title>
<polygon fill="none" stroke="black" points="1128.5,-629 1128.5,-765 1253.5,-765 1253.5,-629 1128.5,-629"/>
<text text-anchor="middle" x="1191" y="-749.8" font-family="Times,serif" font-size="14.00">Author</text>
<polyline fill="none" stroke="black" points="1128.5,-742 1253.5,-742 "/>
<text text-anchor="middle" x="1191" y="-726.8" font-family="Times,serif" font-size="14.00">name: String</text>
<text text-anchor="middle" x="1191" y="-711.8" font-family="Times,serif" font-size="14.00">id: Serial</text>
<text text-anchor="middle" x="1191" y="-696.8" font-family="Times,serif" font-size="14.00">organization: String</text>
<text text-anchor="middle" x="1191" y="-681.8" font-family="Times,serif" font-size="14.00">pgp_signature: Text</text>
<text text-anchor="middle" x="1191" y="-666.8" font-family="Times,serif" font-size="14.00">email: String</text>
<text text-anchor="middle" x="1191" y="-651.8" font-family="Times,serif" font-size="14.00">site: URI</text>
<text text-anchor="middle" x="1191" y="-636.8" font-family="Times,serif" font-size="14.00">biography: Text</text>
</g>
<!-- Campaign -->
<g id="node8" class="node"><title>Campaign</title>
<polygon fill="none" stroke="black" points="333.5,-417 333.5,-523 480.5,-523 480.5,-417 333.5,-417"/>
<text text-anchor="middle" x="407" y="-507.8" font-family="Times,serif" font-size="14.00">Campaign</text>
<polyline fill="none" stroke="black" points="333.5,-500 480.5,-500 "/>
<text text-anchor="middle" x="407" y="-484.8" font-family="Times,serif" font-size="14.00">name: String</text>
<text text-anchor="middle" x="407" y="-469.8" font-family="Times,serif" font-size="14.00">description: Description</text>
<text text-anchor="middle" x="407" y="-454.8" font-family="Times,serif" font-size="14.00">id: Serial</text>
<text text-anchor="middle" x="407" y="-439.8" font-family="Times,serif" font-size="14.00">created_at: DateTime</text>
<text text-anchor="middle" x="407" y="-424.8" font-family="Times,serif" font-size="14.00">updated_at: DateTime</text>
</g>
<!-- Campaign&#45;&gt;Target -->
<g id="edge26" class="edge"><title>Campaign&#45;&gt;Target</title>
<path fill="none" stroke="blue" d="M409.12,-416.849C410.214,-390.764 411.609,-358.71 413,-330 413.593,-317.761 414.273,-304.619 414.937,-292.18"/>
<polygon fill="blue" stroke="blue" points="418.446,-292.106 415.488,-281.933 411.456,-291.73 418.446,-292.106"/>
<text text-anchor="middle" x="426" y="-334.3" font-family="Times,serif" font-size="14.00"> 1:m</text>
</g>
<!-- Credential -->
<g id="node9" class="node"><title>Credential</title>
<polygon fill="none" stroke="black" points="1132.5,-8.5 1132.5,-99.5 1311.5,-99.5 1311.5,-8.5 1132.5,-8.5"/>
<text text-anchor="middle" x="1222" y="-84.3" font-family="Times,serif" font-size="14.00">Credential</text>
<polyline fill="none" stroke="black" points="1132.5,-76.5 1311.5,-76.5 "/>
<text text-anchor="middle" x="1222" y="-61.3" font-family="Times,serif" font-size="14.00">id: Serial</text>
<text text-anchor="middle" x="1222" y="-46.3" font-family="Times,serif" font-size="14.00">user_name: UserName</text>
<text text-anchor="middle" x="1222" y="-31.3" font-family="Times,serif" font-size="14.00">email_address: EmailAddress</text>
<text text-anchor="middle" x="1222" y="-16.3" font-family="Times,serif" font-size="14.00">password: Password</text>
</g>
<!-- ServiceCredential -->
<g id="node10" class="node"><title>ServiceCredential</title>
<polygon fill="none" stroke="black" points="1731.5,-1 1731.5,-107 1910.5,-107 1910.5,-1 1731.5,-1"/>
<text text-anchor="middle" x="1821" y="-91.8" font-family="Times,serif" font-size="14.00">ServiceCredential</text>
<polyline fill="none" stroke="black" points="1731.5,-84 1910.5,-84 "/>
<text text-anchor="middle" x="1821" y="-68.8" font-family="Times,serif" font-size="14.00">id: Serial</text>
<text text-anchor="middle" x="1821" y="-53.8" font-family="Times,serif" font-size="14.00">user_name: UserName</text>
<text text-anchor="middle" x="1821" y="-38.8" font-family="Times,serif" font-size="14.00">email_address: EmailAddress</text>
<text text-anchor="middle" x="1821" y="-23.8" font-family="Times,serif" font-size="14.00">password: Password</text>
<text text-anchor="middle" x="1821" y="-8.8" font-family="Times,serif" font-size="14.00">open_port: OpenPort</text>
</g>
<!-- WebCredential -->
<g id="node11" class="node"><title>WebCredential</title>
<polygon fill="none" stroke="black" points="1534.5,-1 1534.5,-107 1713.5,-107 1713.5,-1 1534.5,-1"/>
<text text-anchor="middle" x="1624" y="-91.8" font-family="Times,serif" font-size="14.00">WebCredential</text>
<polyline fill="none" stroke="black" points="1534.5,-84 1713.5,-84 "/>
<text text-anchor="middle" x="1624" y="-68.8" font-family="Times,serif" font-size="14.00">id: Serial</text>
<text text-anchor="middle" x="1624" y="-53.8" font-family="Times,serif" font-size="14.00">user_name: UserName</text>
<text text-anchor="middle" x="1624" y="-38.8" font-family="Times,serif" font-size="14.00">email_address: EmailAddress</text>
<text text-anchor="middle" x="1624" y="-23.8" font-family="Times,serif" font-size="14.00">password: Password</text>
<text text-anchor="middle" x="1624" y="-8.8" font-family="Times,serif" font-size="14.00">url: URL</text>
</g>
<!-- UserName -->
<g id="node12" class="node"><title>UserName</title>
<polygon fill="none" stroke="black" points="1205,-432 1205,-508 1339,-508 1339,-432 1205,-432"/>
<text text-anchor="middle" x="1272" y="-492.8" font-family="Times,serif" font-size="14.00">UserName</text>
<polyline fill="none" stroke="black" points="1205,-485 1339,-485 "/>
<text text-anchor="middle" x="1272" y="-469.8" font-family="Times,serif" font-size="14.00">name: String</text>
<text text-anchor="middle" x="1272" y="-454.8" font-family="Times,serif" font-size="14.00">id: Serial</text>
<text text-anchor="middle" x="1272" y="-439.8" font-family="Times,serif" font-size="14.00">created_at: DateTime</text>
</g>
<!-- UserName&#45;&gt;Credential -->
<g id="edge28" class="edge"><title>UserName&#45;&gt;Credential</title>
<path fill="none" stroke="blue" d="M1282.33,-431.936C1288.54,-407.702 1295.83,-375.234 1299,-346 1305.52,-285.858 1337.64,-320.174 1286,-160 1280.25,-142.17 1270.93,-124.227 1261.15,-108.343"/>
<polygon fill="blue" stroke="blue" points="1264,-106.311 1255.69,-99.7435 1258.09,-110.062 1264,-106.311"/>
<text text-anchor="middle" x="1328" y="-232.3" font-family="Times,serif" font-size="14.00"> 1:m</text>
</g>
<!-- UserName&#45;&gt;EmailAddress -->
<g id="edge30" class="edge"><title>UserName&#45;&gt;EmailAddress</title>
<path fill="none" stroke="blue" d="M1241.05,-431.982C1208.92,-393.564 1158.39,-333.134 1122.09,-289.73"/>
<polygon fill="blue" stroke="blue" points="1124.59,-287.26 1115.49,-281.833 1119.22,-291.75 1124.59,-287.26"/>
<text text-anchor="middle" x="1177" y="-334.3" font-family="Times,serif" font-size="14.00"> 1:m</text>
</g>
<!-- EmailAddress&#45;&gt;Credential -->
<g id="edge32" class="edge"><title>EmailAddress&#45;&gt;Credential</title>
<path fill="none" stroke="blue" d="M1113.97,-190.043C1133.97,-165.035 1158.98,-133.776 1179.89,-107.633"/>
<polygon fill="blue" stroke="blue" points="1182.73,-109.691 1186.24,-99.6958 1177.26,-105.318 1182.73,-109.691"/>
<text text-anchor="middle" x="1176" y="-130.3" font-family="Times,serif" font-size="14.00"> 1:m</text>
</g>
<!-- License -->
<g id="node16" class="node"><title>License</title>
<polygon fill="none" stroke="black" points="2074.5,-651.5 2074.5,-742.5 2183.5,-742.5 2183.5,-651.5 2074.5,-651.5"/>
<text text-anchor="middle" x="2129" y="-727.3" font-family="Times,serif" font-size="14.00">License</text>
<polyline fill="none" stroke="black" points="2074.5,-719.5 2183.5,-719.5 "/>
<text text-anchor="middle" x="2129" y="-704.3" font-family="Times,serif" font-size="14.00">name: String</text>
<text text-anchor="middle" x="2129" y="-689.3" font-family="Times,serif" font-size="14.00">id: Serial</text>
<text text-anchor="middle" x="2129" y="-674.3" font-family="Times,serif" font-size="14.00">description: Text</text>
<text text-anchor="middle" x="2129" y="-659.3" font-family="Times,serif" font-size="14.00">url: URI</text>
</g>
<!-- Repository -->
<g id="node22" class="node"><title>Repository</title>
<polygon fill="none" stroke="black" points="2071.5,-364.5 2071.5,-575.5 2186.5,-575.5 2186.5,-364.5 2071.5,-364.5"/>
<text text-anchor="middle" x="2129" y="-560.3" font-family="Times,serif" font-size="14.00">Repository</text>
<polyline fill="none" stroke="black" points="2071.5,-552.5 2186.5,-552.5 "/>
<text text-anchor="middle" x="2129" y="-537.3" font-family="Times,serif" font-size="14.00">name: String</text>
<text text-anchor="middle" x="2129" y="-522.3" font-family="Times,serif" font-size="14.00">title: Text</text>
<text text-anchor="middle" x="2129" y="-507.3" font-family="Times,serif" font-size="14.00">description: Text</text>
<text text-anchor="middle" x="2129" y="-492.3" font-family="Times,serif" font-size="14.00">id: Serial</text>
<text text-anchor="middle" x="2129" y="-477.3" font-family="Times,serif" font-size="14.00">scm: String</text>
<text text-anchor="middle" x="2129" y="-462.3" font-family="Times,serif" font-size="14.00">path: FilePath</text>
<text text-anchor="middle" x="2129" y="-447.3" font-family="Times,serif" font-size="14.00">uri: URI</text>
<text text-anchor="middle" x="2129" y="-432.3" font-family="Times,serif" font-size="14.00">installed: Boolean</text>
<text text-anchor="middle" x="2129" y="-417.3" font-family="Times,serif" font-size="14.00">domain: String</text>
<text text-anchor="middle" x="2129" y="-402.3" font-family="Times,serif" font-size="14.00">source: URI</text>
<text text-anchor="middle" x="2129" y="-387.3" font-family="Times,serif" font-size="14.00">website: URI</text>
<text text-anchor="middle" x="2129" y="-372.3" font-family="Times,serif" font-size="14.00">license: License</text>
</g>
<!-- License&#45;&gt;Repository -->
<g id="edge34" class="edge"><title>License&#45;&gt;Repository</title>
<path fill="none" stroke="blue" d="M2129,-651.278C2129,-632.3 2129,-609.219 2129,-585.996"/>
<polygon fill="blue" stroke="blue" points="2132.5,-585.689 2129,-575.689 2125.5,-585.689 2132.5,-585.689"/>
<text text-anchor="middle" x="2142" y="-598.3" font-family="Times,serif" font-size="14.00"> 1:m</text>
</g>
<!-- OpenPort&#45;&gt;ServiceCredential -->
<g id="edge36" class="edge"><title>OpenPort&#45;&gt;ServiceCredential</title>
<path fill="none" stroke="blue" d="M1803.66,-175.063C1806.35,-156.424 1809.32,-135.843 1812.04,-117.063"/>
<polygon fill="blue" stroke="blue" points="1815.5,-117.531 1813.47,-107.133 1808.58,-116.53 1815.5,-117.531"/>
<text text-anchor="middle" x="1824" y="-130.3" font-family="Times,serif" font-size="14.00"> 1:m</text>
</g>
<!-- Organization -->
<g id="node18" class="node"><title>Organization</title>
<polygon fill="none" stroke="black" points="160.5,-651.5 160.5,-742.5 307.5,-742.5 307.5,-651.5 160.5,-651.5"/>
<text text-anchor="middle" x="234" y="-727.3" font-family="Times,serif" font-size="14.00">Organization</text>
<polyline fill="none" stroke="black" points="160.5,-719.5 307.5,-719.5 "/>
<text text-anchor="middle" x="234" y="-704.3" font-family="Times,serif" font-size="14.00">name: String</text>
<text text-anchor="middle" x="234" y="-689.3" font-family="Times,serif" font-size="14.00">description: Description</text>
<text text-anchor="middle" x="234" y="-674.3" font-family="Times,serif" font-size="14.00">id: Serial</text>
<text text-anchor="middle" x="234" y="-659.3" font-family="Times,serif" font-size="14.00">created_at: DateTime</text>
</g>
<!-- Organization&#45;&gt;Address -->
<g id="edge38" class="edge"><title>Organization&#45;&gt;Address</title>
<path fill="none" stroke="blue" d="M234,-651.278C234,-617.541 234,-570.838 234,-533.421"/>
<polygon fill="blue" stroke="blue" points="237.5,-533.132 234,-523.132 230.5,-533.132 237.5,-533.132"/>
<text text-anchor="middle" x="247" y="-598.3" font-family="Times,serif" font-size="14.00"> 1:m</text>
</g>
<!-- OS -->
<g id="node20" class="node"><title>OS</title>
<polygon fill="none" stroke="black" points="859.5,-432 859.5,-508 956.5,-508 956.5,-432 859.5,-432"/>
<text text-anchor="middle" x="908" y="-492.8" font-family="Times,serif" font-size="14.00">OS</text>
<polyline fill="none" stroke="black" points="859.5,-485 956.5,-485 "/>
<text text-anchor="middle" x="908" y="-469.8" font-family="Times,serif" font-size="14.00">name: String</text>
<text text-anchor="middle" x="908" y="-454.8" font-family="Times,serif" font-size="14.00">id: Serial</text>
<text text-anchor="middle" x="908" y="-439.8" font-family="Times,serif" font-size="14.00">version: String</text>
</g>
<!-- OS&#45;&gt;OSGuess -->
<g id="edge40" class="edge"><title>OS&#45;&gt;OSGuess</title>
<path fill="none" stroke="blue" d="M888.854,-431.974C877.993,-411.598 863.841,-386.047 850,-364 834.393,-339.139 815.827,-312.511 799.623,-290.091"/>
<polygon fill="blue" stroke="blue" points="802.248,-287.75 793.539,-281.716 796.585,-291.864 802.248,-287.75"/>
<text text-anchor="middle" x="850" y="-334.3" font-family="Times,serif" font-size="14.00"> 1:m</text>
</g>
<!-- Path -->
<g id="node21" class="node"><title>Path</title>
<polygon fill="none" stroke="black" points="2060,-183 2060,-289 2198,-289 2198,-183 2060,-183"/>
<text text-anchor="middle" x="2129" y="-273.8" font-family="Times,serif" font-size="14.00">Path</text>
<polyline fill="none" stroke="black" points="2060,-266 2198,-266 "/>
<text text-anchor="middle" x="2129" y="-250.8" font-family="Times,serif" font-size="14.00">id: Serial</text>
<text text-anchor="middle" x="2129" y="-235.8" font-family="Times,serif" font-size="14.00">path: FilePath</text>
<text text-anchor="middle" x="2129" y="-220.8" font-family="Times,serif" font-size="14.00">timestamp: Time</text>
<text text-anchor="middle" x="2129" y="-205.8" font-family="Times,serif" font-size="14.00">class_name: String</text>
<text text-anchor="middle" x="2129" y="-190.8" font-family="Times,serif" font-size="14.00">repository: Repository</text>
</g>
<!-- Repository&#45;&gt;Path -->
<g id="edge42" class="edge"><title>Repository&#45;&gt;Path</title>
<path fill="none" stroke="blue" d="M2129,-364.199C2129,-342.01 2129,-319.268 2129,-299.263"/>
<polygon fill="blue" stroke="blue" points="2132.5,-299.069 2129,-289.069 2125.5,-299.069 2132.5,-299.069"/>
<text text-anchor="middle" x="2142" y="-334.3" font-family="Times,serif" font-size="14.00"> 1:m</text>
</g>
<!-- Port -->
<g id="node23" class="node"><title>Port</title>
<polygon fill="none" stroke="black" points="1827,-432 1827,-508 1931,-508 1931,-432 1827,-432"/>
<text text-anchor="middle" x="1879" y="-492.8" font-family="Times,serif" font-size="14.00">Port</text>
<polyline fill="none" stroke="black" points="1827,-485 1931,-485 "/>
<text text-anchor="middle" x="1879" y="-469.8" font-family="Times,serif" font-size="14.00">id: Serial</text>
<text text-anchor="middle" x="1879" y="-454.8" font-family="Times,serif" font-size="14.00">protocol: String</text>
<text text-anchor="middle" x="1879" y="-439.8" font-family="Times,serif" font-size="14.00">number: Integer</text>
</g>
<!-- Port&#45;&gt;OpenPort -->
<g id="edge44" class="edge"><title>Port&#45;&gt;OpenPort</title>
<path fill="none" stroke="blue" d="M1865.6,-431.982C1853.39,-398.276 1835.05,-347.626 1820.13,-306.397"/>
<polygon fill="blue" stroke="blue" points="1823.4,-305.157 1816.7,-296.946 1816.82,-307.54 1823.4,-305.157"/>
<text text-anchor="middle" x="1845" y="-334.3" font-family="Times,serif" font-size="14.00"> 1:m</text>
</g>
<!-- TCPPort -->
<g id="node24" class="node"><title>TCPPort</title>
<polygon fill="none" stroke="black" points="1599,-432 1599,-508 1703,-508 1703,-432 1599,-432"/>
<text text-anchor="middle" x="1651" y="-492.8" font-family="Times,serif" font-size="14.00">TCPPort</text>
<polyline fill="none" stroke="black" points="1599,-485 1703,-485 "/>
<text text-anchor="middle" x="1651" y="-469.8" font-family="Times,serif" font-size="14.00">id: Serial</text>
<text text-anchor="middle" x="1651" y="-454.8" font-family="Times,serif" font-size="14.00">protocol: String</text>
<text text-anchor="middle" x="1651" y="-439.8" font-family="Times,serif" font-size="14.00">number: Integer</text>
</g>
<!-- TCPPort&#45;&gt;OpenPort -->
<g id="edge46" class="edge"><title>TCPPort&#45;&gt;OpenPort</title>
<path fill="none" stroke="blue" d="M1671.98,-431.788C1683.54,-411.582 1698.28,-386.251 1712,-364 1723.87,-344.752 1737.11,-324.131 1749.47,-305.223"/>
<polygon fill="blue" stroke="blue" points="1752.53,-306.949 1755.08,-296.667 1746.67,-303.111 1752.53,-306.949"/>
<text text-anchor="middle" x="1745" y="-334.3" font-family="Times,serif" font-size="14.00"> 1:m</text>
</g>
<!-- TCPPort&#45;&gt;URL -->
<g id="edge48" class="edge"><title>TCPPort&#45;&gt;URL</title>
<path fill="none" stroke="blue" d="M1643.51,-431.948C1637.63,-403.843 1628.98,-364.324 1620,-330 1619.27,-327.209 1618.51,-324.376 1617.73,-321.518"/>
<polygon fill="blue" stroke="blue" points="1621.07,-320.435 1615.02,-311.736 1614.32,-322.307 1621.07,-320.435"/>
<text text-anchor="middle" x="1637" y="-334.3" font-family="Times,serif" font-size="14.00"> 1:m</text>
</g>
<!-- UDPPort -->
<g id="node25" class="node"><title>UDPPort</title>
<polygon fill="none" stroke="black" points="1949,-432 1949,-508 2053,-508 2053,-432 1949,-432"/>
<text text-anchor="middle" x="2001" y="-492.8" font-family="Times,serif" font-size="14.00">UDPPort</text>
<polyline fill="none" stroke="black" points="1949,-485 2053,-485 "/>
<text text-anchor="middle" x="2001" y="-469.8" font-family="Times,serif" font-size="14.00">id: Serial</text>
<text text-anchor="middle" x="2001" y="-454.8" font-family="Times,serif" font-size="14.00">protocol: String</text>
<text text-anchor="middle" x="2001" y="-439.8" font-family="Times,serif" font-size="14.00">number: Integer</text>
</g>
<!-- UDPPort&#45;&gt;OpenPort -->
<g id="edge50" class="edge"><title>UDPPort&#45;&gt;OpenPort</title>
<path fill="none" stroke="blue" d="M1983.11,-431.629C1972.17,-410.671 1957.02,-384.669 1940,-364 1920.22,-339.979 1895.68,-316.652 1872.44,-296.684"/>
<polygon fill="blue" stroke="blue" points="1874.51,-293.848 1864.62,-290.045 1869.98,-299.185 1874.51,-293.848"/>
<text text-anchor="middle" x="1936" y="-334.3" font-family="Times,serif" font-size="14.00"> 1:m</text>
</g>
<!-- Service -->
<g id="node26" class="node"><title>Service</title>
<polygon fill="none" stroke="black" points="1721.5,-439.5 1721.5,-500.5 1808.5,-500.5 1808.5,-439.5 1721.5,-439.5"/>
<text text-anchor="middle" x="1765" y="-485.3" font-family="Times,serif" font-size="14.00">Service</text>
<polyline fill="none" stroke="black" points="1721.5,-477.5 1808.5,-477.5 "/>
<text text-anchor="middle" x="1765" y="-462.3" font-family="Times,serif" font-size="14.00">name: String</text>
<text text-anchor="middle" x="1765" y="-447.3" font-family="Times,serif" font-size="14.00">id: Serial</text>
</g>
<!-- Service&#45;&gt;OpenPort -->
<g id="edge52" class="edge"><title>Service&#45;&gt;OpenPort</title>
<path fill="none" stroke="blue" d="M1768.86,-439.145C1773.16,-405.878 1780.26,-350.957 1785.98,-306.751"/>
<polygon fill="blue" stroke="blue" points="1789.48,-306.998 1787.29,-296.632 1782.54,-306.1 1789.48,-306.998"/>
<text text-anchor="middle" x="1796" y="-334.3" font-family="Times,serif" font-size="14.00"> 1:m</text>
</g>
<!-- Software -->
<g id="node27" class="node"><title>Software</title>
<polygon fill="none" stroke="black" points="2204,-424.5 2204,-515.5 2306,-515.5 2306,-424.5 2204,-424.5"/>
<text text-anchor="middle" x="2255" y="-500.3" font-family="Times,serif" font-size="14.00">Software</text>
<polyline fill="none" stroke="black" points="2204,-492.5 2306,-492.5 "/>
<text text-anchor="middle" x="2255" y="-477.3" font-family="Times,serif" font-size="14.00">id: Serial</text>
<text text-anchor="middle" x="2255" y="-462.3" font-family="Times,serif" font-size="14.00">name: String</text>
<text text-anchor="middle" x="2255" y="-447.3" font-family="Times,serif" font-size="14.00">version: String</text>
<text text-anchor="middle" x="2255" y="-432.3" font-family="Times,serif" font-size="14.00">vendor: Vendor</text>
</g>
<!-- Vendor -->
<g id="node28" class="node"><title>Vendor</title>
<polygon fill="none" stroke="black" points="2211.5,-666.5 2211.5,-727.5 2298.5,-727.5 2298.5,-666.5 2211.5,-666.5"/>
<text text-anchor="middle" x="2255" y="-712.3" font-family="Times,serif" font-size="14.00">Vendor</text>
<polyline fill="none" stroke="black" points="2211.5,-704.5 2298.5,-704.5 "/>
<text text-anchor="middle" x="2255" y="-689.3" font-family="Times,serif" font-size="14.00">name: String</text>
<text text-anchor="middle" x="2255" y="-674.3" font-family="Times,serif" font-size="14.00">id: Serial</text>
</g>
<!-- Vendor&#45;&gt;Software -->
<g id="edge54" class="edge"><title>Vendor&#45;&gt;Software</title>
<path fill="none" stroke="blue" d="M2255,-666.122C2255,-630.412 2255,-569.948 2255,-525.773"/>
<polygon fill="blue" stroke="blue" points="2258.5,-525.766 2255,-515.766 2251.5,-525.766 2258.5,-525.766"/>
<text text-anchor="middle" x="2268" y="-598.3" font-family="Times,serif" font-size="14.00"> 1:m</text>
</g>
<!-- URLScheme -->
<g id="node29" class="node"><title>URLScheme</title>
<polygon fill="none" stroke="black" points="1493.5,-439.5 1493.5,-500.5 1580.5,-500.5 1580.5,-439.5 1493.5,-439.5"/>
<text text-anchor="middle" x="1537" y="-485.3" font-family="Times,serif" font-size="14.00">URLScheme</text>
<polyline fill="none" stroke="black" points="1493.5,-477.5 1580.5,-477.5 "/>
<text text-anchor="middle" x="1537" y="-462.3" font-family="Times,serif" font-size="14.00">name: String</text>
<text text-anchor="middle" x="1537" y="-447.3" font-family="Times,serif" font-size="14.00">id: Serial</text>
</g>
<!-- URLScheme&#45;&gt;URL -->
<g id="edge56" class="edge"><title>URLScheme&#45;&gt;URL</title>
<path fill="none" stroke="blue" d="M1534.23,-439.404C1532.45,-410.862 1532.05,-366.708 1542,-330 1542.8,-327.043 1543.71,-324.076 1544.71,-321.113"/>
<polygon fill="blue" stroke="blue" points="1548.01,-322.272 1548.19,-311.679 1541.45,-319.848 1548.01,-322.272"/>
<text text-anchor="middle" x="1555" y="-334.3" font-family="Times,serif" font-size="14.00"> 1:m</text>
</g>
<!-- URLQueryParamName -->
<g id="node30" class="node"><title>URLQueryParamName</title>
<polygon fill="none" stroke="black" points="1357,-205.5 1357,-266.5 1503,-266.5 1503,-205.5 1357,-205.5"/>
<text text-anchor="middle" x="1430" y="-251.3" font-family="Times,serif" font-size="14.00">URLQueryParamName</text>
<polyline fill="none" stroke="black" points="1357,-243.5 1503,-243.5 "/>
<text text-anchor="middle" x="1430" y="-228.3" font-family="Times,serif" font-size="14.00">name: String</text>
<text text-anchor="middle" x="1430" y="-213.3" font-family="Times,serif" font-size="14.00">id: Serial</text>
</g>
<!-- URLQueryParam -->
<g id="node31" class="node"><title>URLQueryParam</title>
<polygon fill="none" stroke="black" points="1333.5,-8.5 1333.5,-99.5 1516.5,-99.5 1516.5,-8.5 1333.5,-8.5"/>
<text text-anchor="middle" x="1425" y="-84.3" font-family="Times,serif" font-size="14.00">URLQueryParam</text>
<polyline fill="none" stroke="black" points="1333.5,-76.5 1516.5,-76.5 "/>
<text text-anchor="middle" x="1425" y="-61.3" font-family="Times,serif" font-size="14.00">id: Serial</text>
<text text-anchor="middle" x="1425" y="-46.3" font-family="Times,serif" font-size="14.00">value: Text</text>
<text text-anchor="middle" x="1425" y="-31.3" font-family="Times,serif" font-size="14.00">name: URLQueryParamName</text>
<text text-anchor="middle" x="1425" y="-16.3" font-family="Times,serif" font-size="14.00">url: URL</text>
</g>
<!-- URLQueryParamName&#45;&gt;URLQueryParam -->
<g id="edge58" class="edge"><title>URLQueryParamName&#45;&gt;URLQueryParam</title>
<path fill="none" stroke="blue" d="M1429.17,-205.277C1428.46,-179.44 1427.4,-141.336 1426.53,-109.964"/>
<polygon fill="blue" stroke="blue" points="1430.02,-109.509 1426.24,-99.61 1423.02,-109.703 1430.02,-109.509"/>
<text text-anchor="middle" x="1441" y="-130.3" font-family="Times,serif" font-size="14.00"> 1:m</text>
</g>
<!-- URL&#45;&gt;WebCredential -->
<g id="edge62" class="edge"><title>URL&#45;&gt;WebCredential</title>
<path fill="none" stroke="blue" d="M1605.25,-160.488C1607.81,-146.09 1610.46,-131.147 1612.94,-117.192"/>
<polygon fill="blue" stroke="blue" points="1616.41,-117.687 1614.71,-107.228 1609.52,-116.461 1616.41,-117.687"/>
<text text-anchor="middle" x="1624" y="-130.3" font-family="Times,serif" font-size="14.00"> 1:m</text>
</g>
<!-- URL&#45;&gt;URLQueryParam -->
<g id="edge60" class="edge"><title>URL&#45;&gt;URLQueryParam</title>
<path fill="none" stroke="blue" d="M1522.87,-160.488C1506.22,-142.539 1488.78,-123.743 1473.31,-107.072"/>
<polygon fill="blue" stroke="blue" points="1475.72,-104.523 1466.35,-99.5729 1470.59,-109.284 1475.72,-104.523"/>
<text text-anchor="middle" x="1517" y="-130.3" font-family="Times,serif" font-size="14.00"> 1:m</text>
</g>
<!-- Password -->
<g id="node33" class="node"><title>Password</title>
<polygon fill="none" stroke="black" points="1167,-205.5 1167,-266.5 1277,-266.5 1277,-205.5 1167,-205.5"/>
<text text-anchor="middle" x="1222" y="-251.3" font-family="Times,serif" font-size="14.00">Password</text>
<polyline fill="none" stroke="black" points="1167,-243.5 1277,-243.5 "/>
<text text-anchor="middle" x="1222" y="-228.3" font-family="Times,serif" font-size="14.00">id: Serial</text>
<text text-anchor="middle" x="1222" y="-213.3" font-family="Times,serif" font-size="14.00">clear_text: String</text>
</g>
<!-- Password&#45;&gt;Credential -->
<g id="edge64" class="edge"><title>Password&#45;&gt;Credential</title>
<path fill="none" stroke="blue" d="M1222,-205.277C1222,-179.44 1222,-141.336 1222,-109.964"/>
<polygon fill="blue" stroke="blue" points="1225.5,-109.61 1222,-99.61 1218.5,-109.61 1225.5,-109.61"/>
<text text-anchor="middle" x="1235" y="-130.3" font-family="Times,serif" font-size="14.00"> 1:m</text>
</g>
</g>
</svg>
