<?xml version="1.0" encoding="UTF-8" standalone="no"?>
<!DOCTYPE svg PUBLIC "-//W3C//DTD SVG 1.1//EN"
 "http://www.w3.org/Graphics/SVG/1.1/DTD/svg11.dtd">
<!-- Generated by graphviz version 2.26.3 (20100126.1600)
 -->
<!-- Title: G Pages: 1 -->
<svg width="2333pt" height="930pt"
 viewBox="0.00 0.00 2333.00 930.00" xmlns="http://www.w3.org/2000/svg" xmlns:xlink="http://www.w3.org/1999/xlink">
<g id="graph1" class="graph" transform="scale(1 1) rotate(0) translate(4 926)">
<title>G</title>
<polygon fill="white" stroke="white" points="-4,5 -4,-926 2330,-926 2330,5 -4,5"/>
<!-- Organization -->
<g id="node1" class="node"><title>Organization</title>
<polygon fill="none" stroke="black" points="171.5,-781.5 171.5,-892.5 318.5,-892.5 318.5,-781.5 171.5,-781.5"/>
<text text-anchor="middle" x="245" y="-875.9" font-family="Times Roman,serif" font-size="14.00">Organization</text>
<polyline fill="none" stroke="black" points="171.5,-865.5 318.5,-865.5 "/>
<text text-anchor="middle" x="245" y="-848.9" font-family="Times Roman,serif" font-size="14.00">name: String</text>
<text text-anchor="middle" x="245" y="-829.9" font-family="Times Roman,serif" font-size="14.00">description: Description</text>
<text text-anchor="middle" x="245" y="-810.9" font-family="Times Roman,serif" font-size="14.00">id: Serial</text>
<text text-anchor="middle" x="245" y="-791.9" font-family="Times Roman,serif" font-size="14.00">created_at: DateTime</text>
</g>
<!-- Address -->
<g id="node4" class="node"><title>Address</title>
<polygon fill="none" stroke="black" points="164,-499 164,-629 326,-629 326,-499 164,-499"/>
<text text-anchor="middle" x="245" y="-612.4" font-family="Times Roman,serif" font-size="14.00">Address</text>
<polyline fill="none" stroke="black" points="164,-602 326,-602 "/>
<text text-anchor="middle" x="245" y="-585.4" font-family="Times Roman,serif" font-size="14.00">id: Serial</text>
<text text-anchor="middle" x="245" y="-566.4" font-family="Times Roman,serif" font-size="14.00">type: Discriminator</text>
<text text-anchor="middle" x="245" y="-547.4" font-family="Times Roman,serif" font-size="14.00">address: String</text>
<text text-anchor="middle" x="245" y="-528.4" font-family="Times Roman,serif" font-size="14.00">created_at: DateTime</text>
<text text-anchor="middle" x="245" y="-509.4" font-family="Times Roman,serif" font-size="14.00">organization: Organization</text>
</g>
<!-- Organization&#45;&gt;Address -->
<g id="edge2" class="edge"><title>Organization&#45;&gt;Address</title>
<path fill="none" stroke="blue" d="M245,-781.425C245,-740.408 245,-684.132 245,-639.11"/>
<polygon fill="blue" stroke="blue" points="248.5,-639.1 245,-629.1 241.5,-639.1 248.5,-639.1"/>
<text text-anchor="middle" x="258" y="-720.9" font-family="Times Roman,serif" font-size="14.00"> 1:m</text>
</g>
<!-- Campaign -->
<g id="node2" class="node"><title>Campaign</title>
<polygon fill="none" stroke="black" points="-0.5,-499 -0.5,-629 146.5,-629 146.5,-499 -0.5,-499"/>
<text text-anchor="middle" x="73" y="-612.4" font-family="Times Roman,serif" font-size="14.00">Campaign</text>
<polyline fill="none" stroke="black" points="-0.5,-602 146.5,-602 "/>
<text text-anchor="middle" x="73" y="-585.4" font-family="Times Roman,serif" font-size="14.00">name: String</text>
<text text-anchor="middle" x="73" y="-566.4" font-family="Times Roman,serif" font-size="14.00">description: Description</text>
<text text-anchor="middle" x="73" y="-547.4" font-family="Times Roman,serif" font-size="14.00">id: Serial</text>
<text text-anchor="middle" x="73" y="-528.4" font-family="Times Roman,serif" font-size="14.00">created_at: DateTime</text>
<text text-anchor="middle" x="73" y="-509.4" font-family="Times Roman,serif" font-size="14.00">updated_at: DateTime</text>
</g>
<!-- Target -->
<g id="node3" class="node"><title>Target</title>
<polygon fill="none" stroke="black" points="249,-226.5 249,-337.5 383,-337.5 383,-226.5 249,-226.5"/>
<text text-anchor="middle" x="316" y="-320.9" font-family="Times Roman,serif" font-size="14.00">Target</text>
<polyline fill="none" stroke="black" points="249,-310.5 383,-310.5 "/>
<text text-anchor="middle" x="316" y="-293.9" font-family="Times Roman,serif" font-size="14.00">id: Serial</text>
<text text-anchor="middle" x="316" y="-274.9" font-family="Times Roman,serif" font-size="14.00">created_at: DateTime</text>
<text text-anchor="middle" x="316" y="-255.9" font-family="Times Roman,serif" font-size="14.00">campaign: Campaign</text>
<text text-anchor="middle" x="316" y="-236.9" font-family="Times Roman,serif" font-size="14.00">address: Address</text>
</g>
<!-- Campaign&#45;&gt;Target -->
<g id="edge4" class="edge"><title>Campaign&#45;&gt;Target</title>
<path fill="none" stroke="blue" d="M108.754,-498.893C122.089,-476.795 138.119,-452.523 155,-432 180.619,-400.853 212.486,-369.887 241.093,-344.249"/>
<polygon fill="blue" stroke="blue" points="243.528,-346.767 248.677,-337.507 238.878,-341.535 243.528,-346.767"/>
<text text-anchor="middle" x="201" y="-400.9" font-family="Times Roman,serif" font-size="14.00"> 1:m</text>
</g>
<!-- Address&#45;&gt;Target -->
<g id="edge6" class="edge"><title>Address&#45;&gt;Target</title>
<path fill="none" stroke="blue" d="M261.378,-498.949C272.824,-453.487 288.05,-393.011 299.519,-347.459"/>
<polygon fill="blue" stroke="blue" points="302.932,-348.237 301.98,-337.685 296.144,-346.528 302.932,-348.237"/>
<text text-anchor="middle" x="300" y="-400.9" font-family="Times Roman,serif" font-size="14.00"> 1:m</text>
</g>
<!-- MACAddress -->
<g id="node5" class="node"><title>MACAddress</title>
<polygon fill="none" stroke="black" points="344,-499 344,-629 506,-629 506,-499 344,-499"/>
<text text-anchor="middle" x="425" y="-612.4" font-family="Times Roman,serif" font-size="14.00">MACAddress</text>
<polyline fill="none" stroke="black" points="344,-602 506,-602 "/>
<text text-anchor="middle" x="425" y="-585.4" font-family="Times Roman,serif" font-size="14.00">id: Serial</text>
<text text-anchor="middle" x="425" y="-566.4" font-family="Times Roman,serif" font-size="14.00">type: Discriminator</text>
<text text-anchor="middle" x="425" y="-547.4" font-family="Times Roman,serif" font-size="14.00">address: String</text>
<text text-anchor="middle" x="425" y="-528.4" font-family="Times Roman,serif" font-size="14.00">created_at: DateTime</text>
<text text-anchor="middle" x="425" y="-509.4" font-family="Times Roman,serif" font-size="14.00">organization: Organization</text>
</g>
<!-- MACAddress&#45;&gt;Target -->
<g id="edge8" class="edge"><title>MACAddress&#45;&gt;Target</title>
<path fill="none" stroke="blue" d="M399.856,-498.949C382.247,-453.392 358.81,-392.757 341.191,-347.173"/>
<polygon fill="blue" stroke="blue" points="344.394,-345.751 337.524,-337.685 337.864,-348.275 344.394,-345.751"/>
<text text-anchor="middle" x="377" y="-400.9" font-family="Times Roman,serif" font-size="14.00"> 1:m</text>
</g>
<!-- IPAddressMACAddress -->
<g id="node8" class="node"><title>IPAddressMACAddress</title>
<polygon fill="none" stroke="black" points="401,-226.5 401,-337.5 571,-337.5 571,-226.5 401,-226.5"/>
<text text-anchor="middle" x="486" y="-320.9" font-family="Times Roman,serif" font-size="14.00">IPAddressMACAddress</text>
<polyline fill="none" stroke="black" points="401,-310.5 571,-310.5 "/>
<text text-anchor="middle" x="486" y="-293.9" font-family="Times Roman,serif" font-size="14.00">id: Serial</text>
<text text-anchor="middle" x="486" y="-274.9" font-family="Times Roman,serif" font-size="14.00">created_at: DateTime</text>
<text text-anchor="middle" x="486" y="-255.9" font-family="Times Roman,serif" font-size="14.00">ip_address: IPAddress</text>
<text text-anchor="middle" x="486" y="-236.9" font-family="Times Roman,serif" font-size="14.00">mac_address: MACAddress</text>
</g>
<!-- MACAddress&#45;&gt;IPAddressMACAddress -->
<g id="edge10" class="edge"><title>MACAddress&#45;&gt;IPAddressMACAddress</title>
<path fill="none" stroke="blue" d="M420.961,-498.931C420.564,-466.888 422.482,-427.943 431,-394 434.974,-378.166 441.374,-361.949 448.428,-346.947"/>
<polygon fill="blue" stroke="blue" points="451.661,-348.3 452.888,-337.776 445.366,-345.238 451.661,-348.3"/>
<text text-anchor="middle" x="444" y="-400.9" font-family="Times Roman,serif" font-size="14.00"> 1:m</text>
</g>
<!-- HostName -->
<g id="node6" class="node"><title>HostName</title>
<polygon fill="none" stroke="black" points="888,-499 888,-629 1050,-629 1050,-499 888,-499"/>
<text text-anchor="middle" x="969" y="-612.4" font-family="Times Roman,serif" font-size="14.00">HostName</text>
<polyline fill="none" stroke="black" points="888,-602 1050,-602 "/>
<text text-anchor="middle" x="969" y="-585.4" font-family="Times Roman,serif" font-size="14.00">id: Serial</text>
<text text-anchor="middle" x="969" y="-566.4" font-family="Times Roman,serif" font-size="14.00">type: Discriminator</text>
<text text-anchor="middle" x="969" y="-547.4" font-family="Times Roman,serif" font-size="14.00">address: String</text>
<text text-anchor="middle" x="969" y="-528.4" font-family="Times Roman,serif" font-size="14.00">created_at: DateTime</text>
<text text-anchor="middle" x="969" y="-509.4" font-family="Times Roman,serif" font-size="14.00">organization: Organization</text>
</g>
<!-- HostName&#45;&gt;Target -->
<g id="edge12" class="edge"><title>HostName&#45;&gt;Target</title>
<path fill="none" stroke="blue" d="M926.797,-498.671C896.751,-453.255 859.709,-399.845 848,-394 757.264,-348.708 482.637,-421.491 392,-376 377.845,-368.895 365.431,-357.811 354.961,-345.709"/>
<polygon fill="blue" stroke="blue" points="357.403,-343.167 348.363,-337.642 351.985,-347.599 357.403,-343.167"/>
<text text-anchor="middle" x="879" y="-400.9" font-family="Times Roman,serif" font-size="14.00"> 1:m</text>
</g>
<!-- EmailAddress -->
<g id="node22" class="node"><title>EmailAddress</title>
<polygon fill="none" stroke="black" points="1061,-226.5 1061,-337.5 1203,-337.5 1203,-226.5 1061,-226.5"/>
<text text-anchor="middle" x="1132" y="-320.9" font-family="Times Roman,serif" font-size="14.00">EmailAddress</text>
<polyline fill="none" stroke="black" points="1061,-310.5 1203,-310.5 "/>
<text text-anchor="middle" x="1132" y="-293.9" font-family="Times Roman,serif" font-size="14.00">id: Serial</text>
<text text-anchor="middle" x="1132" y="-274.9" font-family="Times Roman,serif" font-size="14.00">created_at: DateTime</text>
<text text-anchor="middle" x="1132" y="-255.9" font-family="Times Roman,serif" font-size="14.00">user_name: UserName</text>
<text text-anchor="middle" x="1132" y="-236.9" font-family="Times Roman,serif" font-size="14.00">host_name: HostName</text>
</g>
<!-- HostName&#45;&gt;EmailAddress -->
<g id="edge16" class="edge"><title>HostName&#45;&gt;EmailAddress</title>
<path fill="none" stroke="blue" d="M961.912,-498.666C961.722,-463.832 967.724,-422.421 992,-394 1010.08,-372.831 1028.69,-391.224 1052,-376 1064.66,-367.733 1076.41,-356.884 1086.8,-345.504"/>
<polygon fill="blue" stroke="blue" points="1089.45,-347.791 1093.43,-337.97 1084.2,-343.167 1089.45,-347.791"/>
<text text-anchor="middle" x="1005" y="-400.9" font-family="Times Roman,serif" font-size="14.00"> 1:m</text>
</g>
<!-- URL -->
<g id="node23" class="node"><title>URL</title>
<polygon fill="none" stroke="black" points="1221,-188.5 1221,-375.5 1363,-375.5 1363,-188.5 1221,-188.5"/>
<text text-anchor="middle" x="1292" y="-358.9" font-family="Times Roman,serif" font-size="14.00">URL</text>
<polyline fill="none" stroke="black" points="1221,-348.5 1363,-348.5 "/>
<text text-anchor="middle" x="1292" y="-331.9" font-family="Times Roman,serif" font-size="14.00">id: Serial</text>
<text text-anchor="middle" x="1292" y="-312.9" font-family="Times Roman,serif" font-size="14.00">path: String</text>
<text text-anchor="middle" x="1292" y="-293.9" font-family="Times Roman,serif" font-size="14.00">fragment: String</text>
<text text-anchor="middle" x="1292" y="-274.9" font-family="Times Roman,serif" font-size="14.00">last_scanned_at: Time</text>
<text text-anchor="middle" x="1292" y="-255.9" font-family="Times Roman,serif" font-size="14.00">created_at: DateTime</text>
<text text-anchor="middle" x="1292" y="-236.9" font-family="Times Roman,serif" font-size="14.00">scheme: URLScheme</text>
<text text-anchor="middle" x="1292" y="-217.9" font-family="Times Roman,serif" font-size="14.00">host_name: HostName</text>
<text text-anchor="middle" x="1292" y="-198.9" font-family="Times Roman,serif" font-size="14.00">port: TCPPort</text>
</g>
<!-- HostName&#45;&gt;URL -->
<g id="edge18" class="edge"><title>HostName&#45;&gt;URL</title>
<path fill="none" stroke="blue" d="M979.534,-498.607C988.991,-461.939 1006.77,-418.727 1040,-394 1101.66,-348.116 1144,-411.832 1212,-376 1212.09,-375.95 1212.19,-375.9 1212.28,-375.85"/>
<polygon fill="blue" stroke="blue" points="1214.09,-378.848 1220.9,-370.73 1210.51,-372.831 1214.09,-378.848"/>
<text text-anchor="middle" x="1053" y="-400.9" font-family="Times Roman,serif" font-size="14.00"> 1:m</text>
</g>
<!-- HostNameIPAddress -->
<g id="node24" class="node"><title>HostNameIPAddress</title>
<polygon fill="none" stroke="black" points="589,-226.5 589,-337.5 731,-337.5 731,-226.5 589,-226.5"/>
<text text-anchor="middle" x="660" y="-320.9" font-family="Times Roman,serif" font-size="14.00">HostNameIPAddress</text>
<polyline fill="none" stroke="black" points="589,-310.5 731,-310.5 "/>
<text text-anchor="middle" x="660" y="-293.9" font-family="Times Roman,serif" font-size="14.00">id: Serial</text>
<text text-anchor="middle" x="660" y="-274.9" font-family="Times Roman,serif" font-size="14.00">created_at: DateTime</text>
<text text-anchor="middle" x="660" y="-255.9" font-family="Times Roman,serif" font-size="14.00">host_name: HostName</text>
<text text-anchor="middle" x="660" y="-236.9" font-family="Times Roman,serif" font-size="14.00">ip_address: IPAddress</text>
</g>
<!-- HostName&#45;&gt;HostNameIPAddress -->
<g id="edge14" class="edge"><title>HostName&#45;&gt;HostNameIPAddress</title>
<path fill="none" stroke="blue" d="M959.588,-498.763C950.767,-462.149 933.75,-418.939 901,-394 843.716,-350.379 803.58,-409.791 740,-376 726.03,-368.575 713.463,-357.615 702.654,-345.776"/>
<polygon fill="blue" stroke="blue" points="705.008,-343.149 695.806,-337.897 699.724,-347.741 705.008,-343.149"/>
<text text-anchor="middle" x="932" y="-400.9" font-family="Times Roman,serif" font-size="14.00"> 1:m</text>
</g>
<!-- IPAddress -->
<g id="node7" class="node"><title>IPAddress</title>
<polygon fill="none" stroke="black" points="524,-489.5 524,-638.5 686,-638.5 686,-489.5 524,-489.5"/>
<text text-anchor="middle" x="605" y="-621.9" font-family="Times Roman,serif" font-size="14.00">IPAddress</text>
<polyline fill="none" stroke="black" points="524,-611.5 686,-611.5 "/>
<text text-anchor="middle" x="605" y="-594.9" font-family="Times Roman,serif" font-size="14.00">id: Serial</text>
<text text-anchor="middle" x="605" y="-575.9" font-family="Times Roman,serif" font-size="14.00">type: Discriminator</text>
<text text-anchor="middle" x="605" y="-556.9" font-family="Times Roman,serif" font-size="14.00">address: IPAddress</text>
<text text-anchor="middle" x="605" y="-537.9" font-family="Times Roman,serif" font-size="14.00">created_at: DateTime</text>
<text text-anchor="middle" x="605" y="-518.9" font-family="Times Roman,serif" font-size="14.00">version: Integer</text>
<text text-anchor="middle" x="605" y="-499.9" font-family="Times Roman,serif" font-size="14.00">organization: Organization</text>
</g>
<!-- IPAddress&#45;&gt;Target -->
<g id="edge20" class="edge"><title>IPAddress&#45;&gt;Target</title>
<path fill="none" stroke="blue" d="M561.631,-489.476C548.129,-469.565 532.219,-448.905 515,-432 493.009,-410.41 485.075,-406.709 457,-394 429.692,-381.638 417.065,-392.441 392,-376 379.596,-367.864 368.247,-357.054 358.317,-345.667"/>
<polygon fill="blue" stroke="blue" points="360.772,-343.146 351.673,-337.718 355.4,-347.635 360.772,-343.146"/>
<text text-anchor="middle" x="508" y="-400.9" font-family="Times Roman,serif" font-size="14.00"> 1:m</text>
</g>
<!-- IPAddress&#45;&gt;IPAddressMACAddress -->
<g id="edge22" class="edge"><title>IPAddress&#45;&gt;IPAddressMACAddress</title>
<path fill="none" stroke="blue" d="M573.423,-489.17C554.794,-445.025 531.444,-389.69 513.562,-347.316"/>
<polygon fill="blue" stroke="blue" points="516.716,-345.787 509.603,-337.934 510.267,-348.508 516.716,-345.787"/>
<text text-anchor="middle" x="552" y="-400.9" font-family="Times Roman,serif" font-size="14.00"> 1:m</text>
</g>
<!-- OpenPort -->
<g id="node18" class="node"><title>OpenPort</title>
<polygon fill="none" stroke="black" points="748.5,-207.5 748.5,-356.5 887.5,-356.5 887.5,-207.5 748.5,-207.5"/>
<text text-anchor="middle" x="818" y="-339.9" font-family="Times Roman,serif" font-size="14.00">OpenPort</text>
<polyline fill="none" stroke="black" points="748.5,-329.5 887.5,-329.5 "/>
<text text-anchor="middle" x="818" y="-312.9" font-family="Times Roman,serif" font-size="14.00">id: Serial</text>
<text text-anchor="middle" x="818" y="-293.9" font-family="Times Roman,serif" font-size="14.00">last_scanned_at: Time</text>
<text text-anchor="middle" x="818" y="-274.9" font-family="Times Roman,serif" font-size="14.00">created_at: DateTime</text>
<text text-anchor="middle" x="818" y="-255.9" font-family="Times Roman,serif" font-size="14.00">ip_address: IPAddress</text>
<text text-anchor="middle" x="818" y="-236.9" font-family="Times Roman,serif" font-size="14.00">port: Port</text>
<text text-anchor="middle" x="818" y="-217.9" font-family="Times Roman,serif" font-size="14.00">service: Service</text>
</g>
<!-- IPAddress&#45;&gt;OpenPort -->
<g id="edge26" class="edge"><title>IPAddress&#45;&gt;OpenPort</title>
<path fill="none" stroke="blue" d="M598.988,-489.133C600.462,-455.786 608.507,-418.577 633,-394 667.041,-359.842 698.208,-400.062 740,-376 746.05,-372.516 751.834,-368.374 757.321,-363.801"/>
<polygon fill="blue" stroke="blue" points="760.014,-366.088 765.142,-356.817 755.352,-360.867 760.014,-366.088"/>
<text text-anchor="middle" x="646" y="-400.9" font-family="Times Roman,serif" font-size="14.00"> 1:m</text>
</g>
<!-- IPAddress&#45;&gt;HostNameIPAddress -->
<g id="edge24" class="edge"><title>IPAddress&#45;&gt;HostNameIPAddress</title>
<path fill="none" stroke="blue" d="M582.441,-489.181C576.79,-459.105 574.654,-424.417 584,-394 589.106,-377.382 597.608,-361.016 607.116,-346.143"/>
<polygon fill="blue" stroke="blue" points="610.195,-347.834 612.813,-337.568 604.364,-343.961 610.195,-347.834"/>
<text text-anchor="middle" x="597" y="-400.9" font-family="Times Roman,serif" font-size="14.00"> 1:m</text>
</g>
<!-- OSGuess -->
<g id="node25" class="node"><title>OSGuess</title>
<polygon fill="none" stroke="black" points="905,-226.5 905,-337.5 1043,-337.5 1043,-226.5 905,-226.5"/>
<text text-anchor="middle" x="974" y="-320.9" font-family="Times Roman,serif" font-size="14.00">OSGuess</text>
<polyline fill="none" stroke="black" points="905,-310.5 1043,-310.5 "/>
<text text-anchor="middle" x="974" y="-293.9" font-family="Times Roman,serif" font-size="14.00">id: Serial</text>
<text text-anchor="middle" x="974" y="-274.9" font-family="Times Roman,serif" font-size="14.00">created_at: DateTime</text>
<text text-anchor="middle" x="974" y="-255.9" font-family="Times Roman,serif" font-size="14.00">ip_address: IPAddress</text>
<text text-anchor="middle" x="974" y="-236.9" font-family="Times Roman,serif" font-size="14.00">os: OS</text>
</g>
<!-- IPAddress&#45;&gt;OSGuess -->
<g id="edge28" class="edge"><title>IPAddress&#45;&gt;OSGuess</title>
<path fill="none" stroke="blue" d="M648.295,-489.218C662.773,-468.734 680.308,-447.837 700,-432 733.198,-405.302 747.133,-406.035 788,-394 834.68,-380.253 853.81,-400.249 896,-376 909.423,-368.285 921.534,-357.325 931.989,-345.599"/>
<polygon fill="blue" stroke="blue" points="934.803,-347.693 938.618,-337.809 929.471,-343.157 934.803,-347.693"/>
<text text-anchor="middle" x="801" y="-400.9" font-family="Times Roman,serif" font-size="14.00"> 1:m</text>
</g>
<!-- URLScheme -->
<g id="node9" class="node"><title>URLScheme</title>
<polygon fill="none" stroke="black" points="1407.5,-527.5 1407.5,-600.5 1494.5,-600.5 1494.5,-527.5 1407.5,-527.5"/>
<text text-anchor="middle" x="1451" y="-583.9" font-family="Times Roman,serif" font-size="14.00">URLScheme</text>
<polyline fill="none" stroke="black" points="1407.5,-573.5 1494.5,-573.5 "/>
<text text-anchor="middle" x="1451" y="-556.9" font-family="Times Roman,serif" font-size="14.00">name: String</text>
<text text-anchor="middle" x="1451" y="-537.9" font-family="Times Roman,serif" font-size="14.00">id: Serial</text>
</g>
<!-- URLScheme&#45;&gt;URL -->
<g id="edge30" class="edge"><title>URLScheme&#45;&gt;URL</title>
<path fill="none" stroke="blue" d="M1439.26,-527.365C1429.94,-500.265 1415.72,-462.861 1399,-432 1390.05,-415.474 1379.57,-398.632 1368.73,-382.49"/>
<polygon fill="blue" stroke="blue" points="1371.56,-380.42 1363.04,-374.118 1365.77,-384.355 1371.56,-380.42"/>
<text text-anchor="middle" x="1399" y="-400.9" font-family="Times Roman,serif" font-size="14.00"> 1:m</text>
</g>
<!-- URLQueryParamName -->
<g id="node10" class="node"><title>URLQueryParamName</title>
<polygon fill="none" stroke="black" points="1381,-245.5 1381,-318.5 1527,-318.5 1527,-245.5 1381,-245.5"/>
<text text-anchor="middle" x="1454" y="-301.9" font-family="Times Roman,serif" font-size="14.00">URLQueryParamName</text>
<polyline fill="none" stroke="black" points="1381,-291.5 1527,-291.5 "/>
<text text-anchor="middle" x="1454" y="-274.9" font-family="Times Roman,serif" font-size="14.00">name: String</text>
<text text-anchor="middle" x="1454" y="-255.9" font-family="Times Roman,serif" font-size="14.00">id: Serial</text>
</g>
<!-- URLQueryParam -->
<g id="node11" class="node"><title>URLQueryParam</title>
<polygon fill="none" stroke="black" points="1337.5,-10.5 1337.5,-121.5 1520.5,-121.5 1520.5,-10.5 1337.5,-10.5"/>
<text text-anchor="middle" x="1429" y="-104.9" font-family="Times Roman,serif" font-size="14.00">URLQueryParam</text>
<polyline fill="none" stroke="black" points="1337.5,-94.5 1520.5,-94.5 "/>
<text text-anchor="middle" x="1429" y="-77.9" font-family="Times Roman,serif" font-size="14.00">id: Serial</text>
<text text-anchor="middle" x="1429" y="-58.9" font-family="Times Roman,serif" font-size="14.00">value: Text</text>
<text text-anchor="middle" x="1429" y="-39.9" font-family="Times Roman,serif" font-size="14.00">name: URLQueryParamName</text>
<text text-anchor="middle" x="1429" y="-20.9" font-family="Times Roman,serif" font-size="14.00">url: URL</text>
</g>
<!-- URLQueryParamName&#45;&gt;URLQueryParam -->
<g id="edge32" class="edge"><title>URLQueryParamName&#45;&gt;URLQueryParam</title>
<path fill="none" stroke="blue" d="M1449.76,-245.359C1446.17,-214.333 1440.93,-169.087 1436.62,-131.802"/>
<polygon fill="blue" stroke="blue" points="1440.05,-131.047 1435.43,-121.516 1433.1,-131.852 1440.05,-131.047"/>
<text text-anchor="middle" x="1453" y="-156.9" font-family="Times Roman,serif" font-size="14.00"> 1:m</text>
</g>
<!-- Service -->
<g id="node12" class="node"><title>Service</title>
<polygon fill="none" stroke="black" points="1067.5,-527.5 1067.5,-600.5 1154.5,-600.5 1154.5,-527.5 1067.5,-527.5"/>
<text text-anchor="middle" x="1111" y="-583.9" font-family="Times Roman,serif" font-size="14.00">Service</text>
<polyline fill="none" stroke="black" points="1067.5,-573.5 1154.5,-573.5 "/>
<text text-anchor="middle" x="1111" y="-556.9" font-family="Times Roman,serif" font-size="14.00">name: String</text>
<text text-anchor="middle" x="1111" y="-537.9" font-family="Times Roman,serif" font-size="14.00">id: Serial</text>
</g>
<!-- Service&#45;&gt;OpenPort -->
<g id="edge34" class="edge"><title>Service&#45;&gt;OpenPort</title>
<path fill="none" stroke="blue" d="M1113.43,-527.33C1113.84,-488.067 1107.71,-426.979 1070,-394 1040.74,-368.408 930.288,-394.316 896,-376 889.57,-372.565 883.461,-368.358 877.702,-363.648"/>
<polygon fill="blue" stroke="blue" points="879.89,-360.912 870.068,-356.938 875.269,-366.169 879.89,-360.912"/>
<text text-anchor="middle" x="1099" y="-400.9" font-family="Times Roman,serif" font-size="14.00"> 1:m</text>
</g>
<!-- UserName -->
<g id="node13" class="node"><title>UserName</title>
<polygon fill="none" stroke="black" points="1512,-518 1512,-610 1646,-610 1646,-518 1512,-518"/>
<text text-anchor="middle" x="1579" y="-593.4" font-family="Times Roman,serif" font-size="14.00">UserName</text>
<polyline fill="none" stroke="black" points="1512,-583 1646,-583 "/>
<text text-anchor="middle" x="1579" y="-566.4" font-family="Times Roman,serif" font-size="14.00">name: String</text>
<text text-anchor="middle" x="1579" y="-547.4" font-family="Times Roman,serif" font-size="14.00">id: Serial</text>
<text text-anchor="middle" x="1579" y="-528.4" font-family="Times Roman,serif" font-size="14.00">created_at: DateTime</text>
</g>
<!-- Credential -->
<g id="node15" class="node"><title>Credential</title>
<polygon fill="none" stroke="black" points="1624,-236 1624,-328 1766,-328 1766,-236 1624,-236"/>
<text text-anchor="middle" x="1695" y="-311.4" font-family="Times Roman,serif" font-size="14.00">Credential</text>
<polyline fill="none" stroke="black" points="1624,-301 1766,-301 "/>
<text text-anchor="middle" x="1695" y="-284.4" font-family="Times Roman,serif" font-size="14.00">id: Serial</text>
<text text-anchor="middle" x="1695" y="-265.4" font-family="Times Roman,serif" font-size="14.00">password: Password</text>
<text text-anchor="middle" x="1695" y="-246.4" font-family="Times Roman,serif" font-size="14.00">user_name: UserName</text>
</g>
<!-- UserName&#45;&gt;Credential -->
<g id="edge36" class="edge"><title>UserName&#45;&gt;Credential</title>
<path fill="none" stroke="blue" d="M1598.03,-517.749C1618.3,-468.471 1650.39,-390.455 1672.05,-337.8"/>
<polygon fill="blue" stroke="blue" points="1675.4,-338.856 1675.96,-328.276 1668.92,-336.193 1675.4,-338.856"/>
<text text-anchor="middle" x="1660" y="-400.9" font-family="Times Roman,serif" font-size="14.00"> 1:m</text>
</g>
<!-- UserName&#45;&gt;EmailAddress -->
<g id="edge38" class="edge"><title>UserName&#45;&gt;EmailAddress</title>
<path fill="none" stroke="blue" d="M1561.23,-517.795C1548.55,-489.908 1529.11,-455.368 1503,-432 1471.56,-403.859 1456.88,-404.435 1416,-394 1371.9,-382.745 1252.43,-396.888 1212,-376 1197.65,-368.588 1184.82,-357.394 1173.85,-345.287"/>
<polygon fill="blue" stroke="blue" points="1176.45,-342.941 1167.27,-337.657 1171.15,-347.514 1176.45,-342.941"/>
<text text-anchor="middle" x="1491" y="-400.9" font-family="Times Roman,serif" font-size="14.00"> 1:m</text>
</g>
<!-- Password -->
<g id="node14" class="node"><title>Password</title>
<polygon fill="none" stroke="black" points="1664,-527.5 1664,-600.5 1774,-600.5 1774,-527.5 1664,-527.5"/>
<text text-anchor="middle" x="1719" y="-583.9" font-family="Times Roman,serif" font-size="14.00">Password</text>
<polyline fill="none" stroke="black" points="1664,-573.5 1774,-573.5 "/>
<text text-anchor="middle" x="1719" y="-556.9" font-family="Times Roman,serif" font-size="14.00">id: Serial</text>
<text text-anchor="middle" x="1719" y="-537.9" font-family="Times Roman,serif" font-size="14.00">clear_text: String</text>
</g>
<!-- Password&#45;&gt;Credential -->
<g id="edge40" class="edge"><title>Password&#45;&gt;Credential</title>
<path fill="none" stroke="blue" d="M1715.89,-527.423C1711.8,-479.441 1704.6,-394.757 1699.81,-338.503"/>
<polygon fill="blue" stroke="blue" points="1703.28,-338.013 1698.94,-328.346 1696.31,-338.606 1703.28,-338.013"/>
<text text-anchor="middle" x="1718" y="-400.9" font-family="Times Roman,serif" font-size="14.00"> 1:m</text>
</g>
<!-- ServiceCredential -->
<g id="node16" class="node"><title>ServiceCredential</title>
<polygon fill="none" stroke="black" points="747,-10.5 747,-121.5 889,-121.5 889,-10.5 747,-10.5"/>
<text text-anchor="middle" x="818" y="-104.9" font-family="Times Roman,serif" font-size="14.00">ServiceCredential</text>
<polyline fill="none" stroke="black" points="747,-94.5 889,-94.5 "/>
<text text-anchor="middle" x="818" y="-77.9" font-family="Times Roman,serif" font-size="14.00">id: Serial</text>
<text text-anchor="middle" x="818" y="-58.9" font-family="Times Roman,serif" font-size="14.00">password: Password</text>
<text text-anchor="middle" x="818" y="-39.9" font-family="Times Roman,serif" font-size="14.00">user_name: UserName</text>
<text text-anchor="middle" x="818" y="-20.9" font-family="Times Roman,serif" font-size="14.00">open_port: OpenPort</text>
</g>
<!-- WebCredential -->
<g id="node17" class="node"><title>WebCredential</title>
<polygon fill="none" stroke="black" points="1116.5,-1 1116.5,-131 1295.5,-131 1295.5,-1 1116.5,-1"/>
<text text-anchor="middle" x="1206" y="-114.4" font-family="Times Roman,serif" font-size="14.00">WebCredential</text>
<polyline fill="none" stroke="black" points="1116.5,-104 1295.5,-104 "/>
<text text-anchor="middle" x="1206" y="-87.4" font-family="Times Roman,serif" font-size="14.00">id: Serial</text>
<text text-anchor="middle" x="1206" y="-68.4" font-family="Times Roman,serif" font-size="14.00">password: Password</text>
<text text-anchor="middle" x="1206" y="-49.4" font-family="Times Roman,serif" font-size="14.00">user_name: UserName</text>
<text text-anchor="middle" x="1206" y="-30.4" font-family="Times Roman,serif" font-size="14.00">email_address: EmailAddress</text>
<text text-anchor="middle" x="1206" y="-11.4" font-family="Times Roman,serif" font-size="14.00">url: URL</text>
</g>
<!-- OpenPort&#45;&gt;ServiceCredential -->
<g id="edge42" class="edge"><title>OpenPort&#45;&gt;ServiceCredential</title>
<path fill="none" stroke="blue" d="M818,-207.363C818,-182.715 818,-155.497 818,-131.579"/>
<polygon fill="blue" stroke="blue" points="821.5,-131.548 818,-121.548 814.5,-131.548 821.5,-131.548"/>
<text text-anchor="middle" x="831" y="-156.9" font-family="Times Roman,serif" font-size="14.00"> 1:m</text>
</g>
<!-- Port -->
<g id="node19" class="node"><title>Port</title>
<polygon fill="none" stroke="black" points="700,-791 700,-883 804,-883 804,-791 700,-791"/>
<text text-anchor="middle" x="752" y="-866.4" font-family="Times Roman,serif" font-size="14.00">Port</text>
<polyline fill="none" stroke="black" points="700,-856 804,-856 "/>
<text text-anchor="middle" x="752" y="-839.4" font-family="Times Roman,serif" font-size="14.00">id: Serial</text>
<text text-anchor="middle" x="752" y="-820.4" font-family="Times Roman,serif" font-size="14.00">protocol: String</text>
<text text-anchor="middle" x="752" y="-801.4" font-family="Times Roman,serif" font-size="14.00">number: Integer</text>
</g>
<!-- Port&#45;&gt;OpenPort -->
<g id="edge44" class="edge"><title>Port&#45;&gt;OpenPort</title>
<path fill="none" stroke="blue" d="M740.449,-790.775C723.41,-714.534 697.026,-558.291 731,-432 737.124,-409.234 747.643,-386.359 759.295,-365.573"/>
<polygon fill="blue" stroke="blue" points="762.39,-367.211 764.348,-356.799 756.324,-363.718 762.39,-367.211"/>
<text text-anchor="middle" x="744" y="-560.9" font-family="Times Roman,serif" font-size="14.00"> 1:m</text>
</g>
<!-- UDPPort -->
<g id="node21" class="node"><title>UDPPort</title>
<polygon fill="none" stroke="black" points="766,-518 766,-610 870,-610 870,-518 766,-518"/>
<text text-anchor="middle" x="818" y="-593.4" font-family="Times Roman,serif" font-size="14.00">UDPPort</text>
<polyline fill="none" stroke="black" points="766,-583 870,-583 "/>
<text text-anchor="middle" x="818" y="-566.4" font-family="Times Roman,serif" font-size="14.00">id: Serial</text>
<text text-anchor="middle" x="818" y="-547.4" font-family="Times Roman,serif" font-size="14.00">protocol: String</text>
<text text-anchor="middle" x="818" y="-528.4" font-family="Times Roman,serif" font-size="14.00">number: Integer</text>
</g>
<!-- Port&#45;&gt;UDPPort -->
<g id="edge66" class="edge"><title>Port&#45;&gt;UDPPort</title>
<path fill="none" stroke="cyan" d="M763.121,-790.998C774.521,-743.843 792.261,-670.464 804.469,-619.97"/>
<polygon fill="cyan" stroke="cyan" points="807.885,-620.733 806.833,-610.191 801.081,-619.088 807.885,-620.733"/>
</g>
<!-- TCPPort -->
<g id="node20" class="node"><title>TCPPort</title>
<polygon fill="none" stroke="black" points="1172,-518 1172,-610 1276,-610 1276,-518 1172,-518"/>
<text text-anchor="middle" x="1224" y="-593.4" font-family="Times Roman,serif" font-size="14.00">TCPPort</text>
<polyline fill="none" stroke="black" points="1172,-583 1276,-583 "/>
<text text-anchor="middle" x="1224" y="-566.4" font-family="Times Roman,serif" font-size="14.00">id: Serial</text>
<text text-anchor="middle" x="1224" y="-547.4" font-family="Times Roman,serif" font-size="14.00">protocol: String</text>
<text text-anchor="middle" x="1224" y="-528.4" font-family="Times Roman,serif" font-size="14.00">number: Integer</text>
</g>
<!-- TCPPort&#45;&gt;OpenPort -->
<g id="edge46" class="edge"><title>TCPPort&#45;&gt;OpenPort</title>
<path fill="none" stroke="blue" d="M1208.64,-517.741C1198.35,-491.006 1183.02,-457.69 1163,-432 1146.49,-410.81 1140.94,-403.983 1116,-394 1024.92,-357.541 983.023,-421.294 896,-376 889.404,-372.567 883.152,-368.311 877.274,-363.522"/>
<polygon fill="blue" stroke="blue" points="879.315,-360.657 869.491,-356.689 874.696,-365.917 879.315,-360.657"/>
<text text-anchor="middle" x="1162" y="-400.9" font-family="Times Roman,serif" font-size="14.00"> 1:m</text>
</g>
<!-- TCPPort&#45;&gt;URL -->
<g id="edge48" class="edge"><title>TCPPort&#45;&gt;URL</title>
<path fill="none" stroke="blue" d="M1235.15,-517.749C1243.79,-481.938 1256.08,-430.95 1267.03,-385.548"/>
<polygon fill="blue" stroke="blue" points="1270.48,-386.194 1269.42,-375.652 1263.67,-384.553 1270.48,-386.194"/>
<text text-anchor="middle" x="1278" y="-400.9" font-family="Times Roman,serif" font-size="14.00"> 1:m</text>
</g>
<!-- UDPPort&#45;&gt;OpenPort -->
<g id="edge50" class="edge"><title>UDPPort&#45;&gt;OpenPort</title>
<path fill="none" stroke="blue" d="M818,-517.749C818,-476.891 818,-416.276 818,-366.742"/>
<polygon fill="blue" stroke="blue" points="821.5,-366.672 818,-356.672 814.5,-366.672 821.5,-366.672"/>
<text text-anchor="middle" x="831" y="-400.9" font-family="Times Roman,serif" font-size="14.00"> 1:m</text>
</g>
<!-- EmailAddress&#45;&gt;WebCredential -->
<g id="edge52" class="edge"><title>EmailAddress&#45;&gt;WebCredential</title>
<path fill="none" stroke="blue" d="M1151.06,-226.375C1159.98,-200.322 1170.75,-168.904 1180.37,-140.806"/>
<polygon fill="blue" stroke="blue" points="1183.79,-141.615 1183.72,-131.02 1177.17,-139.346 1183.79,-141.615"/>
<text text-anchor="middle" x="1189" y="-156.9" font-family="Times Roman,serif" font-size="14.00"> 1:m</text>
</g>
<!-- URL&#45;&gt;URLQueryParam -->
<g id="edge54" class="edge"><title>URL&#45;&gt;URLQueryParam</title>
<path fill="none" stroke="blue" d="M1351.49,-188.202C1363.84,-168.731 1376.59,-148.634 1388.09,-130.501"/>
<polygon fill="blue" stroke="blue" points="1391.23,-132.088 1393.63,-121.769 1385.32,-128.339 1391.23,-132.088"/>
<text text-anchor="middle" x="1385" y="-156.9" font-family="Times Roman,serif" font-size="14.00"> 1:m</text>
</g>
<!-- URL&#45;&gt;WebCredential -->
<g id="edge56" class="edge"><title>URL&#45;&gt;WebCredential</title>
<path fill="none" stroke="blue" d="M1254.65,-188.202C1248.31,-172.268 1241.8,-155.914 1235.69,-140.561"/>
<polygon fill="blue" stroke="blue" points="1238.89,-139.139 1231.94,-131.143 1232.38,-141.728 1238.89,-139.139"/>
<text text-anchor="middle" x="1260" y="-156.9" font-family="Times Roman,serif" font-size="14.00"> 1:m</text>
</g>
<!-- OS -->
<g id="node26" class="node"><title>OS</title>
<polygon fill="none" stroke="black" points="1293.5,-518 1293.5,-610 1390.5,-610 1390.5,-518 1293.5,-518"/>
<text text-anchor="middle" x="1342" y="-593.4" font-family="Times Roman,serif" font-size="14.00">OS</text>
<polyline fill="none" stroke="black" points="1293.5,-583 1390.5,-583 "/>
<text text-anchor="middle" x="1342" y="-566.4" font-family="Times Roman,serif" font-size="14.00">name: String</text>
<text text-anchor="middle" x="1342" y="-547.4" font-family="Times Roman,serif" font-size="14.00">id: Serial</text>
<text text-anchor="middle" x="1342" y="-528.4" font-family="Times Roman,serif" font-size="14.00">version: String</text>
</g>
<!-- OS&#45;&gt;OSGuess -->
<g id="edge58" class="edge"><title>OS&#45;&gt;OSGuess</title>
<path fill="none" stroke="blue" d="M1342.86,-517.638C1340.86,-478.289 1331.09,-423.634 1295,-394 1253.15,-359.637 1100.13,-400.814 1052,-376 1037.93,-368.746 1025.43,-357.729 1014.79,-345.762"/>
<polygon fill="blue" stroke="blue" points="1017.19,-343.176 1008.06,-337.79 1011.84,-347.69 1017.19,-343.176"/>
<text text-anchor="middle" x="1325" y="-400.9" font-family="Times Roman,serif" font-size="14.00"> 1:m</text>
</g>
<!-- Vendor -->
<g id="node27" class="node"><title>Vendor</title>
<polygon fill="none" stroke="black" points="1799.5,-800.5 1799.5,-873.5 1886.5,-873.5 1886.5,-800.5 1799.5,-800.5"/>
<text text-anchor="middle" x="1843" y="-856.9" font-family="Times Roman,serif" font-size="14.00">Vendor</text>
<polyline fill="none" stroke="black" points="1799.5,-846.5 1886.5,-846.5 "/>
<text text-anchor="middle" x="1843" y="-829.9" font-family="Times Roman,serif" font-size="14.00">name: String</text>
<text text-anchor="middle" x="1843" y="-810.9" font-family="Times Roman,serif" font-size="14.00">id: Serial</text>
</g>
<!-- Software -->
<g id="node32" class="node"><title>Software</title>
<polygon fill="none" stroke="black" points="1792,-508.5 1792,-619.5 1894,-619.5 1894,-508.5 1792,-508.5"/>
<text text-anchor="middle" x="1843" y="-602.9" font-family="Times Roman,serif" font-size="14.00">Software</text>
<polyline fill="none" stroke="black" points="1792,-592.5 1894,-592.5 "/>
<text text-anchor="middle" x="1843" y="-575.9" font-family="Times Roman,serif" font-size="14.00">id: Serial</text>
<text text-anchor="middle" x="1843" y="-556.9" font-family="Times Roman,serif" font-size="14.00">name: String</text>
<text text-anchor="middle" x="1843" y="-537.9" font-family="Times Roman,serif" font-size="14.00">version: String</text>
<text text-anchor="middle" x="1843" y="-518.9" font-family="Times Roman,serif" font-size="14.00">vendor: Vendor</text>
</g>
<!-- Vendor&#45;&gt;Software -->
<g id="edge60" class="edge"><title>Vendor&#45;&gt;Software</title>
<path fill="none" stroke="blue" d="M1843,-800.465C1843,-756.923 1843,-683.34 1843,-629.8"/>
<polygon fill="blue" stroke="blue" points="1846.5,-629.712 1843,-619.712 1839.5,-629.712 1846.5,-629.712"/>
<text text-anchor="middle" x="1856" y="-720.9" font-family="Times Roman,serif" font-size="14.00"> 1:m</text>
</g>
<!-- License -->
<g id="node28" class="node"><title>License</title>
<polygon fill="none" stroke="black" points="1914.5,-781.5 1914.5,-892.5 2023.5,-892.5 2023.5,-781.5 1914.5,-781.5"/>
<text text-anchor="middle" x="1969" y="-875.9" font-family="Times Roman,serif" font-size="14.00">License</text>
<polyline fill="none" stroke="black" points="1914.5,-865.5 2023.5,-865.5 "/>
<text text-anchor="middle" x="1969" y="-848.9" font-family="Times Roman,serif" font-size="14.00">name: String</text>
<text text-anchor="middle" x="1969" y="-829.9" font-family="Times Roman,serif" font-size="14.00">id: Serial</text>
<text text-anchor="middle" x="1969" y="-810.9" font-family="Times Roman,serif" font-size="14.00">description: Text</text>
<text text-anchor="middle" x="1969" y="-791.9" font-family="Times Roman,serif" font-size="14.00">url: String</text>
</g>
<!-- Repository -->
<g id="node31" class="node"><title>Repository</title>
<polygon fill="none" stroke="black" points="1911.5,-432.5 1911.5,-695.5 2026.5,-695.5 2026.5,-432.5 1911.5,-432.5"/>
<text text-anchor="middle" x="1969" y="-678.9" font-family="Times Roman,serif" font-size="14.00">Repository</text>
<polyline fill="none" stroke="black" points="1911.5,-668.5 2026.5,-668.5 "/>
<text text-anchor="middle" x="1969" y="-651.9" font-family="Times Roman,serif" font-size="14.00">id: Serial</text>
<text text-anchor="middle" x="1969" y="-632.9" font-family="Times Roman,serif" font-size="14.00">scm: String</text>
<text text-anchor="middle" x="1969" y="-613.9" font-family="Times Roman,serif" font-size="14.00">path: FilePath</text>
<text text-anchor="middle" x="1969" y="-594.9" font-family="Times Roman,serif" font-size="14.00">uri: URI</text>
<text text-anchor="middle" x="1969" y="-575.9" font-family="Times Roman,serif" font-size="14.00">installed: Boolean</text>
<text text-anchor="middle" x="1969" y="-556.9" font-family="Times Roman,serif" font-size="14.00">name: String</text>
<text text-anchor="middle" x="1969" y="-537.9" font-family="Times Roman,serif" font-size="14.00">domain: String</text>
<text text-anchor="middle" x="1969" y="-518.9" font-family="Times Roman,serif" font-size="14.00">title: Text</text>
<text text-anchor="middle" x="1969" y="-499.9" font-family="Times Roman,serif" font-size="14.00">source: URI</text>
<text text-anchor="middle" x="1969" y="-480.9" font-family="Times Roman,serif" font-size="14.00">website: URI</text>
<text text-anchor="middle" x="1969" y="-461.9" font-family="Times Roman,serif" font-size="14.00">description: Text</text>
<text text-anchor="middle" x="1969" y="-442.9" font-family="Times Roman,serif" font-size="14.00">license: License</text>
</g>
<!-- License&#45;&gt;Repository -->
<g id="edge62" class="edge"><title>License&#45;&gt;Repository</title>
<path fill="none" stroke="blue" d="M1969,-781.425C1969,-759.307 1969,-732.752 1969,-705.917"/>
<polygon fill="blue" stroke="blue" points="1972.5,-705.627 1969,-695.627 1965.5,-705.627 1972.5,-705.627"/>
<text text-anchor="middle" x="1982" y="-720.9" font-family="Times Roman,serif" font-size="14.00"> 1:m</text>
</g>
<!-- Author -->
<g id="node29" class="node"><title>Author</title>
<polygon fill="none" stroke="black" points="2040.5,-753 2040.5,-921 2165.5,-921 2165.5,-753 2040.5,-753"/>
<text text-anchor="middle" x="2103" y="-904.4" font-family="Times Roman,serif" font-size="14.00">Author</text>
<polyline fill="none" stroke="black" points="2040.5,-894 2165.5,-894 "/>
<text text-anchor="middle" x="2103" y="-877.4" font-family="Times Roman,serif" font-size="14.00">name: String</text>
<text text-anchor="middle" x="2103" y="-858.4" font-family="Times Roman,serif" font-size="14.00">id: Serial</text>
<text text-anchor="middle" x="2103" y="-839.4" font-family="Times Roman,serif" font-size="14.00">organization: String</text>
<text text-anchor="middle" x="2103" y="-820.4" font-family="Times Roman,serif" font-size="14.00">pgp_signature: Text</text>
<text text-anchor="middle" x="2103" y="-801.4" font-family="Times Roman,serif" font-size="14.00">email: String</text>
<text text-anchor="middle" x="2103" y="-782.4" font-family="Times Roman,serif" font-size="14.00">site: String</text>
<text text-anchor="middle" x="2103" y="-763.4" font-family="Times Roman,serif" font-size="14.00">biography: Text</text>
</g>
<!-- Path -->
<g id="node30" class="node"><title>Path</title>
<polygon fill="none" stroke="black" points="1900,-217 1900,-347 2038,-347 2038,-217 1900,-217"/>
<text text-anchor="middle" x="1969" y="-330.4" font-family="Times Roman,serif" font-size="14.00">Path</text>
<polyline fill="none" stroke="black" points="1900,-320 2038,-320 "/>
<text text-anchor="middle" x="1969" y="-303.4" font-family="Times Roman,serif" font-size="14.00">id: Serial</text>
<text text-anchor="middle" x="1969" y="-284.4" font-family="Times Roman,serif" font-size="14.00">path: FilePath</text>
<text text-anchor="middle" x="1969" y="-265.4" font-family="Times Roman,serif" font-size="14.00">timestamp: Time</text>
<text text-anchor="middle" x="1969" y="-246.4" font-family="Times Roman,serif" font-size="14.00">class_name: String</text>
<text text-anchor="middle" x="1969" y="-227.4" font-family="Times Roman,serif" font-size="14.00">repository: Repository</text>
</g>
<!-- Repository&#45;&gt;Path -->
<g id="edge64" class="edge"><title>Repository&#45;&gt;Path</title>
<path fill="none" stroke="blue" d="M1969,-432.495C1969,-406.728 1969,-380.537 1969,-357.383"/>
<polygon fill="blue" stroke="blue" points="1972.5,-357.315 1969,-347.315 1965.5,-357.315 1972.5,-357.315"/>
<text text-anchor="middle" x="1982" y="-400.9" font-family="Times Roman,serif" font-size="14.00"> 1:m</text>
</g>
<!-- Arch -->
<g id="node33" class="node"><title>Arch</title>
<polygon fill="none" stroke="black" points="2182.5,-781.5 2182.5,-892.5 2325.5,-892.5 2325.5,-781.5 2182.5,-781.5"/>
<text text-anchor="middle" x="2254" y="-875.9" font-family="Times Roman,serif" font-size="14.00">Arch</text>
<polyline fill="none" stroke="black" points="2182.5,-865.5 2325.5,-865.5 "/>
<text text-anchor="middle" x="2254" y="-848.9" font-family="Times Roman,serif" font-size="14.00">name: String</text>
<text text-anchor="middle" x="2254" y="-829.9" font-family="Times Roman,serif" font-size="14.00">id: Serial</text>
<text text-anchor="middle" x="2254" y="-810.9" font-family="Times Roman,serif" font-size="14.00">endian: String</text>
<text text-anchor="middle" x="2254" y="-791.9" font-family="Times Roman,serif" font-size="14.00">address_length: Integer</text>
</g>
</g>
</svg>
