<?xml version="1.0" encoding="UTF-8" standalone="no"?>
<!DOCTYPE svg PUBLIC "-//W3C//DTD SVG 1.1//EN"
 "http://www.w3.org/Graphics/SVG/1.1/DTD/svg11.dtd">
<!-- Generated by graphviz version 2.26.3 (20100126.1600)
 -->
<!-- Title: G Pages: 1 -->
<svg width="2253pt" height="930pt"
 viewBox="0.00 0.00 2253.00 930.00" xmlns="http://www.w3.org/2000/svg" xmlns:xlink="http://www.w3.org/1999/xlink">
<g id="graph1" class="graph" transform="scale(1 1) rotate(0) translate(4 926)">
<title>G</title>
<polygon fill="white" stroke="white" points="-4,5 -4,-926 2250,-926 2250,5 -4,5"/>
<!-- Arch -->
<g id="node1" class="node"><title>Arch</title>
<polygon fill="none" stroke="black" points="-0.5,-781.5 -0.5,-892.5 142.5,-892.5 142.5,-781.5 -0.5,-781.5"/>
<text text-anchor="middle" x="71" y="-875.9" font-family="Times Roman,serif" font-size="14.00">Arch</text>
<polyline fill="none" stroke="black" points="-0.5,-865.5 142.5,-865.5 "/>
<text text-anchor="middle" x="71" y="-848.9" font-family="Times Roman,serif" font-size="14.00">name: String</text>
<text text-anchor="middle" x="71" y="-829.9" font-family="Times Roman,serif" font-size="14.00">id: Serial</text>
<text text-anchor="middle" x="71" y="-810.9" font-family="Times Roman,serif" font-size="14.00">endian: String</text>
<text text-anchor="middle" x="71" y="-791.9" font-family="Times Roman,serif" font-size="14.00">address_length: Integer</text>
</g>
<!-- Organization -->
<g id="node2" class="node"><title>Organization</title>
<polygon fill="none" stroke="black" points="159.5,-781.5 159.5,-892.5 306.5,-892.5 306.5,-781.5 159.5,-781.5"/>
<text text-anchor="middle" x="233" y="-875.9" font-family="Times Roman,serif" font-size="14.00">Organization</text>
<polyline fill="none" stroke="black" points="159.5,-865.5 306.5,-865.5 "/>
<text text-anchor="middle" x="233" y="-848.9" font-family="Times Roman,serif" font-size="14.00">name: String</text>
<text text-anchor="middle" x="233" y="-829.9" font-family="Times Roman,serif" font-size="14.00">description: Description</text>
<text text-anchor="middle" x="233" y="-810.9" font-family="Times Roman,serif" font-size="14.00">id: Serial</text>
<text text-anchor="middle" x="233" y="-791.9" font-family="Times Roman,serif" font-size="14.00">created_at: DateTime</text>
</g>
<!-- Address -->
<g id="node5" class="node"><title>Address</title>
<polygon fill="none" stroke="black" points="152,-499 152,-629 314,-629 314,-499 152,-499"/>
<text text-anchor="middle" x="233" y="-612.4" font-family="Times Roman,serif" font-size="14.00">Address</text>
<polyline fill="none" stroke="black" points="152,-602 314,-602 "/>
<text text-anchor="middle" x="233" y="-585.4" font-family="Times Roman,serif" font-size="14.00">id: Serial</text>
<text text-anchor="middle" x="233" y="-566.4" font-family="Times Roman,serif" font-size="14.00">type: Discriminator</text>
<text text-anchor="middle" x="233" y="-547.4" font-family="Times Roman,serif" font-size="14.00">address: String</text>
<text text-anchor="middle" x="233" y="-528.4" font-family="Times Roman,serif" font-size="14.00">created_at: DateTime</text>
<text text-anchor="middle" x="233" y="-509.4" font-family="Times Roman,serif" font-size="14.00">organization: Organization</text>
</g>
<!-- Organization&#45;&gt;Address -->
<g id="edge2" class="edge"><title>Organization&#45;&gt;Address</title>
<path fill="none" stroke="blue" d="M233,-781.425C233,-740.408 233,-684.132 233,-639.11"/>
<polygon fill="blue" stroke="blue" points="236.5,-639.1 233,-629.1 229.5,-639.1 236.5,-639.1"/>
<text text-anchor="middle" x="246" y="-720.9" font-family="Times Roman,serif" font-size="14.00"> 1:m</text>
</g>
<!-- Campaign -->
<g id="node3" class="node"><title>Campaign</title>
<polygon fill="none" stroke="black" points="331.5,-499 331.5,-629 478.5,-629 478.5,-499 331.5,-499"/>
<text text-anchor="middle" x="405" y="-612.4" font-family="Times Roman,serif" font-size="14.00">Campaign</text>
<polyline fill="none" stroke="black" points="331.5,-602 478.5,-602 "/>
<text text-anchor="middle" x="405" y="-585.4" font-family="Times Roman,serif" font-size="14.00">name: String</text>
<text text-anchor="middle" x="405" y="-566.4" font-family="Times Roman,serif" font-size="14.00">description: Description</text>
<text text-anchor="middle" x="405" y="-547.4" font-family="Times Roman,serif" font-size="14.00">id: Serial</text>
<text text-anchor="middle" x="405" y="-528.4" font-family="Times Roman,serif" font-size="14.00">created_at: DateTime</text>
<text text-anchor="middle" x="405" y="-509.4" font-family="Times Roman,serif" font-size="14.00">updated_at: DateTime</text>
</g>
<!-- Target -->
<g id="node4" class="node"><title>Target</title>
<polygon fill="none" stroke="black" points="419,-226.5 419,-337.5 553,-337.5 553,-226.5 419,-226.5"/>
<text text-anchor="middle" x="486" y="-320.9" font-family="Times Roman,serif" font-size="14.00">Target</text>
<polyline fill="none" stroke="black" points="419,-310.5 553,-310.5 "/>
<text text-anchor="middle" x="486" y="-293.9" font-family="Times Roman,serif" font-size="14.00">id: Serial</text>
<text text-anchor="middle" x="486" y="-274.9" font-family="Times Roman,serif" font-size="14.00">created_at: DateTime</text>
<text text-anchor="middle" x="486" y="-255.9" font-family="Times Roman,serif" font-size="14.00">campaign: Campaign</text>
<text text-anchor="middle" x="486" y="-236.9" font-family="Times Roman,serif" font-size="14.00">address: Address</text>
</g>
<!-- Campaign&#45;&gt;Target -->
<g id="edge4" class="edge"><title>Campaign&#45;&gt;Target</title>
<path fill="none" stroke="blue" d="M421.409,-498.795C429.611,-467.065 439.918,-428.427 450,-394 454.426,-378.886 459.452,-362.715 464.315,-347.496"/>
<polygon fill="blue" stroke="blue" points="467.751,-348.244 467.479,-337.653 461.087,-346.102 467.751,-348.244"/>
<text text-anchor="middle" x="463" y="-400.9" font-family="Times Roman,serif" font-size="14.00"> 1:m</text>
</g>
<!-- Address&#45;&gt;Target -->
<g id="edge6" class="edge"><title>Address&#45;&gt;Target</title>
<path fill="none" stroke="blue" d="M273.221,-498.724C287.873,-476.731 305.227,-452.566 323,-432 349.661,-401.149 382.197,-370.123 411.169,-344.359"/>
<polygon fill="blue" stroke="blue" points="413.665,-346.825 418.844,-337.582 409.031,-341.577 413.665,-346.825"/>
<text text-anchor="middle" x="369" y="-400.9" font-family="Times Roman,serif" font-size="14.00"> 1:m</text>
</g>
<!-- MACAddress -->
<g id="node6" class="node"><title>MACAddress</title>
<polygon fill="none" stroke="black" points="496,-499 496,-629 658,-629 658,-499 496,-499"/>
<text text-anchor="middle" x="577" y="-612.4" font-family="Times Roman,serif" font-size="14.00">MACAddress</text>
<polyline fill="none" stroke="black" points="496,-602 658,-602 "/>
<text text-anchor="middle" x="577" y="-585.4" font-family="Times Roman,serif" font-size="14.00">id: Serial</text>
<text text-anchor="middle" x="577" y="-566.4" font-family="Times Roman,serif" font-size="14.00">type: Discriminator</text>
<text text-anchor="middle" x="577" y="-547.4" font-family="Times Roman,serif" font-size="14.00">address: String</text>
<text text-anchor="middle" x="577" y="-528.4" font-family="Times Roman,serif" font-size="14.00">created_at: DateTime</text>
<text text-anchor="middle" x="577" y="-509.4" font-family="Times Roman,serif" font-size="14.00">organization: Organization</text>
</g>
<!-- MACAddress&#45;&gt;Target -->
<g id="edge8" class="edge"><title>MACAddress&#45;&gt;Target</title>
<path fill="none" stroke="blue" d="M543.804,-498.865C531.71,-472.985 518.849,-442.61 510,-414 503.435,-392.773 498.43,-369.037 494.734,-347.61"/>
<polygon fill="blue" stroke="blue" points="498.166,-346.914 493.075,-337.622 491.261,-348.06 498.166,-346.914"/>
<text text-anchor="middle" x="523" y="-400.9" font-family="Times Roman,serif" font-size="14.00"> 1:m</text>
</g>
<!-- IPAddressMACAddress -->
<g id="node15" class="node"><title>IPAddressMACAddress</title>
<polygon fill="none" stroke="black" points="571,-226.5 571,-337.5 741,-337.5 741,-226.5 571,-226.5"/>
<text text-anchor="middle" x="656" y="-320.9" font-family="Times Roman,serif" font-size="14.00">IPAddressMACAddress</text>
<polyline fill="none" stroke="black" points="571,-310.5 741,-310.5 "/>
<text text-anchor="middle" x="656" y="-293.9" font-family="Times Roman,serif" font-size="14.00">id: Serial</text>
<text text-anchor="middle" x="656" y="-274.9" font-family="Times Roman,serif" font-size="14.00">created_at: DateTime</text>
<text text-anchor="middle" x="656" y="-255.9" font-family="Times Roman,serif" font-size="14.00">ip_address: IPAddress</text>
<text text-anchor="middle" x="656" y="-236.9" font-family="Times Roman,serif" font-size="14.00">mac_address: MACAddress</text>
</g>
<!-- MACAddress&#45;&gt;IPAddressMACAddress -->
<g id="edge10" class="edge"><title>MACAddress&#45;&gt;IPAddressMACAddress</title>
<path fill="none" stroke="blue" d="M590.717,-498.602C597.806,-466.827 607.049,-428.208 617,-394 621.411,-378.837 626.68,-362.706 631.896,-347.548"/>
<polygon fill="blue" stroke="blue" points="635.325,-348.343 635.307,-337.748 628.714,-346.042 635.325,-348.343"/>
<text text-anchor="middle" x="630" y="-400.9" font-family="Times Roman,serif" font-size="14.00"> 1:m</text>
</g>
<!-- IPAddress -->
<g id="node7" class="node"><title>IPAddress</title>
<polygon fill="none" stroke="black" points="790,-489.5 790,-638.5 952,-638.5 952,-489.5 790,-489.5"/>
<text text-anchor="middle" x="871" y="-621.9" font-family="Times Roman,serif" font-size="14.00">IPAddress</text>
<polyline fill="none" stroke="black" points="790,-611.5 952,-611.5 "/>
<text text-anchor="middle" x="871" y="-594.9" font-family="Times Roman,serif" font-size="14.00">id: Serial</text>
<text text-anchor="middle" x="871" y="-575.9" font-family="Times Roman,serif" font-size="14.00">type: Discriminator</text>
<text text-anchor="middle" x="871" y="-556.9" font-family="Times Roman,serif" font-size="14.00">address: IPAddress</text>
<text text-anchor="middle" x="871" y="-537.9" font-family="Times Roman,serif" font-size="14.00">created_at: DateTime</text>
<text text-anchor="middle" x="871" y="-518.9" font-family="Times Roman,serif" font-size="14.00">version: Integer</text>
<text text-anchor="middle" x="871" y="-499.9" font-family="Times Roman,serif" font-size="14.00">organization: Organization</text>
</g>
<!-- IPAddress&#45;&gt;Target -->
<g id="edge12" class="edge"><title>IPAddress&#45;&gt;Target</title>
<path fill="none" stroke="blue" d="M836.159,-489.229C822.16,-467.197 803.837,-445.42 781,-432 704.436,-387.007 659.238,-457.825 582,-414 554.773,-398.551 533.167,-371.854 517.402,-346.494"/>
<polygon fill="blue" stroke="blue" points="520.213,-344.376 512.069,-337.6 514.21,-347.976 520.213,-344.376"/>
<text text-anchor="middle" x="595" y="-400.9" font-family="Times Roman,serif" font-size="14.00"> 1:m</text>
</g>
<!-- IPAddress&#45;&gt;IPAddressMACAddress -->
<g id="edge14" class="edge"><title>IPAddress&#45;&gt;IPAddressMACAddress</title>
<path fill="none" stroke="blue" d="M827.727,-489.378C814.226,-469.467 798.293,-448.83 781,-432 770.398,-421.682 763.782,-424.13 753,-414 731.771,-394.056 712.002,-368.942 695.924,-345.987"/>
<polygon fill="blue" stroke="blue" points="698.728,-343.888 690.171,-337.641 692.964,-347.861 698.728,-343.888"/>
<text text-anchor="middle" x="766" y="-400.9" font-family="Times Roman,serif" font-size="14.00"> 1:m</text>
</g>
<!-- OSGuess -->
<g id="node16" class="node"><title>OSGuess</title>
<polygon fill="none" stroke="black" points="759,-226.5 759,-337.5 897,-337.5 897,-226.5 759,-226.5"/>
<text text-anchor="middle" x="828" y="-320.9" font-family="Times Roman,serif" font-size="14.00">OSGuess</text>
<polyline fill="none" stroke="black" points="759,-310.5 897,-310.5 "/>
<text text-anchor="middle" x="828" y="-293.9" font-family="Times Roman,serif" font-size="14.00">id: Serial</text>
<text text-anchor="middle" x="828" y="-274.9" font-family="Times Roman,serif" font-size="14.00">created_at: DateTime</text>
<text text-anchor="middle" x="828" y="-255.9" font-family="Times Roman,serif" font-size="14.00">ip_address: IPAddress</text>
<text text-anchor="middle" x="828" y="-236.9" font-family="Times Roman,serif" font-size="14.00">os: OS</text>
</g>
<!-- IPAddress&#45;&gt;OSGuess -->
<g id="edge20" class="edge"><title>IPAddress&#45;&gt;OSGuess</title>
<path fill="none" stroke="blue" d="M859.59,-489.17C852.887,-445.211 844.492,-390.155 838.041,-347.85"/>
<polygon fill="blue" stroke="blue" points="841.496,-347.292 836.529,-337.934 834.576,-348.347 841.496,-347.292"/>
<text text-anchor="middle" x="860" y="-400.9" font-family="Times Roman,serif" font-size="14.00"> 1:m</text>
</g>
<!-- OpenPort -->
<g id="node22" class="node"><title>OpenPort</title>
<polygon fill="none" stroke="black" points="1074.5,-207.5 1074.5,-356.5 1213.5,-356.5 1213.5,-207.5 1074.5,-207.5"/>
<text text-anchor="middle" x="1144" y="-339.9" font-family="Times Roman,serif" font-size="14.00">OpenPort</text>
<polyline fill="none" stroke="black" points="1074.5,-329.5 1213.5,-329.5 "/>
<text text-anchor="middle" x="1144" y="-312.9" font-family="Times Roman,serif" font-size="14.00">id: Serial</text>
<text text-anchor="middle" x="1144" y="-293.9" font-family="Times Roman,serif" font-size="14.00">last_scanned_at: Time</text>
<text text-anchor="middle" x="1144" y="-274.9" font-family="Times Roman,serif" font-size="14.00">created_at: DateTime</text>
<text text-anchor="middle" x="1144" y="-255.9" font-family="Times Roman,serif" font-size="14.00">ip_address: IPAddress</text>
<text text-anchor="middle" x="1144" y="-236.9" font-family="Times Roman,serif" font-size="14.00">port: Port</text>
<text text-anchor="middle" x="1144" y="-217.9" font-family="Times Roman,serif" font-size="14.00">service: Service</text>
</g>
<!-- IPAddress&#45;&gt;OpenPort -->
<g id="edge18" class="edge"><title>IPAddress&#45;&gt;OpenPort</title>
<path fill="none" stroke="blue" d="M912.701,-489.47C926.333,-469.224 942.727,-448.391 961,-432 980.685,-414.342 1045.51,-392.711 1066,-376 1070.53,-372.308 1074.98,-368.323 1079.33,-364.149"/>
<polygon fill="blue" stroke="blue" points="1081.93,-366.505 1086.54,-356.967 1076.99,-361.546 1081.93,-366.505"/>
<text text-anchor="middle" x="1047" y="-400.9" font-family="Times Roman,serif" font-size="14.00"> 1:m</text>
</g>
<!-- HostNameIPAddress -->
<g id="node23" class="node"><title>HostNameIPAddress</title>
<polygon fill="none" stroke="black" points="915,-226.5 915,-337.5 1057,-337.5 1057,-226.5 915,-226.5"/>
<text text-anchor="middle" x="986" y="-320.9" font-family="Times Roman,serif" font-size="14.00">HostNameIPAddress</text>
<polyline fill="none" stroke="black" points="915,-310.5 1057,-310.5 "/>
<text text-anchor="middle" x="986" y="-293.9" font-family="Times Roman,serif" font-size="14.00">id: Serial</text>
<text text-anchor="middle" x="986" y="-274.9" font-family="Times Roman,serif" font-size="14.00">created_at: DateTime</text>
<text text-anchor="middle" x="986" y="-255.9" font-family="Times Roman,serif" font-size="14.00">host_name: HostName</text>
<text text-anchor="middle" x="986" y="-236.9" font-family="Times Roman,serif" font-size="14.00">ip_address: IPAddress</text>
</g>
<!-- IPAddress&#45;&gt;HostNameIPAddress -->
<g id="edge16" class="edge"><title>IPAddress&#45;&gt;HostNameIPAddress</title>
<path fill="none" stroke="blue" d="M883.761,-489.434C890.395,-459.075 899.915,-424.113 913,-394 919.998,-377.896 929.235,-361.529 938.776,-346.46"/>
<polygon fill="blue" stroke="blue" points="941.919,-348.047 944.415,-337.75 936.043,-344.243 941.919,-348.047"/>
<text text-anchor="middle" x="926" y="-400.9" font-family="Times Roman,serif" font-size="14.00"> 1:m</text>
</g>
<!-- HostName -->
<g id="node8" class="node"><title>HostName</title>
<polygon fill="none" stroke="black" points="1196,-499 1196,-629 1358,-629 1358,-499 1196,-499"/>
<text text-anchor="middle" x="1277" y="-612.4" font-family="Times Roman,serif" font-size="14.00">HostName</text>
<polyline fill="none" stroke="black" points="1196,-602 1358,-602 "/>
<text text-anchor="middle" x="1277" y="-585.4" font-family="Times Roman,serif" font-size="14.00">id: Serial</text>
<text text-anchor="middle" x="1277" y="-566.4" font-family="Times Roman,serif" font-size="14.00">type: Discriminator</text>
<text text-anchor="middle" x="1277" y="-547.4" font-family="Times Roman,serif" font-size="14.00">address: String</text>
<text text-anchor="middle" x="1277" y="-528.4" font-family="Times Roman,serif" font-size="14.00">created_at: DateTime</text>
<text text-anchor="middle" x="1277" y="-509.4" font-family="Times Roman,serif" font-size="14.00">organization: Organization</text>
</g>
<!-- HostName&#45;&gt;Target -->
<g id="edge22" class="edge"><title>HostName&#45;&gt;Target</title>
<path fill="none" stroke="blue" d="M1248.11,-498.784C1233.52,-473.617 1213.26,-447.261 1187,-432 1144.02,-407.019 1010.21,-432.332 964,-414 950.773,-408.753 952.311,-399.029 939,-394 860.54,-364.357 636.805,-413.933 562,-376 547.874,-368.837 535.472,-357.728 525.005,-345.622"/>
<polygon fill="blue" stroke="blue" points="527.447,-343.08 518.407,-337.555 522.029,-347.511 527.447,-343.08"/>
<text text-anchor="middle" x="977" y="-400.9" font-family="Times Roman,serif" font-size="14.00"> 1:m</text>
</g>
<!-- HostName&#45;&gt;HostNameIPAddress -->
<g id="edge24" class="edge"><title>HostName&#45;&gt;HostNameIPAddress</title>
<path fill="none" stroke="blue" d="M1252.32,-498.892C1235.08,-462.324 1208.39,-419.116 1171,-394 1131.7,-367.598 1107.14,-399.433 1066,-376 1052.41,-368.257 1040.06,-357.285 1029.35,-345.556"/>
<polygon fill="blue" stroke="blue" points="1031.77,-343.001 1022.56,-337.765 1026.49,-347.602 1031.77,-343.001"/>
<text text-anchor="middle" x="1205" y="-400.9" font-family="Times Roman,serif" font-size="14.00"> 1:m</text>
</g>
<!-- URL -->
<g id="node27" class="node"><title>URL</title>
<polygon fill="none" stroke="black" points="1514,-188.5 1514,-375.5 1656,-375.5 1656,-188.5 1514,-188.5"/>
<text text-anchor="middle" x="1585" y="-358.9" font-family="Times Roman,serif" font-size="14.00">URL</text>
<polyline fill="none" stroke="black" points="1514,-348.5 1656,-348.5 "/>
<text text-anchor="middle" x="1585" y="-331.9" font-family="Times Roman,serif" font-size="14.00">id: Serial</text>
<text text-anchor="middle" x="1585" y="-312.9" font-family="Times Roman,serif" font-size="14.00">path: String</text>
<text text-anchor="middle" x="1585" y="-293.9" font-family="Times Roman,serif" font-size="14.00">fragment: String</text>
<text text-anchor="middle" x="1585" y="-274.9" font-family="Times Roman,serif" font-size="14.00">last_scanned_at: Time</text>
<text text-anchor="middle" x="1585" y="-255.9" font-family="Times Roman,serif" font-size="14.00">created_at: DateTime</text>
<text text-anchor="middle" x="1585" y="-236.9" font-family="Times Roman,serif" font-size="14.00">scheme: URLScheme</text>
<text text-anchor="middle" x="1585" y="-217.9" font-family="Times Roman,serif" font-size="14.00">host_name: HostName</text>
<text text-anchor="middle" x="1585" y="-198.9" font-family="Times Roman,serif" font-size="14.00">port: TCPPort</text>
</g>
<!-- HostName&#45;&gt;URL -->
<g id="edge28" class="edge"><title>HostName&#45;&gt;URL</title>
<path fill="none" stroke="blue" d="M1309.15,-498.808C1324.72,-473.962 1345.78,-447.838 1372,-432 1421.18,-402.299 1451.61,-444.962 1500,-414 1504.15,-411.342 1512.76,-399.634 1522.96,-384.207"/>
<polygon fill="blue" stroke="blue" points="1525.89,-386.116 1528.42,-375.828 1520.03,-382.292 1525.89,-386.116"/>
<text text-anchor="middle" x="1528" y="-400.9" font-family="Times Roman,serif" font-size="14.00"> 1:m</text>
</g>
<!-- EmailAddress -->
<g id="node28" class="node"><title>EmailAddress</title>
<polygon fill="none" stroke="black" points="1354,-226.5 1354,-337.5 1496,-337.5 1496,-226.5 1354,-226.5"/>
<text text-anchor="middle" x="1425" y="-320.9" font-family="Times Roman,serif" font-size="14.00">EmailAddress</text>
<polyline fill="none" stroke="black" points="1354,-310.5 1496,-310.5 "/>
<text text-anchor="middle" x="1425" y="-293.9" font-family="Times Roman,serif" font-size="14.00">id: Serial</text>
<text text-anchor="middle" x="1425" y="-274.9" font-family="Times Roman,serif" font-size="14.00">created_at: DateTime</text>
<text text-anchor="middle" x="1425" y="-255.9" font-family="Times Roman,serif" font-size="14.00">user_name: UserName</text>
<text text-anchor="middle" x="1425" y="-236.9" font-family="Times Roman,serif" font-size="14.00">host_name: HostName</text>
</g>
<!-- HostName&#45;&gt;EmailAddress -->
<g id="edge26" class="edge"><title>HostName&#45;&gt;EmailAddress</title>
<path fill="none" stroke="blue" d="M1311.14,-498.949C1335.15,-453.202 1367.14,-392.25 1391.1,-346.602"/>
<polygon fill="blue" stroke="blue" points="1394.23,-348.166 1395.78,-337.685 1388.03,-344.913 1394.23,-348.166"/>
<text text-anchor="middle" x="1378" y="-400.9" font-family="Times Roman,serif" font-size="14.00"> 1:m</text>
</g>
<!-- Author -->
<g id="node9" class="node"><title>Author</title>
<polygon fill="none" stroke="black" points="1675.5,-753 1675.5,-921 1800.5,-921 1800.5,-753 1675.5,-753"/>
<text text-anchor="middle" x="1738" y="-904.4" font-family="Times Roman,serif" font-size="14.00">Author</text>
<polyline fill="none" stroke="black" points="1675.5,-894 1800.5,-894 "/>
<text text-anchor="middle" x="1738" y="-877.4" font-family="Times Roman,serif" font-size="14.00">name: String</text>
<text text-anchor="middle" x="1738" y="-858.4" font-family="Times Roman,serif" font-size="14.00">id: Serial</text>
<text text-anchor="middle" x="1738" y="-839.4" font-family="Times Roman,serif" font-size="14.00">organization: String</text>
<text text-anchor="middle" x="1738" y="-820.4" font-family="Times Roman,serif" font-size="14.00">pgp_signature: Text</text>
<text text-anchor="middle" x="1738" y="-801.4" font-family="Times Roman,serif" font-size="14.00">email: String</text>
<text text-anchor="middle" x="1738" y="-782.4" font-family="Times Roman,serif" font-size="14.00">site: URI</text>
<text text-anchor="middle" x="1738" y="-763.4" font-family="Times Roman,serif" font-size="14.00">biography: Text</text>
</g>
<!-- UserName -->
<g id="node10" class="node"><title>UserName</title>
<polygon fill="none" stroke="black" points="1679,-518 1679,-610 1813,-610 1813,-518 1679,-518"/>
<text text-anchor="middle" x="1746" y="-593.4" font-family="Times Roman,serif" font-size="14.00">UserName</text>
<polyline fill="none" stroke="black" points="1679,-583 1813,-583 "/>
<text text-anchor="middle" x="1746" y="-566.4" font-family="Times Roman,serif" font-size="14.00">name: String</text>
<text text-anchor="middle" x="1746" y="-547.4" font-family="Times Roman,serif" font-size="14.00">id: Serial</text>
<text text-anchor="middle" x="1746" y="-528.4" font-family="Times Roman,serif" font-size="14.00">created_at: DateTime</text>
</g>
<!-- Credential -->
<g id="node12" class="node"><title>Credential</title>
<polygon fill="none" stroke="black" points="1675,-236 1675,-328 1817,-328 1817,-236 1675,-236"/>
<text text-anchor="middle" x="1746" y="-311.4" font-family="Times Roman,serif" font-size="14.00">Credential</text>
<polyline fill="none" stroke="black" points="1675,-301 1817,-301 "/>
<text text-anchor="middle" x="1746" y="-284.4" font-family="Times Roman,serif" font-size="14.00">id: Serial</text>
<text text-anchor="middle" x="1746" y="-265.4" font-family="Times Roman,serif" font-size="14.00">password: Password</text>
<text text-anchor="middle" x="1746" y="-246.4" font-family="Times Roman,serif" font-size="14.00">user_name: UserName</text>
</g>
<!-- UserName&#45;&gt;Credential -->
<g id="edge30" class="edge"><title>UserName&#45;&gt;Credential</title>
<path fill="none" stroke="blue" d="M1746,-517.749C1746,-468.675 1746,-391.102 1746,-338.457"/>
<polygon fill="blue" stroke="blue" points="1749.5,-338.276 1746,-328.276 1742.5,-338.276 1749.5,-338.276"/>
<text text-anchor="middle" x="1759" y="-400.9" font-family="Times Roman,serif" font-size="14.00"> 1:m</text>
</g>
<!-- UserName&#45;&gt;EmailAddress -->
<g id="edge32" class="edge"><title>UserName&#45;&gt;EmailAddress</title>
<path fill="none" stroke="blue" d="M1723.7,-517.95C1709.93,-491.6 1690.93,-458.6 1670,-432 1654.84,-412.73 1652.07,-404.697 1630,-394 1579.49,-369.516 1554.14,-403.124 1505,-376 1491.15,-368.355 1478.63,-357.301 1467.83,-345.441"/>
<polygon fill="blue" stroke="blue" points="1470.19,-342.814 1460.99,-337.558 1464.9,-347.404 1470.19,-342.814"/>
<text text-anchor="middle" x="1669" y="-400.9" font-family="Times Roman,serif" font-size="14.00"> 1:m</text>
</g>
<!-- Password -->
<g id="node11" class="node"><title>Password</title>
<polygon fill="none" stroke="black" points="1831,-527.5 1831,-600.5 1941,-600.5 1941,-527.5 1831,-527.5"/>
<text text-anchor="middle" x="1886" y="-583.9" font-family="Times Roman,serif" font-size="14.00">Password</text>
<polyline fill="none" stroke="black" points="1831,-573.5 1941,-573.5 "/>
<text text-anchor="middle" x="1886" y="-556.9" font-family="Times Roman,serif" font-size="14.00">id: Serial</text>
<text text-anchor="middle" x="1886" y="-537.9" font-family="Times Roman,serif" font-size="14.00">clear_text: String</text>
</g>
<!-- Password&#45;&gt;Credential -->
<g id="edge34" class="edge"><title>Password&#45;&gt;Credential</title>
<path fill="none" stroke="blue" d="M1868.51,-527.498C1855.74,-500.95 1837.95,-464.174 1822,-432 1806.38,-400.491 1788.63,-365.422 1774.22,-337.12"/>
<polygon fill="blue" stroke="blue" points="1777.32,-335.502 1769.66,-328.182 1771.09,-338.681 1777.32,-335.502"/>
<text text-anchor="middle" x="1825" y="-400.9" font-family="Times Roman,serif" font-size="14.00"> 1:m</text>
</g>
<!-- ServiceCredential -->
<g id="node13" class="node"><title>ServiceCredential</title>
<polygon fill="none" stroke="black" points="1073,-10.5 1073,-121.5 1215,-121.5 1215,-10.5 1073,-10.5"/>
<text text-anchor="middle" x="1144" y="-104.9" font-family="Times Roman,serif" font-size="14.00">ServiceCredential</text>
<polyline fill="none" stroke="black" points="1073,-94.5 1215,-94.5 "/>
<text text-anchor="middle" x="1144" y="-77.9" font-family="Times Roman,serif" font-size="14.00">id: Serial</text>
<text text-anchor="middle" x="1144" y="-58.9" font-family="Times Roman,serif" font-size="14.00">password: Password</text>
<text text-anchor="middle" x="1144" y="-39.9" font-family="Times Roman,serif" font-size="14.00">user_name: UserName</text>
<text text-anchor="middle" x="1144" y="-20.9" font-family="Times Roman,serif" font-size="14.00">open_port: OpenPort</text>
</g>
<!-- WebCredential -->
<g id="node14" class="node"><title>WebCredential</title>
<polygon fill="none" stroke="black" points="1415.5,-1 1415.5,-131 1594.5,-131 1594.5,-1 1415.5,-1"/>
<text text-anchor="middle" x="1505" y="-114.4" font-family="Times Roman,serif" font-size="14.00">WebCredential</text>
<polyline fill="none" stroke="black" points="1415.5,-104 1594.5,-104 "/>
<text text-anchor="middle" x="1505" y="-87.4" font-family="Times Roman,serif" font-size="14.00">id: Serial</text>
<text text-anchor="middle" x="1505" y="-68.4" font-family="Times Roman,serif" font-size="14.00">password: Password</text>
<text text-anchor="middle" x="1505" y="-49.4" font-family="Times Roman,serif" font-size="14.00">user_name: UserName</text>
<text text-anchor="middle" x="1505" y="-30.4" font-family="Times Roman,serif" font-size="14.00">email_address: EmailAddress</text>
<text text-anchor="middle" x="1505" y="-11.4" font-family="Times Roman,serif" font-size="14.00">url: URL</text>
</g>
<!-- OS -->
<g id="node17" class="node"><title>OS</title>
<polygon fill="none" stroke="black" points="675.5,-518 675.5,-610 772.5,-610 772.5,-518 675.5,-518"/>
<text text-anchor="middle" x="724" y="-593.4" font-family="Times Roman,serif" font-size="14.00">OS</text>
<polyline fill="none" stroke="black" points="675.5,-583 772.5,-583 "/>
<text text-anchor="middle" x="724" y="-566.4" font-family="Times Roman,serif" font-size="14.00">name: String</text>
<text text-anchor="middle" x="724" y="-547.4" font-family="Times Roman,serif" font-size="14.00">id: Serial</text>
<text text-anchor="middle" x="724" y="-528.4" font-family="Times Roman,serif" font-size="14.00">version: String</text>
</g>
<!-- OS&#45;&gt;OSGuess -->
<g id="edge36" class="edge"><title>OS&#45;&gt;OSGuess</title>
<path fill="none" stroke="blue" d="M741.057,-517.749C758.173,-471.339 784.689,-399.44 803.939,-347.242"/>
<polygon fill="blue" stroke="blue" points="807.269,-348.329 807.445,-337.736 800.701,-345.907 807.269,-348.329"/>
<text text-anchor="middle" x="799" y="-400.9" font-family="Times Roman,serif" font-size="14.00"> 1:m</text>
</g>
<!-- Port -->
<g id="node18" class="node"><title>Port</title>
<polygon fill="none" stroke="black" points="1243,-791 1243,-883 1347,-883 1347,-791 1243,-791"/>
<text text-anchor="middle" x="1295" y="-866.4" font-family="Times Roman,serif" font-size="14.00">Port</text>
<polyline fill="none" stroke="black" points="1243,-856 1347,-856 "/>
<text text-anchor="middle" x="1295" y="-839.4" font-family="Times Roman,serif" font-size="14.00">id: Serial</text>
<text text-anchor="middle" x="1295" y="-820.4" font-family="Times Roman,serif" font-size="14.00">protocol: String</text>
<text text-anchor="middle" x="1295" y="-801.4" font-family="Times Roman,serif" font-size="14.00">number: Integer</text>
</g>
<!-- UDPPort -->
<g id="node20" class="node"><title>UDPPort</title>
<polygon fill="none" stroke="black" points="970,-518 970,-610 1074,-610 1074,-518 970,-518"/>
<text text-anchor="middle" x="1022" y="-593.4" font-family="Times Roman,serif" font-size="14.00">UDPPort</text>
<polyline fill="none" stroke="black" points="970,-583 1074,-583 "/>
<text text-anchor="middle" x="1022" y="-566.4" font-family="Times Roman,serif" font-size="14.00">id: Serial</text>
<text text-anchor="middle" x="1022" y="-547.4" font-family="Times Roman,serif" font-size="14.00">protocol: String</text>
<text text-anchor="middle" x="1022" y="-528.4" font-family="Times Roman,serif" font-size="14.00">number: Integer</text>
</g>
<!-- Port&#45;&gt;UDPPort -->
<g id="edge66" class="edge"><title>Port&#45;&gt;UDPPort</title>
<path fill="none" stroke="cyan" d="M1242.86,-812.772C1195.89,-788.745 1127.58,-748.031 1083,-696 1063.99,-673.815 1049.71,-644.716 1039.75,-619.486"/>
<polygon fill="cyan" stroke="cyan" points="1042.98,-618.127 1036.15,-610.028 1036.44,-620.619 1042.98,-618.127"/>
</g>
<!-- Port&#45;&gt;OpenPort -->
<g id="edge38" class="edge"><title>Port&#45;&gt;OpenPort</title>
<path fill="none" stroke="blue" d="M1325.58,-790.897C1341.33,-764.355 1358.9,-729.672 1367,-696 1394.44,-581.921 1422.15,-535.564 1367,-432 1336.7,-375.105 1274.16,-335.933 1223,-311.925"/>
<polygon fill="blue" stroke="blue" points="1224.14,-308.598 1213.59,-307.618 1221.23,-314.963 1224.14,-308.598"/>
<text text-anchor="middle" x="1412" y="-560.9" font-family="Times Roman,serif" font-size="14.00"> 1:m</text>
</g>
<!-- TCPPort -->
<g id="node19" class="node"><title>TCPPort</title>
<polygon fill="none" stroke="black" points="1448,-518 1448,-610 1552,-610 1552,-518 1448,-518"/>
<text text-anchor="middle" x="1500" y="-593.4" font-family="Times Roman,serif" font-size="14.00">TCPPort</text>
<polyline fill="none" stroke="black" points="1448,-583 1552,-583 "/>
<text text-anchor="middle" x="1500" y="-566.4" font-family="Times Roman,serif" font-size="14.00">id: Serial</text>
<text text-anchor="middle" x="1500" y="-547.4" font-family="Times Roman,serif" font-size="14.00">protocol: String</text>
<text text-anchor="middle" x="1500" y="-528.4" font-family="Times Roman,serif" font-size="14.00">number: Integer</text>
</g>
<!-- TCPPort&#45;&gt;OpenPort -->
<g id="edge40" class="edge"><title>TCPPort&#45;&gt;OpenPort</title>
<path fill="none" stroke="blue" d="M1482.99,-517.671C1466.39,-478.894 1437.4,-425.058 1395,-394 1375.95,-380.043 1366.83,-385.012 1345,-376 1304.13,-359.129 1259.51,-338.491 1222.71,-320.856"/>
<polygon fill="blue" stroke="blue" points="1224.06,-317.621 1213.53,-316.441 1221.02,-323.929 1224.06,-317.621"/>
<text text-anchor="middle" x="1429" y="-400.9" font-family="Times Roman,serif" font-size="14.00"> 1:m</text>
</g>
<!-- TCPPort&#45;&gt;URL -->
<g id="edge42" class="edge"><title>TCPPort&#45;&gt;URL</title>
<path fill="none" stroke="blue" d="M1515.71,-517.898C1525.63,-488.322 1538.51,-449.036 1549,-414 1551.79,-404.699 1554.6,-395.003 1557.36,-385.275"/>
<polygon fill="blue" stroke="blue" points="1560.76,-386.124 1560.1,-375.55 1554.02,-384.225 1560.76,-386.124"/>
<text text-anchor="middle" x="1568" y="-400.9" font-family="Times Roman,serif" font-size="14.00"> 1:m</text>
</g>
<!-- UDPPort&#45;&gt;OpenPort -->
<g id="edge44" class="edge"><title>UDPPort&#45;&gt;OpenPort</title>
<path fill="none" stroke="blue" d="M1042.01,-517.749C1059.76,-476.72 1086.13,-415.77 1107.61,-366.122"/>
<polygon fill="blue" stroke="blue" points="1110.94,-367.24 1111.7,-356.672 1104.51,-364.46 1110.94,-367.24"/>
<text text-anchor="middle" x="1107" y="-400.9" font-family="Times Roman,serif" font-size="14.00"> 1:m</text>
</g>
<!-- Service -->
<g id="node21" class="node"><title>Service</title>
<polygon fill="none" stroke="black" points="1091.5,-527.5 1091.5,-600.5 1178.5,-600.5 1178.5,-527.5 1091.5,-527.5"/>
<text text-anchor="middle" x="1135" y="-583.9" font-family="Times Roman,serif" font-size="14.00">Service</text>
<polyline fill="none" stroke="black" points="1091.5,-573.5 1178.5,-573.5 "/>
<text text-anchor="middle" x="1135" y="-556.9" font-family="Times Roman,serif" font-size="14.00">name: String</text>
<text text-anchor="middle" x="1135" y="-537.9" font-family="Times Roman,serif" font-size="14.00">id: Serial</text>
</g>
<!-- Service&#45;&gt;OpenPort -->
<g id="edge46" class="edge"><title>Service&#45;&gt;OpenPort</title>
<path fill="none" stroke="blue" d="M1136.17,-527.423C1137.46,-486.961 1139.58,-420.4 1141.29,-366.797"/>
<polygon fill="blue" stroke="blue" points="1144.8,-366.711 1141.62,-356.605 1137.8,-366.488 1144.8,-366.711"/>
<text text-anchor="middle" x="1154" y="-400.9" font-family="Times Roman,serif" font-size="14.00"> 1:m</text>
</g>
<!-- OpenPort&#45;&gt;ServiceCredential -->
<g id="edge48" class="edge"><title>OpenPort&#45;&gt;ServiceCredential</title>
<path fill="none" stroke="blue" d="M1144,-207.363C1144,-182.715 1144,-155.497 1144,-131.579"/>
<polygon fill="blue" stroke="blue" points="1147.5,-131.548 1144,-121.548 1140.5,-131.548 1147.5,-131.548"/>
<text text-anchor="middle" x="1157" y="-156.9" font-family="Times Roman,serif" font-size="14.00"> 1:m</text>
</g>
<!-- URLScheme -->
<g id="node24" class="node"><title>URLScheme</title>
<polygon fill="none" stroke="black" points="1574.5,-527.5 1574.5,-600.5 1661.5,-600.5 1661.5,-527.5 1574.5,-527.5"/>
<text text-anchor="middle" x="1618" y="-583.9" font-family="Times Roman,serif" font-size="14.00">URLScheme</text>
<polyline fill="none" stroke="black" points="1574.5,-573.5 1661.5,-573.5 "/>
<text text-anchor="middle" x="1618" y="-556.9" font-family="Times Roman,serif" font-size="14.00">name: String</text>
<text text-anchor="middle" x="1618" y="-537.9" font-family="Times Roman,serif" font-size="14.00">id: Serial</text>
</g>
<!-- URLScheme&#45;&gt;URL -->
<g id="edge50" class="edge"><title>URLScheme&#45;&gt;URL</title>
<path fill="none" stroke="blue" d="M1613.72,-527.423C1609.53,-491.661 1602.96,-435.51 1597.16,-385.937"/>
<polygon fill="blue" stroke="blue" points="1600.61,-385.32 1595.98,-375.794 1593.66,-386.133 1600.61,-385.32"/>
<text text-anchor="middle" x="1613" y="-400.9" font-family="Times Roman,serif" font-size="14.00"> 1:m</text>
</g>
<!-- URLQueryParamName -->
<g id="node25" class="node"><title>URLQueryParamName</title>
<polygon fill="none" stroke="black" points="1835,-245.5 1835,-318.5 1981,-318.5 1981,-245.5 1835,-245.5"/>
<text text-anchor="middle" x="1908" y="-301.9" font-family="Times Roman,serif" font-size="14.00">URLQueryParamName</text>
<polyline fill="none" stroke="black" points="1835,-291.5 1981,-291.5 "/>
<text text-anchor="middle" x="1908" y="-274.9" font-family="Times Roman,serif" font-size="14.00">name: String</text>
<text text-anchor="middle" x="1908" y="-255.9" font-family="Times Roman,serif" font-size="14.00">id: Serial</text>
</g>
<!-- URLQueryParam -->
<g id="node26" class="node"><title>URLQueryParam</title>
<polygon fill="none" stroke="black" points="1713.5,-10.5 1713.5,-121.5 1896.5,-121.5 1896.5,-10.5 1713.5,-10.5"/>
<text text-anchor="middle" x="1805" y="-104.9" font-family="Times Roman,serif" font-size="14.00">URLQueryParam</text>
<polyline fill="none" stroke="black" points="1713.5,-94.5 1896.5,-94.5 "/>
<text text-anchor="middle" x="1805" y="-77.9" font-family="Times Roman,serif" font-size="14.00">id: Serial</text>
<text text-anchor="middle" x="1805" y="-58.9" font-family="Times Roman,serif" font-size="14.00">value: Text</text>
<text text-anchor="middle" x="1805" y="-39.9" font-family="Times Roman,serif" font-size="14.00">name: URLQueryParamName</text>
<text text-anchor="middle" x="1805" y="-20.9" font-family="Times Roman,serif" font-size="14.00">url: URL</text>
</g>
<!-- URLQueryParamName&#45;&gt;URLQueryParam -->
<g id="edge52" class="edge"><title>URLQueryParamName&#45;&gt;URLQueryParam</title>
<path fill="none" stroke="blue" d="M1890.53,-245.359C1875.61,-214.068 1853.79,-168.312 1835.92,-130.848"/>
<polygon fill="blue" stroke="blue" points="1838.94,-129.036 1831.47,-121.516 1832.62,-132.049 1838.94,-129.036"/>
<text text-anchor="middle" x="1867" y="-156.9" font-family="Times Roman,serif" font-size="14.00"> 1:m</text>
</g>
<!-- URL&#45;&gt;WebCredential -->
<g id="edge56" class="edge"><title>URL&#45;&gt;WebCredential</title>
<path fill="none" stroke="blue" d="M1550.26,-188.202C1544.36,-172.268 1538.3,-155.914 1532.62,-140.561"/>
<polygon fill="blue" stroke="blue" points="1535.88,-139.305 1529.13,-131.143 1529.32,-141.736 1535.88,-139.305"/>
<text text-anchor="middle" x="1556" y="-156.9" font-family="Times Roman,serif" font-size="14.00"> 1:m</text>
</g>
<!-- URL&#45;&gt;URLQueryParam -->
<g id="edge54" class="edge"><title>URL&#45;&gt;URLQueryParam</title>
<path fill="none" stroke="blue" d="M1656.4,-197.917C1659.61,-194.532 1662.82,-191.213 1666,-188 1686.03,-167.789 1708.85,-146.951 1730.12,-128.343"/>
<polygon fill="blue" stroke="blue" points="1732.64,-130.797 1737.88,-121.593 1728.04,-125.515 1732.64,-130.797"/>
<text text-anchor="middle" x="1716" y="-156.9" font-family="Times Roman,serif" font-size="14.00"> 1:m</text>
</g>
<!-- EmailAddress&#45;&gt;WebCredential -->
<g id="edge58" class="edge"><title>EmailAddress&#45;&gt;WebCredential</title>
<path fill="none" stroke="blue" d="M1445.6,-226.375C1455.29,-200.208 1466.99,-168.629 1477.43,-140.438"/>
<polygon fill="blue" stroke="blue" points="1480.73,-141.613 1480.92,-131.02 1474.16,-139.182 1480.73,-141.613"/>
<text text-anchor="middle" x="1486" y="-156.9" font-family="Times Roman,serif" font-size="14.00"> 1:m</text>
</g>
<!-- License -->
<g id="node29" class="node"><title>License</title>
<polygon fill="none" stroke="black" points="2013.5,-781.5 2013.5,-892.5 2122.5,-892.5 2122.5,-781.5 2013.5,-781.5"/>
<text text-anchor="middle" x="2068" y="-875.9" font-family="Times Roman,serif" font-size="14.00">License</text>
<polyline fill="none" stroke="black" points="2013.5,-865.5 2122.5,-865.5 "/>
<text text-anchor="middle" x="2068" y="-848.9" font-family="Times Roman,serif" font-size="14.00">name: String</text>
<text text-anchor="middle" x="2068" y="-829.9" font-family="Times Roman,serif" font-size="14.00">id: Serial</text>
<text text-anchor="middle" x="2068" y="-810.9" font-family="Times Roman,serif" font-size="14.00">description: Text</text>
<text text-anchor="middle" x="2068" y="-791.9" font-family="Times Roman,serif" font-size="14.00">url: URI</text>
</g>
<!-- Repository -->
<g id="node30" class="node"><title>Repository</title>
<polygon fill="none" stroke="black" points="2010.5,-432.5 2010.5,-695.5 2125.5,-695.5 2125.5,-432.5 2010.5,-432.5"/>
<text text-anchor="middle" x="2068" y="-678.9" font-family="Times Roman,serif" font-size="14.00">Repository</text>
<polyline fill="none" stroke="black" points="2010.5,-668.5 2125.5,-668.5 "/>
<text text-anchor="middle" x="2068" y="-651.9" font-family="Times Roman,serif" font-size="14.00">id: Serial</text>
<text text-anchor="middle" x="2068" y="-632.9" font-family="Times Roman,serif" font-size="14.00">scm: String</text>
<text text-anchor="middle" x="2068" y="-613.9" font-family="Times Roman,serif" font-size="14.00">path: FilePath</text>
<text text-anchor="middle" x="2068" y="-594.9" font-family="Times Roman,serif" font-size="14.00">uri: URI</text>
<text text-anchor="middle" x="2068" y="-575.9" font-family="Times Roman,serif" font-size="14.00">installed: Boolean</text>
<text text-anchor="middle" x="2068" y="-556.9" font-family="Times Roman,serif" font-size="14.00">name: String</text>
<text text-anchor="middle" x="2068" y="-537.9" font-family="Times Roman,serif" font-size="14.00">domain: String</text>
<text text-anchor="middle" x="2068" y="-518.9" font-family="Times Roman,serif" font-size="14.00">title: Text</text>
<text text-anchor="middle" x="2068" y="-499.9" font-family="Times Roman,serif" font-size="14.00">source: URI</text>
<text text-anchor="middle" x="2068" y="-480.9" font-family="Times Roman,serif" font-size="14.00">website: URI</text>
<text text-anchor="middle" x="2068" y="-461.9" font-family="Times Roman,serif" font-size="14.00">description: Text</text>
<text text-anchor="middle" x="2068" y="-442.9" font-family="Times Roman,serif" font-size="14.00">license: License</text>
</g>
<!-- License&#45;&gt;Repository -->
<g id="edge60" class="edge"><title>License&#45;&gt;Repository</title>
<path fill="none" stroke="blue" d="M2068,-781.425C2068,-759.307 2068,-732.752 2068,-705.917"/>
<polygon fill="blue" stroke="blue" points="2071.5,-705.627 2068,-695.627 2064.5,-705.627 2071.5,-705.627"/>
<text text-anchor="middle" x="2081" y="-720.9" font-family="Times Roman,serif" font-size="14.00"> 1:m</text>
</g>
<!-- Path -->
<g id="node31" class="node"><title>Path</title>
<polygon fill="none" stroke="black" points="1999,-217 1999,-347 2137,-347 2137,-217 1999,-217"/>
<text text-anchor="middle" x="2068" y="-330.4" font-family="Times Roman,serif" font-size="14.00">Path</text>
<polyline fill="none" stroke="black" points="1999,-320 2137,-320 "/>
<text text-anchor="middle" x="2068" y="-303.4" font-family="Times Roman,serif" font-size="14.00">id: Serial</text>
<text text-anchor="middle" x="2068" y="-284.4" font-family="Times Roman,serif" font-size="14.00">path: FilePath</text>
<text text-anchor="middle" x="2068" y="-265.4" font-family="Times Roman,serif" font-size="14.00">timestamp: Time</text>
<text text-anchor="middle" x="2068" y="-246.4" font-family="Times Roman,serif" font-size="14.00">class_name: String</text>
<text text-anchor="middle" x="2068" y="-227.4" font-family="Times Roman,serif" font-size="14.00">repository: Repository</text>
</g>
<!-- Repository&#45;&gt;Path -->
<g id="edge62" class="edge"><title>Repository&#45;&gt;Path</title>
<path fill="none" stroke="blue" d="M2068,-432.495C2068,-406.728 2068,-380.537 2068,-357.383"/>
<polygon fill="blue" stroke="blue" points="2071.5,-357.315 2068,-347.315 2064.5,-357.315 2071.5,-357.315"/>
<text text-anchor="middle" x="2081" y="-400.9" font-family="Times Roman,serif" font-size="14.00"> 1:m</text>
</g>
<!-- Vendor -->
<g id="node32" class="node"><title>Vendor</title>
<polygon fill="none" stroke="black" points="2150.5,-800.5 2150.5,-873.5 2237.5,-873.5 2237.5,-800.5 2150.5,-800.5"/>
<text text-anchor="middle" x="2194" y="-856.9" font-family="Times Roman,serif" font-size="14.00">Vendor</text>
<polyline fill="none" stroke="black" points="2150.5,-846.5 2237.5,-846.5 "/>
<text text-anchor="middle" x="2194" y="-829.9" font-family="Times Roman,serif" font-size="14.00">name: String</text>
<text text-anchor="middle" x="2194" y="-810.9" font-family="Times Roman,serif" font-size="14.00">id: Serial</text>
</g>
<!-- Software -->
<g id="node33" class="node"><title>Software</title>
<polygon fill="none" stroke="black" points="2143,-508.5 2143,-619.5 2245,-619.5 2245,-508.5 2143,-508.5"/>
<text text-anchor="middle" x="2194" y="-602.9" font-family="Times Roman,serif" font-size="14.00">Software</text>
<polyline fill="none" stroke="black" points="2143,-592.5 2245,-592.5 "/>
<text text-anchor="middle" x="2194" y="-575.9" font-family="Times Roman,serif" font-size="14.00">id: Serial</text>
<text text-anchor="middle" x="2194" y="-556.9" font-family="Times Roman,serif" font-size="14.00">name: String</text>
<text text-anchor="middle" x="2194" y="-537.9" font-family="Times Roman,serif" font-size="14.00">version: String</text>
<text text-anchor="middle" x="2194" y="-518.9" font-family="Times Roman,serif" font-size="14.00">vendor: Vendor</text>
</g>
<!-- Vendor&#45;&gt;Software -->
<g id="edge64" class="edge"><title>Vendor&#45;&gt;Software</title>
<path fill="none" stroke="blue" d="M2194,-800.465C2194,-756.923 2194,-683.34 2194,-629.8"/>
<polygon fill="blue" stroke="blue" points="2197.5,-629.712 2194,-619.712 2190.5,-629.712 2197.5,-629.712"/>
<text text-anchor="middle" x="2207" y="-720.9" font-family="Times Roman,serif" font-size="14.00"> 1:m</text>
</g>
</g>
</svg>
