<?xml version="1.0" encoding="UTF-8" standalone="no"?>
<!DOCTYPE svg PUBLIC "-//W3C//DTD SVG 1.1//EN"
 "http://www.w3.org/Graphics/SVG/1.1/DTD/svg11.dtd">
<!-- Generated by graphviz version 2.26.3 (20100126.1600)
 -->
<!-- Title: G Pages: 1 -->
<svg width="2720pt" height="930pt"
 viewBox="0.00 0.00 2720.00 930.00" xmlns="http://www.w3.org/2000/svg" xmlns:xlink="http://www.w3.org/1999/xlink">
<g id="graph1" class="graph" transform="scale(1 1) rotate(0) translate(4 926)">
<title>G</title>
<polygon fill="white" stroke="white" points="-4,5 -4,-926 2717,-926 2717,5 -4,5"/>
<!-- ronin_arches -->
<g id="node1" class="node"><title>ronin_arches</title>
<polygon fill="none" stroke="black" points="-0.5,-781.5 -0.5,-892.5 142.5,-892.5 142.5,-781.5 -0.5,-781.5"/>
<text text-anchor="middle" x="71" y="-875.9" font-family="Times Roman,serif" font-size="14.00">ronin_arches</text>
<polyline fill="none" stroke="black" points="-0.5,-865.5 142.5,-865.5 "/>
<text text-anchor="middle" x="71" y="-848.9" font-family="Times Roman,serif" font-size="14.00">name: String</text>
<text text-anchor="middle" x="71" y="-829.9" font-family="Times Roman,serif" font-size="14.00">id: Serial</text>
<text text-anchor="middle" x="71" y="-810.9" font-family="Times Roman,serif" font-size="14.00">endian: String</text>
<text text-anchor="middle" x="71" y="-791.9" font-family="Times Roman,serif" font-size="14.00">address_length: Integer</text>
</g>
<!-- ronin_organizations -->
<g id="node2" class="node"><title>ronin_organizations</title>
<polygon fill="none" stroke="black" points="159.5,-781.5 159.5,-892.5 306.5,-892.5 306.5,-781.5 159.5,-781.5"/>
<text text-anchor="middle" x="233" y="-875.9" font-family="Times Roman,serif" font-size="14.00">ronin_organizations</text>
<polyline fill="none" stroke="black" points="159.5,-865.5 306.5,-865.5 "/>
<text text-anchor="middle" x="233" y="-848.9" font-family="Times Roman,serif" font-size="14.00">name: String</text>
<text text-anchor="middle" x="233" y="-829.9" font-family="Times Roman,serif" font-size="14.00">description: Description</text>
<text text-anchor="middle" x="233" y="-810.9" font-family="Times Roman,serif" font-size="14.00">id: Serial</text>
<text text-anchor="middle" x="233" y="-791.9" font-family="Times Roman,serif" font-size="14.00">created_at: DateTime</text>
</g>
<!-- ronin_addresses -->
<g id="node5" class="node"><title>ronin_addresses</title>
<polygon fill="none" stroke="black" points="124.5,-499 124.5,-629 341.5,-629 341.5,-499 124.5,-499"/>
<text text-anchor="middle" x="233" y="-612.4" font-family="Times Roman,serif" font-size="14.00">ronin_addresses</text>
<polyline fill="none" stroke="black" points="124.5,-602 341.5,-602 "/>
<text text-anchor="middle" x="233" y="-585.4" font-family="Times Roman,serif" font-size="14.00">id: Serial</text>
<text text-anchor="middle" x="233" y="-566.4" font-family="Times Roman,serif" font-size="14.00">type: Discriminator</text>
<text text-anchor="middle" x="233" y="-547.4" font-family="Times Roman,serif" font-size="14.00">address: String</text>
<text text-anchor="middle" x="233" y="-528.4" font-family="Times Roman,serif" font-size="14.00">created_at: DateTime</text>
<text text-anchor="middle" x="233" y="-509.4" font-family="Times Roman,serif" font-size="14.00">organization_id: ronin_organizations</text>
</g>
<!-- ronin_organizations&#45;&gt;ronin_addresses -->
<g id="edge2" class="edge"><title>ronin_organizations&#45;&gt;ronin_addresses</title>
<path fill="none" stroke="blue" d="M233,-781.425C233,-740.408 233,-684.132 233,-639.11"/>
<polygon fill="blue" stroke="blue" points="236.5,-639.1 233,-629.1 229.5,-639.1 236.5,-639.1"/>
<text text-anchor="middle" x="246" y="-720.9" font-family="Times Roman,serif" font-size="14.00"> 1:m</text>
</g>
<!-- ronin_campaigns -->
<g id="node3" class="node"><title>ronin_campaigns</title>
<polygon fill="none" stroke="black" points="358.5,-499 358.5,-629 505.5,-629 505.5,-499 358.5,-499"/>
<text text-anchor="middle" x="432" y="-612.4" font-family="Times Roman,serif" font-size="14.00">ronin_campaigns</text>
<polyline fill="none" stroke="black" points="358.5,-602 505.5,-602 "/>
<text text-anchor="middle" x="432" y="-585.4" font-family="Times Roman,serif" font-size="14.00">name: String</text>
<text text-anchor="middle" x="432" y="-566.4" font-family="Times Roman,serif" font-size="14.00">description: Description</text>
<text text-anchor="middle" x="432" y="-547.4" font-family="Times Roman,serif" font-size="14.00">id: Serial</text>
<text text-anchor="middle" x="432" y="-528.4" font-family="Times Roman,serif" font-size="14.00">created_at: DateTime</text>
<text text-anchor="middle" x="432" y="-509.4" font-family="Times Roman,serif" font-size="14.00">updated_at: DateTime</text>
</g>
<!-- ronin_targets -->
<g id="node4" class="node"><title>ronin_targets</title>
<polygon fill="none" stroke="black" points="358,-226.5 358,-337.5 546,-337.5 546,-226.5 358,-226.5"/>
<text text-anchor="middle" x="452" y="-320.9" font-family="Times Roman,serif" font-size="14.00">ronin_targets</text>
<polyline fill="none" stroke="black" points="358,-310.5 546,-310.5 "/>
<text text-anchor="middle" x="452" y="-293.9" font-family="Times Roman,serif" font-size="14.00">id: Serial</text>
<text text-anchor="middle" x="452" y="-274.9" font-family="Times Roman,serif" font-size="14.00">created_at: DateTime</text>
<text text-anchor="middle" x="452" y="-255.9" font-family="Times Roman,serif" font-size="14.00">campaign_id: ronin_campaigns</text>
<text text-anchor="middle" x="452" y="-236.9" font-family="Times Roman,serif" font-size="14.00">address_id: ronin_addresses</text>
</g>
<!-- ronin_campaigns&#45;&gt;ronin_targets -->
<g id="edge4" class="edge"><title>ronin_campaigns&#45;&gt;ronin_targets</title>
<path fill="none" stroke="blue" d="M436.614,-498.949C439.831,-453.583 444.109,-393.264 447.337,-347.746"/>
<polygon fill="blue" stroke="blue" points="450.834,-347.908 448.051,-337.685 443.852,-347.412 450.834,-347.908"/>
<text text-anchor="middle" x="457" y="-400.9" font-family="Times Roman,serif" font-size="14.00"> 1:m</text>
</g>
<!-- ronin_addresses&#45;&gt;ronin_targets -->
<g id="edge6" class="edge"><title>ronin_addresses&#45;&gt;ronin_targets</title>
<path fill="none" stroke="blue" d="M283.518,-498.949C319.268,-452.916 366.973,-391.487 402.494,-345.748"/>
<polygon fill="blue" stroke="blue" points="405.386,-347.73 408.755,-337.685 399.857,-343.436 405.386,-347.73"/>
<text text-anchor="middle" x="376" y="-400.9" font-family="Times Roman,serif" font-size="14.00"> 1:m</text>
</g>
<!-- ronin_mac_addresses -->
<g id="node6" class="node"><title>ronin_mac_addresses</title>
<polygon fill="none" stroke="black" points="522.5,-499 522.5,-629 739.5,-629 739.5,-499 522.5,-499"/>
<text text-anchor="middle" x="631" y="-612.4" font-family="Times Roman,serif" font-size="14.00">ronin_mac_addresses</text>
<polyline fill="none" stroke="black" points="522.5,-602 739.5,-602 "/>
<text text-anchor="middle" x="631" y="-585.4" font-family="Times Roman,serif" font-size="14.00">id: Serial</text>
<text text-anchor="middle" x="631" y="-566.4" font-family="Times Roman,serif" font-size="14.00">type: Discriminator</text>
<text text-anchor="middle" x="631" y="-547.4" font-family="Times Roman,serif" font-size="14.00">address: String</text>
<text text-anchor="middle" x="631" y="-528.4" font-family="Times Roman,serif" font-size="14.00">created_at: DateTime</text>
<text text-anchor="middle" x="631" y="-509.4" font-family="Times Roman,serif" font-size="14.00">organization_id: ronin_organizations</text>
</g>
<!-- ronin_mac_addresses&#45;&gt;ronin_targets -->
<g id="edge8" class="edge"><title>ronin_mac_addresses&#45;&gt;ronin_targets</title>
<path fill="none" stroke="blue" d="M588.486,-498.822C571.44,-472.542 551.682,-441.896 534,-414 520.099,-392.07 505.061,-367.973 491.706,-346.438"/>
<polygon fill="blue" stroke="blue" points="494.531,-344.352 486.288,-337.695 488.58,-348.039 494.531,-344.352"/>
<text text-anchor="middle" x="547" y="-400.9" font-family="Times Roman,serif" font-size="14.00"> 1:m</text>
</g>
<!-- ronin_ip_address_mac_addresses -->
<g id="node15" class="node"><title>ronin_ip_address_mac_addresses</title>
<polygon fill="none" stroke="black" points="563.5,-226.5 563.5,-337.5 792.5,-337.5 792.5,-226.5 563.5,-226.5"/>
<text text-anchor="middle" x="678" y="-320.9" font-family="Times Roman,serif" font-size="14.00">ronin_ip_address_mac_addresses</text>
<polyline fill="none" stroke="black" points="563.5,-310.5 792.5,-310.5 "/>
<text text-anchor="middle" x="678" y="-293.9" font-family="Times Roman,serif" font-size="14.00">id: Serial</text>
<text text-anchor="middle" x="678" y="-274.9" font-family="Times Roman,serif" font-size="14.00">created_at: DateTime</text>
<text text-anchor="middle" x="678" y="-255.9" font-family="Times Roman,serif" font-size="14.00">ip_address_id: ronin_ip_addresses</text>
<text text-anchor="middle" x="678" y="-236.9" font-family="Times Roman,serif" font-size="14.00">mac_address_id: ronin_mac_addresses</text>
</g>
<!-- ronin_mac_addresses&#45;&gt;ronin_ip_address_mac_addresses -->
<g id="edge10" class="edge"><title>ronin_mac_addresses&#45;&gt;ronin_ip_address_mac_addresses</title>
<path fill="none" stroke="blue" d="M641.842,-498.949C649.403,-453.583 659.456,-393.264 667.042,-347.746"/>
<polygon fill="blue" stroke="blue" points="670.527,-348.125 668.719,-337.685 663.623,-346.974 670.527,-348.125"/>
<text text-anchor="middle" x="672" y="-400.9" font-family="Times Roman,serif" font-size="14.00"> 1:m</text>
</g>
<!-- ronin_ip_addresses -->
<g id="node7" class="node"><title>ronin_ip_addresses</title>
<polygon fill="none" stroke="black" points="870.5,-489.5 870.5,-638.5 1087.5,-638.5 1087.5,-489.5 870.5,-489.5"/>
<text text-anchor="middle" x="979" y="-621.9" font-family="Times Roman,serif" font-size="14.00">ronin_ip_addresses</text>
<polyline fill="none" stroke="black" points="870.5,-611.5 1087.5,-611.5 "/>
<text text-anchor="middle" x="979" y="-594.9" font-family="Times Roman,serif" font-size="14.00">id: Serial</text>
<text text-anchor="middle" x="979" y="-575.9" font-family="Times Roman,serif" font-size="14.00">type: Discriminator</text>
<text text-anchor="middle" x="979" y="-556.9" font-family="Times Roman,serif" font-size="14.00">address: IPAddress</text>
<text text-anchor="middle" x="979" y="-537.9" font-family="Times Roman,serif" font-size="14.00">created_at: DateTime</text>
<text text-anchor="middle" x="979" y="-518.9" font-family="Times Roman,serif" font-size="14.00">version: Integer</text>
<text text-anchor="middle" x="979" y="-499.9" font-family="Times Roman,serif" font-size="14.00">organization_id: ronin_organizations</text>
</g>
<!-- ronin_ip_addresses&#45;&gt;ronin_targets -->
<g id="edge12" class="edge"><title>ronin_ip_addresses&#45;&gt;ronin_targets</title>
<path fill="none" stroke="blue" d="M930.16,-489.443C911.602,-467.143 888.464,-445.15 862,-432 815.295,-408.792 678.146,-428.331 628,-414 584.496,-401.567 543.568,-372.376 512.147,-344.598"/>
<polygon fill="blue" stroke="blue" points="514.136,-341.679 504.367,-337.578 509.446,-346.876 514.136,-341.679"/>
<text text-anchor="middle" x="641" y="-400.9" font-family="Times Roman,serif" font-size="14.00"> 1:m</text>
</g>
<!-- ronin_ip_addresses&#45;&gt;ronin_ip_address_mac_addresses -->
<g id="edge14" class="edge"><title>ronin_ip_addresses&#45;&gt;ronin_ip_address_mac_addresses</title>
<path fill="none" stroke="blue" d="M918.703,-489.227C901.345,-469.636 881.74,-449.201 862,-432 851.127,-422.525 846.537,-422.654 835,-414 805.961,-392.218 775.154,-366.853 748.593,-344.213"/>
<polygon fill="blue" stroke="blue" points="750.73,-341.436 740.857,-337.594 746.179,-346.754 750.73,-341.436"/>
<text text-anchor="middle" x="848" y="-400.9" font-family="Times Roman,serif" font-size="14.00"> 1:m</text>
</g>
<!-- ronin_os_guesses -->
<g id="node16" class="node"><title>ronin_os_guesses</title>
<polygon fill="none" stroke="black" points="809.5,-226.5 809.5,-337.5 1012.5,-337.5 1012.5,-226.5 809.5,-226.5"/>
<text text-anchor="middle" x="911" y="-320.9" font-family="Times Roman,serif" font-size="14.00">ronin_os_guesses</text>
<polyline fill="none" stroke="black" points="809.5,-310.5 1012.5,-310.5 "/>
<text text-anchor="middle" x="911" y="-293.9" font-family="Times Roman,serif" font-size="14.00">id: Serial</text>
<text text-anchor="middle" x="911" y="-274.9" font-family="Times Roman,serif" font-size="14.00">created_at: DateTime</text>
<text text-anchor="middle" x="911" y="-255.9" font-family="Times Roman,serif" font-size="14.00">ip_address_id: ronin_ip_addresses</text>
<text text-anchor="middle" x="911" y="-236.9" font-family="Times Roman,serif" font-size="14.00">os_id: ronin_os</text>
</g>
<!-- ronin_ip_addresses&#45;&gt;ronin_os_guesses -->
<g id="edge20" class="edge"><title>ronin_ip_addresses&#45;&gt;ronin_os_guesses</title>
<path fill="none" stroke="blue" d="M960.956,-489.17C950.356,-445.211 937.08,-390.155 926.879,-347.85"/>
<polygon fill="blue" stroke="blue" points="930.234,-346.835 924.488,-337.934 923.429,-348.476 930.234,-346.835"/>
<text text-anchor="middle" x="954" y="-400.9" font-family="Times Roman,serif" font-size="14.00"> 1:m</text>
</g>
<!-- ronin_open_ports -->
<g id="node22" class="node"><title>ronin_open_ports</title>
<polygon fill="none" stroke="black" points="1249.5,-207.5 1249.5,-356.5 1452.5,-356.5 1452.5,-207.5 1249.5,-207.5"/>
<text text-anchor="middle" x="1351" y="-339.9" font-family="Times Roman,serif" font-size="14.00">ronin_open_ports</text>
<polyline fill="none" stroke="black" points="1249.5,-329.5 1452.5,-329.5 "/>
<text text-anchor="middle" x="1351" y="-312.9" font-family="Times Roman,serif" font-size="14.00">id: Serial</text>
<text text-anchor="middle" x="1351" y="-293.9" font-family="Times Roman,serif" font-size="14.00">last_scanned_at: Time</text>
<text text-anchor="middle" x="1351" y="-274.9" font-family="Times Roman,serif" font-size="14.00">created_at: DateTime</text>
<text text-anchor="middle" x="1351" y="-255.9" font-family="Times Roman,serif" font-size="14.00">ip_address_id: ronin_ip_addresses</text>
<text text-anchor="middle" x="1351" y="-236.9" font-family="Times Roman,serif" font-size="14.00">port_id: ronin_ports</text>
<text text-anchor="middle" x="1351" y="-217.9" font-family="Times Roman,serif" font-size="14.00">service_id: ronin_services</text>
</g>
<!-- ronin_ip_addresses&#45;&gt;ronin_open_ports -->
<g id="edge18" class="edge"><title>ronin_ip_addresses&#45;&gt;ronin_open_ports</title>
<path fill="none" stroke="blue" d="M1034.23,-489.305C1052.18,-468.704 1073.36,-447.722 1096,-432 1152.74,-392.591 1181.67,-411.39 1241,-376 1247.83,-371.928 1254.65,-367.427 1261.35,-362.665"/>
<polygon fill="blue" stroke="blue" points="1263.78,-365.23 1269.79,-356.506 1259.65,-359.578 1263.78,-365.23"/>
<text text-anchor="middle" x="1213" y="-400.9" font-family="Times Roman,serif" font-size="14.00"> 1:m</text>
</g>
<!-- ronin_host_name_ip_addresses -->
<g id="node23" class="node"><title>ronin_host_name_ip_addresses</title>
<polygon fill="none" stroke="black" points="1029.5,-226.5 1029.5,-337.5 1232.5,-337.5 1232.5,-226.5 1029.5,-226.5"/>
<text text-anchor="middle" x="1131" y="-320.9" font-family="Times Roman,serif" font-size="14.00">ronin_host_name_ip_addresses</text>
<polyline fill="none" stroke="black" points="1029.5,-310.5 1232.5,-310.5 "/>
<text text-anchor="middle" x="1131" y="-293.9" font-family="Times Roman,serif" font-size="14.00">id: Serial</text>
<text text-anchor="middle" x="1131" y="-274.9" font-family="Times Roman,serif" font-size="14.00">created_at: DateTime</text>
<text text-anchor="middle" x="1131" y="-255.9" font-family="Times Roman,serif" font-size="14.00">host_name_id: ronin_host_names</text>
<text text-anchor="middle" x="1131" y="-236.9" font-family="Times Roman,serif" font-size="14.00">ip_address_id: ronin_ip_addresses</text>
</g>
<!-- ronin_ip_addresses&#45;&gt;ronin_host_name_ip_addresses -->
<g id="edge16" class="edge"><title>ronin_ip_addresses&#45;&gt;ronin_host_name_ip_addresses</title>
<path fill="none" stroke="blue" d="M989.147,-489.287C995.514,-458.405 1005.73,-423.097 1022,-394 1031.7,-376.656 1044.77,-360.07 1058.48,-345.227"/>
<polygon fill="blue" stroke="blue" points="1061.35,-347.289 1065.7,-337.629 1056.28,-342.468 1061.35,-347.289"/>
<text text-anchor="middle" x="1035" y="-400.9" font-family="Times Roman,serif" font-size="14.00"> 1:m</text>
</g>
<!-- ronin_host_names -->
<g id="node8" class="node"><title>ronin_host_names</title>
<polygon fill="none" stroke="black" points="1340.5,-499 1340.5,-629 1557.5,-629 1557.5,-499 1340.5,-499"/>
<text text-anchor="middle" x="1449" y="-612.4" font-family="Times Roman,serif" font-size="14.00">ronin_host_names</text>
<polyline fill="none" stroke="black" points="1340.5,-602 1557.5,-602 "/>
<text text-anchor="middle" x="1449" y="-585.4" font-family="Times Roman,serif" font-size="14.00">id: Serial</text>
<text text-anchor="middle" x="1449" y="-566.4" font-family="Times Roman,serif" font-size="14.00">type: Discriminator</text>
<text text-anchor="middle" x="1449" y="-547.4" font-family="Times Roman,serif" font-size="14.00">address: String</text>
<text text-anchor="middle" x="1449" y="-528.4" font-family="Times Roman,serif" font-size="14.00">created_at: DateTime</text>
<text text-anchor="middle" x="1449" y="-509.4" font-family="Times Roman,serif" font-size="14.00">organization_id: ronin_organizations</text>
</g>
<!-- ronin_host_names&#45;&gt;ronin_targets -->
<g id="edge22" class="edge"><title>ronin_host_names&#45;&gt;ronin_targets</title>
<path fill="none" stroke="blue" d="M1407.67,-498.811C1388,-473.486 1362.16,-447.005 1332,-432 1285.9,-409.065 1151.26,-425.201 1101,-414 1076.43,-408.523 1072.68,-398.969 1048,-394 994.264,-383.182 605.737,-396.744 555,-376 537.511,-368.849 521.112,-357.322 506.764,-344.751"/>
<polygon fill="blue" stroke="blue" points="508.758,-341.832 499.011,-337.681 504.042,-347.005 508.758,-341.832"/>
<text text-anchor="middle" x="1114" y="-400.9" font-family="Times Roman,serif" font-size="14.00"> 1:m</text>
</g>
<!-- ronin_host_names&#45;&gt;ronin_host_name_ip_addresses -->
<g id="edge24" class="edge"><title>ronin_host_names&#45;&gt;ronin_host_name_ip_addresses</title>
<path fill="none" stroke="blue" d="M1427.44,-498.875C1411.94,-462.301 1387.29,-419.093 1351,-394 1310.25,-365.823 1285.93,-396.861 1241,-376 1223.63,-367.938 1206.86,-356.344 1191.86,-344.037"/>
<polygon fill="blue" stroke="blue" points="1194.09,-341.333 1184.19,-337.551 1189.57,-346.679 1194.09,-341.333"/>
<text text-anchor="middle" x="1385" y="-400.9" font-family="Times Roman,serif" font-size="14.00"> 1:m</text>
</g>
<!-- ronin_urls -->
<g id="node27" class="node"><title>ronin_urls</title>
<polygon fill="none" stroke="black" points="1721,-188.5 1721,-375.5 1921,-375.5 1921,-188.5 1721,-188.5"/>
<text text-anchor="middle" x="1821" y="-358.9" font-family="Times Roman,serif" font-size="14.00">ronin_urls</text>
<polyline fill="none" stroke="black" points="1721,-348.5 1921,-348.5 "/>
<text text-anchor="middle" x="1821" y="-331.9" font-family="Times Roman,serif" font-size="14.00">id: Serial</text>
<text text-anchor="middle" x="1821" y="-312.9" font-family="Times Roman,serif" font-size="14.00">path: String</text>
<text text-anchor="middle" x="1821" y="-293.9" font-family="Times Roman,serif" font-size="14.00">fragment: String</text>
<text text-anchor="middle" x="1821" y="-274.9" font-family="Times Roman,serif" font-size="14.00">last_scanned_at: Time</text>
<text text-anchor="middle" x="1821" y="-255.9" font-family="Times Roman,serif" font-size="14.00">created_at: DateTime</text>
<text text-anchor="middle" x="1821" y="-236.9" font-family="Times Roman,serif" font-size="14.00">scheme_id: ronin_url_schemes</text>
<text text-anchor="middle" x="1821" y="-217.9" font-family="Times Roman,serif" font-size="14.00">host_name_id: ronin_host_names</text>
<text text-anchor="middle" x="1821" y="-198.9" font-family="Times Roman,serif" font-size="14.00">port_id: ronin_tcp_ports</text>
</g>
<!-- ronin_host_names&#45;&gt;ronin_urls -->
<g id="edge28" class="edge"><title>ronin_host_names&#45;&gt;ronin_urls</title>
<path fill="none" stroke="blue" d="M1496.52,-498.944C1517.03,-474.874 1542.79,-449.274 1571,-432 1596.2,-416.569 1607.41,-424.583 1635,-414 1670.63,-400.331 1680.18,-397.075 1712,-376 1712.09,-375.94 1712.18,-375.879 1712.27,-375.819"/>
<polygon fill="blue" stroke="blue" points="1714.49,-378.545 1720.76,-370.008 1710.53,-372.769 1714.49,-378.545"/>
<text text-anchor="middle" x="1695" y="-400.9" font-family="Times Roman,serif" font-size="14.00"> 1:m</text>
</g>
<!-- ronin_email_addresses -->
<g id="node28" class="node"><title>ronin_email_addresses</title>
<polygon fill="none" stroke="black" points="1503,-226.5 1503,-337.5 1703,-337.5 1703,-226.5 1503,-226.5"/>
<text text-anchor="middle" x="1603" y="-320.9" font-family="Times Roman,serif" font-size="14.00">ronin_email_addresses</text>
<polyline fill="none" stroke="black" points="1503,-310.5 1703,-310.5 "/>
<text text-anchor="middle" x="1603" y="-293.9" font-family="Times Roman,serif" font-size="14.00">id: Serial</text>
<text text-anchor="middle" x="1603" y="-274.9" font-family="Times Roman,serif" font-size="14.00">created_at: DateTime</text>
<text text-anchor="middle" x="1603" y="-255.9" font-family="Times Roman,serif" font-size="14.00">user_name_id: ronin_user_names</text>
<text text-anchor="middle" x="1603" y="-236.9" font-family="Times Roman,serif" font-size="14.00">host_name_id: ronin_host_names</text>
</g>
<!-- ronin_host_names&#45;&gt;ronin_email_addresses -->
<g id="edge26" class="edge"><title>ronin_host_names&#45;&gt;ronin_email_addresses</title>
<path fill="none" stroke="blue" d="M1484.52,-498.949C1509.51,-453.202 1542.79,-392.25 1567.72,-346.602"/>
<polygon fill="blue" stroke="blue" points="1570.87,-348.139 1572.59,-337.685 1564.73,-344.784 1570.87,-348.139"/>
<text text-anchor="middle" x="1553" y="-400.9" font-family="Times Roman,serif" font-size="14.00"> 1:m</text>
</g>
<!-- ronin_authors -->
<g id="node9" class="node"><title>ronin_authors</title>
<polygon fill="none" stroke="black" points="1964.5,-753 1964.5,-921 2089.5,-921 2089.5,-753 1964.5,-753"/>
<text text-anchor="middle" x="2027" y="-904.4" font-family="Times Roman,serif" font-size="14.00">ronin_authors</text>
<polyline fill="none" stroke="black" points="1964.5,-894 2089.5,-894 "/>
<text text-anchor="middle" x="2027" y="-877.4" font-family="Times Roman,serif" font-size="14.00">name: String</text>
<text text-anchor="middle" x="2027" y="-858.4" font-family="Times Roman,serif" font-size="14.00">id: Serial</text>
<text text-anchor="middle" x="2027" y="-839.4" font-family="Times Roman,serif" font-size="14.00">organization: String</text>
<text text-anchor="middle" x="2027" y="-820.4" font-family="Times Roman,serif" font-size="14.00">pgp_signature: Text</text>
<text text-anchor="middle" x="2027" y="-801.4" font-family="Times Roman,serif" font-size="14.00">email: String</text>
<text text-anchor="middle" x="2027" y="-782.4" font-family="Times Roman,serif" font-size="14.00">site: URI</text>
<text text-anchor="middle" x="2027" y="-763.4" font-family="Times Roman,serif" font-size="14.00">biography: Text</text>
</g>
<!-- ronin_user_names -->
<g id="node10" class="node"><title>ronin_user_names</title>
<polygon fill="none" stroke="black" points="1899,-518 1899,-610 2033,-610 2033,-518 1899,-518"/>
<text text-anchor="middle" x="1966" y="-593.4" font-family="Times Roman,serif" font-size="14.00">ronin_user_names</text>
<polyline fill="none" stroke="black" points="1899,-583 2033,-583 "/>
<text text-anchor="middle" x="1966" y="-566.4" font-family="Times Roman,serif" font-size="14.00">name: String</text>
<text text-anchor="middle" x="1966" y="-547.4" font-family="Times Roman,serif" font-size="14.00">id: Serial</text>
<text text-anchor="middle" x="1966" y="-528.4" font-family="Times Roman,serif" font-size="14.00">created_at: DateTime</text>
</g>
<!-- ronin_credentials -->
<g id="node12" class="node"><title>ronin_credentials</title>
<polygon fill="none" stroke="black" points="1939,-236 1939,-328 2139,-328 2139,-236 1939,-236"/>
<text text-anchor="middle" x="2039" y="-311.4" font-family="Times Roman,serif" font-size="14.00">ronin_credentials</text>
<polyline fill="none" stroke="black" points="1939,-301 2139,-301 "/>
<text text-anchor="middle" x="2039" y="-284.4" font-family="Times Roman,serif" font-size="14.00">id: Serial</text>
<text text-anchor="middle" x="2039" y="-265.4" font-family="Times Roman,serif" font-size="14.00">password_id: ronin_passwords</text>
<text text-anchor="middle" x="2039" y="-246.4" font-family="Times Roman,serif" font-size="14.00">user_name_id: ronin_user_names</text>
</g>
<!-- ronin_user_names&#45;&gt;ronin_credentials -->
<g id="edge30" class="edge"><title>ronin_user_names&#45;&gt;ronin_credentials</title>
<path fill="none" stroke="blue" d="M1977.97,-517.749C1990.7,-468.573 2010.84,-390.778 2024.47,-338.128"/>
<polygon fill="blue" stroke="blue" points="2027.9,-338.834 2027.02,-328.276 2021.13,-337.08 2027.9,-338.834"/>
<text text-anchor="middle" x="2023" y="-400.9" font-family="Times Roman,serif" font-size="14.00"> 1:m</text>
</g>
<!-- ronin_user_names&#45;&gt;ronin_email_addresses -->
<g id="edge32" class="edge"><title>ronin_user_names&#45;&gt;ronin_email_addresses</title>
<path fill="none" stroke="blue" d="M1943.41,-517.74C1929.61,-491.474 1910.68,-458.627 1890,-432 1875.15,-412.887 1872.79,-404.539 1851,-394 1794.92,-366.871 1768.87,-401.413 1712,-376 1694.51,-368.187 1677.73,-356.627 1662.79,-344.264"/>
<polygon fill="blue" stroke="blue" points="1665.03,-341.575 1655.16,-337.742 1660.49,-346.898 1665.03,-341.575"/>
<text text-anchor="middle" x="1890" y="-400.9" font-family="Times Roman,serif" font-size="14.00"> 1:m</text>
</g>
<!-- ronin_passwords -->
<g id="node11" class="node"><title>ronin_passwords</title>
<polygon fill="none" stroke="black" points="2051,-527.5 2051,-600.5 2161,-600.5 2161,-527.5 2051,-527.5"/>
<text text-anchor="middle" x="2106" y="-583.9" font-family="Times Roman,serif" font-size="14.00">ronin_passwords</text>
<polyline fill="none" stroke="black" points="2051,-573.5 2161,-573.5 "/>
<text text-anchor="middle" x="2106" y="-556.9" font-family="Times Roman,serif" font-size="14.00">id: Serial</text>
<text text-anchor="middle" x="2106" y="-537.9" font-family="Times Roman,serif" font-size="14.00">clear_text: String</text>
</g>
<!-- ronin_passwords&#45;&gt;ronin_credentials -->
<g id="edge34" class="edge"><title>ronin_passwords&#45;&gt;ronin_credentials</title>
<path fill="none" stroke="blue" d="M2097.31,-527.423C2085.89,-479.342 2065.71,-394.406 2052.34,-338.154"/>
<polygon fill="blue" stroke="blue" points="2055.73,-337.266 2050.01,-328.346 2048.92,-338.884 2055.73,-337.266"/>
<text text-anchor="middle" x="2082" y="-400.9" font-family="Times Roman,serif" font-size="14.00"> 1:m</text>
</g>
<!-- ronin_service_credentials -->
<g id="node13" class="node"><title>ronin_service_credentials</title>
<polygon fill="none" stroke="black" points="1251,-10.5 1251,-121.5 1451,-121.5 1451,-10.5 1251,-10.5"/>
<text text-anchor="middle" x="1351" y="-104.9" font-family="Times Roman,serif" font-size="14.00">ronin_service_credentials</text>
<polyline fill="none" stroke="black" points="1251,-94.5 1451,-94.5 "/>
<text text-anchor="middle" x="1351" y="-77.9" font-family="Times Roman,serif" font-size="14.00">id: Serial</text>
<text text-anchor="middle" x="1351" y="-58.9" font-family="Times Roman,serif" font-size="14.00">password_id: ronin_passwords</text>
<text text-anchor="middle" x="1351" y="-39.9" font-family="Times Roman,serif" font-size="14.00">user_name_id: ronin_user_names</text>
<text text-anchor="middle" x="1351" y="-20.9" font-family="Times Roman,serif" font-size="14.00">open_port_id: ronin_open_ports</text>
</g>
<!-- ronin_web_credentials -->
<g id="node14" class="node"><title>ronin_web_credentials</title>
<polygon fill="none" stroke="black" points="1586,-1 1586,-131 1830,-131 1830,-1 1586,-1"/>
<text text-anchor="middle" x="1708" y="-114.4" font-family="Times Roman,serif" font-size="14.00">ronin_web_credentials</text>
<polyline fill="none" stroke="black" points="1586,-104 1830,-104 "/>
<text text-anchor="middle" x="1708" y="-87.4" font-family="Times Roman,serif" font-size="14.00">id: Serial</text>
<text text-anchor="middle" x="1708" y="-68.4" font-family="Times Roman,serif" font-size="14.00">password_id: ronin_passwords</text>
<text text-anchor="middle" x="1708" y="-49.4" font-family="Times Roman,serif" font-size="14.00">user_name_id: ronin_user_names</text>
<text text-anchor="middle" x="1708" y="-30.4" font-family="Times Roman,serif" font-size="14.00">email_address_id: ronin_email_addresses</text>
<text text-anchor="middle" x="1708" y="-11.4" font-family="Times Roman,serif" font-size="14.00">url_id: ronin_urls</text>
</g>
<!-- ronin_os -->
<g id="node17" class="node"><title>ronin_os</title>
<polygon fill="none" stroke="black" points="756.5,-518 756.5,-610 853.5,-610 853.5,-518 756.5,-518"/>
<text text-anchor="middle" x="805" y="-593.4" font-family="Times Roman,serif" font-size="14.00">ronin_os</text>
<polyline fill="none" stroke="black" points="756.5,-583 853.5,-583 "/>
<text text-anchor="middle" x="805" y="-566.4" font-family="Times Roman,serif" font-size="14.00">name: String</text>
<text text-anchor="middle" x="805" y="-547.4" font-family="Times Roman,serif" font-size="14.00">id: Serial</text>
<text text-anchor="middle" x="805" y="-528.4" font-family="Times Roman,serif" font-size="14.00">version: String</text>
</g>
<!-- ronin_os&#45;&gt;ronin_os_guesses -->
<g id="edge36" class="edge"><title>ronin_os&#45;&gt;ronin_os_guesses</title>
<path fill="none" stroke="blue" d="M822.385,-517.749C839.83,-471.339 866.856,-399.44 886.476,-347.242"/>
<polygon fill="blue" stroke="blue" points="889.807,-348.328 890.05,-337.736 883.255,-345.865 889.807,-348.328"/>
<text text-anchor="middle" x="881" y="-400.9" font-family="Times Roman,serif" font-size="14.00"> 1:m</text>
</g>
<!-- ronin_ports -->
<g id="node18" class="node"><title>ronin_ports</title>
<polygon fill="none" stroke="black" points="1426,-791 1426,-883 1530,-883 1530,-791 1426,-791"/>
<text text-anchor="middle" x="1478" y="-866.4" font-family="Times Roman,serif" font-size="14.00">ronin_ports</text>
<polyline fill="none" stroke="black" points="1426,-856 1530,-856 "/>
<text text-anchor="middle" x="1478" y="-839.4" font-family="Times Roman,serif" font-size="14.00">id: Serial</text>
<text text-anchor="middle" x="1478" y="-820.4" font-family="Times Roman,serif" font-size="14.00">protocol: String</text>
<text text-anchor="middle" x="1478" y="-801.4" font-family="Times Roman,serif" font-size="14.00">number: Integer</text>
</g>
<!-- ronin_udp_ports -->
<g id="node20" class="node"><title>ronin_udp_ports</title>
<polygon fill="none" stroke="black" points="1105,-518 1105,-610 1211,-610 1211,-518 1105,-518"/>
<text text-anchor="middle" x="1158" y="-593.4" font-family="Times Roman,serif" font-size="14.00">ronin_udp_ports</text>
<polyline fill="none" stroke="black" points="1105,-583 1211,-583 "/>
<text text-anchor="middle" x="1158" y="-566.4" font-family="Times Roman,serif" font-size="14.00">id: Serial</text>
<text text-anchor="middle" x="1158" y="-547.4" font-family="Times Roman,serif" font-size="14.00">protocol: String</text>
<text text-anchor="middle" x="1158" y="-528.4" font-family="Times Roman,serif" font-size="14.00">number: Integer</text>
</g>
<!-- ronin_ports&#45;&gt;ronin_udp_ports -->
<g id="edge66" class="edge"><title>ronin_ports&#45;&gt;ronin_udp_ports</title>
<path fill="none" stroke="cyan" d="M1425.77,-819.664C1368.76,-798.434 1277.88,-757.53 1220,-696 1199.77,-674.497 1185.11,-645.197 1175.14,-619.664"/>
<polygon fill="cyan" stroke="cyan" points="1178.33,-618.22 1171.54,-610.087 1171.78,-620.679 1178.33,-618.22"/>
</g>
<!-- ronin_ports&#45;&gt;ronin_open_ports -->
<g id="edge38" class="edge"><title>ronin_ports&#45;&gt;ronin_open_ports</title>
<path fill="none" stroke="blue" d="M1515.97,-790.947C1535.02,-764.829 1556.11,-730.536 1566,-696 1598.31,-583.203 1620.27,-536.03 1566,-432 1562.74,-425.753 1512.31,-390.44 1461.11,-355.648"/>
<polygon fill="blue" stroke="blue" points="1462.81,-352.566 1452.57,-349.847 1458.88,-358.358 1462.81,-352.566"/>
<text text-anchor="middle" x="1612" y="-560.9" font-family="Times Roman,serif" font-size="14.00"> 1:m</text>
</g>
<!-- ronin_tcp_ports -->
<g id="node19" class="node"><title>ronin_tcp_ports</title>
<polygon fill="none" stroke="black" points="1638,-518 1638,-610 1742,-610 1742,-518 1638,-518"/>
<text text-anchor="middle" x="1690" y="-593.4" font-family="Times Roman,serif" font-size="14.00">ronin_tcp_ports</text>
<polyline fill="none" stroke="black" points="1638,-583 1742,-583 "/>
<text text-anchor="middle" x="1690" y="-566.4" font-family="Times Roman,serif" font-size="14.00">id: Serial</text>
<text text-anchor="middle" x="1690" y="-547.4" font-family="Times Roman,serif" font-size="14.00">protocol: String</text>
<text text-anchor="middle" x="1690" y="-528.4" font-family="Times Roman,serif" font-size="14.00">number: Integer</text>
</g>
<!-- ronin_tcp_ports&#45;&gt;ronin_open_ports -->
<g id="edge40" class="edge"><title>ronin_tcp_ports&#45;&gt;ronin_open_ports</title>
<path fill="none" stroke="blue" d="M1673.1,-517.972C1661.7,-490.997 1644.76,-457.353 1623,-432 1604.12,-410.005 1596.38,-406.011 1570,-394 1538.41,-379.615 1525.88,-389.742 1494,-376 1483.24,-371.36 1472.39,-365.917 1461.75,-360.029"/>
<polygon fill="blue" stroke="blue" points="1463.29,-356.879 1452.87,-354.987 1459.84,-362.967 1463.29,-356.879"/>
<text text-anchor="middle" x="1618" y="-400.9" font-family="Times Roman,serif" font-size="14.00"> 1:m</text>
</g>
<!-- ronin_tcp_ports&#45;&gt;ronin_urls -->
<g id="edge42" class="edge"><title>ronin_tcp_ports&#45;&gt;ronin_urls</title>
<path fill="none" stroke="blue" d="M1711.49,-517.749C1728.19,-481.788 1752.01,-430.523 1773.16,-384.977"/>
<polygon fill="blue" stroke="blue" points="1776.46,-386.196 1777.49,-375.652 1770.11,-383.247 1776.46,-386.196"/>
<text text-anchor="middle" x="1781" y="-400.9" font-family="Times Roman,serif" font-size="14.00"> 1:m</text>
</g>
<!-- ronin_udp_ports&#45;&gt;ronin_open_ports -->
<g id="edge44" class="edge"><title>ronin_udp_ports&#45;&gt;ronin_open_ports</title>
<path fill="none" stroke="blue" d="M1175.97,-517.735C1187.02,-491.619 1202.42,-458.923 1220,-432 1235.15,-408.796 1253.66,-385.417 1271.93,-364.247"/>
<polygon fill="blue" stroke="blue" points="1274.71,-366.388 1278.65,-356.552 1269.44,-361.785 1274.71,-366.388"/>
<text text-anchor="middle" x="1259" y="-400.9" font-family="Times Roman,serif" font-size="14.00"> 1:m</text>
</g>
<!-- ronin_services -->
<g id="node21" class="node"><title>ronin_services</title>
<polygon fill="none" stroke="black" points="1228.5,-527.5 1228.5,-600.5 1323.5,-600.5 1323.5,-527.5 1228.5,-527.5"/>
<text text-anchor="middle" x="1276" y="-583.9" font-family="Times Roman,serif" font-size="14.00">ronin_services</text>
<polyline fill="none" stroke="black" points="1228.5,-573.5 1323.5,-573.5 "/>
<text text-anchor="middle" x="1276" y="-556.9" font-family="Times Roman,serif" font-size="14.00">name: String</text>
<text text-anchor="middle" x="1276" y="-537.9" font-family="Times Roman,serif" font-size="14.00">id: Serial</text>
</g>
<!-- ronin_services&#45;&gt;ronin_open_ports -->
<g id="edge46" class="edge"><title>ronin_services&#45;&gt;ronin_open_ports</title>
<path fill="none" stroke="blue" d="M1285.73,-527.423C1296.51,-486.877 1314.27,-420.123 1328.54,-366.463"/>
<polygon fill="blue" stroke="blue" points="1331.97,-367.168 1331.16,-356.605 1325.21,-365.369 1331.97,-367.168"/>
<text text-anchor="middle" x="1334" y="-400.9" font-family="Times Roman,serif" font-size="14.00"> 1:m</text>
</g>
<!-- ronin_open_ports&#45;&gt;ronin_service_credentials -->
<g id="edge48" class="edge"><title>ronin_open_ports&#45;&gt;ronin_service_credentials</title>
<path fill="none" stroke="blue" d="M1351,-207.363C1351,-182.715 1351,-155.497 1351,-131.579"/>
<polygon fill="blue" stroke="blue" points="1354.5,-131.548 1351,-121.548 1347.5,-131.548 1354.5,-131.548"/>
<text text-anchor="middle" x="1364" y="-156.9" font-family="Times Roman,serif" font-size="14.00"> 1:m</text>
</g>
<!-- ronin_url_schemes -->
<g id="node24" class="node"><title>ronin_url_schemes</title>
<polygon fill="none" stroke="black" points="1761,-527.5 1761,-600.5 1881,-600.5 1881,-527.5 1761,-527.5"/>
<text text-anchor="middle" x="1821" y="-583.9" font-family="Times Roman,serif" font-size="14.00">ronin_url_schemes</text>
<polyline fill="none" stroke="black" points="1761,-573.5 1881,-573.5 "/>
<text text-anchor="middle" x="1821" y="-556.9" font-family="Times Roman,serif" font-size="14.00">name: String</text>
<text text-anchor="middle" x="1821" y="-537.9" font-family="Times Roman,serif" font-size="14.00">id: Serial</text>
</g>
<!-- ronin_url_schemes&#45;&gt;ronin_urls -->
<g id="edge50" class="edge"><title>ronin_url_schemes&#45;&gt;ronin_urls</title>
<path fill="none" stroke="blue" d="M1821,-527.423C1821,-491.661 1821,-435.51 1821,-385.937"/>
<polygon fill="blue" stroke="blue" points="1824.5,-385.794 1821,-375.794 1817.5,-385.794 1824.5,-385.794"/>
<text text-anchor="middle" x="1834" y="-400.9" font-family="Times Roman,serif" font-size="14.00"> 1:m</text>
</g>
<!-- ronin_url_query_param_names -->
<g id="node25" class="node"><title>ronin_url_query_param_names</title>
<polygon fill="none" stroke="black" points="2157,-245.5 2157,-318.5 2345,-318.5 2345,-245.5 2157,-245.5"/>
<text text-anchor="middle" x="2251" y="-301.9" font-family="Times Roman,serif" font-size="14.00">ronin_url_query_param_names</text>
<polyline fill="none" stroke="black" points="2157,-291.5 2345,-291.5 "/>
<text text-anchor="middle" x="2251" y="-274.9" font-family="Times Roman,serif" font-size="14.00">name: String</text>
<text text-anchor="middle" x="2251" y="-255.9" font-family="Times Roman,serif" font-size="14.00">id: Serial</text>
</g>
<!-- ronin_url_query_params -->
<g id="node26" class="node"><title>ronin_url_query_params</title>
<polygon fill="none" stroke="black" points="1989,-10.5 1989,-121.5 2231,-121.5 2231,-10.5 1989,-10.5"/>
<text text-anchor="middle" x="2110" y="-104.9" font-family="Times Roman,serif" font-size="14.00">ronin_url_query_params</text>
<polyline fill="none" stroke="black" points="1989,-94.5 2231,-94.5 "/>
<text text-anchor="middle" x="2110" y="-77.9" font-family="Times Roman,serif" font-size="14.00">id: Serial</text>
<text text-anchor="middle" x="2110" y="-58.9" font-family="Times Roman,serif" font-size="14.00">value: Text</text>
<text text-anchor="middle" x="2110" y="-39.9" font-family="Times Roman,serif" font-size="14.00">name_id: ronin_url_query_param_names</text>
<text text-anchor="middle" x="2110" y="-20.9" font-family="Times Roman,serif" font-size="14.00">url_id: ronin_urls</text>
</g>
<!-- ronin_url_query_param_names&#45;&gt;ronin_url_query_params -->
<g id="edge52" class="edge"><title>ronin_url_query_param_names&#45;&gt;ronin_url_query_params</title>
<path fill="none" stroke="blue" d="M2227.08,-245.359C2206.48,-213.803 2176.28,-167.536 2151.71,-129.897"/>
<polygon fill="blue" stroke="blue" points="2154.64,-127.976 2146.24,-121.516 2148.77,-131.803 2154.64,-127.976"/>
<text text-anchor="middle" x="2190" y="-156.9" font-family="Times Roman,serif" font-size="14.00"> 1:m</text>
</g>
<!-- ronin_urls&#45;&gt;ronin_web_credentials -->
<g id="edge56" class="edge"><title>ronin_urls&#45;&gt;ronin_web_credentials</title>
<path fill="none" stroke="blue" d="M1771.93,-188.202C1763.52,-172.117 1754.88,-155.605 1746.78,-140.126"/>
<polygon fill="blue" stroke="blue" points="1749.82,-138.381 1742.08,-131.143 1743.61,-141.626 1749.82,-138.381"/>
<text text-anchor="middle" x="1775" y="-156.9" font-family="Times Roman,serif" font-size="14.00"> 1:m</text>
</g>
<!-- ronin_urls&#45;&gt;ronin_url_query_params -->
<g id="edge54" class="edge"><title>ronin_urls&#45;&gt;ronin_url_query_params</title>
<path fill="none" stroke="blue" d="M1921.01,-194.99C1924.02,-192.614 1927.02,-190.279 1930,-188 1956.89,-167.404 1987.04,-146.26 2014.86,-127.481"/>
<polygon fill="blue" stroke="blue" points="2017.07,-130.215 2023.42,-121.732 2013.16,-124.405 2017.07,-130.215"/>
<text text-anchor="middle" x="1992" y="-156.9" font-family="Times Roman,serif" font-size="14.00"> 1:m</text>
</g>
<!-- ronin_email_addresses&#45;&gt;ronin_web_credentials -->
<g id="edge58" class="edge"><title>ronin_email_addresses&#45;&gt;ronin_web_credentials</title>
<path fill="none" stroke="blue" d="M1630.04,-226.375C1642.82,-200.094 1658.24,-168.354 1671.99,-140.07"/>
<polygon fill="blue" stroke="blue" points="1675.17,-141.544 1676.39,-131.02 1668.87,-138.483 1675.17,-141.544"/>
<text text-anchor="middle" x="1678" y="-156.9" font-family="Times Roman,serif" font-size="14.00"> 1:m</text>
</g>
<!-- ronin_licenses -->
<g id="node29" class="node"><title>ronin_licenses</title>
<polygon fill="none" stroke="black" points="2405.5,-781.5 2405.5,-892.5 2514.5,-892.5 2514.5,-781.5 2405.5,-781.5"/>
<text text-anchor="middle" x="2460" y="-875.9" font-family="Times Roman,serif" font-size="14.00">ronin_licenses</text>
<polyline fill="none" stroke="black" points="2405.5,-865.5 2514.5,-865.5 "/>
<text text-anchor="middle" x="2460" y="-848.9" font-family="Times Roman,serif" font-size="14.00">name: String</text>
<text text-anchor="middle" x="2460" y="-829.9" font-family="Times Roman,serif" font-size="14.00">id: Serial</text>
<text text-anchor="middle" x="2460" y="-810.9" font-family="Times Roman,serif" font-size="14.00">description: Text</text>
<text text-anchor="middle" x="2460" y="-791.9" font-family="Times Roman,serif" font-size="14.00">url: URI</text>
</g>
<!-- ronin_repositories -->
<g id="node30" class="node"><title>ronin_repositories</title>
<polygon fill="none" stroke="black" points="2381.5,-432.5 2381.5,-695.5 2538.5,-695.5 2538.5,-432.5 2381.5,-432.5"/>
<text text-anchor="middle" x="2460" y="-678.9" font-family="Times Roman,serif" font-size="14.00">ronin_repositories</text>
<polyline fill="none" stroke="black" points="2381.5,-668.5 2538.5,-668.5 "/>
<text text-anchor="middle" x="2460" y="-651.9" font-family="Times Roman,serif" font-size="14.00">id: Serial</text>
<text text-anchor="middle" x="2460" y="-632.9" font-family="Times Roman,serif" font-size="14.00">scm: String</text>
<text text-anchor="middle" x="2460" y="-613.9" font-family="Times Roman,serif" font-size="14.00">path: FilePath</text>
<text text-anchor="middle" x="2460" y="-594.9" font-family="Times Roman,serif" font-size="14.00">uri: URI</text>
<text text-anchor="middle" x="2460" y="-575.9" font-family="Times Roman,serif" font-size="14.00">installed: Boolean</text>
<text text-anchor="middle" x="2460" y="-556.9" font-family="Times Roman,serif" font-size="14.00">name: String</text>
<text text-anchor="middle" x="2460" y="-537.9" font-family="Times Roman,serif" font-size="14.00">domain: String</text>
<text text-anchor="middle" x="2460" y="-518.9" font-family="Times Roman,serif" font-size="14.00">title: Text</text>
<text text-anchor="middle" x="2460" y="-499.9" font-family="Times Roman,serif" font-size="14.00">source: URI</text>
<text text-anchor="middle" x="2460" y="-480.9" font-family="Times Roman,serif" font-size="14.00">website: URI</text>
<text text-anchor="middle" x="2460" y="-461.9" font-family="Times Roman,serif" font-size="14.00">description: Text</text>
<text text-anchor="middle" x="2460" y="-442.9" font-family="Times Roman,serif" font-size="14.00">license_id: ronin_licenses</text>
</g>
<!-- ronin_licenses&#45;&gt;ronin_repositories -->
<g id="edge60" class="edge"><title>ronin_licenses&#45;&gt;ronin_repositories</title>
<path fill="none" stroke="blue" d="M2460,-781.425C2460,-759.307 2460,-732.752 2460,-705.917"/>
<polygon fill="blue" stroke="blue" points="2463.5,-705.627 2460,-695.627 2456.5,-705.627 2463.5,-705.627"/>
<text text-anchor="middle" x="2473" y="-720.9" font-family="Times Roman,serif" font-size="14.00"> 1:m</text>
</g>
<!-- ronin_script_paths -->
<g id="node31" class="node"><title>ronin_script_paths</title>
<polygon fill="none" stroke="black" points="2363,-217 2363,-347 2557,-347 2557,-217 2363,-217"/>
<text text-anchor="middle" x="2460" y="-330.4" font-family="Times Roman,serif" font-size="14.00">ronin_script_paths</text>
<polyline fill="none" stroke="black" points="2363,-320 2557,-320 "/>
<text text-anchor="middle" x="2460" y="-303.4" font-family="Times Roman,serif" font-size="14.00">id: Serial</text>
<text text-anchor="middle" x="2460" y="-284.4" font-family="Times Roman,serif" font-size="14.00">path: FilePath</text>
<text text-anchor="middle" x="2460" y="-265.4" font-family="Times Roman,serif" font-size="14.00">timestamp: Time</text>
<text text-anchor="middle" x="2460" y="-246.4" font-family="Times Roman,serif" font-size="14.00">class_name: String</text>
<text text-anchor="middle" x="2460" y="-227.4" font-family="Times Roman,serif" font-size="14.00">repository_id: ronin_repositories</text>
</g>
<!-- ronin_repositories&#45;&gt;ronin_script_paths -->
<g id="edge62" class="edge"><title>ronin_repositories&#45;&gt;ronin_script_paths</title>
<path fill="none" stroke="blue" d="M2460,-432.495C2460,-406.728 2460,-380.537 2460,-357.383"/>
<polygon fill="blue" stroke="blue" points="2463.5,-357.315 2460,-347.315 2456.5,-357.315 2463.5,-357.315"/>
<text text-anchor="middle" x="2473" y="-400.9" font-family="Times Roman,serif" font-size="14.00"> 1:m</text>
</g>
<!-- ronin_vendors -->
<g id="node32" class="node"><title>ronin_vendors</title>
<polygon fill="none" stroke="black" points="2586.5,-800.5 2586.5,-873.5 2681.5,-873.5 2681.5,-800.5 2586.5,-800.5"/>
<text text-anchor="middle" x="2634" y="-856.9" font-family="Times Roman,serif" font-size="14.00">ronin_vendors</text>
<polyline fill="none" stroke="black" points="2586.5,-846.5 2681.5,-846.5 "/>
<text text-anchor="middle" x="2634" y="-829.9" font-family="Times Roman,serif" font-size="14.00">name: String</text>
<text text-anchor="middle" x="2634" y="-810.9" font-family="Times Roman,serif" font-size="14.00">id: Serial</text>
</g>
<!-- ronin_softwares -->
<g id="node33" class="node"><title>ronin_softwares</title>
<polygon fill="none" stroke="black" points="2555.5,-508.5 2555.5,-619.5 2712.5,-619.5 2712.5,-508.5 2555.5,-508.5"/>
<text text-anchor="middle" x="2634" y="-602.9" font-family="Times Roman,serif" font-size="14.00">ronin_softwares</text>
<polyline fill="none" stroke="black" points="2555.5,-592.5 2712.5,-592.5 "/>
<text text-anchor="middle" x="2634" y="-575.9" font-family="Times Roman,serif" font-size="14.00">id: Serial</text>
<text text-anchor="middle" x="2634" y="-556.9" font-family="Times Roman,serif" font-size="14.00">name: String</text>
<text text-anchor="middle" x="2634" y="-537.9" font-family="Times Roman,serif" font-size="14.00">version: String</text>
<text text-anchor="middle" x="2634" y="-518.9" font-family="Times Roman,serif" font-size="14.00">vendor_id: ronin_vendors</text>
</g>
<!-- ronin_vendors&#45;&gt;ronin_softwares -->
<g id="edge64" class="edge"><title>ronin_vendors&#45;&gt;ronin_softwares</title>
<path fill="none" stroke="blue" d="M2634,-800.465C2634,-756.923 2634,-683.34 2634,-629.8"/>
<polygon fill="blue" stroke="blue" points="2637.5,-629.712 2634,-619.712 2630.5,-629.712 2637.5,-629.712"/>
<text text-anchor="middle" x="2647" y="-720.9" font-family="Times Roman,serif" font-size="14.00"> 1:m</text>
</g>
</g>
</svg>
