<?xml version="1.0" encoding="UTF-8" standalone="no"?>
<!DOCTYPE svg PUBLIC "-//W3C//DTD SVG 1.1//EN"
 "http://www.w3.org/Graphics/SVG/1.1/DTD/svg11.dtd">
<!-- Generated by graphviz version 2.26.3 (20100126.1600)
 -->
<!-- Title: G Pages: 1 -->
<svg width="2708pt" height="930pt"
 viewBox="0.00 0.00 2708.00 930.00" xmlns="http://www.w3.org/2000/svg" xmlns:xlink="http://www.w3.org/1999/xlink">
<g id="graph1" class="graph" transform="scale(1 1) rotate(0) translate(4 926)">
<title>G</title>
<polygon fill="white" stroke="white" points="-4,5 -4,-926 2705,-926 2705,5 -4,5"/>
<!-- ronin_arches -->
<g id="node1" class="node"><title>ronin_arches</title>
<polygon fill="none" stroke="black" points="-0.5,-781.5 -0.5,-892.5 142.5,-892.5 142.5,-781.5 -0.5,-781.5"/>
<text text-anchor="middle" x="71" y="-875.9" font-family="Times Roman,serif" font-size="14.00">ronin_arches</text>
<polyline fill="none" stroke="black" points="-0.5,-865.5 142.5,-865.5 "/>
<text text-anchor="middle" x="71" y="-848.9" font-family="Times Roman,serif" font-size="14.00">name: String</text>
<text text-anchor="middle" x="71" y="-829.9" font-family="Times Roman,serif" font-size="14.00">id: Serial</text>
<text text-anchor="middle" x="71" y="-810.9" font-family="Times Roman,serif" font-size="14.00">endian: String</text>
<text text-anchor="middle" x="71" y="-791.9" font-family="Times Roman,serif" font-size="14.00">address_length: Integer</text>
</g>
<!-- ronin_organizations -->
<g id="node2" class="node"><title>ronin_organizations</title>
<polygon fill="none" stroke="black" points="159.5,-781.5 159.5,-892.5 306.5,-892.5 306.5,-781.5 159.5,-781.5"/>
<text text-anchor="middle" x="233" y="-875.9" font-family="Times Roman,serif" font-size="14.00">ronin_organizations</text>
<polyline fill="none" stroke="black" points="159.5,-865.5 306.5,-865.5 "/>
<text text-anchor="middle" x="233" y="-848.9" font-family="Times Roman,serif" font-size="14.00">name: String</text>
<text text-anchor="middle" x="233" y="-829.9" font-family="Times Roman,serif" font-size="14.00">description: Description</text>
<text text-anchor="middle" x="233" y="-810.9" font-family="Times Roman,serif" font-size="14.00">id: Serial</text>
<text text-anchor="middle" x="233" y="-791.9" font-family="Times Roman,serif" font-size="14.00">created_at: DateTime</text>
</g>
<!-- ronin_addresses -->
<g id="node5" class="node"><title>ronin_addresses</title>
<polygon fill="none" stroke="black" points="124.5,-499 124.5,-629 341.5,-629 341.5,-499 124.5,-499"/>
<text text-anchor="middle" x="233" y="-612.4" font-family="Times Roman,serif" font-size="14.00">ronin_addresses</text>
<polyline fill="none" stroke="black" points="124.5,-602 341.5,-602 "/>
<text text-anchor="middle" x="233" y="-585.4" font-family="Times Roman,serif" font-size="14.00">id: Serial</text>
<text text-anchor="middle" x="233" y="-566.4" font-family="Times Roman,serif" font-size="14.00">type: Discriminator</text>
<text text-anchor="middle" x="233" y="-547.4" font-family="Times Roman,serif" font-size="14.00">address: String</text>
<text text-anchor="middle" x="233" y="-528.4" font-family="Times Roman,serif" font-size="14.00">created_at: DateTime</text>
<text text-anchor="middle" x="233" y="-509.4" font-family="Times Roman,serif" font-size="14.00">organization_id: ronin_organizations</text>
</g>
<!-- ronin_organizations&#45;&gt;ronin_addresses -->
<g id="edge2" class="edge"><title>ronin_organizations&#45;&gt;ronin_addresses</title>
<path fill="none" stroke="blue" d="M233,-781.425C233,-740.408 233,-684.132 233,-639.11"/>
<polygon fill="blue" stroke="blue" points="236.5,-639.1 233,-629.1 229.5,-639.1 236.5,-639.1"/>
<text text-anchor="middle" x="246" y="-720.9" font-family="Times Roman,serif" font-size="14.00"> 1:m</text>
</g>
<!-- ronin_campaigns -->
<g id="node3" class="node"><title>ronin_campaigns</title>
<polygon fill="none" stroke="black" points="358.5,-499 358.5,-629 505.5,-629 505.5,-499 358.5,-499"/>
<text text-anchor="middle" x="432" y="-612.4" font-family="Times Roman,serif" font-size="14.00">ronin_campaigns</text>
<polyline fill="none" stroke="black" points="358.5,-602 505.5,-602 "/>
<text text-anchor="middle" x="432" y="-585.4" font-family="Times Roman,serif" font-size="14.00">name: String</text>
<text text-anchor="middle" x="432" y="-566.4" font-family="Times Roman,serif" font-size="14.00">description: Description</text>
<text text-anchor="middle" x="432" y="-547.4" font-family="Times Roman,serif" font-size="14.00">id: Serial</text>
<text text-anchor="middle" x="432" y="-528.4" font-family="Times Roman,serif" font-size="14.00">created_at: DateTime</text>
<text text-anchor="middle" x="432" y="-509.4" font-family="Times Roman,serif" font-size="14.00">updated_at: DateTime</text>
</g>
<!-- ronin_targets -->
<g id="node4" class="node"><title>ronin_targets</title>
<polygon fill="none" stroke="black" points="342,-226.5 342,-337.5 530,-337.5 530,-226.5 342,-226.5"/>
<text text-anchor="middle" x="436" y="-320.9" font-family="Times Roman,serif" font-size="14.00">ronin_targets</text>
<polyline fill="none" stroke="black" points="342,-310.5 530,-310.5 "/>
<text text-anchor="middle" x="436" y="-293.9" font-family="Times Roman,serif" font-size="14.00">id: Serial</text>
<text text-anchor="middle" x="436" y="-274.9" font-family="Times Roman,serif" font-size="14.00">created_at: DateTime</text>
<text text-anchor="middle" x="436" y="-255.9" font-family="Times Roman,serif" font-size="14.00">campaign_id: ronin_campaigns</text>
<text text-anchor="middle" x="436" y="-236.9" font-family="Times Roman,serif" font-size="14.00">address_id: ronin_addresses</text>
</g>
<!-- ronin_campaigns&#45;&gt;ronin_targets -->
<g id="edge4" class="edge"><title>ronin_campaigns&#45;&gt;ronin_targets</title>
<path fill="none" stroke="blue" d="M432.923,-498.949C433.566,-453.583 434.422,-393.264 435.067,-347.746"/>
<polygon fill="blue" stroke="blue" points="438.568,-347.734 435.21,-337.685 431.569,-347.635 438.568,-347.734"/>
<text text-anchor="middle" x="448" y="-400.9" font-family="Times Roman,serif" font-size="14.00"> 1:m</text>
</g>
<!-- ronin_addresses&#45;&gt;ronin_targets -->
<g id="edge6" class="edge"><title>ronin_addresses&#45;&gt;ronin_targets</title>
<path fill="none" stroke="blue" d="M279.827,-498.949C312.896,-453.011 357.002,-391.741 389.906,-346.032"/>
<polygon fill="blue" stroke="blue" points="392.913,-347.846 395.915,-337.685 387.232,-343.756 392.913,-347.846"/>
<text text-anchor="middle" x="366" y="-400.9" font-family="Times Roman,serif" font-size="14.00"> 1:m</text>
</g>
<!-- ronin_mac_addresses -->
<g id="node6" class="node"><title>ronin_mac_addresses</title>
<polygon fill="none" stroke="black" points="522.5,-499 522.5,-629 739.5,-629 739.5,-499 522.5,-499"/>
<text text-anchor="middle" x="631" y="-612.4" font-family="Times Roman,serif" font-size="14.00">ronin_mac_addresses</text>
<polyline fill="none" stroke="black" points="522.5,-602 739.5,-602 "/>
<text text-anchor="middle" x="631" y="-585.4" font-family="Times Roman,serif" font-size="14.00">id: Serial</text>
<text text-anchor="middle" x="631" y="-566.4" font-family="Times Roman,serif" font-size="14.00">type: Discriminator</text>
<text text-anchor="middle" x="631" y="-547.4" font-family="Times Roman,serif" font-size="14.00">address: String</text>
<text text-anchor="middle" x="631" y="-528.4" font-family="Times Roman,serif" font-size="14.00">created_at: DateTime</text>
<text text-anchor="middle" x="631" y="-509.4" font-family="Times Roman,serif" font-size="14.00">organization_id: ronin_organizations</text>
</g>
<!-- ronin_mac_addresses&#45;&gt;ronin_targets -->
<g id="edge8" class="edge"><title>ronin_mac_addresses&#45;&gt;ronin_targets</title>
<path fill="none" stroke="blue" d="M586.018,-498.949C554.252,-453.011 511.885,-391.741 480.277,-346.032"/>
<polygon fill="blue" stroke="blue" points="483.072,-343.92 474.506,-337.685 477.315,-347.901 483.072,-343.92"/>
<text text-anchor="middle" x="535" y="-400.9" font-family="Times Roman,serif" font-size="14.00"> 1:m</text>
</g>
<!-- ronin_ip_address_mac_addresses -->
<g id="node15" class="node"><title>ronin_ip_address_mac_addresses</title>
<polygon fill="none" stroke="black" points="547.5,-226.5 547.5,-337.5 776.5,-337.5 776.5,-226.5 547.5,-226.5"/>
<text text-anchor="middle" x="662" y="-320.9" font-family="Times Roman,serif" font-size="14.00">ronin_ip_address_mac_addresses</text>
<polyline fill="none" stroke="black" points="547.5,-310.5 776.5,-310.5 "/>
<text text-anchor="middle" x="662" y="-293.9" font-family="Times Roman,serif" font-size="14.00">id: Serial</text>
<text text-anchor="middle" x="662" y="-274.9" font-family="Times Roman,serif" font-size="14.00">created_at: DateTime</text>
<text text-anchor="middle" x="662" y="-255.9" font-family="Times Roman,serif" font-size="14.00">ip_address_id: ronin_ip_addresses</text>
<text text-anchor="middle" x="662" y="-236.9" font-family="Times Roman,serif" font-size="14.00">mac_address_id: ronin_mac_addresses</text>
</g>
<!-- ronin_mac_addresses&#45;&gt;ronin_ip_address_mac_addresses -->
<g id="edge10" class="edge"><title>ronin_mac_addresses&#45;&gt;ronin_ip_address_mac_addresses</title>
<path fill="none" stroke="blue" d="M638.151,-498.949C643.138,-453.583 649.769,-393.264 654.773,-347.746"/>
<polygon fill="blue" stroke="blue" points="658.265,-348.008 655.879,-337.685 651.307,-347.243 658.265,-348.008"/>
<text text-anchor="middle" x="663" y="-400.9" font-family="Times Roman,serif" font-size="14.00"> 1:m</text>
</g>
<!-- ronin_ip_addresses -->
<g id="node7" class="node"><title>ronin_ip_addresses</title>
<polygon fill="none" stroke="black" points="870.5,-489.5 870.5,-638.5 1087.5,-638.5 1087.5,-489.5 870.5,-489.5"/>
<text text-anchor="middle" x="979" y="-621.9" font-family="Times Roman,serif" font-size="14.00">ronin_ip_addresses</text>
<polyline fill="none" stroke="black" points="870.5,-611.5 1087.5,-611.5 "/>
<text text-anchor="middle" x="979" y="-594.9" font-family="Times Roman,serif" font-size="14.00">id: Serial</text>
<text text-anchor="middle" x="979" y="-575.9" font-family="Times Roman,serif" font-size="14.00">type: Discriminator</text>
<text text-anchor="middle" x="979" y="-556.9" font-family="Times Roman,serif" font-size="14.00">address: IPAddress</text>
<text text-anchor="middle" x="979" y="-537.9" font-family="Times Roman,serif" font-size="14.00">created_at: DateTime</text>
<text text-anchor="middle" x="979" y="-518.9" font-family="Times Roman,serif" font-size="14.00">version: Integer</text>
<text text-anchor="middle" x="979" y="-499.9" font-family="Times Roman,serif" font-size="14.00">organization_id: ronin_organizations</text>
</g>
<!-- ronin_ip_addresses&#45;&gt;ronin_targets -->
<g id="edge12" class="edge"><title>ronin_ip_addresses&#45;&gt;ronin_targets</title>
<path fill="none" stroke="blue" d="M930.182,-489.399C911.625,-467.096 888.483,-445.113 862,-432 813.475,-407.973 671.346,-427.852 619,-414 580.947,-403.93 571.673,-397.952 539,-376 525.271,-366.776 511.534,-355.78 498.771,-344.616"/>
<polygon fill="blue" stroke="blue" points="500.754,-341.695 490.959,-337.657 496.098,-346.922 500.754,-341.695"/>
<text text-anchor="middle" x="632" y="-400.9" font-family="Times Roman,serif" font-size="14.00"> 1:m</text>
</g>
<!-- ronin_ip_addresses&#45;&gt;ronin_ip_address_mac_addresses -->
<g id="edge14" class="edge"><title>ronin_ip_addresses&#45;&gt;ronin_ip_address_mac_addresses</title>
<path fill="none" stroke="blue" d="M921.591,-489.268C903.883,-469.132 883.378,-448.407 862,-432 847.809,-421.109 841.054,-423.663 826,-414 793.809,-393.336 760.528,-367.505 732.429,-344.187"/>
<polygon fill="blue" stroke="blue" points="734.564,-341.409 724.646,-337.682 730.075,-346.781 734.564,-341.409"/>
<text text-anchor="middle" x="839" y="-400.9" font-family="Times Roman,serif" font-size="14.00"> 1:m</text>
</g>
<!-- ronin_os_guesses -->
<g id="node16" class="node"><title>ronin_os_guesses</title>
<polygon fill="none" stroke="black" points="793.5,-226.5 793.5,-337.5 996.5,-337.5 996.5,-226.5 793.5,-226.5"/>
<text text-anchor="middle" x="895" y="-320.9" font-family="Times Roman,serif" font-size="14.00">ronin_os_guesses</text>
<polyline fill="none" stroke="black" points="793.5,-310.5 996.5,-310.5 "/>
<text text-anchor="middle" x="895" y="-293.9" font-family="Times Roman,serif" font-size="14.00">id: Serial</text>
<text text-anchor="middle" x="895" y="-274.9" font-family="Times Roman,serif" font-size="14.00">created_at: DateTime</text>
<text text-anchor="middle" x="895" y="-255.9" font-family="Times Roman,serif" font-size="14.00">ip_address_id: ronin_ip_addresses</text>
<text text-anchor="middle" x="895" y="-236.9" font-family="Times Roman,serif" font-size="14.00">os_id: ronin_os</text>
</g>
<!-- ronin_ip_addresses&#45;&gt;ronin_os_guesses -->
<g id="edge20" class="edge"><title>ronin_ip_addresses&#45;&gt;ronin_os_guesses</title>
<path fill="none" stroke="blue" d="M956.71,-489.17C943.588,-445.118 927.147,-389.922 914.535,-347.583"/>
<polygon fill="blue" stroke="blue" points="917.87,-346.519 911.661,-337.934 911.162,-348.517 917.87,-346.519"/>
<text text-anchor="middle" x="945" y="-400.9" font-family="Times Roman,serif" font-size="14.00"> 1:m</text>
</g>
<!-- ronin_open_ports -->
<g id="node22" class="node"><title>ronin_open_ports</title>
<polygon fill="none" stroke="black" points="1233.5,-207.5 1233.5,-356.5 1436.5,-356.5 1436.5,-207.5 1233.5,-207.5"/>
<text text-anchor="middle" x="1335" y="-339.9" font-family="Times Roman,serif" font-size="14.00">ronin_open_ports</text>
<polyline fill="none" stroke="black" points="1233.5,-329.5 1436.5,-329.5 "/>
<text text-anchor="middle" x="1335" y="-312.9" font-family="Times Roman,serif" font-size="14.00">id: Serial</text>
<text text-anchor="middle" x="1335" y="-293.9" font-family="Times Roman,serif" font-size="14.00">last_scanned_at: Time</text>
<text text-anchor="middle" x="1335" y="-274.9" font-family="Times Roman,serif" font-size="14.00">created_at: DateTime</text>
<text text-anchor="middle" x="1335" y="-255.9" font-family="Times Roman,serif" font-size="14.00">ip_address_id: ronin_ip_addresses</text>
<text text-anchor="middle" x="1335" y="-236.9" font-family="Times Roman,serif" font-size="14.00">port_id: ronin_ports</text>
<text text-anchor="middle" x="1335" y="-217.9" font-family="Times Roman,serif" font-size="14.00">service_id: ronin_services</text>
</g>
<!-- ronin_ip_addresses&#45;&gt;ronin_open_ports -->
<g id="edge18" class="edge"><title>ronin_ip_addresses&#45;&gt;ronin_open_ports</title>
<path fill="none" stroke="blue" d="M1035.24,-489.2C1053.08,-468.833 1073.94,-448.003 1096,-432 1146.59,-395.3 1171.99,-409.113 1225,-376 1231.59,-371.883 1238.2,-367.388 1244.71,-362.667"/>
<polygon fill="blue" stroke="blue" points="1246.97,-365.348 1252.92,-356.577 1242.8,-359.727 1246.97,-365.348"/>
<text text-anchor="middle" x="1202" y="-400.9" font-family="Times Roman,serif" font-size="14.00"> 1:m</text>
</g>
<!-- ronin_host_name_ip_addresses -->
<g id="node23" class="node"><title>ronin_host_name_ip_addresses</title>
<polygon fill="none" stroke="black" points="1013.5,-226.5 1013.5,-337.5 1216.5,-337.5 1216.5,-226.5 1013.5,-226.5"/>
<text text-anchor="middle" x="1115" y="-320.9" font-family="Times Roman,serif" font-size="14.00">ronin_host_name_ip_addresses</text>
<polyline fill="none" stroke="black" points="1013.5,-310.5 1216.5,-310.5 "/>
<text text-anchor="middle" x="1115" y="-293.9" font-family="Times Roman,serif" font-size="14.00">id: Serial</text>
<text text-anchor="middle" x="1115" y="-274.9" font-family="Times Roman,serif" font-size="14.00">created_at: DateTime</text>
<text text-anchor="middle" x="1115" y="-255.9" font-family="Times Roman,serif" font-size="14.00">host_name_id: ronin_host_names</text>
<text text-anchor="middle" x="1115" y="-236.9" font-family="Times Roman,serif" font-size="14.00">ip_address_id: ronin_ip_addresses</text>
</g>
<!-- ronin_ip_addresses&#45;&gt;ronin_host_name_ip_addresses -->
<g id="edge16" class="edge"><title>ronin_ip_addresses&#45;&gt;ronin_host_name_ip_addresses</title>
<path fill="none" stroke="blue" d="M976.959,-489.347C978.806,-458.475 984.553,-423.158 999,-394 1007.78,-376.271 1020.56,-359.794 1034.45,-345.23"/>
<polygon fill="blue" stroke="blue" points="1037.27,-347.364 1041.81,-337.791 1032.29,-342.443 1037.27,-347.364"/>
<text text-anchor="middle" x="1012" y="-400.9" font-family="Times Roman,serif" font-size="14.00"> 1:m</text>
</g>
<!-- ronin_host_names -->
<g id="node8" class="node"><title>ronin_host_names</title>
<polygon fill="none" stroke="black" points="1338.5,-499 1338.5,-629 1555.5,-629 1555.5,-499 1338.5,-499"/>
<text text-anchor="middle" x="1447" y="-612.4" font-family="Times Roman,serif" font-size="14.00">ronin_host_names</text>
<polyline fill="none" stroke="black" points="1338.5,-602 1555.5,-602 "/>
<text text-anchor="middle" x="1447" y="-585.4" font-family="Times Roman,serif" font-size="14.00">id: Serial</text>
<text text-anchor="middle" x="1447" y="-566.4" font-family="Times Roman,serif" font-size="14.00">type: Discriminator</text>
<text text-anchor="middle" x="1447" y="-547.4" font-family="Times Roman,serif" font-size="14.00">address: String</text>
<text text-anchor="middle" x="1447" y="-528.4" font-family="Times Roman,serif" font-size="14.00">created_at: DateTime</text>
<text text-anchor="middle" x="1447" y="-509.4" font-family="Times Roman,serif" font-size="14.00">organization_id: ronin_organizations</text>
</g>
<!-- ronin_host_names&#45;&gt;ronin_targets -->
<g id="edge22" class="edge"><title>ronin_host_names&#45;&gt;ronin_targets</title>
<path fill="none" stroke="blue" d="M1405.67,-498.811C1386,-473.486 1360.16,-447.005 1330,-432 1283.9,-409.065 1149.74,-422.755 1099,-414 1065.43,-408.207 1058.68,-399.108 1025,-394 971.574,-385.899 589.013,-396.463 539,-376 521.513,-368.845 505.115,-357.315 490.767,-344.744"/>
<polygon fill="blue" stroke="blue" points="492.761,-341.826 483.013,-337.674 488.044,-346.998 492.761,-341.826"/>
<text text-anchor="middle" x="1112" y="-400.9" font-family="Times Roman,serif" font-size="14.00"> 1:m</text>
</g>
<!-- ronin_host_names&#45;&gt;ronin_host_name_ip_addresses -->
<g id="edge24" class="edge"><title>ronin_host_names&#45;&gt;ronin_host_name_ip_addresses</title>
<path fill="none" stroke="blue" d="M1422.07,-498.683C1404.66,-462.041 1377.72,-418.83 1340,-394 1296.79,-365.556 1272,-397.622 1225,-376 1207.61,-367.998 1190.82,-356.429 1175.82,-344.126"/>
<polygon fill="blue" stroke="blue" points="1178.04,-341.422 1168.15,-337.641 1173.53,-346.769 1178.04,-341.422"/>
<text text-anchor="middle" x="1375" y="-400.9" font-family="Times Roman,serif" font-size="14.00"> 1:m</text>
</g>
<!-- ronin_urls -->
<g id="node27" class="node"><title>ronin_urls</title>
<polygon fill="none" stroke="black" points="1709,-188.5 1709,-375.5 1909,-375.5 1909,-188.5 1709,-188.5"/>
<text text-anchor="middle" x="1809" y="-358.9" font-family="Times Roman,serif" font-size="14.00">ronin_urls</text>
<polyline fill="none" stroke="black" points="1709,-348.5 1909,-348.5 "/>
<text text-anchor="middle" x="1809" y="-331.9" font-family="Times Roman,serif" font-size="14.00">id: Serial</text>
<text text-anchor="middle" x="1809" y="-312.9" font-family="Times Roman,serif" font-size="14.00">path: String</text>
<text text-anchor="middle" x="1809" y="-293.9" font-family="Times Roman,serif" font-size="14.00">fragment: String</text>
<text text-anchor="middle" x="1809" y="-274.9" font-family="Times Roman,serif" font-size="14.00">last_scanned_at: Time</text>
<text text-anchor="middle" x="1809" y="-255.9" font-family="Times Roman,serif" font-size="14.00">created_at: DateTime</text>
<text text-anchor="middle" x="1809" y="-236.9" font-family="Times Roman,serif" font-size="14.00">scheme_id: ronin_url_schemes</text>
<text text-anchor="middle" x="1809" y="-217.9" font-family="Times Roman,serif" font-size="14.00">host_name_id: ronin_host_names</text>
<text text-anchor="middle" x="1809" y="-198.9" font-family="Times Roman,serif" font-size="14.00">port_id: ronin_tcp_ports</text>
</g>
<!-- ronin_host_names&#45;&gt;ronin_urls -->
<g id="edge28" class="edge"><title>ronin_host_names&#45;&gt;ronin_urls</title>
<path fill="none" stroke="blue" d="M1489.27,-498.896C1508.93,-473.907 1534.52,-447.653 1564,-432 1618.24,-403.201 1647.34,-443.865 1701,-414 1715.36,-406.011 1728.56,-395.284 1740.44,-383.381"/>
<polygon fill="blue" stroke="blue" points="1743.28,-385.477 1747.67,-375.833 1738.22,-380.637 1743.28,-385.477"/>
<text text-anchor="middle" x="1741" y="-400.9" font-family="Times Roman,serif" font-size="14.00"> 1:m</text>
</g>
<!-- ronin_email_addresses -->
<g id="node28" class="node"><title>ronin_email_addresses</title>
<polygon fill="none" stroke="black" points="1491,-226.5 1491,-337.5 1691,-337.5 1691,-226.5 1491,-226.5"/>
<text text-anchor="middle" x="1591" y="-320.9" font-family="Times Roman,serif" font-size="14.00">ronin_email_addresses</text>
<polyline fill="none" stroke="black" points="1491,-310.5 1691,-310.5 "/>
<text text-anchor="middle" x="1591" y="-293.9" font-family="Times Roman,serif" font-size="14.00">id: Serial</text>
<text text-anchor="middle" x="1591" y="-274.9" font-family="Times Roman,serif" font-size="14.00">created_at: DateTime</text>
<text text-anchor="middle" x="1591" y="-255.9" font-family="Times Roman,serif" font-size="14.00">user_name_id: ronin_user_names</text>
<text text-anchor="middle" x="1591" y="-236.9" font-family="Times Roman,serif" font-size="14.00">host_name_id: ronin_host_names</text>
</g>
<!-- ronin_host_names&#45;&gt;ronin_email_addresses -->
<g id="edge26" class="edge"><title>ronin_host_names&#45;&gt;ronin_email_addresses</title>
<path fill="none" stroke="blue" d="M1512.31,-498.867C1533.55,-474.176 1555.19,-444.595 1569,-414 1578.24,-393.526 1583.64,-369.688 1586.78,-347.948"/>
<polygon fill="blue" stroke="blue" points="1590.28,-348.168 1588.11,-337.798 1583.34,-347.259 1590.28,-348.168"/>
<text text-anchor="middle" x="1589" y="-400.9" font-family="Times Roman,serif" font-size="14.00"> 1:m</text>
</g>
<!-- ronin_authors -->
<g id="node9" class="node"><title>ronin_authors</title>
<polygon fill="none" stroke="black" points="1289.5,-753 1289.5,-921 1414.5,-921 1414.5,-753 1289.5,-753"/>
<text text-anchor="middle" x="1352" y="-904.4" font-family="Times Roman,serif" font-size="14.00">ronin_authors</text>
<polyline fill="none" stroke="black" points="1289.5,-894 1414.5,-894 "/>
<text text-anchor="middle" x="1352" y="-877.4" font-family="Times Roman,serif" font-size="14.00">name: String</text>
<text text-anchor="middle" x="1352" y="-858.4" font-family="Times Roman,serif" font-size="14.00">id: Serial</text>
<text text-anchor="middle" x="1352" y="-839.4" font-family="Times Roman,serif" font-size="14.00">organization: String</text>
<text text-anchor="middle" x="1352" y="-820.4" font-family="Times Roman,serif" font-size="14.00">pgp_signature: Text</text>
<text text-anchor="middle" x="1352" y="-801.4" font-family="Times Roman,serif" font-size="14.00">email: String</text>
<text text-anchor="middle" x="1352" y="-782.4" font-family="Times Roman,serif" font-size="14.00">site: URI</text>
<text text-anchor="middle" x="1352" y="-763.4" font-family="Times Roman,serif" font-size="14.00">biography: Text</text>
</g>
<!-- ronin_user_names -->
<g id="node10" class="node"><title>ronin_user_names</title>
<polygon fill="none" stroke="black" points="1957,-518 1957,-610 2091,-610 2091,-518 1957,-518"/>
<text text-anchor="middle" x="2024" y="-593.4" font-family="Times Roman,serif" font-size="14.00">ronin_user_names</text>
<polyline fill="none" stroke="black" points="1957,-583 2091,-583 "/>
<text text-anchor="middle" x="2024" y="-566.4" font-family="Times Roman,serif" font-size="14.00">name: String</text>
<text text-anchor="middle" x="2024" y="-547.4" font-family="Times Roman,serif" font-size="14.00">id: Serial</text>
<text text-anchor="middle" x="2024" y="-528.4" font-family="Times Roman,serif" font-size="14.00">created_at: DateTime</text>
</g>
<!-- ronin_credentials -->
<g id="node12" class="node"><title>ronin_credentials</title>
<polygon fill="none" stroke="black" points="1927,-236 1927,-328 2127,-328 2127,-236 1927,-236"/>
<text text-anchor="middle" x="2027" y="-311.4" font-family="Times Roman,serif" font-size="14.00">ronin_credentials</text>
<polyline fill="none" stroke="black" points="1927,-301 2127,-301 "/>
<text text-anchor="middle" x="2027" y="-284.4" font-family="Times Roman,serif" font-size="14.00">id: Serial</text>
<text text-anchor="middle" x="2027" y="-265.4" font-family="Times Roman,serif" font-size="14.00">password_id: ronin_passwords</text>
<text text-anchor="middle" x="2027" y="-246.4" font-family="Times Roman,serif" font-size="14.00">user_name_id: ronin_user_names</text>
</g>
<!-- ronin_user_names&#45;&gt;ronin_credentials -->
<g id="edge30" class="edge"><title>ronin_user_names&#45;&gt;ronin_credentials</title>
<path fill="none" stroke="blue" d="M2024.49,-517.749C2025.01,-468.675 2025.84,-391.102 2026.4,-338.457"/>
<polygon fill="blue" stroke="blue" points="2029.9,-338.313 2026.51,-328.276 2022.9,-338.238 2029.9,-338.313"/>
<text text-anchor="middle" x="2039" y="-400.9" font-family="Times Roman,serif" font-size="14.00"> 1:m</text>
</g>
<!-- ronin_user_names&#45;&gt;ronin_email_addresses -->
<g id="edge32" class="edge"><title>ronin_user_names&#45;&gt;ronin_email_addresses</title>
<path fill="none" stroke="blue" d="M2005.74,-517.855C1992.93,-490.166 1973.52,-455.815 1948,-432 1865.39,-354.905 1803.7,-420.893 1700,-376 1682.23,-368.307 1665.23,-356.658 1650.16,-344.153"/>
<polygon fill="blue" stroke="blue" points="1652.34,-341.405 1642.47,-337.552 1647.78,-346.719 1652.34,-341.405"/>
<text text-anchor="middle" x="1937" y="-400.9" font-family="Times Roman,serif" font-size="14.00"> 1:m</text>
</g>
<!-- ronin_passwords -->
<g id="node11" class="node"><title>ronin_passwords</title>
<polygon fill="none" stroke="black" points="2109,-527.5 2109,-600.5 2219,-600.5 2219,-527.5 2109,-527.5"/>
<text text-anchor="middle" x="2164" y="-583.9" font-family="Times Roman,serif" font-size="14.00">ronin_passwords</text>
<polyline fill="none" stroke="black" points="2109,-573.5 2219,-573.5 "/>
<text text-anchor="middle" x="2164" y="-556.9" font-family="Times Roman,serif" font-size="14.00">id: Serial</text>
<text text-anchor="middle" x="2164" y="-537.9" font-family="Times Roman,serif" font-size="14.00">clear_text: String</text>
</g>
<!-- ronin_passwords&#45;&gt;ronin_credentials -->
<g id="edge34" class="edge"><title>ronin_passwords&#45;&gt;ronin_credentials</title>
<path fill="none" stroke="blue" d="M2146.22,-527.292C2133.39,-500.803 2115.63,-464.186 2100,-432 2084.82,-400.754 2067.84,-365.86 2054.08,-337.595"/>
<polygon fill="blue" stroke="blue" points="2057.07,-335.737 2049.54,-328.279 2050.78,-338.802 2057.07,-335.737"/>
<text text-anchor="middle" x="2104" y="-400.9" font-family="Times Roman,serif" font-size="14.00"> 1:m</text>
</g>
<!-- ronin_service_credentials -->
<g id="node13" class="node"><title>ronin_service_credentials</title>
<polygon fill="none" stroke="black" points="1235,-10.5 1235,-121.5 1435,-121.5 1435,-10.5 1235,-10.5"/>
<text text-anchor="middle" x="1335" y="-104.9" font-family="Times Roman,serif" font-size="14.00">ronin_service_credentials</text>
<polyline fill="none" stroke="black" points="1235,-94.5 1435,-94.5 "/>
<text text-anchor="middle" x="1335" y="-77.9" font-family="Times Roman,serif" font-size="14.00">id: Serial</text>
<text text-anchor="middle" x="1335" y="-58.9" font-family="Times Roman,serif" font-size="14.00">password_id: ronin_passwords</text>
<text text-anchor="middle" x="1335" y="-39.9" font-family="Times Roman,serif" font-size="14.00">user_name_id: ronin_user_names</text>
<text text-anchor="middle" x="1335" y="-20.9" font-family="Times Roman,serif" font-size="14.00">open_port_id: ronin_open_ports</text>
</g>
<!-- ronin_web_credentials -->
<g id="node14" class="node"><title>ronin_web_credentials</title>
<polygon fill="none" stroke="black" points="1574,-1 1574,-131 1818,-131 1818,-1 1574,-1"/>
<text text-anchor="middle" x="1696" y="-114.4" font-family="Times Roman,serif" font-size="14.00">ronin_web_credentials</text>
<polyline fill="none" stroke="black" points="1574,-104 1818,-104 "/>
<text text-anchor="middle" x="1696" y="-87.4" font-family="Times Roman,serif" font-size="14.00">id: Serial</text>
<text text-anchor="middle" x="1696" y="-68.4" font-family="Times Roman,serif" font-size="14.00">password_id: ronin_passwords</text>
<text text-anchor="middle" x="1696" y="-49.4" font-family="Times Roman,serif" font-size="14.00">user_name_id: ronin_user_names</text>
<text text-anchor="middle" x="1696" y="-30.4" font-family="Times Roman,serif" font-size="14.00">email_address_id: ronin_email_addresses</text>
<text text-anchor="middle" x="1696" y="-11.4" font-family="Times Roman,serif" font-size="14.00">url_id: ronin_urls</text>
</g>
<!-- ronin_os -->
<g id="node17" class="node"><title>ronin_os</title>
<polygon fill="none" stroke="black" points="756.5,-518 756.5,-610 853.5,-610 853.5,-518 756.5,-518"/>
<text text-anchor="middle" x="805" y="-593.4" font-family="Times Roman,serif" font-size="14.00">ronin_os</text>
<polyline fill="none" stroke="black" points="756.5,-583 853.5,-583 "/>
<text text-anchor="middle" x="805" y="-566.4" font-family="Times Roman,serif" font-size="14.00">name: String</text>
<text text-anchor="middle" x="805" y="-547.4" font-family="Times Roman,serif" font-size="14.00">id: Serial</text>
<text text-anchor="middle" x="805" y="-528.4" font-family="Times Roman,serif" font-size="14.00">version: String</text>
</g>
<!-- ronin_os&#45;&gt;ronin_os_guesses -->
<g id="edge36" class="edge"><title>ronin_os&#45;&gt;ronin_os_guesses</title>
<path fill="none" stroke="blue" d="M819.761,-517.749C834.542,-471.436 857.424,-399.738 874.074,-347.567"/>
<polygon fill="blue" stroke="blue" points="877.506,-348.326 877.212,-337.736 870.837,-346.198 877.506,-348.326"/>
<text text-anchor="middle" x="872" y="-400.9" font-family="Times Roman,serif" font-size="14.00"> 1:m</text>
</g>
<!-- ronin_ports -->
<g id="node18" class="node"><title>ronin_ports</title>
<polygon fill="none" stroke="black" points="1105,-518 1105,-610 1209,-610 1209,-518 1105,-518"/>
<text text-anchor="middle" x="1157" y="-593.4" font-family="Times Roman,serif" font-size="14.00">ronin_ports</text>
<polyline fill="none" stroke="black" points="1105,-583 1209,-583 "/>
<text text-anchor="middle" x="1157" y="-566.4" font-family="Times Roman,serif" font-size="14.00">id: Serial</text>
<text text-anchor="middle" x="1157" y="-547.4" font-family="Times Roman,serif" font-size="14.00">protocol: String</text>
<text text-anchor="middle" x="1157" y="-528.4" font-family="Times Roman,serif" font-size="14.00">number: Integer</text>
</g>
<!-- ronin_ports&#45;&gt;ronin_open_ports -->
<g id="edge38" class="edge"><title>ronin_ports&#45;&gt;ronin_open_ports</title>
<path fill="none" stroke="blue" d="M1175.27,-517.771C1186.28,-491.815 1201.37,-459.265 1218,-432 1231.88,-409.248 1248.63,-385.936 1265.07,-364.678"/>
<polygon fill="blue" stroke="blue" points="1267.95,-366.672 1271.34,-356.636 1262.43,-362.365 1267.95,-366.672"/>
<text text-anchor="middle" x="1254" y="-400.9" font-family="Times Roman,serif" font-size="14.00"> 1:m</text>
</g>
<!-- ronin_tcp_ports -->
<g id="node19" class="node"><title>ronin_tcp_ports</title>
<polygon fill="none" stroke="black" points="1697,-518 1697,-610 1801,-610 1801,-518 1697,-518"/>
<text text-anchor="middle" x="1749" y="-593.4" font-family="Times Roman,serif" font-size="14.00">ronin_tcp_ports</text>
<polyline fill="none" stroke="black" points="1697,-583 1801,-583 "/>
<text text-anchor="middle" x="1749" y="-566.4" font-family="Times Roman,serif" font-size="14.00">id: Serial</text>
<text text-anchor="middle" x="1749" y="-547.4" font-family="Times Roman,serif" font-size="14.00">protocol: String</text>
<text text-anchor="middle" x="1749" y="-528.4" font-family="Times Roman,serif" font-size="14.00">number: Integer</text>
</g>
<!-- ronin_tcp_ports&#45;&gt;ronin_open_ports -->
<g id="edge40" class="edge"><title>ronin_tcp_ports&#45;&gt;ronin_open_ports</title>
<path fill="none" stroke="blue" d="M1736.51,-517.687C1727.03,-489.934 1711.55,-455.576 1688,-432 1620.95,-364.875 1570.91,-409.116 1482,-376 1469.78,-371.45 1457.52,-365.774 1445.57,-359.479"/>
<polygon fill="blue" stroke="blue" points="1446.96,-356.25 1436.5,-354.552 1443.62,-362.401 1446.96,-356.25"/>
<text text-anchor="middle" x="1678" y="-400.9" font-family="Times Roman,serif" font-size="14.00"> 1:m</text>
</g>
<!-- ronin_tcp_ports&#45;&gt;ronin_urls -->
<g id="edge42" class="edge"><title>ronin_tcp_ports&#45;&gt;ronin_urls</title>
<path fill="none" stroke="blue" d="M1758.84,-517.749C1766.46,-481.938 1777.31,-430.95 1786.97,-385.548"/>
<polygon fill="blue" stroke="blue" points="1790.42,-386.162 1789.07,-375.652 1783.57,-384.705 1790.42,-386.162"/>
<text text-anchor="middle" x="1798" y="-400.9" font-family="Times Roman,serif" font-size="14.00"> 1:m</text>
</g>
<!-- ronin_udp_ports -->
<g id="node20" class="node"><title>ronin_udp_ports</title>
<polygon fill="none" stroke="black" points="1573,-518 1573,-610 1679,-610 1679,-518 1573,-518"/>
<text text-anchor="middle" x="1626" y="-593.4" font-family="Times Roman,serif" font-size="14.00">ronin_udp_ports</text>
<polyline fill="none" stroke="black" points="1573,-583 1679,-583 "/>
<text text-anchor="middle" x="1626" y="-566.4" font-family="Times Roman,serif" font-size="14.00">id: Serial</text>
<text text-anchor="middle" x="1626" y="-547.4" font-family="Times Roman,serif" font-size="14.00">protocol: String</text>
<text text-anchor="middle" x="1626" y="-528.4" font-family="Times Roman,serif" font-size="14.00">number: Integer</text>
</g>
<!-- ronin_udp_ports&#45;&gt;ronin_open_ports -->
<g id="edge44" class="edge"><title>ronin_udp_ports&#45;&gt;ronin_open_ports</title>
<path fill="none" stroke="blue" d="M1611.53,-517.921C1601.35,-490.763 1585.66,-456.949 1564,-432 1561.47,-429.087 1502.58,-390.53 1445.16,-353.241"/>
<polygon fill="blue" stroke="blue" points="1447,-350.262 1436.7,-347.753 1443.19,-356.134 1447,-350.262"/>
<text text-anchor="middle" x="1547" y="-400.9" font-family="Times Roman,serif" font-size="14.00"> 1:m</text>
</g>
<!-- ronin_services -->
<g id="node21" class="node"><title>ronin_services</title>
<polygon fill="none" stroke="black" points="1226.5,-527.5 1226.5,-600.5 1321.5,-600.5 1321.5,-527.5 1226.5,-527.5"/>
<text text-anchor="middle" x="1274" y="-583.9" font-family="Times Roman,serif" font-size="14.00">ronin_services</text>
<polyline fill="none" stroke="black" points="1226.5,-573.5 1321.5,-573.5 "/>
<text text-anchor="middle" x="1274" y="-556.9" font-family="Times Roman,serif" font-size="14.00">name: String</text>
<text text-anchor="middle" x="1274" y="-537.9" font-family="Times Roman,serif" font-size="14.00">id: Serial</text>
</g>
<!-- ronin_services&#45;&gt;ronin_open_ports -->
<g id="edge46" class="edge"><title>ronin_services&#45;&gt;ronin_open_ports</title>
<path fill="none" stroke="blue" d="M1281.91,-527.423C1290.68,-486.877 1305.12,-420.123 1316.73,-366.463"/>
<polygon fill="blue" stroke="blue" points="1320.17,-367.119 1318.86,-356.605 1313.33,-365.639 1320.17,-367.119"/>
<text text-anchor="middle" x="1323" y="-400.9" font-family="Times Roman,serif" font-size="14.00"> 1:m</text>
</g>
<!-- ronin_open_ports&#45;&gt;ronin_service_credentials -->
<g id="edge48" class="edge"><title>ronin_open_ports&#45;&gt;ronin_service_credentials</title>
<path fill="none" stroke="blue" d="M1335,-207.363C1335,-182.715 1335,-155.497 1335,-131.579"/>
<polygon fill="blue" stroke="blue" points="1338.5,-131.548 1335,-121.548 1331.5,-131.548 1338.5,-131.548"/>
<text text-anchor="middle" x="1348" y="-156.9" font-family="Times Roman,serif" font-size="14.00"> 1:m</text>
</g>
<!-- ronin_url_schemes -->
<g id="node24" class="node"><title>ronin_url_schemes</title>
<polygon fill="none" stroke="black" points="1819,-527.5 1819,-600.5 1939,-600.5 1939,-527.5 1819,-527.5"/>
<text text-anchor="middle" x="1879" y="-583.9" font-family="Times Roman,serif" font-size="14.00">ronin_url_schemes</text>
<polyline fill="none" stroke="black" points="1819,-573.5 1939,-573.5 "/>
<text text-anchor="middle" x="1879" y="-556.9" font-family="Times Roman,serif" font-size="14.00">name: String</text>
<text text-anchor="middle" x="1879" y="-537.9" font-family="Times Roman,serif" font-size="14.00">id: Serial</text>
</g>
<!-- ronin_url_schemes&#45;&gt;ronin_urls -->
<g id="edge50" class="edge"><title>ronin_url_schemes&#45;&gt;ronin_urls</title>
<path fill="none" stroke="blue" d="M1869.92,-527.423C1861.02,-491.586 1847.05,-435.275 1834.72,-385.627"/>
<polygon fill="blue" stroke="blue" points="1838.09,-384.657 1832.28,-375.794 1831.29,-386.343 1838.09,-384.657"/>
<text text-anchor="middle" x="1853" y="-400.9" font-family="Times Roman,serif" font-size="14.00"> 1:m</text>
</g>
<!-- ronin_url_query_param_names -->
<g id="node25" class="node"><title>ronin_url_query_param_names</title>
<polygon fill="none" stroke="black" points="2145,-245.5 2145,-318.5 2333,-318.5 2333,-245.5 2145,-245.5"/>
<text text-anchor="middle" x="2239" y="-301.9" font-family="Times Roman,serif" font-size="14.00">ronin_url_query_param_names</text>
<polyline fill="none" stroke="black" points="2145,-291.5 2333,-291.5 "/>
<text text-anchor="middle" x="2239" y="-274.9" font-family="Times Roman,serif" font-size="14.00">name: String</text>
<text text-anchor="middle" x="2239" y="-255.9" font-family="Times Roman,serif" font-size="14.00">id: Serial</text>
</g>
<!-- ronin_url_query_params -->
<g id="node26" class="node"><title>ronin_url_query_params</title>
<polygon fill="none" stroke="black" points="1977,-10.5 1977,-121.5 2219,-121.5 2219,-10.5 1977,-10.5"/>
<text text-anchor="middle" x="2098" y="-104.9" font-family="Times Roman,serif" font-size="14.00">ronin_url_query_params</text>
<polyline fill="none" stroke="black" points="1977,-94.5 2219,-94.5 "/>
<text text-anchor="middle" x="2098" y="-77.9" font-family="Times Roman,serif" font-size="14.00">id: Serial</text>
<text text-anchor="middle" x="2098" y="-58.9" font-family="Times Roman,serif" font-size="14.00">value: Text</text>
<text text-anchor="middle" x="2098" y="-39.9" font-family="Times Roman,serif" font-size="14.00">name_id: ronin_url_query_param_names</text>
<text text-anchor="middle" x="2098" y="-20.9" font-family="Times Roman,serif" font-size="14.00">url_id: ronin_urls</text>
</g>
<!-- ronin_url_query_param_names&#45;&gt;ronin_url_query_params -->
<g id="edge52" class="edge"><title>ronin_url_query_param_names&#45;&gt;ronin_url_query_params</title>
<path fill="none" stroke="blue" d="M2215.08,-245.359C2194.48,-213.803 2164.28,-167.536 2139.71,-129.897"/>
<polygon fill="blue" stroke="blue" points="2142.64,-127.976 2134.24,-121.516 2136.77,-131.803 2142.64,-127.976"/>
<text text-anchor="middle" x="2178" y="-156.9" font-family="Times Roman,serif" font-size="14.00"> 1:m</text>
</g>
<!-- ronin_urls&#45;&gt;ronin_web_credentials -->
<g id="edge56" class="edge"><title>ronin_urls&#45;&gt;ronin_web_credentials</title>
<path fill="none" stroke="blue" d="M1759.93,-188.202C1751.52,-172.117 1742.88,-155.605 1734.78,-140.126"/>
<polygon fill="blue" stroke="blue" points="1737.82,-138.381 1730.08,-131.143 1731.61,-141.626 1737.82,-138.381"/>
<text text-anchor="middle" x="1763" y="-156.9" font-family="Times Roman,serif" font-size="14.00"> 1:m</text>
</g>
<!-- ronin_urls&#45;&gt;ronin_url_query_params -->
<g id="edge54" class="edge"><title>ronin_urls&#45;&gt;ronin_url_query_params</title>
<path fill="none" stroke="blue" d="M1909.01,-194.99C1912.02,-192.614 1915.02,-190.279 1918,-188 1944.89,-167.404 1975.04,-146.26 2002.86,-127.481"/>
<polygon fill="blue" stroke="blue" points="2005.07,-130.215 2011.42,-121.732 2001.16,-124.405 2005.07,-130.215"/>
<text text-anchor="middle" x="1980" y="-156.9" font-family="Times Roman,serif" font-size="14.00"> 1:m</text>
</g>
<!-- ronin_email_addresses&#45;&gt;ronin_web_credentials -->
<g id="edge58" class="edge"><title>ronin_email_addresses&#45;&gt;ronin_web_credentials</title>
<path fill="none" stroke="blue" d="M1618.04,-226.375C1630.82,-200.094 1646.24,-168.354 1659.99,-140.07"/>
<polygon fill="blue" stroke="blue" points="1663.17,-141.544 1664.39,-131.02 1656.87,-138.483 1663.17,-141.544"/>
<text text-anchor="middle" x="1666" y="-156.9" font-family="Times Roman,serif" font-size="14.00"> 1:m</text>
</g>
<!-- ronin_licenses -->
<g id="node29" class="node"><title>ronin_licenses</title>
<polygon fill="none" stroke="black" points="2393.5,-781.5 2393.5,-892.5 2502.5,-892.5 2502.5,-781.5 2393.5,-781.5"/>
<text text-anchor="middle" x="2448" y="-875.9" font-family="Times Roman,serif" font-size="14.00">ronin_licenses</text>
<polyline fill="none" stroke="black" points="2393.5,-865.5 2502.5,-865.5 "/>
<text text-anchor="middle" x="2448" y="-848.9" font-family="Times Roman,serif" font-size="14.00">name: String</text>
<text text-anchor="middle" x="2448" y="-829.9" font-family="Times Roman,serif" font-size="14.00">id: Serial</text>
<text text-anchor="middle" x="2448" y="-810.9" font-family="Times Roman,serif" font-size="14.00">description: Text</text>
<text text-anchor="middle" x="2448" y="-791.9" font-family="Times Roman,serif" font-size="14.00">url: URI</text>
</g>
<!-- ronin_repositories -->
<g id="node30" class="node"><title>ronin_repositories</title>
<polygon fill="none" stroke="black" points="2369.5,-432.5 2369.5,-695.5 2526.5,-695.5 2526.5,-432.5 2369.5,-432.5"/>
<text text-anchor="middle" x="2448" y="-678.9" font-family="Times Roman,serif" font-size="14.00">ronin_repositories</text>
<polyline fill="none" stroke="black" points="2369.5,-668.5 2526.5,-668.5 "/>
<text text-anchor="middle" x="2448" y="-651.9" font-family="Times Roman,serif" font-size="14.00">id: Serial</text>
<text text-anchor="middle" x="2448" y="-632.9" font-family="Times Roman,serif" font-size="14.00">scm: String</text>
<text text-anchor="middle" x="2448" y="-613.9" font-family="Times Roman,serif" font-size="14.00">path: FilePath</text>
<text text-anchor="middle" x="2448" y="-594.9" font-family="Times Roman,serif" font-size="14.00">uri: URI</text>
<text text-anchor="middle" x="2448" y="-575.9" font-family="Times Roman,serif" font-size="14.00">installed: Boolean</text>
<text text-anchor="middle" x="2448" y="-556.9" font-family="Times Roman,serif" font-size="14.00">name: String</text>
<text text-anchor="middle" x="2448" y="-537.9" font-family="Times Roman,serif" font-size="14.00">domain: String</text>
<text text-anchor="middle" x="2448" y="-518.9" font-family="Times Roman,serif" font-size="14.00">title: Text</text>
<text text-anchor="middle" x="2448" y="-499.9" font-family="Times Roman,serif" font-size="14.00">source: URI</text>
<text text-anchor="middle" x="2448" y="-480.9" font-family="Times Roman,serif" font-size="14.00">website: URI</text>
<text text-anchor="middle" x="2448" y="-461.9" font-family="Times Roman,serif" font-size="14.00">description: Text</text>
<text text-anchor="middle" x="2448" y="-442.9" font-family="Times Roman,serif" font-size="14.00">license_id: ronin_licenses</text>
</g>
<!-- ronin_licenses&#45;&gt;ronin_repositories -->
<g id="edge60" class="edge"><title>ronin_licenses&#45;&gt;ronin_repositories</title>
<path fill="none" stroke="blue" d="M2448,-781.425C2448,-759.307 2448,-732.752 2448,-705.917"/>
<polygon fill="blue" stroke="blue" points="2451.5,-705.627 2448,-695.627 2444.5,-705.627 2451.5,-705.627"/>
<text text-anchor="middle" x="2461" y="-720.9" font-family="Times Roman,serif" font-size="14.00"> 1:m</text>
</g>
<!-- ronin_script_paths -->
<g id="node31" class="node"><title>ronin_script_paths</title>
<polygon fill="none" stroke="black" points="2351,-217 2351,-347 2545,-347 2545,-217 2351,-217"/>
<text text-anchor="middle" x="2448" y="-330.4" font-family="Times Roman,serif" font-size="14.00">ronin_script_paths</text>
<polyline fill="none" stroke="black" points="2351,-320 2545,-320 "/>
<text text-anchor="middle" x="2448" y="-303.4" font-family="Times Roman,serif" font-size="14.00">id: Serial</text>
<text text-anchor="middle" x="2448" y="-284.4" font-family="Times Roman,serif" font-size="14.00">path: FilePath</text>
<text text-anchor="middle" x="2448" y="-265.4" font-family="Times Roman,serif" font-size="14.00">timestamp: Time</text>
<text text-anchor="middle" x="2448" y="-246.4" font-family="Times Roman,serif" font-size="14.00">class_name: String</text>
<text text-anchor="middle" x="2448" y="-227.4" font-family="Times Roman,serif" font-size="14.00">repository_id: ronin_repositories</text>
</g>
<!-- ronin_repositories&#45;&gt;ronin_script_paths -->
<g id="edge62" class="edge"><title>ronin_repositories&#45;&gt;ronin_script_paths</title>
<path fill="none" stroke="blue" d="M2448,-432.495C2448,-406.728 2448,-380.537 2448,-357.383"/>
<polygon fill="blue" stroke="blue" points="2451.5,-357.315 2448,-347.315 2444.5,-357.315 2451.5,-357.315"/>
<text text-anchor="middle" x="2461" y="-400.9" font-family="Times Roman,serif" font-size="14.00"> 1:m</text>
</g>
<!-- ronin_vendors -->
<g id="node32" class="node"><title>ronin_vendors</title>
<polygon fill="none" stroke="black" points="2574.5,-800.5 2574.5,-873.5 2669.5,-873.5 2669.5,-800.5 2574.5,-800.5"/>
<text text-anchor="middle" x="2622" y="-856.9" font-family="Times Roman,serif" font-size="14.00">ronin_vendors</text>
<polyline fill="none" stroke="black" points="2574.5,-846.5 2669.5,-846.5 "/>
<text text-anchor="middle" x="2622" y="-829.9" font-family="Times Roman,serif" font-size="14.00">name: String</text>
<text text-anchor="middle" x="2622" y="-810.9" font-family="Times Roman,serif" font-size="14.00">id: Serial</text>
</g>
<!-- ronin_softwares -->
<g id="node33" class="node"><title>ronin_softwares</title>
<polygon fill="none" stroke="black" points="2543.5,-508.5 2543.5,-619.5 2700.5,-619.5 2700.5,-508.5 2543.5,-508.5"/>
<text text-anchor="middle" x="2622" y="-602.9" font-family="Times Roman,serif" font-size="14.00">ronin_softwares</text>
<polyline fill="none" stroke="black" points="2543.5,-592.5 2700.5,-592.5 "/>
<text text-anchor="middle" x="2622" y="-575.9" font-family="Times Roman,serif" font-size="14.00">id: Serial</text>
<text text-anchor="middle" x="2622" y="-556.9" font-family="Times Roman,serif" font-size="14.00">name: String</text>
<text text-anchor="middle" x="2622" y="-537.9" font-family="Times Roman,serif" font-size="14.00">version: String</text>
<text text-anchor="middle" x="2622" y="-518.9" font-family="Times Roman,serif" font-size="14.00">vendor_id: ronin_vendors</text>
</g>
<!-- ronin_vendors&#45;&gt;ronin_softwares -->
<g id="edge64" class="edge"><title>ronin_vendors&#45;&gt;ronin_softwares</title>
<path fill="none" stroke="blue" d="M2622,-800.465C2622,-756.923 2622,-683.34 2622,-629.8"/>
<polygon fill="blue" stroke="blue" points="2625.5,-629.712 2622,-619.712 2618.5,-629.712 2625.5,-629.712"/>
<text text-anchor="middle" x="2635" y="-720.9" font-family="Times Roman,serif" font-size="14.00"> 1:m</text>
</g>
</g>
</svg>
