<?xml version="1.0" encoding="UTF-8" standalone="no"?>
<!DOCTYPE svg PUBLIC "-//W3C//DTD SVG 1.1//EN"
 "http://www.w3.org/Graphics/SVG/1.1/DTD/svg11.dtd">
<!-- Generated by graphviz version 2.26.3 (20100126.1600)
 -->
<!-- Title: G Pages: 1 -->
<svg width="2735pt" height="930pt"
 viewBox="0.00 0.00 2735.00 930.00" xmlns="http://www.w3.org/2000/svg" xmlns:xlink="http://www.w3.org/1999/xlink">
<g id="graph1" class="graph" transform="scale(1 1) rotate(0) translate(4 926)">
<title>G</title>
<polygon fill="white" stroke="white" points="-4,5 -4,-926 2732,-926 2732,5 -4,5"/>
<!-- ronin_organizations -->
<g id="node1" class="node"><title>ronin_organizations</title>
<polygon fill="none" stroke="black" points="198.5,-781.5 198.5,-892.5 345.5,-892.5 345.5,-781.5 198.5,-781.5"/>
<text text-anchor="middle" x="272" y="-875.9" font-family="Times Roman,serif" font-size="14.00">ronin_organizations</text>
<polyline fill="none" stroke="black" points="198.5,-865.5 345.5,-865.5 "/>
<text text-anchor="middle" x="272" y="-848.9" font-family="Times Roman,serif" font-size="14.00">name: String</text>
<text text-anchor="middle" x="272" y="-829.9" font-family="Times Roman,serif" font-size="14.00">description: Description</text>
<text text-anchor="middle" x="272" y="-810.9" font-family="Times Roman,serif" font-size="14.00">id: Serial</text>
<text text-anchor="middle" x="272" y="-791.9" font-family="Times Roman,serif" font-size="14.00">created_at: DateTime</text>
</g>
<!-- ronin_addresses -->
<g id="node4" class="node"><title>ronin_addresses</title>
<polygon fill="none" stroke="black" points="163.5,-499 163.5,-629 380.5,-629 380.5,-499 163.5,-499"/>
<text text-anchor="middle" x="272" y="-612.4" font-family="Times Roman,serif" font-size="14.00">ronin_addresses</text>
<polyline fill="none" stroke="black" points="163.5,-602 380.5,-602 "/>
<text text-anchor="middle" x="272" y="-585.4" font-family="Times Roman,serif" font-size="14.00">id: Serial</text>
<text text-anchor="middle" x="272" y="-566.4" font-family="Times Roman,serif" font-size="14.00">type: Discriminator</text>
<text text-anchor="middle" x="272" y="-547.4" font-family="Times Roman,serif" font-size="14.00">address: String</text>
<text text-anchor="middle" x="272" y="-528.4" font-family="Times Roman,serif" font-size="14.00">created_at: DateTime</text>
<text text-anchor="middle" x="272" y="-509.4" font-family="Times Roman,serif" font-size="14.00">organization_id: ronin_organizations</text>
</g>
<!-- ronin_organizations&#45;&gt;ronin_addresses -->
<g id="edge2" class="edge"><title>ronin_organizations&#45;&gt;ronin_addresses</title>
<path fill="none" stroke="blue" d="M272,-781.425C272,-740.408 272,-684.132 272,-639.11"/>
<polygon fill="blue" stroke="blue" points="275.5,-639.1 272,-629.1 268.5,-639.1 275.5,-639.1"/>
<text text-anchor="middle" x="285" y="-720.9" font-family="Times Roman,serif" font-size="14.00"> 1:m</text>
</g>
<!-- ronin_campaigns -->
<g id="node2" class="node"><title>ronin_campaigns</title>
<polygon fill="none" stroke="black" points="-0.5,-499 -0.5,-629 146.5,-629 146.5,-499 -0.5,-499"/>
<text text-anchor="middle" x="73" y="-612.4" font-family="Times Roman,serif" font-size="14.00">ronin_campaigns</text>
<polyline fill="none" stroke="black" points="-0.5,-602 146.5,-602 "/>
<text text-anchor="middle" x="73" y="-585.4" font-family="Times Roman,serif" font-size="14.00">name: String</text>
<text text-anchor="middle" x="73" y="-566.4" font-family="Times Roman,serif" font-size="14.00">description: Description</text>
<text text-anchor="middle" x="73" y="-547.4" font-family="Times Roman,serif" font-size="14.00">id: Serial</text>
<text text-anchor="middle" x="73" y="-528.4" font-family="Times Roman,serif" font-size="14.00">created_at: DateTime</text>
<text text-anchor="middle" x="73" y="-509.4" font-family="Times Roman,serif" font-size="14.00">updated_at: DateTime</text>
</g>
<!-- ronin_targets -->
<g id="node3" class="node"><title>ronin_targets</title>
<polygon fill="none" stroke="black" points="192,-226.5 192,-337.5 380,-337.5 380,-226.5 192,-226.5"/>
<text text-anchor="middle" x="286" y="-320.9" font-family="Times Roman,serif" font-size="14.00">ronin_targets</text>
<polyline fill="none" stroke="black" points="192,-310.5 380,-310.5 "/>
<text text-anchor="middle" x="286" y="-293.9" font-family="Times Roman,serif" font-size="14.00">id: Serial</text>
<text text-anchor="middle" x="286" y="-274.9" font-family="Times Roman,serif" font-size="14.00">created_at: DateTime</text>
<text text-anchor="middle" x="286" y="-255.9" font-family="Times Roman,serif" font-size="14.00">campaign_id: ronin_campaigns</text>
<text text-anchor="middle" x="286" y="-236.9" font-family="Times Roman,serif" font-size="14.00">address_id: ronin_addresses</text>
</g>
<!-- ronin_campaigns&#45;&gt;ronin_targets -->
<g id="edge4" class="edge"><title>ronin_campaigns&#45;&gt;ronin_targets</title>
<path fill="none" stroke="blue" d="M110.593,-498.84C123.896,-477.085 139.438,-453.039 155,-432 176.989,-402.273 203.467,-371.206 226.847,-345.106"/>
<polygon fill="blue" stroke="blue" points="229.581,-347.301 233.673,-337.528 224.379,-342.616 229.581,-347.301"/>
<text text-anchor="middle" x="195" y="-400.9" font-family="Times Roman,serif" font-size="14.00"> 1:m</text>
</g>
<!-- ronin_addresses&#45;&gt;ronin_targets -->
<g id="edge6" class="edge"><title>ronin_addresses&#45;&gt;ronin_targets</title>
<path fill="none" stroke="blue" d="M275.229,-498.949C277.482,-453.583 280.476,-393.264 282.736,-347.746"/>
<polygon fill="blue" stroke="blue" points="286.235,-347.846 283.235,-337.685 279.244,-347.499 286.235,-347.846"/>
<text text-anchor="middle" x="294" y="-400.9" font-family="Times Roman,serif" font-size="14.00"> 1:m</text>
</g>
<!-- ronin_mac_addresses -->
<g id="node5" class="node"><title>ronin_mac_addresses</title>
<polygon fill="none" stroke="black" points="397.5,-499 397.5,-629 614.5,-629 614.5,-499 397.5,-499"/>
<text text-anchor="middle" x="506" y="-612.4" font-family="Times Roman,serif" font-size="14.00">ronin_mac_addresses</text>
<polyline fill="none" stroke="black" points="397.5,-602 614.5,-602 "/>
<text text-anchor="middle" x="506" y="-585.4" font-family="Times Roman,serif" font-size="14.00">id: Serial</text>
<text text-anchor="middle" x="506" y="-566.4" font-family="Times Roman,serif" font-size="14.00">type: Discriminator</text>
<text text-anchor="middle" x="506" y="-547.4" font-family="Times Roman,serif" font-size="14.00">address: String</text>
<text text-anchor="middle" x="506" y="-528.4" font-family="Times Roman,serif" font-size="14.00">created_at: DateTime</text>
<text text-anchor="middle" x="506" y="-509.4" font-family="Times Roman,serif" font-size="14.00">organization_id: ronin_organizations</text>
</g>
<!-- ronin_mac_addresses&#45;&gt;ronin_targets -->
<g id="edge8" class="edge"><title>ronin_mac_addresses&#45;&gt;ronin_targets</title>
<path fill="none" stroke="blue" d="M455.251,-498.949C419.338,-452.916 371.416,-391.487 335.732,-345.748"/>
<polygon fill="blue" stroke="blue" points="338.353,-343.417 329.442,-337.685 332.834,-347.723 338.353,-343.417"/>
<text text-anchor="middle" x="396" y="-400.9" font-family="Times Roman,serif" font-size="14.00"> 1:m</text>
</g>
<!-- ronin_ip_address_mac_addresses -->
<g id="node8" class="node"><title>ronin_ip_address_mac_addresses</title>
<polygon fill="none" stroke="black" points="397.5,-226.5 397.5,-337.5 626.5,-337.5 626.5,-226.5 397.5,-226.5"/>
<text text-anchor="middle" x="512" y="-320.9" font-family="Times Roman,serif" font-size="14.00">ronin_ip_address_mac_addresses</text>
<polyline fill="none" stroke="black" points="397.5,-310.5 626.5,-310.5 "/>
<text text-anchor="middle" x="512" y="-293.9" font-family="Times Roman,serif" font-size="14.00">id: Serial</text>
<text text-anchor="middle" x="512" y="-274.9" font-family="Times Roman,serif" font-size="14.00">created_at: DateTime</text>
<text text-anchor="middle" x="512" y="-255.9" font-family="Times Roman,serif" font-size="14.00">ip_address_id: ronin_ip_addresses</text>
<text text-anchor="middle" x="512" y="-236.9" font-family="Times Roman,serif" font-size="14.00">mac_address_id: ronin_mac_addresses</text>
</g>
<!-- ronin_mac_addresses&#45;&gt;ronin_ip_address_mac_addresses -->
<g id="edge10" class="edge"><title>ronin_mac_addresses&#45;&gt;ronin_ip_address_mac_addresses</title>
<path fill="none" stroke="blue" d="M507.384,-498.949C508.349,-453.583 509.633,-393.264 510.601,-347.746"/>
<polygon fill="blue" stroke="blue" points="514.102,-347.757 510.815,-337.685 507.103,-347.608 514.102,-347.757"/>
<text text-anchor="middle" x="523" y="-400.9" font-family="Times Roman,serif" font-size="14.00"> 1:m</text>
</g>
<!-- ronin_host_names -->
<g id="node6" class="node"><title>ronin_host_names</title>
<polygon fill="none" stroke="black" points="1051.5,-499 1051.5,-629 1268.5,-629 1268.5,-499 1051.5,-499"/>
<text text-anchor="middle" x="1160" y="-612.4" font-family="Times Roman,serif" font-size="14.00">ronin_host_names</text>
<polyline fill="none" stroke="black" points="1051.5,-602 1268.5,-602 "/>
<text text-anchor="middle" x="1160" y="-585.4" font-family="Times Roman,serif" font-size="14.00">id: Serial</text>
<text text-anchor="middle" x="1160" y="-566.4" font-family="Times Roman,serif" font-size="14.00">type: Discriminator</text>
<text text-anchor="middle" x="1160" y="-547.4" font-family="Times Roman,serif" font-size="14.00">address: String</text>
<text text-anchor="middle" x="1160" y="-528.4" font-family="Times Roman,serif" font-size="14.00">created_at: DateTime</text>
<text text-anchor="middle" x="1160" y="-509.4" font-family="Times Roman,serif" font-size="14.00">organization_id: ronin_organizations</text>
</g>
<!-- ronin_host_names&#45;&gt;ronin_targets -->
<g id="edge12" class="edge"><title>ronin_host_names&#45;&gt;ronin_targets</title>
<path fill="none" stroke="blue" d="M1120.57,-498.637C1093.08,-459.961 1052.51,-414.616 1003,-394 876.984,-341.531 515.535,-427.205 389,-376 371.227,-368.808 354.594,-357.07 340.095,-344.287"/>
<polygon fill="blue" stroke="blue" points="342.451,-341.698 332.713,-337.525 337.723,-346.86 342.451,-341.698"/>
<text text-anchor="middle" x="1049" y="-400.9" font-family="Times Roman,serif" font-size="14.00"> 1:m</text>
</g>
<!-- ronin_email_addresses -->
<g id="node22" class="node"><title>ronin_email_addresses</title>
<polygon fill="none" stroke="black" points="1304,-226.5 1304,-337.5 1504,-337.5 1504,-226.5 1304,-226.5"/>
<text text-anchor="middle" x="1404" y="-320.9" font-family="Times Roman,serif" font-size="14.00">ronin_email_addresses</text>
<polyline fill="none" stroke="black" points="1304,-310.5 1504,-310.5 "/>
<text text-anchor="middle" x="1404" y="-293.9" font-family="Times Roman,serif" font-size="14.00">id: Serial</text>
<text text-anchor="middle" x="1404" y="-274.9" font-family="Times Roman,serif" font-size="14.00">created_at: DateTime</text>
<text text-anchor="middle" x="1404" y="-255.9" font-family="Times Roman,serif" font-size="14.00">user_name_id: ronin_user_names</text>
<text text-anchor="middle" x="1404" y="-236.9" font-family="Times Roman,serif" font-size="14.00">host_name_id: ronin_host_names</text>
</g>
<!-- ronin_host_names&#45;&gt;ronin_email_addresses -->
<g id="edge16" class="edge"><title>ronin_host_names&#45;&gt;ronin_email_addresses</title>
<path fill="none" stroke="blue" d="M1158.57,-498.719C1161.37,-463.019 1171.16,-420.746 1199,-394 1230.31,-363.927 1255.88,-394.823 1295,-376 1311.91,-367.863 1328.28,-356.412 1342.97,-344.291"/>
<polygon fill="blue" stroke="blue" points="1345.6,-346.649 1350.95,-337.504 1341.06,-341.316 1345.6,-346.649"/>
<text text-anchor="middle" x="1212" y="-400.9" font-family="Times Roman,serif" font-size="14.00"> 1:m</text>
</g>
<!-- ronin_urls -->
<g id="node23" class="node"><title>ronin_urls</title>
<polygon fill="none" stroke="black" points="1522,-188.5 1522,-375.5 1722,-375.5 1722,-188.5 1522,-188.5"/>
<text text-anchor="middle" x="1622" y="-358.9" font-family="Times Roman,serif" font-size="14.00">ronin_urls</text>
<polyline fill="none" stroke="black" points="1522,-348.5 1722,-348.5 "/>
<text text-anchor="middle" x="1622" y="-331.9" font-family="Times Roman,serif" font-size="14.00">id: Serial</text>
<text text-anchor="middle" x="1622" y="-312.9" font-family="Times Roman,serif" font-size="14.00">path: String</text>
<text text-anchor="middle" x="1622" y="-293.9" font-family="Times Roman,serif" font-size="14.00">fragment: String</text>
<text text-anchor="middle" x="1622" y="-274.9" font-family="Times Roman,serif" font-size="14.00">last_scanned_at: Time</text>
<text text-anchor="middle" x="1622" y="-255.9" font-family="Times Roman,serif" font-size="14.00">created_at: DateTime</text>
<text text-anchor="middle" x="1622" y="-236.9" font-family="Times Roman,serif" font-size="14.00">scheme_id: ronin_url_schemes</text>
<text text-anchor="middle" x="1622" y="-217.9" font-family="Times Roman,serif" font-size="14.00">host_name_id: ronin_host_names</text>
<text text-anchor="middle" x="1622" y="-198.9" font-family="Times Roman,serif" font-size="14.00">port_id: ronin_tcp_ports</text>
</g>
<!-- ronin_host_names&#45;&gt;ronin_urls -->
<g id="edge18" class="edge"><title>ronin_host_names&#45;&gt;ronin_urls</title>
<path fill="none" stroke="blue" d="M1185.46,-498.784C1203.42,-456.415 1227.62,-406.77 1247,-394 1294.15,-362.927 1443.28,-395.178 1512.35,-375.289"/>
<polygon fill="blue" stroke="blue" points="1513.64,-378.547 1521.94,-371.962 1511.34,-371.933 1513.64,-378.547"/>
<text text-anchor="middle" x="1260" y="-400.9" font-family="Times Roman,serif" font-size="14.00"> 1:m</text>
</g>
<!-- ronin_host_name_ip_addresses -->
<g id="node24" class="node"><title>ronin_host_name_ip_addresses</title>
<polygon fill="none" stroke="black" points="643.5,-226.5 643.5,-337.5 846.5,-337.5 846.5,-226.5 643.5,-226.5"/>
<text text-anchor="middle" x="745" y="-320.9" font-family="Times Roman,serif" font-size="14.00">ronin_host_name_ip_addresses</text>
<polyline fill="none" stroke="black" points="643.5,-310.5 846.5,-310.5 "/>
<text text-anchor="middle" x="745" y="-293.9" font-family="Times Roman,serif" font-size="14.00">id: Serial</text>
<text text-anchor="middle" x="745" y="-274.9" font-family="Times Roman,serif" font-size="14.00">created_at: DateTime</text>
<text text-anchor="middle" x="745" y="-255.9" font-family="Times Roman,serif" font-size="14.00">host_name_id: ronin_host_names</text>
<text text-anchor="middle" x="745" y="-236.9" font-family="Times Roman,serif" font-size="14.00">ip_address_id: ronin_ip_addresses</text>
</g>
<!-- ronin_host_names&#45;&gt;ronin_host_name_ip_addresses -->
<g id="edge14" class="edge"><title>ronin_host_names&#45;&gt;ronin_host_name_ip_addresses</title>
<path fill="none" stroke="blue" d="M1142.54,-498.807C1129.04,-461.725 1106.36,-418.018 1070,-394 1029.99,-367.576 899.247,-394.464 855,-376 836.936,-368.462 819.678,-356.805 804.409,-344.234"/>
<polygon fill="blue" stroke="blue" points="806.494,-341.413 796.612,-337.594 801.956,-346.742 806.494,-341.413"/>
<text text-anchor="middle" x="1107" y="-400.9" font-family="Times Roman,serif" font-size="14.00"> 1:m</text>
</g>
<!-- ronin_ip_addresses -->
<g id="node7" class="node"><title>ronin_ip_addresses</title>
<polygon fill="none" stroke="black" points="631.5,-489.5 631.5,-638.5 848.5,-638.5 848.5,-489.5 631.5,-489.5"/>
<text text-anchor="middle" x="740" y="-621.9" font-family="Times Roman,serif" font-size="14.00">ronin_ip_addresses</text>
<polyline fill="none" stroke="black" points="631.5,-611.5 848.5,-611.5 "/>
<text text-anchor="middle" x="740" y="-594.9" font-family="Times Roman,serif" font-size="14.00">id: Serial</text>
<text text-anchor="middle" x="740" y="-575.9" font-family="Times Roman,serif" font-size="14.00">type: Discriminator</text>
<text text-anchor="middle" x="740" y="-556.9" font-family="Times Roman,serif" font-size="14.00">address: IPAddress</text>
<text text-anchor="middle" x="740" y="-537.9" font-family="Times Roman,serif" font-size="14.00">created_at: DateTime</text>
<text text-anchor="middle" x="740" y="-518.9" font-family="Times Roman,serif" font-size="14.00">version: Integer</text>
<text text-anchor="middle" x="740" y="-499.9" font-family="Times Roman,serif" font-size="14.00">organization_id: ronin_organizations</text>
</g>
<!-- ronin_ip_addresses&#45;&gt;ronin_targets -->
<g id="edge20" class="edge"><title>ronin_ip_addresses&#45;&gt;ronin_targets</title>
<path fill="none" stroke="blue" d="M684.104,-489.477C666.208,-469 645.223,-448.041 623,-432 606.533,-420.114 599.465,-422.454 581,-414 562.566,-405.56 559.45,-399.725 540,-394 475.164,-374.917 450.456,-404.125 389,-376 372.191,-368.307 356.245,-356.84 342.144,-344.535"/>
<polygon fill="blue" stroke="blue" points="344.271,-341.741 334.505,-337.632 339.577,-346.934 344.271,-341.741"/>
<text text-anchor="middle" x="594" y="-400.9" font-family="Times Roman,serif" font-size="14.00"> 1:m</text>
</g>
<!-- ronin_ip_addresses&#45;&gt;ronin_ip_address_mac_addresses -->
<g id="edge22" class="edge"><title>ronin_ip_addresses&#45;&gt;ronin_ip_address_mac_addresses</title>
<path fill="none" stroke="blue" d="M685.305,-489.431C662.785,-459.392 636.127,-424.663 611,-394 597.854,-377.957 583.267,-361.015 569.42,-345.299"/>
<polygon fill="blue" stroke="blue" points="571.938,-342.864 562.691,-337.692 566.695,-347.501 571.938,-342.864"/>
<text text-anchor="middle" x="639" y="-400.9" font-family="Times Roman,serif" font-size="14.00"> 1:m</text>
</g>
<!-- ronin_open_ports -->
<g id="node18" class="node"><title>ronin_open_ports</title>
<polygon fill="none" stroke="black" points="863.5,-207.5 863.5,-356.5 1066.5,-356.5 1066.5,-207.5 863.5,-207.5"/>
<text text-anchor="middle" x="965" y="-339.9" font-family="Times Roman,serif" font-size="14.00">ronin_open_ports</text>
<polyline fill="none" stroke="black" points="863.5,-329.5 1066.5,-329.5 "/>
<text text-anchor="middle" x="965" y="-312.9" font-family="Times Roman,serif" font-size="14.00">id: Serial</text>
<text text-anchor="middle" x="965" y="-293.9" font-family="Times Roman,serif" font-size="14.00">last_scanned_at: Time</text>
<text text-anchor="middle" x="965" y="-274.9" font-family="Times Roman,serif" font-size="14.00">created_at: DateTime</text>
<text text-anchor="middle" x="965" y="-255.9" font-family="Times Roman,serif" font-size="14.00">ip_address_id: ronin_ip_addresses</text>
<text text-anchor="middle" x="965" y="-236.9" font-family="Times Roman,serif" font-size="14.00">port_id: ronin_ports</text>
<text text-anchor="middle" x="965" y="-217.9" font-family="Times Roman,serif" font-size="14.00">service_id: ronin_services</text>
</g>
<!-- ronin_ip_addresses&#45;&gt;ronin_open_ports -->
<g id="edge26" class="edge"><title>ronin_ip_addresses&#45;&gt;ronin_open_ports</title>
<path fill="none" stroke="blue" d="M747.854,-489.205C754.962,-456.078 768.449,-419.029 794,-394 814.193,-374.22 830.153,-389.478 855,-376 862.38,-371.997 869.708,-367.437 876.871,-362.533"/>
<polygon fill="blue" stroke="blue" points="879.063,-365.27 885.198,-356.632 875.016,-359.559 879.063,-365.27"/>
<text text-anchor="middle" x="807" y="-400.9" font-family="Times Roman,serif" font-size="14.00"> 1:m</text>
</g>
<!-- ronin_ip_addresses&#45;&gt;ronin_host_name_ip_addresses -->
<g id="edge24" class="edge"><title>ronin_ip_addresses&#45;&gt;ronin_host_name_ip_addresses</title>
<path fill="none" stroke="blue" d="M741.318,-489.103C741.841,-459.482 742.447,-425.137 743,-394 743.265,-379.07 743.551,-363.021 743.821,-347.867"/>
<polygon fill="blue" stroke="blue" points="747.327,-347.604 744.006,-337.544 740.328,-347.479 747.327,-347.604"/>
<text text-anchor="middle" x="756" y="-400.9" font-family="Times Roman,serif" font-size="14.00"> 1:m</text>
</g>
<!-- ronin_os_guesses -->
<g id="node25" class="node"><title>ronin_os_guesses</title>
<polygon fill="none" stroke="black" points="1083.5,-226.5 1083.5,-337.5 1286.5,-337.5 1286.5,-226.5 1083.5,-226.5"/>
<text text-anchor="middle" x="1185" y="-320.9" font-family="Times Roman,serif" font-size="14.00">ronin_os_guesses</text>
<polyline fill="none" stroke="black" points="1083.5,-310.5 1286.5,-310.5 "/>
<text text-anchor="middle" x="1185" y="-293.9" font-family="Times Roman,serif" font-size="14.00">id: Serial</text>
<text text-anchor="middle" x="1185" y="-274.9" font-family="Times Roman,serif" font-size="14.00">created_at: DateTime</text>
<text text-anchor="middle" x="1185" y="-255.9" font-family="Times Roman,serif" font-size="14.00">ip_address_id: ronin_ip_addresses</text>
<text text-anchor="middle" x="1185" y="-236.9" font-family="Times Roman,serif" font-size="14.00">os_id: ronin_os</text>
</g>
<!-- ronin_ip_addresses&#45;&gt;ronin_os_guesses -->
<g id="edge28" class="edge"><title>ronin_ip_addresses&#45;&gt;ronin_os_guesses</title>
<path fill="none" stroke="blue" d="M799.766,-489.433C818.306,-469.186 839.752,-448.362 862,-432 893.711,-408.679 904.269,-405.218 942,-394 999.177,-377.001 1020.55,-400.368 1075,-376 1092.57,-368.135 1109.48,-356.555 1124.55,-344.188"/>
<polygon fill="blue" stroke="blue" points="1126.89,-346.797 1132.26,-337.665 1122.36,-341.454 1126.89,-346.797"/>
<text text-anchor="middle" x="955" y="-400.9" font-family="Times Roman,serif" font-size="14.00"> 1:m</text>
</g>
<!-- ronin_url_schemes -->
<g id="node9" class="node"><title>ronin_url_schemes</title>
<polygon fill="none" stroke="black" points="1634,-527.5 1634,-600.5 1754,-600.5 1754,-527.5 1634,-527.5"/>
<text text-anchor="middle" x="1694" y="-583.9" font-family="Times Roman,serif" font-size="14.00">ronin_url_schemes</text>
<polyline fill="none" stroke="black" points="1634,-573.5 1754,-573.5 "/>
<text text-anchor="middle" x="1694" y="-556.9" font-family="Times Roman,serif" font-size="14.00">name: String</text>
<text text-anchor="middle" x="1694" y="-537.9" font-family="Times Roman,serif" font-size="14.00">id: Serial</text>
</g>
<!-- ronin_url_schemes&#45;&gt;ronin_urls -->
<g id="edge30" class="edge"><title>ronin_url_schemes&#45;&gt;ronin_urls</title>
<path fill="none" stroke="blue" d="M1684.66,-527.423C1675.51,-491.586 1661.13,-435.275 1648.46,-385.627"/>
<polygon fill="blue" stroke="blue" points="1651.81,-384.618 1645.95,-375.794 1645.03,-386.349 1651.81,-384.618"/>
<text text-anchor="middle" x="1667" y="-400.9" font-family="Times Roman,serif" font-size="14.00"> 1:m</text>
</g>
<!-- ronin_url_query_param_names -->
<g id="node10" class="node"><title>ronin_url_query_param_names</title>
<polygon fill="none" stroke="black" points="1740,-245.5 1740,-318.5 1928,-318.5 1928,-245.5 1740,-245.5"/>
<text text-anchor="middle" x="1834" y="-301.9" font-family="Times Roman,serif" font-size="14.00">ronin_url_query_param_names</text>
<polyline fill="none" stroke="black" points="1740,-291.5 1928,-291.5 "/>
<text text-anchor="middle" x="1834" y="-274.9" font-family="Times Roman,serif" font-size="14.00">name: String</text>
<text text-anchor="middle" x="1834" y="-255.9" font-family="Times Roman,serif" font-size="14.00">id: Serial</text>
</g>
<!-- ronin_url_query_params -->
<g id="node11" class="node"><title>ronin_url_query_params</title>
<polygon fill="none" stroke="black" points="1677,-10.5 1677,-121.5 1919,-121.5 1919,-10.5 1677,-10.5"/>
<text text-anchor="middle" x="1798" y="-104.9" font-family="Times Roman,serif" font-size="14.00">ronin_url_query_params</text>
<polyline fill="none" stroke="black" points="1677,-94.5 1919,-94.5 "/>
<text text-anchor="middle" x="1798" y="-77.9" font-family="Times Roman,serif" font-size="14.00">id: Serial</text>
<text text-anchor="middle" x="1798" y="-58.9" font-family="Times Roman,serif" font-size="14.00">value: Text</text>
<text text-anchor="middle" x="1798" y="-39.9" font-family="Times Roman,serif" font-size="14.00">name_id: ronin_url_query_param_names</text>
<text text-anchor="middle" x="1798" y="-20.9" font-family="Times Roman,serif" font-size="14.00">url_id: ronin_urls</text>
</g>
<!-- ronin_url_query_param_names&#45;&gt;ronin_url_query_params -->
<g id="edge32" class="edge"><title>ronin_url_query_param_names&#45;&gt;ronin_url_query_params</title>
<path fill="none" stroke="blue" d="M1827.89,-245.359C1822.72,-214.333 1815.18,-169.087 1808.97,-131.802"/>
<polygon fill="blue" stroke="blue" points="1812.35,-130.804 1807.25,-121.516 1805.44,-131.955 1812.35,-130.804"/>
<text text-anchor="middle" x="1828" y="-156.9" font-family="Times Roman,serif" font-size="14.00"> 1:m</text>
</g>
<!-- ronin_services -->
<g id="node12" class="node"><title>ronin_services</title>
<polygon fill="none" stroke="black" points="1285.5,-527.5 1285.5,-600.5 1380.5,-600.5 1380.5,-527.5 1285.5,-527.5"/>
<text text-anchor="middle" x="1333" y="-583.9" font-family="Times Roman,serif" font-size="14.00">ronin_services</text>
<polyline fill="none" stroke="black" points="1285.5,-573.5 1380.5,-573.5 "/>
<text text-anchor="middle" x="1333" y="-556.9" font-family="Times Roman,serif" font-size="14.00">name: String</text>
<text text-anchor="middle" x="1333" y="-537.9" font-family="Times Roman,serif" font-size="14.00">id: Serial</text>
</g>
<!-- ronin_services&#45;&gt;ronin_open_ports -->
<g id="edge34" class="edge"><title>ronin_services&#45;&gt;ronin_open_ports</title>
<path fill="none" stroke="blue" d="M1332.06,-527.269C1328.89,-487.65 1317.29,-425.965 1277,-394 1241.7,-365.989 1116.54,-393.467 1075,-376 1066.15,-372.279 1057.49,-367.573 1049.16,-362.26"/>
<polygon fill="blue" stroke="blue" points="1050.86,-359.186 1040.61,-356.519 1046.96,-364.998 1050.86,-359.186"/>
<text text-anchor="middle" x="1307" y="-400.9" font-family="Times Roman,serif" font-size="14.00"> 1:m</text>
</g>
<!-- ronin_user_names -->
<g id="node13" class="node"><title>ronin_user_names</title>
<polygon fill="none" stroke="black" points="1808,-518 1808,-610 1942,-610 1942,-518 1808,-518"/>
<text text-anchor="middle" x="1875" y="-593.4" font-family="Times Roman,serif" font-size="14.00">ronin_user_names</text>
<polyline fill="none" stroke="black" points="1808,-583 1942,-583 "/>
<text text-anchor="middle" x="1875" y="-566.4" font-family="Times Roman,serif" font-size="14.00">name: String</text>
<text text-anchor="middle" x="1875" y="-547.4" font-family="Times Roman,serif" font-size="14.00">id: Serial</text>
<text text-anchor="middle" x="1875" y="-528.4" font-family="Times Roman,serif" font-size="14.00">created_at: DateTime</text>
</g>
<!-- ronin_credentials -->
<g id="node15" class="node"><title>ronin_credentials</title>
<polygon fill="none" stroke="black" points="1946,-236 1946,-328 2146,-328 2146,-236 1946,-236"/>
<text text-anchor="middle" x="2046" y="-311.4" font-family="Times Roman,serif" font-size="14.00">ronin_credentials</text>
<polyline fill="none" stroke="black" points="1946,-301 2146,-301 "/>
<text text-anchor="middle" x="2046" y="-284.4" font-family="Times Roman,serif" font-size="14.00">id: Serial</text>
<text text-anchor="middle" x="2046" y="-265.4" font-family="Times Roman,serif" font-size="14.00">password_id: ronin_passwords</text>
<text text-anchor="middle" x="2046" y="-246.4" font-family="Times Roman,serif" font-size="14.00">user_name_id: ronin_user_names</text>
</g>
<!-- ronin_user_names&#45;&gt;ronin_credentials -->
<g id="edge36" class="edge"><title>ronin_user_names&#45;&gt;ronin_credentials</title>
<path fill="none" stroke="blue" d="M1903.05,-517.749C1933.05,-468.266 1980.63,-389.807 2012.56,-337.146"/>
<polygon fill="blue" stroke="blue" points="2015.75,-338.642 2017.94,-328.276 2009.76,-335.012 2015.75,-338.642"/>
<text text-anchor="middle" x="1988" y="-400.9" font-family="Times Roman,serif" font-size="14.00"> 1:m</text>
</g>
<!-- ronin_user_names&#45;&gt;ronin_email_addresses -->
<g id="edge38" class="edge"><title>ronin_user_names&#45;&gt;ronin_email_addresses</title>
<path fill="none" stroke="blue" d="M1843.49,-517.85C1822.97,-490.33 1794.28,-456.161 1763,-432 1732.17,-408.181 1721.48,-404.64 1684,-394 1610.49,-373.13 1583.14,-406.34 1513,-376 1495.23,-368.312 1478.23,-356.665 1463.16,-344.161"/>
<polygon fill="blue" stroke="blue" points="1465.33,-341.413 1455.46,-337.56 1460.77,-346.727 1465.33,-341.413"/>
<text text-anchor="middle" x="1750" y="-400.9" font-family="Times Roman,serif" font-size="14.00"> 1:m</text>
</g>
<!-- ronin_passwords -->
<g id="node14" class="node"><title>ronin_passwords</title>
<polygon fill="none" stroke="black" points="1991,-527.5 1991,-600.5 2101,-600.5 2101,-527.5 1991,-527.5"/>
<text text-anchor="middle" x="2046" y="-583.9" font-family="Times Roman,serif" font-size="14.00">ronin_passwords</text>
<polyline fill="none" stroke="black" points="1991,-573.5 2101,-573.5 "/>
<text text-anchor="middle" x="2046" y="-556.9" font-family="Times Roman,serif" font-size="14.00">id: Serial</text>
<text text-anchor="middle" x="2046" y="-537.9" font-family="Times Roman,serif" font-size="14.00">clear_text: String</text>
</g>
<!-- ronin_passwords&#45;&gt;ronin_credentials -->
<g id="edge40" class="edge"><title>ronin_passwords&#45;&gt;ronin_credentials</title>
<path fill="none" stroke="blue" d="M2046,-527.423C2046,-479.441 2046,-394.757 2046,-338.503"/>
<polygon fill="blue" stroke="blue" points="2049.5,-338.346 2046,-328.346 2042.5,-338.346 2049.5,-338.346"/>
<text text-anchor="middle" x="2059" y="-400.9" font-family="Times Roman,serif" font-size="14.00"> 1:m</text>
</g>
<!-- ronin_service_credentials -->
<g id="node16" class="node"><title>ronin_service_credentials</title>
<polygon fill="none" stroke="black" points="865,-10.5 865,-121.5 1065,-121.5 1065,-10.5 865,-10.5"/>
<text text-anchor="middle" x="965" y="-104.9" font-family="Times Roman,serif" font-size="14.00">ronin_service_credentials</text>
<polyline fill="none" stroke="black" points="865,-94.5 1065,-94.5 "/>
<text text-anchor="middle" x="965" y="-77.9" font-family="Times Roman,serif" font-size="14.00">id: Serial</text>
<text text-anchor="middle" x="965" y="-58.9" font-family="Times Roman,serif" font-size="14.00">password_id: ronin_passwords</text>
<text text-anchor="middle" x="965" y="-39.9" font-family="Times Roman,serif" font-size="14.00">user_name_id: ronin_user_names</text>
<text text-anchor="middle" x="965" y="-20.9" font-family="Times Roman,serif" font-size="14.00">open_port_id: ronin_open_ports</text>
</g>
<!-- ronin_web_credentials -->
<g id="node17" class="node"><title>ronin_web_credentials</title>
<polygon fill="none" stroke="black" points="1379,-1 1379,-131 1623,-131 1623,-1 1379,-1"/>
<text text-anchor="middle" x="1501" y="-114.4" font-family="Times Roman,serif" font-size="14.00">ronin_web_credentials</text>
<polyline fill="none" stroke="black" points="1379,-104 1623,-104 "/>
<text text-anchor="middle" x="1501" y="-87.4" font-family="Times Roman,serif" font-size="14.00">id: Serial</text>
<text text-anchor="middle" x="1501" y="-68.4" font-family="Times Roman,serif" font-size="14.00">password_id: ronin_passwords</text>
<text text-anchor="middle" x="1501" y="-49.4" font-family="Times Roman,serif" font-size="14.00">user_name_id: ronin_user_names</text>
<text text-anchor="middle" x="1501" y="-30.4" font-family="Times Roman,serif" font-size="14.00">email_address_id: ronin_email_addresses</text>
<text text-anchor="middle" x="1501" y="-11.4" font-family="Times Roman,serif" font-size="14.00">url_id: ronin_urls</text>
</g>
<!-- ronin_open_ports&#45;&gt;ronin_service_credentials -->
<g id="edge42" class="edge"><title>ronin_open_ports&#45;&gt;ronin_service_credentials</title>
<path fill="none" stroke="blue" d="M965,-207.363C965,-182.715 965,-155.497 965,-131.579"/>
<polygon fill="blue" stroke="blue" points="968.5,-131.548 965,-121.548 961.5,-131.548 968.5,-131.548"/>
<text text-anchor="middle" x="978" y="-156.9" font-family="Times Roman,serif" font-size="14.00"> 1:m</text>
</g>
<!-- ronin_ports -->
<g id="node19" class="node"><title>ronin_ports</title>
<polygon fill="none" stroke="black" points="857,-791 857,-883 961,-883 961,-791 857,-791"/>
<text text-anchor="middle" x="909" y="-866.4" font-family="Times Roman,serif" font-size="14.00">ronin_ports</text>
<polyline fill="none" stroke="black" points="857,-856 961,-856 "/>
<text text-anchor="middle" x="909" y="-839.4" font-family="Times Roman,serif" font-size="14.00">id: Serial</text>
<text text-anchor="middle" x="909" y="-820.4" font-family="Times Roman,serif" font-size="14.00">protocol: String</text>
<text text-anchor="middle" x="909" y="-801.4" font-family="Times Roman,serif" font-size="14.00">number: Integer</text>
</g>
<!-- ronin_ports&#45;&gt;ronin_open_ports -->
<g id="edge44" class="edge"><title>ronin_ports&#45;&gt;ronin_open_ports</title>
<path fill="none" stroke="blue" d="M899.438,-790.73C885.448,-714.751 864.035,-559.277 893,-432 898.081,-409.673 906.919,-386.791 916.7,-365.838"/>
<polygon fill="blue" stroke="blue" points="919.928,-367.201 921.095,-356.671 913.615,-364.175 919.928,-367.201"/>
<text text-anchor="middle" x="906" y="-560.9" font-family="Times Roman,serif" font-size="14.00"> 1:m</text>
</g>
<!-- ronin_udp_ports -->
<g id="node21" class="node"><title>ronin_udp_ports</title>
<polygon fill="none" stroke="black" points="928,-518 928,-610 1034,-610 1034,-518 928,-518"/>
<text text-anchor="middle" x="981" y="-593.4" font-family="Times Roman,serif" font-size="14.00">ronin_udp_ports</text>
<polyline fill="none" stroke="black" points="928,-583 1034,-583 "/>
<text text-anchor="middle" x="981" y="-566.4" font-family="Times Roman,serif" font-size="14.00">id: Serial</text>
<text text-anchor="middle" x="981" y="-547.4" font-family="Times Roman,serif" font-size="14.00">protocol: String</text>
<text text-anchor="middle" x="981" y="-528.4" font-family="Times Roman,serif" font-size="14.00">number: Integer</text>
</g>
<!-- ronin_ports&#45;&gt;ronin_udp_ports -->
<g id="edge66" class="edge"><title>ronin_ports&#45;&gt;ronin_udp_ports</title>
<path fill="none" stroke="cyan" d="M921.132,-790.998C933.569,-743.843 952.922,-670.464 966.239,-619.97"/>
<polygon fill="cyan" stroke="cyan" points="969.652,-620.753 968.818,-610.191 962.883,-618.967 969.652,-620.753"/>
</g>
<!-- ronin_tcp_ports -->
<g id="node20" class="node"><title>ronin_tcp_ports</title>
<polygon fill="none" stroke="black" points="1398,-518 1398,-610 1502,-610 1502,-518 1398,-518"/>
<text text-anchor="middle" x="1450" y="-593.4" font-family="Times Roman,serif" font-size="14.00">ronin_tcp_ports</text>
<polyline fill="none" stroke="black" points="1398,-583 1502,-583 "/>
<text text-anchor="middle" x="1450" y="-566.4" font-family="Times Roman,serif" font-size="14.00">id: Serial</text>
<text text-anchor="middle" x="1450" y="-547.4" font-family="Times Roman,serif" font-size="14.00">protocol: String</text>
<text text-anchor="middle" x="1450" y="-528.4" font-family="Times Roman,serif" font-size="14.00">number: Integer</text>
</g>
<!-- ronin_tcp_ports&#45;&gt;ronin_open_ports -->
<g id="edge46" class="edge"><title>ronin_tcp_ports&#45;&gt;ronin_open_ports</title>
<path fill="none" stroke="blue" d="M1436.48,-517.831C1426.69,-490.473 1411.23,-456.482 1389,-432 1293.69,-327.061 1206.13,-429.848 1075,-376 1066.12,-372.353 1057.44,-367.699 1049.09,-362.421"/>
<polygon fill="blue" stroke="blue" points="1050.79,-359.345 1040.53,-356.71 1046.91,-365.169 1050.79,-359.345"/>
<text text-anchor="middle" x="1380" y="-400.9" font-family="Times Roman,serif" font-size="14.00"> 1:m</text>
</g>
<!-- ronin_tcp_ports&#45;&gt;ronin_urls -->
<g id="edge48" class="edge"><title>ronin_tcp_ports&#45;&gt;ronin_urls</title>
<path fill="none" stroke="blue" d="M1464.1,-517.885C1476.07,-482.443 1495.23,-433.097 1520,-394 1522.12,-390.659 1524.34,-387.324 1526.64,-384.005"/>
<polygon fill="blue" stroke="blue" points="1529.54,-385.963 1532.53,-375.798 1523.86,-381.883 1529.54,-385.963"/>
<text text-anchor="middle" x="1533" y="-400.9" font-family="Times Roman,serif" font-size="14.00"> 1:m</text>
</g>
<!-- ronin_udp_ports&#45;&gt;ronin_open_ports -->
<g id="edge50" class="edge"><title>ronin_udp_ports&#45;&gt;ronin_open_ports</title>
<path fill="none" stroke="blue" d="M978.376,-517.749C976.058,-476.891 972.619,-416.276 969.808,-366.742"/>
<polygon fill="blue" stroke="blue" points="973.298,-366.458 969.237,-356.672 966.309,-366.854 973.298,-366.458"/>
<text text-anchor="middle" x="986" y="-400.9" font-family="Times Roman,serif" font-size="14.00"> 1:m</text>
</g>
<!-- ronin_email_addresses&#45;&gt;ronin_web_credentials -->
<g id="edge52" class="edge"><title>ronin_email_addresses&#45;&gt;ronin_web_credentials</title>
<path fill="none" stroke="blue" d="M1428.98,-226.375C1440.73,-200.208 1454.91,-168.629 1467.57,-140.438"/>
<polygon fill="blue" stroke="blue" points="1470.9,-141.576 1471.8,-131.02 1464.51,-138.708 1470.9,-141.576"/>
<text text-anchor="middle" x="1475" y="-156.9" font-family="Times Roman,serif" font-size="14.00"> 1:m</text>
</g>
<!-- ronin_urls&#45;&gt;ronin_url_query_params -->
<g id="edge54" class="edge"><title>ronin_urls&#45;&gt;ronin_url_query_params</title>
<path fill="none" stroke="blue" d="M1698.43,-188.202C1714.44,-168.554 1730.97,-148.269 1745.85,-130.007"/>
<polygon fill="blue" stroke="blue" points="1748.96,-131.732 1752.56,-121.769 1743.53,-127.31 1748.96,-131.732"/>
<text text-anchor="middle" x="1739" y="-156.9" font-family="Times Roman,serif" font-size="14.00"> 1:m</text>
</g>
<!-- ronin_urls&#45;&gt;ronin_web_credentials -->
<g id="edge56" class="edge"><title>ronin_urls&#45;&gt;ronin_web_credentials</title>
<path fill="none" stroke="blue" d="M1569.46,-188.202C1560.45,-172.117 1551.2,-155.605 1542.52,-140.126"/>
<polygon fill="blue" stroke="blue" points="1545.43,-138.157 1537.49,-131.143 1539.33,-141.578 1545.43,-138.157"/>
<text text-anchor="middle" x="1571" y="-156.9" font-family="Times Roman,serif" font-size="14.00"> 1:m</text>
</g>
<!-- ronin_os -->
<g id="node26" class="node"><title>ronin_os</title>
<polygon fill="none" stroke="black" points="1519.5,-518 1519.5,-610 1616.5,-610 1616.5,-518 1519.5,-518"/>
<text text-anchor="middle" x="1568" y="-593.4" font-family="Times Roman,serif" font-size="14.00">ronin_os</text>
<polyline fill="none" stroke="black" points="1519.5,-583 1616.5,-583 "/>
<text text-anchor="middle" x="1568" y="-566.4" font-family="Times Roman,serif" font-size="14.00">name: String</text>
<text text-anchor="middle" x="1568" y="-547.4" font-family="Times Roman,serif" font-size="14.00">id: Serial</text>
<text text-anchor="middle" x="1568" y="-528.4" font-family="Times Roman,serif" font-size="14.00">version: String</text>
</g>
<!-- ronin_os&#45;&gt;ronin_os_guesses -->
<g id="edge58" class="edge"><title>ronin_os&#45;&gt;ronin_os_guesses</title>
<path fill="none" stroke="blue" d="M1576.38,-517.621C1580.47,-478.812 1578.78,-424.958 1546,-394 1505.35,-355.603 1346.74,-397.227 1295,-376 1276.79,-368.53 1259.43,-356.828 1244.09,-344.184"/>
<polygon fill="blue" stroke="blue" points="1246.15,-341.334 1236.27,-337.504 1241.6,-346.658 1246.15,-341.334"/>
<text text-anchor="middle" x="1574" y="-400.9" font-family="Times Roman,serif" font-size="14.00"> 1:m</text>
</g>
<!-- ronin_vendors -->
<g id="node27" class="node"><title>ronin_vendors</title>
<polygon fill="none" stroke="black" points="2149.5,-800.5 2149.5,-873.5 2244.5,-873.5 2244.5,-800.5 2149.5,-800.5"/>
<text text-anchor="middle" x="2197" y="-856.9" font-family="Times Roman,serif" font-size="14.00">ronin_vendors</text>
<polyline fill="none" stroke="black" points="2149.5,-846.5 2244.5,-846.5 "/>
<text text-anchor="middle" x="2197" y="-829.9" font-family="Times Roman,serif" font-size="14.00">name: String</text>
<text text-anchor="middle" x="2197" y="-810.9" font-family="Times Roman,serif" font-size="14.00">id: Serial</text>
</g>
<!-- ronin_softwares -->
<g id="node32" class="node"><title>ronin_softwares</title>
<polygon fill="none" stroke="black" points="2118.5,-508.5 2118.5,-619.5 2275.5,-619.5 2275.5,-508.5 2118.5,-508.5"/>
<text text-anchor="middle" x="2197" y="-602.9" font-family="Times Roman,serif" font-size="14.00">ronin_softwares</text>
<polyline fill="none" stroke="black" points="2118.5,-592.5 2275.5,-592.5 "/>
<text text-anchor="middle" x="2197" y="-575.9" font-family="Times Roman,serif" font-size="14.00">id: Serial</text>
<text text-anchor="middle" x="2197" y="-556.9" font-family="Times Roman,serif" font-size="14.00">name: String</text>
<text text-anchor="middle" x="2197" y="-537.9" font-family="Times Roman,serif" font-size="14.00">version: String</text>
<text text-anchor="middle" x="2197" y="-518.9" font-family="Times Roman,serif" font-size="14.00">vendor_id: ronin_vendors</text>
</g>
<!-- ronin_vendors&#45;&gt;ronin_softwares -->
<g id="edge60" class="edge"><title>ronin_vendors&#45;&gt;ronin_softwares</title>
<path fill="none" stroke="blue" d="M2197,-800.465C2197,-756.923 2197,-683.34 2197,-629.8"/>
<polygon fill="blue" stroke="blue" points="2200.5,-629.712 2197,-619.712 2193.5,-629.712 2200.5,-629.712"/>
<text text-anchor="middle" x="2210" y="-720.9" font-family="Times Roman,serif" font-size="14.00"> 1:m</text>
</g>
<!-- ronin_licenses -->
<g id="node28" class="node"><title>ronin_licenses</title>
<polygon fill="none" stroke="black" points="2316.5,-781.5 2316.5,-892.5 2425.5,-892.5 2425.5,-781.5 2316.5,-781.5"/>
<text text-anchor="middle" x="2371" y="-875.9" font-family="Times Roman,serif" font-size="14.00">ronin_licenses</text>
<polyline fill="none" stroke="black" points="2316.5,-865.5 2425.5,-865.5 "/>
<text text-anchor="middle" x="2371" y="-848.9" font-family="Times Roman,serif" font-size="14.00">name: String</text>
<text text-anchor="middle" x="2371" y="-829.9" font-family="Times Roman,serif" font-size="14.00">id: Serial</text>
<text text-anchor="middle" x="2371" y="-810.9" font-family="Times Roman,serif" font-size="14.00">description: Text</text>
<text text-anchor="middle" x="2371" y="-791.9" font-family="Times Roman,serif" font-size="14.00">url: String</text>
</g>
<!-- ronin_repositories -->
<g id="node31" class="node"><title>ronin_repositories</title>
<polygon fill="none" stroke="black" points="2292.5,-432.5 2292.5,-695.5 2449.5,-695.5 2449.5,-432.5 2292.5,-432.5"/>
<text text-anchor="middle" x="2371" y="-678.9" font-family="Times Roman,serif" font-size="14.00">ronin_repositories</text>
<polyline fill="none" stroke="black" points="2292.5,-668.5 2449.5,-668.5 "/>
<text text-anchor="middle" x="2371" y="-651.9" font-family="Times Roman,serif" font-size="14.00">id: Serial</text>
<text text-anchor="middle" x="2371" y="-632.9" font-family="Times Roman,serif" font-size="14.00">scm: String</text>
<text text-anchor="middle" x="2371" y="-613.9" font-family="Times Roman,serif" font-size="14.00">path: FilePath</text>
<text text-anchor="middle" x="2371" y="-594.9" font-family="Times Roman,serif" font-size="14.00">uri: URI</text>
<text text-anchor="middle" x="2371" y="-575.9" font-family="Times Roman,serif" font-size="14.00">installed: Boolean</text>
<text text-anchor="middle" x="2371" y="-556.9" font-family="Times Roman,serif" font-size="14.00">name: String</text>
<text text-anchor="middle" x="2371" y="-537.9" font-family="Times Roman,serif" font-size="14.00">domain: String</text>
<text text-anchor="middle" x="2371" y="-518.9" font-family="Times Roman,serif" font-size="14.00">title: Text</text>
<text text-anchor="middle" x="2371" y="-499.9" font-family="Times Roman,serif" font-size="14.00">source: URI</text>
<text text-anchor="middle" x="2371" y="-480.9" font-family="Times Roman,serif" font-size="14.00">website: URI</text>
<text text-anchor="middle" x="2371" y="-461.9" font-family="Times Roman,serif" font-size="14.00">description: Text</text>
<text text-anchor="middle" x="2371" y="-442.9" font-family="Times Roman,serif" font-size="14.00">license_id: ronin_licenses</text>
</g>
<!-- ronin_licenses&#45;&gt;ronin_repositories -->
<g id="edge62" class="edge"><title>ronin_licenses&#45;&gt;ronin_repositories</title>
<path fill="none" stroke="blue" d="M2371,-781.425C2371,-759.307 2371,-732.752 2371,-705.917"/>
<polygon fill="blue" stroke="blue" points="2374.5,-705.627 2371,-695.627 2367.5,-705.627 2374.5,-705.627"/>
<text text-anchor="middle" x="2384" y="-720.9" font-family="Times Roman,serif" font-size="14.00"> 1:m</text>
</g>
<!-- ronin_authors -->
<g id="node29" class="node"><title>ronin_authors</title>
<polygon fill="none" stroke="black" points="2442.5,-753 2442.5,-921 2567.5,-921 2567.5,-753 2442.5,-753"/>
<text text-anchor="middle" x="2505" y="-904.4" font-family="Times Roman,serif" font-size="14.00">ronin_authors</text>
<polyline fill="none" stroke="black" points="2442.5,-894 2567.5,-894 "/>
<text text-anchor="middle" x="2505" y="-877.4" font-family="Times Roman,serif" font-size="14.00">name: String</text>
<text text-anchor="middle" x="2505" y="-858.4" font-family="Times Roman,serif" font-size="14.00">id: Serial</text>
<text text-anchor="middle" x="2505" y="-839.4" font-family="Times Roman,serif" font-size="14.00">organization: String</text>
<text text-anchor="middle" x="2505" y="-820.4" font-family="Times Roman,serif" font-size="14.00">pgp_signature: Text</text>
<text text-anchor="middle" x="2505" y="-801.4" font-family="Times Roman,serif" font-size="14.00">email: String</text>
<text text-anchor="middle" x="2505" y="-782.4" font-family="Times Roman,serif" font-size="14.00">site: String</text>
<text text-anchor="middle" x="2505" y="-763.4" font-family="Times Roman,serif" font-size="14.00">biography: Text</text>
</g>
<!-- ronin_script_paths -->
<g id="node30" class="node"><title>ronin_script_paths</title>
<polygon fill="none" stroke="black" points="2274,-217 2274,-347 2468,-347 2468,-217 2274,-217"/>
<text text-anchor="middle" x="2371" y="-330.4" font-family="Times Roman,serif" font-size="14.00">ronin_script_paths</text>
<polyline fill="none" stroke="black" points="2274,-320 2468,-320 "/>
<text text-anchor="middle" x="2371" y="-303.4" font-family="Times Roman,serif" font-size="14.00">id: Serial</text>
<text text-anchor="middle" x="2371" y="-284.4" font-family="Times Roman,serif" font-size="14.00">path: FilePath</text>
<text text-anchor="middle" x="2371" y="-265.4" font-family="Times Roman,serif" font-size="14.00">timestamp: Time</text>
<text text-anchor="middle" x="2371" y="-246.4" font-family="Times Roman,serif" font-size="14.00">class_name: String</text>
<text text-anchor="middle" x="2371" y="-227.4" font-family="Times Roman,serif" font-size="14.00">repository_id: ronin_repositories</text>
</g>
<!-- ronin_repositories&#45;&gt;ronin_script_paths -->
<g id="edge64" class="edge"><title>ronin_repositories&#45;&gt;ronin_script_paths</title>
<path fill="none" stroke="blue" d="M2371,-432.495C2371,-406.728 2371,-380.537 2371,-357.383"/>
<polygon fill="blue" stroke="blue" points="2374.5,-357.315 2371,-347.315 2367.5,-357.315 2374.5,-357.315"/>
<text text-anchor="middle" x="2384" y="-400.9" font-family="Times Roman,serif" font-size="14.00"> 1:m</text>
</g>
<!-- ronin_arches -->
<g id="node33" class="node"><title>ronin_arches</title>
<polygon fill="none" stroke="black" points="2584.5,-781.5 2584.5,-892.5 2727.5,-892.5 2727.5,-781.5 2584.5,-781.5"/>
<text text-anchor="middle" x="2656" y="-875.9" font-family="Times Roman,serif" font-size="14.00">ronin_arches</text>
<polyline fill="none" stroke="black" points="2584.5,-865.5 2727.5,-865.5 "/>
<text text-anchor="middle" x="2656" y="-848.9" font-family="Times Roman,serif" font-size="14.00">name: String</text>
<text text-anchor="middle" x="2656" y="-829.9" font-family="Times Roman,serif" font-size="14.00">id: Serial</text>
<text text-anchor="middle" x="2656" y="-810.9" font-family="Times Roman,serif" font-size="14.00">endian: String</text>
<text text-anchor="middle" x="2656" y="-791.9" font-family="Times Roman,serif" font-size="14.00">address_length: Integer</text>
</g>
</g>
</svg>
