<?xml version="1.0" encoding="UTF-8" standalone="no"?>
<!DOCTYPE svg PUBLIC "-//W3C//DTD SVG 1.1//EN"
 "http://www.w3.org/Graphics/SVG/1.1/DTD/svg11.dtd">
<!-- Generated by graphviz version 2.26.3 (20100126.1600)
 -->
<!-- Title: G Pages: 1 -->
<svg width="2446pt" height="930pt"
 viewBox="0.00 0.00 2446.00 930.00" xmlns="http://www.w3.org/2000/svg" xmlns:xlink="http://www.w3.org/1999/xlink">
<g id="graph1" class="graph" transform="scale(1 1) rotate(0) translate(4 926)">
<title>G</title>
<polygon fill="white" stroke="white" points="-4,5 -4,-926 2443,-926 2443,5 -4,5"/>
<!-- ronin_arches -->
<g id="node1" class="node"><title>ronin_arches</title>
<polygon fill="none" stroke="black" points="38.5,-781.5 38.5,-892.5 181.5,-892.5 181.5,-781.5 38.5,-781.5"/>
<text text-anchor="middle" x="110" y="-875.9" font-family="Times Roman,serif" font-size="14.00">ronin_arches</text>
<polyline fill="none" stroke="black" points="38.5,-865.5 181.5,-865.5 "/>
<text text-anchor="middle" x="110" y="-848.9" font-family="Times Roman,serif" font-size="14.00">name: String</text>
<text text-anchor="middle" x="110" y="-829.9" font-family="Times Roman,serif" font-size="14.00">id: Serial</text>
<text text-anchor="middle" x="110" y="-810.9" font-family="Times Roman,serif" font-size="14.00">endian: String</text>
<text text-anchor="middle" x="110" y="-791.9" font-family="Times Roman,serif" font-size="14.00">address_length: Integer</text>
</g>
<!-- ronin_addresses -->
<g id="node2" class="node"><title>ronin_addresses</title>
<polygon fill="none" stroke="black" points="163.5,-499 163.5,-629 380.5,-629 380.5,-499 163.5,-499"/>
<text text-anchor="middle" x="272" y="-612.4" font-family="Times Roman,serif" font-size="14.00">ronin_addresses</text>
<polyline fill="none" stroke="black" points="163.5,-602 380.5,-602 "/>
<text text-anchor="middle" x="272" y="-585.4" font-family="Times Roman,serif" font-size="14.00">id: Serial</text>
<text text-anchor="middle" x="272" y="-566.4" font-family="Times Roman,serif" font-size="14.00">type: Discriminator</text>
<text text-anchor="middle" x="272" y="-547.4" font-family="Times Roman,serif" font-size="14.00">address: String</text>
<text text-anchor="middle" x="272" y="-528.4" font-family="Times Roman,serif" font-size="14.00">created_at: DateTime</text>
<text text-anchor="middle" x="272" y="-509.4" font-family="Times Roman,serif" font-size="14.00">organization_id: ronin_organizations</text>
</g>
<!-- ronin_targets -->
<g id="node27" class="node"><title>ronin_targets</title>
<polygon fill="none" stroke="black" points="300,-236 300,-328 488,-328 488,-236 300,-236"/>
<text text-anchor="middle" x="394" y="-311.4" font-family="Times Roman,serif" font-size="14.00">ronin_targets</text>
<polyline fill="none" stroke="black" points="300,-301 488,-301 "/>
<text text-anchor="middle" x="394" y="-284.4" font-family="Times Roman,serif" font-size="14.00">id: Serial</text>
<text text-anchor="middle" x="394" y="-265.4" font-family="Times Roman,serif" font-size="14.00">campaign_id: ronin_campaigns</text>
<text text-anchor="middle" x="394" y="-246.4" font-family="Times Roman,serif" font-size="14.00">address_id: ronin_addresses</text>
</g>
<!-- ronin_addresses&#45;&gt;ronin_targets -->
<g id="edge2" class="edge"><title>ronin_addresses&#45;&gt;ronin_targets</title>
<path fill="none" stroke="blue" d="M300.142,-498.949C321.275,-450.101 349.908,-383.918 369.972,-337.541"/>
<polygon fill="blue" stroke="blue" points="373.233,-338.818 373.991,-328.25 366.808,-336.038 373.233,-338.818"/>
<text text-anchor="middle" x="357" y="-400.9" font-family="Times Roman,serif" font-size="14.00"> 1:m</text>
</g>
<!-- ronin_host_names -->
<g id="node3" class="node"><title>ronin_host_names</title>
<polygon fill="none" stroke="black" points="979.5,-499 979.5,-629 1196.5,-629 1196.5,-499 979.5,-499"/>
<text text-anchor="middle" x="1088" y="-612.4" font-family="Times Roman,serif" font-size="14.00">ronin_host_names</text>
<polyline fill="none" stroke="black" points="979.5,-602 1196.5,-602 "/>
<text text-anchor="middle" x="1088" y="-585.4" font-family="Times Roman,serif" font-size="14.00">id: Serial</text>
<text text-anchor="middle" x="1088" y="-566.4" font-family="Times Roman,serif" font-size="14.00">type: Discriminator</text>
<text text-anchor="middle" x="1088" y="-547.4" font-family="Times Roman,serif" font-size="14.00">address: String</text>
<text text-anchor="middle" x="1088" y="-528.4" font-family="Times Roman,serif" font-size="14.00">created_at: DateTime</text>
<text text-anchor="middle" x="1088" y="-509.4" font-family="Times Roman,serif" font-size="14.00">organization_id: ronin_organizations</text>
</g>
<!-- ronin_email_addresses -->
<g id="node11" class="node"><title>ronin_email_addresses</title>
<polygon fill="none" stroke="black" points="1646,-226.5 1646,-337.5 1846,-337.5 1846,-226.5 1646,-226.5"/>
<text text-anchor="middle" x="1746" y="-320.9" font-family="Times Roman,serif" font-size="14.00">ronin_email_addresses</text>
<polyline fill="none" stroke="black" points="1646,-310.5 1846,-310.5 "/>
<text text-anchor="middle" x="1746" y="-293.9" font-family="Times Roman,serif" font-size="14.00">id: Serial</text>
<text text-anchor="middle" x="1746" y="-274.9" font-family="Times Roman,serif" font-size="14.00">created_at: DateTime</text>
<text text-anchor="middle" x="1746" y="-255.9" font-family="Times Roman,serif" font-size="14.00">user_name_id: ronin_user_names</text>
<text text-anchor="middle" x="1746" y="-236.9" font-family="Times Roman,serif" font-size="14.00">host_name_id: ronin_host_names</text>
</g>
<!-- ronin_host_names&#45;&gt;ronin_email_addresses -->
<g id="edge8" class="edge"><title>ronin_host_names&#45;&gt;ronin_email_addresses</title>
<path fill="none" stroke="blue" d="M1129.47,-498.748C1158.93,-459.304 1202.5,-413.072 1255,-394 1334.88,-364.981 1558.06,-407.472 1637,-376 1655.28,-368.711 1672.64,-357.008 1687.9,-344.297"/>
<polygon fill="blue" stroke="blue" points="1690.4,-346.761 1695.68,-337.577 1685.83,-341.462 1690.4,-346.761"/>
<text text-anchor="middle" x="1268" y="-400.9" font-family="Times Roman,serif" font-size="14.00"> 1:m</text>
</g>
<!-- ronin_host_name_ip_addresses -->
<g id="node12" class="node"><title>ronin_host_name_ip_addresses</title>
<polygon fill="none" stroke="black" points="971.5,-226.5 971.5,-337.5 1174.5,-337.5 1174.5,-226.5 971.5,-226.5"/>
<text text-anchor="middle" x="1073" y="-320.9" font-family="Times Roman,serif" font-size="14.00">ronin_host_name_ip_addresses</text>
<polyline fill="none" stroke="black" points="971.5,-310.5 1174.5,-310.5 "/>
<text text-anchor="middle" x="1073" y="-293.9" font-family="Times Roman,serif" font-size="14.00">id: Serial</text>
<text text-anchor="middle" x="1073" y="-274.9" font-family="Times Roman,serif" font-size="14.00">created_at: DateTime</text>
<text text-anchor="middle" x="1073" y="-255.9" font-family="Times Roman,serif" font-size="14.00">host_name_id: ronin_host_names</text>
<text text-anchor="middle" x="1073" y="-236.9" font-family="Times Roman,serif" font-size="14.00">ip_address_id: ronin_ip_addresses</text>
</g>
<!-- ronin_host_names&#45;&gt;ronin_host_name_ip_addresses -->
<g id="edge6" class="edge"><title>ronin_host_names&#45;&gt;ronin_host_name_ip_addresses</title>
<path fill="none" stroke="blue" d="M1083.24,-498.681C1081.43,-472.381 1079.45,-441.758 1078,-414 1076.87,-392.449 1075.9,-368.906 1075.12,-347.747"/>
<polygon fill="blue" stroke="blue" points="1078.61,-347.438 1074.75,-337.571 1071.61,-347.691 1078.61,-347.438"/>
<text text-anchor="middle" x="1091" y="-400.9" font-family="Times Roman,serif" font-size="14.00"> 1:m</text>
</g>
<!-- ronin_host_names&#45;&gt;ronin_targets -->
<g id="edge4" class="edge"><title>ronin_host_names&#45;&gt;ronin_targets</title>
<path fill="none" stroke="blue" d="M1046.27,-498.733C1026.61,-473.558 1000.88,-447.209 971,-432 896.587,-394.129 864.248,-437.059 784,-414 764.897,-408.511 763.166,-399.267 744,-394 637.866,-364.833 598.11,-419.495 497,-376 475.593,-366.791 455.723,-351.218 439.259,-335.368"/>
<polygon fill="blue" stroke="blue" points="441.499,-332.66 431.941,-328.088 436.562,-337.622 441.499,-332.66"/>
<text text-anchor="middle" x="797" y="-400.9" font-family="Times Roman,serif" font-size="14.00"> 1:m</text>
</g>
<!-- ronin_urls -->
<g id="node30" class="node"><title>ronin_urls</title>
<polygon fill="none" stroke="black" points="1192,-188.5 1192,-375.5 1392,-375.5 1392,-188.5 1192,-188.5"/>
<text text-anchor="middle" x="1292" y="-358.9" font-family="Times Roman,serif" font-size="14.00">ronin_urls</text>
<polyline fill="none" stroke="black" points="1192,-348.5 1392,-348.5 "/>
<text text-anchor="middle" x="1292" y="-331.9" font-family="Times Roman,serif" font-size="14.00">id: Serial</text>
<text text-anchor="middle" x="1292" y="-312.9" font-family="Times Roman,serif" font-size="14.00">path: String</text>
<text text-anchor="middle" x="1292" y="-293.9" font-family="Times Roman,serif" font-size="14.00">fragment: String</text>
<text text-anchor="middle" x="1292" y="-274.9" font-family="Times Roman,serif" font-size="14.00">last_scanned_at: Time</text>
<text text-anchor="middle" x="1292" y="-255.9" font-family="Times Roman,serif" font-size="14.00">created_at: DateTime</text>
<text text-anchor="middle" x="1292" y="-236.9" font-family="Times Roman,serif" font-size="14.00">scheme_id: ronin_url_schemes</text>
<text text-anchor="middle" x="1292" y="-217.9" font-family="Times Roman,serif" font-size="14.00">host_name_id: ronin_host_names</text>
<text text-anchor="middle" x="1292" y="-198.9" font-family="Times Roman,serif" font-size="14.00">port_id: ronin_tcp_ports</text>
</g>
<!-- ronin_host_names&#45;&gt;ronin_urls -->
<g id="edge10" class="edge"><title>ronin_host_names&#45;&gt;ronin_urls</title>
<path fill="none" stroke="blue" d="M1088.48,-498.777C1092.07,-463.761 1102.16,-422.139 1128,-394 1145.4,-375.055 1160.6,-388.645 1183,-376 1183.09,-375.948 1183.18,-375.896 1183.28,-375.844"/>
<polygon fill="blue" stroke="blue" points="1184.98,-378.901 1191.79,-370.779 1181.4,-372.886 1184.98,-378.901"/>
<text text-anchor="middle" x="1141" y="-400.9" font-family="Times Roman,serif" font-size="14.00"> 1:m</text>
</g>
<!-- ronin_ip_addresses -->
<g id="node4" class="node"><title>ronin_ip_addresses</title>
<polygon fill="none" stroke="black" points="631.5,-489.5 631.5,-638.5 848.5,-638.5 848.5,-489.5 631.5,-489.5"/>
<text text-anchor="middle" x="740" y="-621.9" font-family="Times Roman,serif" font-size="14.00">ronin_ip_addresses</text>
<polyline fill="none" stroke="black" points="631.5,-611.5 848.5,-611.5 "/>
<text text-anchor="middle" x="740" y="-594.9" font-family="Times Roman,serif" font-size="14.00">id: Serial</text>
<text text-anchor="middle" x="740" y="-575.9" font-family="Times Roman,serif" font-size="14.00">type: Discriminator</text>
<text text-anchor="middle" x="740" y="-556.9" font-family="Times Roman,serif" font-size="14.00">address: IPAddress</text>
<text text-anchor="middle" x="740" y="-537.9" font-family="Times Roman,serif" font-size="14.00">created_at: DateTime</text>
<text text-anchor="middle" x="740" y="-518.9" font-family="Times Roman,serif" font-size="14.00">version: Integer</text>
<text text-anchor="middle" x="740" y="-499.9" font-family="Times Roman,serif" font-size="14.00">organization_id: ronin_organizations</text>
</g>
<!-- ronin_ip_addresses&#45;&gt;ronin_host_name_ip_addresses -->
<g id="edge16" class="edge"><title>ronin_ip_addresses&#45;&gt;ronin_host_name_ip_addresses</title>
<path fill="none" stroke="blue" d="M794.233,-489.4C812.297,-468.56 833.79,-447.423 857,-432 877.72,-418.232 887.874,-425.371 910,-414 935.779,-400.752 940.184,-393.876 963,-376 975.773,-365.993 989.103,-355.051 1001.9,-344.284"/>
<polygon fill="blue" stroke="blue" points="1004.41,-346.743 1009.78,-337.612 999.888,-341.399 1004.41,-346.743"/>
<text text-anchor="middle" x="954" y="-400.9" font-family="Times Roman,serif" font-size="14.00"> 1:m</text>
</g>
<!-- ronin_ip_address_mac_addresses -->
<g id="node13" class="node"><title>ronin_ip_address_mac_addresses</title>
<polygon fill="none" stroke="black" points="505.5,-226.5 505.5,-337.5 734.5,-337.5 734.5,-226.5 505.5,-226.5"/>
<text text-anchor="middle" x="620" y="-320.9" font-family="Times Roman,serif" font-size="14.00">ronin_ip_address_mac_addresses</text>
<polyline fill="none" stroke="black" points="505.5,-310.5 734.5,-310.5 "/>
<text text-anchor="middle" x="620" y="-293.9" font-family="Times Roman,serif" font-size="14.00">id: Serial</text>
<text text-anchor="middle" x="620" y="-274.9" font-family="Times Roman,serif" font-size="14.00">created_at: DateTime</text>
<text text-anchor="middle" x="620" y="-255.9" font-family="Times Roman,serif" font-size="14.00">ip_address_id: ronin_ip_addresses</text>
<text text-anchor="middle" x="620" y="-236.9" font-family="Times Roman,serif" font-size="14.00">mac_address_id: ronin_mac_addresses</text>
</g>
<!-- ronin_ip_addresses&#45;&gt;ronin_ip_address_mac_addresses -->
<g id="edge14" class="edge"><title>ronin_ip_addresses&#45;&gt;ronin_ip_address_mac_addresses</title>
<path fill="none" stroke="blue" d="M732.588,-489.342C727.662,-458.804 719.498,-423.737 706,-394 698.433,-377.331 687.964,-360.857 676.929,-345.883"/>
<polygon fill="blue" stroke="blue" points="679.581,-343.587 670.755,-337.726 674,-347.812 679.581,-343.587"/>
<text text-anchor="middle" x="727" y="-400.9" font-family="Times Roman,serif" font-size="14.00"> 1:m</text>
</g>
<!-- ronin_open_ports -->
<g id="node15" class="node"><title>ronin_open_ports</title>
<polygon fill="none" stroke="black" points="1425.5,-207.5 1425.5,-356.5 1628.5,-356.5 1628.5,-207.5 1425.5,-207.5"/>
<text text-anchor="middle" x="1527" y="-339.9" font-family="Times Roman,serif" font-size="14.00">ronin_open_ports</text>
<polyline fill="none" stroke="black" points="1425.5,-329.5 1628.5,-329.5 "/>
<text text-anchor="middle" x="1527" y="-312.9" font-family="Times Roman,serif" font-size="14.00">id: Serial</text>
<text text-anchor="middle" x="1527" y="-293.9" font-family="Times Roman,serif" font-size="14.00">last_scanned_at: Time</text>
<text text-anchor="middle" x="1527" y="-274.9" font-family="Times Roman,serif" font-size="14.00">created_at: DateTime</text>
<text text-anchor="middle" x="1527" y="-255.9" font-family="Times Roman,serif" font-size="14.00">ip_address_id: ronin_ip_addresses</text>
<text text-anchor="middle" x="1527" y="-236.9" font-family="Times Roman,serif" font-size="14.00">port_id: ronin_ports</text>
<text text-anchor="middle" x="1527" y="-217.9" font-family="Times Roman,serif" font-size="14.00">service_id: ronin_services</text>
</g>
<!-- ronin_ip_addresses&#45;&gt;ronin_open_ports -->
<g id="edge18" class="edge"><title>ronin_ip_addresses&#45;&gt;ronin_open_ports</title>
<path fill="none" stroke="blue" d="M788.716,-489.192C807.266,-466.874 830.43,-444.935 857,-432 916.451,-403.058 1090.42,-432.148 1154,-414 1171.98,-408.869 1173.09,-399.355 1191,-394 1280.75,-367.166 1313.44,-409.283 1401,-376 1411.06,-372.177 1421.01,-367.301 1430.64,-361.788"/>
<polygon fill="blue" stroke="blue" points="1432.61,-364.692 1439.4,-356.558 1429.02,-358.682 1432.61,-364.692"/>
<text text-anchor="middle" x="1204" y="-400.9" font-family="Times Roman,serif" font-size="14.00"> 1:m</text>
</g>
<!-- ronin_os_guesses -->
<g id="node17" class="node"><title>ronin_os_guesses</title>
<polygon fill="none" stroke="black" points="751.5,-226.5 751.5,-337.5 954.5,-337.5 954.5,-226.5 751.5,-226.5"/>
<text text-anchor="middle" x="853" y="-320.9" font-family="Times Roman,serif" font-size="14.00">ronin_os_guesses</text>
<polyline fill="none" stroke="black" points="751.5,-310.5 954.5,-310.5 "/>
<text text-anchor="middle" x="853" y="-293.9" font-family="Times Roman,serif" font-size="14.00">id: Serial</text>
<text text-anchor="middle" x="853" y="-274.9" font-family="Times Roman,serif" font-size="14.00">created_at: DateTime</text>
<text text-anchor="middle" x="853" y="-255.9" font-family="Times Roman,serif" font-size="14.00">ip_address_id: ronin_ip_addresses</text>
<text text-anchor="middle" x="853" y="-236.9" font-family="Times Roman,serif" font-size="14.00">os_id: ronin_os</text>
</g>
<!-- ronin_ip_addresses&#45;&gt;ronin_os_guesses -->
<g id="edge20" class="edge"><title>ronin_ip_addresses&#45;&gt;ronin_os_guesses</title>
<path fill="none" stroke="blue" d="M780.026,-489.21C791.842,-465.537 804.217,-439.015 814,-414 822.34,-392.675 829.901,-368.819 836.097,-347.316"/>
<polygon fill="blue" stroke="blue" points="839.486,-348.195 838.846,-337.619 832.751,-346.286 839.486,-348.195"/>
<text text-anchor="middle" x="834" y="-400.9" font-family="Times Roman,serif" font-size="14.00"> 1:m</text>
</g>
<!-- ronin_ip_addresses&#45;&gt;ronin_targets -->
<g id="edge12" class="edge"><title>ronin_ip_addresses&#45;&gt;ronin_targets</title>
<path fill="none" stroke="blue" d="M697.862,-489.196C674.619,-454.804 642.613,-416.695 604,-394 562.425,-369.565 540.356,-397.115 497,-376 476.615,-366.072 457.36,-350.828 441.136,-335.485"/>
<polygon fill="blue" stroke="blue" points="443.511,-332.912 433.902,-328.447 438.63,-337.929 443.511,-332.912"/>
<text text-anchor="middle" x="642" y="-400.9" font-family="Times Roman,serif" font-size="14.00"> 1:m</text>
</g>
<!-- ronin_mac_addresses -->
<g id="node5" class="node"><title>ronin_mac_addresses</title>
<polygon fill="none" stroke="black" points="397.5,-499 397.5,-629 614.5,-629 614.5,-499 397.5,-499"/>
<text text-anchor="middle" x="506" y="-612.4" font-family="Times Roman,serif" font-size="14.00">ronin_mac_addresses</text>
<polyline fill="none" stroke="black" points="397.5,-602 614.5,-602 "/>
<text text-anchor="middle" x="506" y="-585.4" font-family="Times Roman,serif" font-size="14.00">id: Serial</text>
<text text-anchor="middle" x="506" y="-566.4" font-family="Times Roman,serif" font-size="14.00">type: Discriminator</text>
<text text-anchor="middle" x="506" y="-547.4" font-family="Times Roman,serif" font-size="14.00">address: String</text>
<text text-anchor="middle" x="506" y="-528.4" font-family="Times Roman,serif" font-size="14.00">created_at: DateTime</text>
<text text-anchor="middle" x="506" y="-509.4" font-family="Times Roman,serif" font-size="14.00">organization_id: ronin_organizations</text>
</g>
<!-- ronin_mac_addresses&#45;&gt;ronin_ip_address_mac_addresses -->
<g id="edge24" class="edge"><title>ronin_mac_addresses&#45;&gt;ronin_ip_address_mac_addresses</title>
<path fill="none" stroke="blue" d="M532.297,-498.949C550.714,-453.392 575.226,-392.757 593.653,-347.173"/>
<polygon fill="blue" stroke="blue" points="596.986,-348.268 597.489,-337.685 590.496,-345.645 596.986,-348.268"/>
<text text-anchor="middle" x="587" y="-400.9" font-family="Times Roman,serif" font-size="14.00"> 1:m</text>
</g>
<!-- ronin_mac_addresses&#45;&gt;ronin_targets -->
<g id="edge22" class="edge"><title>ronin_mac_addresses&#45;&gt;ronin_targets</title>
<path fill="none" stroke="blue" d="M480.164,-498.949C460.804,-450.203 434.588,-384.195 416.174,-337.832"/>
<polygon fill="blue" stroke="blue" points="419.313,-336.252 412.369,-328.25 412.807,-338.836 419.313,-336.252"/>
<text text-anchor="middle" x="457" y="-400.9" font-family="Times Roman,serif" font-size="14.00"> 1:m</text>
</g>
<!-- ronin_authors -->
<g id="node6" class="node"><title>ronin_authors</title>
<polygon fill="none" stroke="black" points="1793.5,-753 1793.5,-921 1918.5,-921 1918.5,-753 1793.5,-753"/>
<text text-anchor="middle" x="1856" y="-904.4" font-family="Times Roman,serif" font-size="14.00">ronin_authors</text>
<polyline fill="none" stroke="black" points="1793.5,-894 1918.5,-894 "/>
<text text-anchor="middle" x="1856" y="-877.4" font-family="Times Roman,serif" font-size="14.00">name: String</text>
<text text-anchor="middle" x="1856" y="-858.4" font-family="Times Roman,serif" font-size="14.00">id: Serial</text>
<text text-anchor="middle" x="1856" y="-839.4" font-family="Times Roman,serif" font-size="14.00">organization: String</text>
<text text-anchor="middle" x="1856" y="-820.4" font-family="Times Roman,serif" font-size="14.00">pgp_signature: Text</text>
<text text-anchor="middle" x="1856" y="-801.4" font-family="Times Roman,serif" font-size="14.00">email: String</text>
<text text-anchor="middle" x="1856" y="-782.4" font-family="Times Roman,serif" font-size="14.00">site: String</text>
<text text-anchor="middle" x="1856" y="-763.4" font-family="Times Roman,serif" font-size="14.00">biography: Text</text>
</g>
<!-- ronin_campaigns -->
<g id="node7" class="node"><title>ronin_campaigns</title>
<polygon fill="none" stroke="black" points="-0.5,-518 -0.5,-610 146.5,-610 146.5,-518 -0.5,-518"/>
<text text-anchor="middle" x="73" y="-593.4" font-family="Times Roman,serif" font-size="14.00">ronin_campaigns</text>
<polyline fill="none" stroke="black" points="-0.5,-583 146.5,-583 "/>
<text text-anchor="middle" x="73" y="-566.4" font-family="Times Roman,serif" font-size="14.00">name: String</text>
<text text-anchor="middle" x="73" y="-547.4" font-family="Times Roman,serif" font-size="14.00">description: Description</text>
<text text-anchor="middle" x="73" y="-528.4" font-family="Times Roman,serif" font-size="14.00">id: Serial</text>
</g>
<!-- ronin_campaigns&#45;&gt;ronin_targets -->
<g id="edge26" class="edge"><title>ronin_campaigns&#45;&gt;ronin_targets</title>
<path fill="none" stroke="blue" d="M94.8913,-517.924C109.339,-490.767 130.162,-456.952 155,-432 194.285,-392.534 245.805,-358.541 290.948,-332.943"/>
<polygon fill="blue" stroke="blue" points="292.872,-335.877 299.886,-327.936 289.451,-329.77 292.872,-335.877"/>
<text text-anchor="middle" x="209" y="-400.9" font-family="Times Roman,serif" font-size="14.00"> 1:m</text>
</g>
<!-- ronin_credentials -->
<g id="node8" class="node"><title>ronin_credentials</title>
<polygon fill="none" stroke="black" points="1871,-236 1871,-328 2071,-328 2071,-236 1871,-236"/>
<text text-anchor="middle" x="1971" y="-311.4" font-family="Times Roman,serif" font-size="14.00">ronin_credentials</text>
<polyline fill="none" stroke="black" points="1871,-301 2071,-301 "/>
<text text-anchor="middle" x="1971" y="-284.4" font-family="Times Roman,serif" font-size="14.00">id: Serial</text>
<text text-anchor="middle" x="1971" y="-265.4" font-family="Times Roman,serif" font-size="14.00">password_id: ronin_passwords</text>
<text text-anchor="middle" x="1971" y="-246.4" font-family="Times Roman,serif" font-size="14.00">user_name_id: ronin_user_names</text>
</g>
<!-- ronin_service_credentials -->
<g id="node9" class="node"><title>ronin_service_credentials</title>
<polygon fill="none" stroke="black" points="1535,-10.5 1535,-121.5 1735,-121.5 1735,-10.5 1535,-10.5"/>
<text text-anchor="middle" x="1635" y="-104.9" font-family="Times Roman,serif" font-size="14.00">ronin_service_credentials</text>
<polyline fill="none" stroke="black" points="1535,-94.5 1735,-94.5 "/>
<text text-anchor="middle" x="1635" y="-77.9" font-family="Times Roman,serif" font-size="14.00">id: Serial</text>
<text text-anchor="middle" x="1635" y="-58.9" font-family="Times Roman,serif" font-size="14.00">password_id: ronin_passwords</text>
<text text-anchor="middle" x="1635" y="-39.9" font-family="Times Roman,serif" font-size="14.00">user_name_id: ronin_user_names</text>
<text text-anchor="middle" x="1635" y="-20.9" font-family="Times Roman,serif" font-size="14.00">open_port_id: ronin_open_ports</text>
</g>
<!-- ronin_web_credentials -->
<g id="node10" class="node"><title>ronin_web_credentials</title>
<polygon fill="none" stroke="black" points="1273,-1 1273,-131 1517,-131 1517,-1 1273,-1"/>
<text text-anchor="middle" x="1395" y="-114.4" font-family="Times Roman,serif" font-size="14.00">ronin_web_credentials</text>
<polyline fill="none" stroke="black" points="1273,-104 1517,-104 "/>
<text text-anchor="middle" x="1395" y="-87.4" font-family="Times Roman,serif" font-size="14.00">id: Serial</text>
<text text-anchor="middle" x="1395" y="-68.4" font-family="Times Roman,serif" font-size="14.00">password_id: ronin_passwords</text>
<text text-anchor="middle" x="1395" y="-49.4" font-family="Times Roman,serif" font-size="14.00">user_name_id: ronin_user_names</text>
<text text-anchor="middle" x="1395" y="-30.4" font-family="Times Roman,serif" font-size="14.00">email_address_id: ronin_email_addresses</text>
<text text-anchor="middle" x="1395" y="-11.4" font-family="Times Roman,serif" font-size="14.00">url_id: ronin_urls</text>
</g>
<!-- ronin_email_addresses&#45;&gt;ronin_web_credentials -->
<g id="edge28" class="edge"><title>ronin_email_addresses&#45;&gt;ronin_web_credentials</title>
<path fill="none" stroke="blue" d="M1706.61,-226.2C1684.52,-199.05 1654.65,-168.383 1621,-150 1585.86,-130.808 1569.06,-143.733 1526.97,-131.925"/>
<polygon fill="blue" stroke="blue" points="1527.86,-128.538 1517.28,-128.904 1525.78,-135.221 1527.86,-128.538"/>
<text text-anchor="middle" x="1663" y="-156.9" font-family="Times Roman,serif" font-size="14.00"> 1:m</text>
</g>
<!-- ronin_licenses -->
<g id="node14" class="node"><title>ronin_licenses</title>
<polygon fill="none" stroke="black" points="2131.5,-781.5 2131.5,-892.5 2240.5,-892.5 2240.5,-781.5 2131.5,-781.5"/>
<text text-anchor="middle" x="2186" y="-875.9" font-family="Times Roman,serif" font-size="14.00">ronin_licenses</text>
<polyline fill="none" stroke="black" points="2131.5,-865.5 2240.5,-865.5 "/>
<text text-anchor="middle" x="2186" y="-848.9" font-family="Times Roman,serif" font-size="14.00">name: String</text>
<text text-anchor="middle" x="2186" y="-829.9" font-family="Times Roman,serif" font-size="14.00">id: Serial</text>
<text text-anchor="middle" x="2186" y="-810.9" font-family="Times Roman,serif" font-size="14.00">description: Text</text>
<text text-anchor="middle" x="2186" y="-791.9" font-family="Times Roman,serif" font-size="14.00">url: String</text>
</g>
<!-- ronin_repositories -->
<g id="node20" class="node"><title>ronin_repositories</title>
<polygon fill="none" stroke="black" points="2107.5,-432.5 2107.5,-695.5 2264.5,-695.5 2264.5,-432.5 2107.5,-432.5"/>
<text text-anchor="middle" x="2186" y="-678.9" font-family="Times Roman,serif" font-size="14.00">ronin_repositories</text>
<polyline fill="none" stroke="black" points="2107.5,-668.5 2264.5,-668.5 "/>
<text text-anchor="middle" x="2186" y="-651.9" font-family="Times Roman,serif" font-size="14.00">id: Serial</text>
<text text-anchor="middle" x="2186" y="-632.9" font-family="Times Roman,serif" font-size="14.00">scm: String</text>
<text text-anchor="middle" x="2186" y="-613.9" font-family="Times Roman,serif" font-size="14.00">path: FilePath</text>
<text text-anchor="middle" x="2186" y="-594.9" font-family="Times Roman,serif" font-size="14.00">uri: URI</text>
<text text-anchor="middle" x="2186" y="-575.9" font-family="Times Roman,serif" font-size="14.00">installed: Boolean</text>
<text text-anchor="middle" x="2186" y="-556.9" font-family="Times Roman,serif" font-size="14.00">name: String</text>
<text text-anchor="middle" x="2186" y="-537.9" font-family="Times Roman,serif" font-size="14.00">domain: String</text>
<text text-anchor="middle" x="2186" y="-518.9" font-family="Times Roman,serif" font-size="14.00">title: Text</text>
<text text-anchor="middle" x="2186" y="-499.9" font-family="Times Roman,serif" font-size="14.00">source: URI</text>
<text text-anchor="middle" x="2186" y="-480.9" font-family="Times Roman,serif" font-size="14.00">website: URI</text>
<text text-anchor="middle" x="2186" y="-461.9" font-family="Times Roman,serif" font-size="14.00">description: Text</text>
<text text-anchor="middle" x="2186" y="-442.9" font-family="Times Roman,serif" font-size="14.00">license_id: ronin_licenses</text>
</g>
<!-- ronin_licenses&#45;&gt;ronin_repositories -->
<g id="edge30" class="edge"><title>ronin_licenses&#45;&gt;ronin_repositories</title>
<path fill="none" stroke="blue" d="M2186,-781.425C2186,-759.307 2186,-732.752 2186,-705.917"/>
<polygon fill="blue" stroke="blue" points="2189.5,-705.627 2186,-695.627 2182.5,-705.627 2189.5,-705.627"/>
<text text-anchor="middle" x="2199" y="-720.9" font-family="Times Roman,serif" font-size="14.00"> 1:m</text>
</g>
<!-- ronin_open_ports&#45;&gt;ronin_service_credentials -->
<g id="edge32" class="edge"><title>ronin_open_ports&#45;&gt;ronin_service_credentials</title>
<path fill="none" stroke="blue" d="M1564.32,-207.363C1576.81,-182.385 1590.62,-154.768 1602.69,-130.62"/>
<polygon fill="blue" stroke="blue" points="1605.88,-132.058 1607.23,-121.548 1599.62,-128.927 1605.88,-132.058"/>
<text text-anchor="middle" x="1604" y="-156.9" font-family="Times Roman,serif" font-size="14.00"> 1:m</text>
</g>
<!-- ronin_organizations -->
<g id="node16" class="node"><title>ronin_organizations</title>
<polygon fill="none" stroke="black" points="198.5,-781.5 198.5,-892.5 345.5,-892.5 345.5,-781.5 198.5,-781.5"/>
<text text-anchor="middle" x="272" y="-875.9" font-family="Times Roman,serif" font-size="14.00">ronin_organizations</text>
<polyline fill="none" stroke="black" points="198.5,-865.5 345.5,-865.5 "/>
<text text-anchor="middle" x="272" y="-848.9" font-family="Times Roman,serif" font-size="14.00">name: String</text>
<text text-anchor="middle" x="272" y="-829.9" font-family="Times Roman,serif" font-size="14.00">description: Description</text>
<text text-anchor="middle" x="272" y="-810.9" font-family="Times Roman,serif" font-size="14.00">id: Serial</text>
<text text-anchor="middle" x="272" y="-791.9" font-family="Times Roman,serif" font-size="14.00">created_at: DateTime</text>
</g>
<!-- ronin_organizations&#45;&gt;ronin_addresses -->
<g id="edge34" class="edge"><title>ronin_organizations&#45;&gt;ronin_addresses</title>
<path fill="none" stroke="blue" d="M272,-781.425C272,-740.408 272,-684.132 272,-639.11"/>
<polygon fill="blue" stroke="blue" points="275.5,-639.1 272,-629.1 268.5,-639.1 275.5,-639.1"/>
<text text-anchor="middle" x="285" y="-720.9" font-family="Times Roman,serif" font-size="14.00"> 1:m</text>
</g>
<!-- ronin_os -->
<g id="node18" class="node"><title>ronin_os</title>
<polygon fill="none" stroke="black" points="865.5,-518 865.5,-610 962.5,-610 962.5,-518 865.5,-518"/>
<text text-anchor="middle" x="914" y="-593.4" font-family="Times Roman,serif" font-size="14.00">ronin_os</text>
<polyline fill="none" stroke="black" points="865.5,-583 962.5,-583 "/>
<text text-anchor="middle" x="914" y="-566.4" font-family="Times Roman,serif" font-size="14.00">name: String</text>
<text text-anchor="middle" x="914" y="-547.4" font-family="Times Roman,serif" font-size="14.00">id: Serial</text>
<text text-anchor="middle" x="914" y="-528.4" font-family="Times Roman,serif" font-size="14.00">version: String</text>
</g>
<!-- ronin_os&#45;&gt;ronin_os_guesses -->
<g id="edge36" class="edge"><title>ronin_os&#45;&gt;ronin_os_guesses</title>
<path fill="none" stroke="blue" d="M903.995,-517.749C893.977,-471.436 878.468,-399.738 867.183,-347.567"/>
<polygon fill="blue" stroke="blue" points="870.591,-346.769 865.056,-337.736 863.75,-348.249 870.591,-346.769"/>
<text text-anchor="middle" x="893" y="-400.9" font-family="Times Roman,serif" font-size="14.00"> 1:m</text>
</g>
<!-- ronin_cached_files -->
<g id="node19" class="node"><title>ronin_cached_files</title>
<polygon fill="none" stroke="black" points="2089,-217 2089,-347 2283,-347 2283,-217 2089,-217"/>
<text text-anchor="middle" x="2186" y="-330.4" font-family="Times Roman,serif" font-size="14.00">ronin_cached_files</text>
<polyline fill="none" stroke="black" points="2089,-320 2283,-320 "/>
<text text-anchor="middle" x="2186" y="-303.4" font-family="Times Roman,serif" font-size="14.00">id: Serial</text>
<text text-anchor="middle" x="2186" y="-284.4" font-family="Times Roman,serif" font-size="14.00">path: FilePath</text>
<text text-anchor="middle" x="2186" y="-265.4" font-family="Times Roman,serif" font-size="14.00">timestamp: Time</text>
<text text-anchor="middle" x="2186" y="-246.4" font-family="Times Roman,serif" font-size="14.00">model_name: String</text>
<text text-anchor="middle" x="2186" y="-227.4" font-family="Times Roman,serif" font-size="14.00">repository_id: ronin_repositories</text>
</g>
<!-- ronin_repositories&#45;&gt;ronin_cached_files -->
<g id="edge38" class="edge"><title>ronin_repositories&#45;&gt;ronin_cached_files</title>
<path fill="none" stroke="blue" d="M2186,-432.495C2186,-406.728 2186,-380.537 2186,-357.383"/>
<polygon fill="blue" stroke="blue" points="2189.5,-357.315 2186,-347.315 2182.5,-357.315 2189.5,-357.315"/>
<text text-anchor="middle" x="2199" y="-400.9" font-family="Times Roman,serif" font-size="14.00"> 1:m</text>
</g>
<!-- ronin_ports -->
<g id="node21" class="node"><title>ronin_ports</title>
<polygon fill="none" stroke="black" points="1617,-791 1617,-883 1721,-883 1721,-791 1617,-791"/>
<text text-anchor="middle" x="1669" y="-866.4" font-family="Times Roman,serif" font-size="14.00">ronin_ports</text>
<polyline fill="none" stroke="black" points="1617,-856 1721,-856 "/>
<text text-anchor="middle" x="1669" y="-839.4" font-family="Times Roman,serif" font-size="14.00">id: Serial</text>
<text text-anchor="middle" x="1669" y="-820.4" font-family="Times Roman,serif" font-size="14.00">protocol: String</text>
<text text-anchor="middle" x="1669" y="-801.4" font-family="Times Roman,serif" font-size="14.00">number: Integer</text>
</g>
<!-- ronin_ports&#45;&gt;ronin_open_ports -->
<g id="edge40" class="edge"><title>ronin_ports&#45;&gt;ronin_open_ports</title>
<path fill="none" stroke="blue" d="M1686.7,-790.726C1713.54,-712.738 1755.94,-551.905 1701,-432 1700.38,-430.645 1662.4,-397.846 1622.08,-363.265"/>
<polygon fill="blue" stroke="blue" points="1624.13,-360.417 1614.26,-356.565 1619.58,-365.731 1624.13,-360.417"/>
<text text-anchor="middle" x="1741" y="-560.9" font-family="Times Roman,serif" font-size="14.00"> 1:m</text>
</g>
<!-- ronin_udp_ports -->
<g id="node23" class="node"><title>ronin_udp_ports</title>
<polygon fill="none" stroke="black" points="1474,-518 1474,-610 1580,-610 1580,-518 1474,-518"/>
<text text-anchor="middle" x="1527" y="-593.4" font-family="Times Roman,serif" font-size="14.00">ronin_udp_ports</text>
<polyline fill="none" stroke="black" points="1474,-583 1580,-583 "/>
<text text-anchor="middle" x="1527" y="-566.4" font-family="Times Roman,serif" font-size="14.00">id: Serial</text>
<text text-anchor="middle" x="1527" y="-547.4" font-family="Times Roman,serif" font-size="14.00">protocol: String</text>
<text text-anchor="middle" x="1527" y="-528.4" font-family="Times Roman,serif" font-size="14.00">number: Integer</text>
</g>
<!-- ronin_ports&#45;&gt;ronin_udp_ports -->
<g id="edge64" class="edge"><title>ronin_ports&#45;&gt;ronin_udp_ports</title>
<path fill="none" stroke="cyan" d="M1641.6,-790.815C1625.72,-763.52 1605.62,-728.119 1589,-696 1576.16,-671.187 1562.87,-643.238 1551.9,-619.468"/>
<polygon fill="cyan" stroke="cyan" points="1555.02,-617.867 1547.66,-610.24 1548.65,-620.788 1555.02,-617.867"/>
</g>
<!-- ronin_tcp_ports -->
<g id="node22" class="node"><title>ronin_tcp_ports</title>
<polygon fill="none" stroke="black" points="1352,-518 1352,-610 1456,-610 1456,-518 1352,-518"/>
<text text-anchor="middle" x="1404" y="-593.4" font-family="Times Roman,serif" font-size="14.00">ronin_tcp_ports</text>
<polyline fill="none" stroke="black" points="1352,-583 1456,-583 "/>
<text text-anchor="middle" x="1404" y="-566.4" font-family="Times Roman,serif" font-size="14.00">id: Serial</text>
<text text-anchor="middle" x="1404" y="-547.4" font-family="Times Roman,serif" font-size="14.00">protocol: String</text>
<text text-anchor="middle" x="1404" y="-528.4" font-family="Times Roman,serif" font-size="14.00">number: Integer</text>
</g>
<!-- ronin_tcp_ports&#45;&gt;ronin_open_ports -->
<g id="edge42" class="edge"><title>ronin_tcp_ports&#45;&gt;ronin_open_ports</title>
<path fill="none" stroke="blue" d="M1424.17,-517.749C1442.07,-476.72 1468.65,-415.77 1490.31,-366.122"/>
<polygon fill="blue" stroke="blue" points="1493.64,-367.237 1494.43,-356.672 1487.22,-364.439 1493.64,-367.237"/>
<text text-anchor="middle" x="1490" y="-400.9" font-family="Times Roman,serif" font-size="14.00"> 1:m</text>
</g>
<!-- ronin_tcp_ports&#45;&gt;ronin_urls -->
<g id="edge44" class="edge"><title>ronin_tcp_ports&#45;&gt;ronin_urls</title>
<path fill="none" stroke="blue" d="M1385.63,-517.749C1371.35,-481.788 1350.99,-430.523 1332.9,-384.977"/>
<polygon fill="blue" stroke="blue" points="1336.14,-383.654 1329.2,-375.652 1329.63,-386.238 1336.14,-383.654"/>
<text text-anchor="middle" x="1355" y="-400.9" font-family="Times Roman,serif" font-size="14.00"> 1:m</text>
</g>
<!-- ronin_udp_ports&#45;&gt;ronin_open_ports -->
<g id="edge46" class="edge"><title>ronin_udp_ports&#45;&gt;ronin_open_ports</title>
<path fill="none" stroke="blue" d="M1527,-517.749C1527,-476.891 1527,-416.276 1527,-366.742"/>
<polygon fill="blue" stroke="blue" points="1530.5,-366.672 1527,-356.672 1523.5,-366.672 1530.5,-366.672"/>
<text text-anchor="middle" x="1540" y="-400.9" font-family="Times Roman,serif" font-size="14.00"> 1:m</text>
</g>
<!-- ronin_services -->
<g id="node24" class="node"><title>ronin_services</title>
<polygon fill="none" stroke="black" points="1597.5,-527.5 1597.5,-600.5 1692.5,-600.5 1692.5,-527.5 1597.5,-527.5"/>
<text text-anchor="middle" x="1645" y="-583.9" font-family="Times Roman,serif" font-size="14.00">ronin_services</text>
<polyline fill="none" stroke="black" points="1597.5,-573.5 1692.5,-573.5 "/>
<text text-anchor="middle" x="1645" y="-556.9" font-family="Times Roman,serif" font-size="14.00">name: String</text>
<text text-anchor="middle" x="1645" y="-537.9" font-family="Times Roman,serif" font-size="14.00">id: Serial</text>
</g>
<!-- ronin_services&#45;&gt;ronin_open_ports -->
<g id="edge48" class="edge"><title>ronin_services&#45;&gt;ronin_open_ports</title>
<path fill="none" stroke="blue" d="M1629.69,-527.423C1612.69,-486.793 1584.68,-419.846 1562.2,-366.129"/>
<polygon fill="blue" stroke="blue" points="1565.31,-364.478 1558.22,-356.605 1558.85,-367.181 1565.31,-364.478"/>
<text text-anchor="middle" x="1592" y="-400.9" font-family="Times Roman,serif" font-size="14.00"> 1:m</text>
</g>
<!-- ronin_softwares -->
<g id="node25" class="node"><title>ronin_softwares</title>
<polygon fill="none" stroke="black" points="2281.5,-508.5 2281.5,-619.5 2438.5,-619.5 2438.5,-508.5 2281.5,-508.5"/>
<text text-anchor="middle" x="2360" y="-602.9" font-family="Times Roman,serif" font-size="14.00">ronin_softwares</text>
<polyline fill="none" stroke="black" points="2281.5,-592.5 2438.5,-592.5 "/>
<text text-anchor="middle" x="2360" y="-575.9" font-family="Times Roman,serif" font-size="14.00">id: Serial</text>
<text text-anchor="middle" x="2360" y="-556.9" font-family="Times Roman,serif" font-size="14.00">name: String</text>
<text text-anchor="middle" x="2360" y="-537.9" font-family="Times Roman,serif" font-size="14.00">version: String</text>
<text text-anchor="middle" x="2360" y="-518.9" font-family="Times Roman,serif" font-size="14.00">vendor_id: ronin_vendors</text>
</g>
<!-- ronin_vendors -->
<g id="node26" class="node"><title>ronin_vendors</title>
<polygon fill="none" stroke="black" points="2312.5,-800.5 2312.5,-873.5 2407.5,-873.5 2407.5,-800.5 2312.5,-800.5"/>
<text text-anchor="middle" x="2360" y="-856.9" font-family="Times Roman,serif" font-size="14.00">ronin_vendors</text>
<polyline fill="none" stroke="black" points="2312.5,-846.5 2407.5,-846.5 "/>
<text text-anchor="middle" x="2360" y="-829.9" font-family="Times Roman,serif" font-size="14.00">name: String</text>
<text text-anchor="middle" x="2360" y="-810.9" font-family="Times Roman,serif" font-size="14.00">id: Serial</text>
</g>
<!-- ronin_vendors&#45;&gt;ronin_softwares -->
<g id="edge50" class="edge"><title>ronin_vendors&#45;&gt;ronin_softwares</title>
<path fill="none" stroke="blue" d="M2360,-800.465C2360,-756.923 2360,-683.34 2360,-629.8"/>
<polygon fill="blue" stroke="blue" points="2363.5,-629.712 2360,-619.712 2356.5,-629.712 2363.5,-629.712"/>
<text text-anchor="middle" x="2373" y="-720.9" font-family="Times Roman,serif" font-size="14.00"> 1:m</text>
</g>
<!-- ronin_url_schemes -->
<g id="node28" class="node"><title>ronin_url_schemes</title>
<polygon fill="none" stroke="black" points="1214,-527.5 1214,-600.5 1334,-600.5 1334,-527.5 1214,-527.5"/>
<text text-anchor="middle" x="1274" y="-583.9" font-family="Times Roman,serif" font-size="14.00">ronin_url_schemes</text>
<polyline fill="none" stroke="black" points="1214,-573.5 1334,-573.5 "/>
<text text-anchor="middle" x="1274" y="-556.9" font-family="Times Roman,serif" font-size="14.00">name: String</text>
<text text-anchor="middle" x="1274" y="-537.9" font-family="Times Roman,serif" font-size="14.00">id: Serial</text>
</g>
<!-- ronin_url_schemes&#45;&gt;ronin_urls -->
<g id="edge52" class="edge"><title>ronin_url_schemes&#45;&gt;ronin_urls</title>
<path fill="none" stroke="blue" d="M1276.33,-527.423C1278.62,-491.661 1282.2,-435.51 1285.37,-385.937"/>
<polygon fill="blue" stroke="blue" points="1288.87,-385.997 1286.01,-375.794 1281.88,-385.551 1288.87,-385.997"/>
<text text-anchor="middle" x="1298" y="-400.9" font-family="Times Roman,serif" font-size="14.00"> 1:m</text>
</g>
<!-- ronin_url_query_params -->
<g id="node29" class="node"><title>ronin_url_query_params</title>
<polygon fill="none" stroke="black" points="1104.5,-10.5 1104.5,-121.5 1255.5,-121.5 1255.5,-10.5 1104.5,-10.5"/>
<text text-anchor="middle" x="1180" y="-104.9" font-family="Times Roman,serif" font-size="14.00">ronin_url_query_params</text>
<polyline fill="none" stroke="black" points="1104.5,-94.5 1255.5,-94.5 "/>
<text text-anchor="middle" x="1180" y="-77.9" font-family="Times Roman,serif" font-size="14.00">name: String</text>
<text text-anchor="middle" x="1180" y="-58.9" font-family="Times Roman,serif" font-size="14.00">id: Serial</text>
<text text-anchor="middle" x="1180" y="-39.9" font-family="Times Roman,serif" font-size="14.00">value: Text</text>
<text text-anchor="middle" x="1180" y="-20.9" font-family="Times Roman,serif" font-size="14.00">url_id: ronin_urls</text>
</g>
<!-- ronin_urls&#45;&gt;ronin_web_credentials -->
<g id="edge56" class="edge"><title>ronin_urls&#45;&gt;ronin_web_credentials</title>
<path fill="none" stroke="blue" d="M1336.73,-188.202C1344.33,-172.268 1352.12,-155.914 1359.45,-140.561"/>
<polygon fill="blue" stroke="blue" points="1362.79,-141.676 1363.94,-131.143 1356.47,-138.663 1362.79,-141.676"/>
<text text-anchor="middle" x="1366" y="-156.9" font-family="Times Roman,serif" font-size="14.00"> 1:m</text>
</g>
<!-- ronin_urls&#45;&gt;ronin_url_query_params -->
<g id="edge54" class="edge"><title>ronin_urls&#45;&gt;ronin_url_query_params</title>
<path fill="none" stroke="blue" d="M1243.36,-188.202C1233.36,-168.908 1223.04,-148.999 1213.7,-130.996"/>
<polygon fill="blue" stroke="blue" points="1216.63,-129.035 1208.92,-121.769 1210.41,-132.257 1216.63,-129.035"/>
<text text-anchor="middle" x="1246" y="-156.9" font-family="Times Roman,serif" font-size="14.00"> 1:m</text>
</g>
<!-- ronin_user_names -->
<g id="node31" class="node"><title>ronin_user_names</title>
<polygon fill="none" stroke="black" points="1772,-518 1772,-610 1906,-610 1906,-518 1772,-518"/>
<text text-anchor="middle" x="1839" y="-593.4" font-family="Times Roman,serif" font-size="14.00">ronin_user_names</text>
<polyline fill="none" stroke="black" points="1772,-583 1906,-583 "/>
<text text-anchor="middle" x="1839" y="-566.4" font-family="Times Roman,serif" font-size="14.00">name: String</text>
<text text-anchor="middle" x="1839" y="-547.4" font-family="Times Roman,serif" font-size="14.00">id: Serial</text>
<text text-anchor="middle" x="1839" y="-528.4" font-family="Times Roman,serif" font-size="14.00">created_at: DateTime</text>
</g>
<!-- ronin_user_names&#45;&gt;ronin_credentials -->
<g id="edge58" class="edge"><title>ronin_user_names&#45;&gt;ronin_credentials</title>
<path fill="none" stroke="blue" d="M1860.65,-517.749C1883.76,-468.369 1920.39,-390.131 1945.03,-337.473"/>
<polygon fill="blue" stroke="blue" points="1948.27,-338.817 1949.34,-328.276 1941.93,-335.849 1948.27,-338.817"/>
<text text-anchor="middle" x="1930" y="-400.9" font-family="Times Roman,serif" font-size="14.00"> 1:m</text>
</g>
<!-- ronin_user_names&#45;&gt;ronin_email_addresses -->
<g id="edge60" class="edge"><title>ronin_user_names&#45;&gt;ronin_email_addresses</title>
<path fill="none" stroke="blue" d="M1823.75,-517.749C1808.44,-471.339 1784.73,-399.44 1767.52,-347.242"/>
<polygon fill="blue" stroke="blue" points="1770.84,-346.136 1764.38,-337.736 1764.19,-348.329 1770.84,-346.136"/>
<text text-anchor="middle" x="1800" y="-400.9" font-family="Times Roman,serif" font-size="14.00"> 1:m</text>
</g>
<!-- ronin_passwords -->
<g id="node32" class="node"><title>ronin_passwords</title>
<polygon fill="none" stroke="black" points="1924,-527.5 1924,-600.5 2034,-600.5 2034,-527.5 1924,-527.5"/>
<text text-anchor="middle" x="1979" y="-583.9" font-family="Times Roman,serif" font-size="14.00">ronin_passwords</text>
<polyline fill="none" stroke="black" points="1924,-573.5 2034,-573.5 "/>
<text text-anchor="middle" x="1979" y="-556.9" font-family="Times Roman,serif" font-size="14.00">id: Serial</text>
<text text-anchor="middle" x="1979" y="-537.9" font-family="Times Roman,serif" font-size="14.00">clear_text: String</text>
</g>
<!-- ronin_passwords&#45;&gt;ronin_credentials -->
<g id="edge62" class="edge"><title>ronin_passwords&#45;&gt;ronin_credentials</title>
<path fill="none" stroke="blue" d="M1977.96,-527.423C1976.6,-479.441 1974.2,-394.757 1972.6,-338.503"/>
<polygon fill="blue" stroke="blue" points="1976.1,-338.242 1972.31,-328.346 1969.1,-338.441 1976.1,-338.242"/>
<text text-anchor="middle" x="1988" y="-400.9" font-family="Times Roman,serif" font-size="14.00"> 1:m</text>
</g>
</g>
</svg>
