<?xml version="1.0" encoding="UTF-8" standalone="no"?>
<!DOCTYPE svg PUBLIC "-//W3C//DTD SVG 1.1//EN"
 "http://www.w3.org/Graphics/SVG/1.1/DTD/svg11.dtd">
<!-- Generated by graphviz version 2.28.0 (20111211.2114)
 -->
<!-- Title: G Pages: 1 -->
<svg width="2777pt" height="774pt"
 viewBox="0.00 0.00 2777.00 774.00" xmlns="http://www.w3.org/2000/svg" xmlns:xlink="http://www.w3.org/1999/xlink">
<g id="graph1" class="graph" transform="scale(1 1) rotate(0) translate(4 770)">
<title>G</title>
<polygon fill="white" stroke="white" points="-4,5 -4,-770 2774,-770 2774,5 -4,5"/>
<!-- ronin_arches -->
<g id="node1" class="node"><title>ronin_arches</title>
<polygon fill="none" stroke="black" points="-0.5,-651.5 -0.5,-742.5 142.5,-742.5 142.5,-651.5 -0.5,-651.5"/>
<text text-anchor="middle" x="71" y="-727.3" font-family="Times,serif" font-size="14.00">ronin_arches</text>
<polyline fill="none" stroke="black" points="-0.5,-719.5 142.5,-719.5 "/>
<text text-anchor="middle" x="71" y="-704.3" font-family="Times,serif" font-size="14.00">name: String</text>
<text text-anchor="middle" x="71" y="-689.3" font-family="Times,serif" font-size="14.00">id: Serial</text>
<text text-anchor="middle" x="71" y="-674.3" font-family="Times,serif" font-size="14.00">endian: String</text>
<text text-anchor="middle" x="71" y="-659.3" font-family="Times,serif" font-size="14.00">address_length: Integer</text>
</g>
<!-- ronin_addresses -->
<g id="node2" class="node"><title>ronin_addresses</title>
<polygon fill="none" stroke="black" points="125.5,-417 125.5,-523 342.5,-523 342.5,-417 125.5,-417"/>
<text text-anchor="middle" x="234" y="-507.8" font-family="Times,serif" font-size="14.00">ronin_addresses</text>
<polyline fill="none" stroke="black" points="125.5,-500 342.5,-500 "/>
<text text-anchor="middle" x="234" y="-484.8" font-family="Times,serif" font-size="14.00">id: Serial</text>
<text text-anchor="middle" x="234" y="-469.8" font-family="Times,serif" font-size="14.00">type: Discriminator</text>
<text text-anchor="middle" x="234" y="-454.8" font-family="Times,serif" font-size="14.00">address: String</text>
<text text-anchor="middle" x="234" y="-439.8" font-family="Times,serif" font-size="14.00">created_at: DateTime</text>
<text text-anchor="middle" x="234" y="-424.8" font-family="Times,serif" font-size="14.00">organization_id: ronin_organizations</text>
</g>
<!-- ronin_targets -->
<g id="node7" class="node"><title>ronin_targets</title>
<polygon fill="none" stroke="black" points="338,-190.5 338,-281.5 526,-281.5 526,-190.5 338,-190.5"/>
<text text-anchor="middle" x="432" y="-266.3" font-family="Times,serif" font-size="14.00">ronin_targets</text>
<polyline fill="none" stroke="black" points="338,-258.5 526,-258.5 "/>
<text text-anchor="middle" x="432" y="-243.3" font-family="Times,serif" font-size="14.00">id: Serial</text>
<text text-anchor="middle" x="432" y="-228.3" font-family="Times,serif" font-size="14.00">created_at: DateTime</text>
<text text-anchor="middle" x="432" y="-213.3" font-family="Times,serif" font-size="14.00">campaign_id: ronin_campaigns</text>
<text text-anchor="middle" x="432" y="-198.3" font-family="Times,serif" font-size="14.00">address_id: ronin_addresses</text>
</g>
<!-- ronin_addresses&#45;&gt;ronin_targets -->
<g id="edge2" class="edge"><title>ronin_addresses&#45;&gt;ronin_targets</title>
<path fill="none" stroke="blue" d="M278.435,-416.935C310.795,-379.018 354.465,-327.849 386.964,-289.77"/>
<polygon fill="blue" stroke="blue" points="389.891,-291.731 393.721,-281.852 384.567,-287.187 389.891,-291.731"/>
<text text-anchor="middle" x="364" y="-334.3" font-family="Times,serif" font-size="14.00"> 1:m</text>
</g>
<!-- ronin_ip_addresses -->
<g id="node3" class="node"><title>ronin_ip_addresses</title>
<polygon fill="none" stroke="black" points="777.5,-409.5 777.5,-530.5 994.5,-530.5 994.5,-409.5 777.5,-409.5"/>
<text text-anchor="middle" x="886" y="-515.3" font-family="Times,serif" font-size="14.00">ronin_ip_addresses</text>
<polyline fill="none" stroke="black" points="777.5,-507.5 994.5,-507.5 "/>
<text text-anchor="middle" x="886" y="-492.3" font-family="Times,serif" font-size="14.00">id: Serial</text>
<text text-anchor="middle" x="886" y="-477.3" font-family="Times,serif" font-size="14.00">type: Discriminator</text>
<text text-anchor="middle" x="886" y="-462.3" font-family="Times,serif" font-size="14.00">address: IPAddress</text>
<text text-anchor="middle" x="886" y="-447.3" font-family="Times,serif" font-size="14.00">created_at: DateTime</text>
<text text-anchor="middle" x="886" y="-432.3" font-family="Times,serif" font-size="14.00">version: Integer</text>
<text text-anchor="middle" x="886" y="-417.3" font-family="Times,serif" font-size="14.00">organization_id: ronin_organizations</text>
</g>
<!-- ronin_ip_addresses&#45;&gt;ronin_targets -->
<g id="edge4" class="edge"><title>ronin_ip_addresses&#45;&gt;ronin_targets</title>
<path fill="none" stroke="blue" d="M829.645,-409.488C809.913,-392.072 786.516,-374.822 762,-364 705.012,-338.844 683.376,-361.335 623,-346 582.362,-335.678 571.815,-332.066 535,-312 521.856,-304.836 508.463,-296.218 495.871,-287.416"/>
<polygon fill="blue" stroke="blue" points="497.9,-284.564 487.723,-281.618 493.842,-290.267 497.9,-284.564"/>
<text text-anchor="middle" x="636" y="-334.3" font-family="Times,serif" font-size="14.00"> 1:m</text>
</g>
<!-- ronin_host_name_ip_addresses -->
<g id="node14" class="node"><title>ronin_host_name_ip_addresses</title>
<polygon fill="none" stroke="black" points="1012.5,-190.5 1012.5,-281.5 1215.5,-281.5 1215.5,-190.5 1012.5,-190.5"/>
<text text-anchor="middle" x="1114" y="-266.3" font-family="Times,serif" font-size="14.00">ronin_host_name_ip_addresses</text>
<polyline fill="none" stroke="black" points="1012.5,-258.5 1215.5,-258.5 "/>
<text text-anchor="middle" x="1114" y="-243.3" font-family="Times,serif" font-size="14.00">id: Serial</text>
<text text-anchor="middle" x="1114" y="-228.3" font-family="Times,serif" font-size="14.00">created_at: DateTime</text>
<text text-anchor="middle" x="1114" y="-213.3" font-family="Times,serif" font-size="14.00">host_name_id: ronin_host_names</text>
<text text-anchor="middle" x="1114" y="-198.3" font-family="Times,serif" font-size="14.00">ip_address_id: ronin_ip_addresses</text>
</g>
<!-- ronin_ip_addresses&#45;&gt;ronin_host_name_ip_addresses -->
<g id="edge8" class="edge"><title>ronin_ip_addresses&#45;&gt;ronin_host_name_ip_addresses</title>
<path fill="none" stroke="blue" d="M953.902,-409.489C975.532,-389.794 999.228,-367.426 1020,-346 1037.35,-328.104 1055.45,-307.605 1071.08,-289.249"/>
<polygon fill="blue" stroke="blue" points="1073.83,-291.42 1077.62,-281.527 1068.49,-286.897 1073.83,-291.42"/>
<text text-anchor="middle" x="1047" y="-334.3" font-family="Times,serif" font-size="14.00"> 1:m</text>
</g>
<!-- ronin_ip_address_mac_addresses -->
<g id="node15" class="node"><title>ronin_ip_address_mac_addresses</title>
<polygon fill="none" stroke="black" points="544.5,-190.5 544.5,-281.5 773.5,-281.5 773.5,-190.5 544.5,-190.5"/>
<text text-anchor="middle" x="659" y="-266.3" font-family="Times,serif" font-size="14.00">ronin_ip_address_mac_addresses</text>
<polyline fill="none" stroke="black" points="544.5,-258.5 773.5,-258.5 "/>
<text text-anchor="middle" x="659" y="-243.3" font-family="Times,serif" font-size="14.00">id: Serial</text>
<text text-anchor="middle" x="659" y="-228.3" font-family="Times,serif" font-size="14.00">created_at: DateTime</text>
<text text-anchor="middle" x="659" y="-213.3" font-family="Times,serif" font-size="14.00">ip_address_id: ronin_ip_addresses</text>
<text text-anchor="middle" x="659" y="-198.3" font-family="Times,serif" font-size="14.00">mac_address_id: ronin_mac_addresses</text>
</g>
<!-- ronin_ip_addresses&#45;&gt;ronin_ip_address_mac_addresses -->
<g id="edge6" class="edge"><title>ronin_ip_addresses&#45;&gt;ronin_ip_address_mac_addresses</title>
<path fill="none" stroke="blue" d="M827.542,-409.254C791.118,-372.028 744.714,-324.602 709.823,-288.942"/>
<polygon fill="blue" stroke="blue" points="712.055,-286.219 702.56,-281.52 707.052,-291.115 712.055,-286.219"/>
<text text-anchor="middle" x="772" y="-334.3" font-family="Times,serif" font-size="14.00"> 1:m</text>
</g>
<!-- ronin_open_ports -->
<g id="node17" class="node"><title>ronin_open_ports</title>
<polygon fill="none" stroke="black" points="2114.5,-175.5 2114.5,-296.5 2317.5,-296.5 2317.5,-175.5 2114.5,-175.5"/>
<text text-anchor="middle" x="2216" y="-281.3" font-family="Times,serif" font-size="14.00">ronin_open_ports</text>
<polyline fill="none" stroke="black" points="2114.5,-273.5 2317.5,-273.5 "/>
<text text-anchor="middle" x="2216" y="-258.3" font-family="Times,serif" font-size="14.00">id: Serial</text>
<text text-anchor="middle" x="2216" y="-243.3" font-family="Times,serif" font-size="14.00">last_scanned_at: Time</text>
<text text-anchor="middle" x="2216" y="-228.3" font-family="Times,serif" font-size="14.00">created_at: DateTime</text>
<text text-anchor="middle" x="2216" y="-213.3" font-family="Times,serif" font-size="14.00">ip_address_id: ronin_ip_addresses</text>
<text text-anchor="middle" x="2216" y="-198.3" font-family="Times,serif" font-size="14.00">port_id: ronin_ports</text>
<text text-anchor="middle" x="2216" y="-183.3" font-family="Times,serif" font-size="14.00">service_id: ronin_services</text>
</g>
<!-- ronin_ip_addresses&#45;&gt;ronin_open_ports -->
<g id="edge10" class="edge"><title>ronin_ip_addresses&#45;&gt;ronin_open_ports</title>
<path fill="none" stroke="blue" d="M936.545,-409.316C955.374,-391.318 978.245,-373.762 1003,-364 1096.98,-326.943 1814.07,-370.81 1912,-346 1927.03,-342.192 1928.27,-334.826 1943,-330 1991.75,-314.033 2007.98,-327.094 2057,-312 2072.85,-307.12 2089.13,-300.933 2104.95,-294.213"/>
<polygon fill="blue" stroke="blue" points="2106.43,-297.39 2114.21,-290.201 2103.64,-290.968 2106.43,-297.39"/>
<text text-anchor="middle" x="1956" y="-334.3" font-family="Times,serif" font-size="14.00"> 1:m</text>
</g>
<!-- ronin_os_guesses -->
<g id="node19" class="node"><title>ronin_os_guesses</title>
<polygon fill="none" stroke="black" points="791.5,-190.5 791.5,-281.5 994.5,-281.5 994.5,-190.5 791.5,-190.5"/>
<text text-anchor="middle" x="893" y="-266.3" font-family="Times,serif" font-size="14.00">ronin_os_guesses</text>
<polyline fill="none" stroke="black" points="791.5,-258.5 994.5,-258.5 "/>
<text text-anchor="middle" x="893" y="-243.3" font-family="Times,serif" font-size="14.00">id: Serial</text>
<text text-anchor="middle" x="893" y="-228.3" font-family="Times,serif" font-size="14.00">created_at: DateTime</text>
<text text-anchor="middle" x="893" y="-213.3" font-family="Times,serif" font-size="14.00">ip_address_id: ronin_ip_addresses</text>
<text text-anchor="middle" x="893" y="-198.3" font-family="Times,serif" font-size="14.00">os_id: ronin_os</text>
</g>
<!-- ronin_ip_addresses&#45;&gt;ronin_os_guesses -->
<g id="edge12" class="edge"><title>ronin_ip_addresses&#45;&gt;ronin_os_guesses</title>
<path fill="none" stroke="blue" d="M887.803,-409.254C888.898,-372.962 890.285,-326.977 891.351,-291.65"/>
<polygon fill="blue" stroke="blue" points="894.853,-291.621 891.657,-281.52 887.857,-291.409 894.853,-291.621"/>
<text text-anchor="middle" x="904" y="-334.3" font-family="Times,serif" font-size="14.00"> 1:m</text>
</g>
<!-- ronin_host_names -->
<g id="node4" class="node"><title>ronin_host_names</title>
<polygon fill="none" stroke="black" points="1183.5,-417 1183.5,-523 1400.5,-523 1400.5,-417 1183.5,-417"/>
<text text-anchor="middle" x="1292" y="-507.8" font-family="Times,serif" font-size="14.00">ronin_host_names</text>
<polyline fill="none" stroke="black" points="1183.5,-500 1400.5,-500 "/>
<text text-anchor="middle" x="1292" y="-484.8" font-family="Times,serif" font-size="14.00">id: Serial</text>
<text text-anchor="middle" x="1292" y="-469.8" font-family="Times,serif" font-size="14.00">type: Discriminator</text>
<text text-anchor="middle" x="1292" y="-454.8" font-family="Times,serif" font-size="14.00">address: String</text>
<text text-anchor="middle" x="1292" y="-439.8" font-family="Times,serif" font-size="14.00">created_at: DateTime</text>
<text text-anchor="middle" x="1292" y="-424.8" font-family="Times,serif" font-size="14.00">organization_id: ronin_organizations</text>
</g>
<!-- ronin_host_names&#45;&gt;ronin_targets -->
<g id="edge14" class="edge"><title>ronin_host_names&#45;&gt;ronin_targets</title>
<path fill="none" stroke="blue" d="M1227.04,-416.869C1183.64,-385.336 1123.74,-347.875 1064,-330 951.313,-296.281 646.212,-350.303 535,-312 518.828,-306.43 503.028,-297.382 488.852,-287.466"/>
<polygon fill="blue" stroke="blue" points="490.85,-284.592 480.702,-281.547 486.736,-290.255 490.85,-284.592"/>
<text text-anchor="middle" x="1118" y="-334.3" font-family="Times,serif" font-size="14.00"> 1:m</text>
</g>
<!-- ronin_email_addresses -->
<g id="node13" class="node"><title>ronin_email_addresses</title>
<polygon fill="none" stroke="black" points="1234,-190.5 1234,-281.5 1434,-281.5 1434,-190.5 1234,-190.5"/>
<text text-anchor="middle" x="1334" y="-266.3" font-family="Times,serif" font-size="14.00">ronin_email_addresses</text>
<polyline fill="none" stroke="black" points="1234,-258.5 1434,-258.5 "/>
<text text-anchor="middle" x="1334" y="-243.3" font-family="Times,serif" font-size="14.00">id: Serial</text>
<text text-anchor="middle" x="1334" y="-228.3" font-family="Times,serif" font-size="14.00">created_at: DateTime</text>
<text text-anchor="middle" x="1334" y="-213.3" font-family="Times,serif" font-size="14.00">user_name_id: ronin_user_names</text>
<text text-anchor="middle" x="1334" y="-198.3" font-family="Times,serif" font-size="14.00">host_name_id: ronin_host_names</text>
</g>
<!-- ronin_host_names&#45;&gt;ronin_email_addresses -->
<g id="edge18" class="edge"><title>ronin_host_names&#45;&gt;ronin_email_addresses</title>
<path fill="none" stroke="blue" d="M1301.43,-416.935C1308.17,-379.653 1317.24,-329.558 1324.1,-291.693"/>
<polygon fill="blue" stroke="blue" points="1327.54,-292.316 1325.88,-281.852 1320.65,-291.069 1327.54,-292.316"/>
<text text-anchor="middle" x="1330" y="-334.3" font-family="Times,serif" font-size="14.00"> 1:m</text>
</g>
<!-- ronin_host_names&#45;&gt;ronin_host_name_ip_addresses -->
<g id="edge16" class="edge"><title>ronin_host_names&#45;&gt;ronin_host_name_ip_addresses</title>
<path fill="none" stroke="blue" d="M1261.94,-416.872C1245.66,-390.065 1224.52,-357.365 1203,-330 1192.14,-316.197 1179.57,-302.106 1167.35,-289.203"/>
<polygon fill="blue" stroke="blue" points="1169.66,-286.554 1160.21,-281.755 1164.6,-291.397 1169.66,-286.554"/>
<text text-anchor="middle" x="1227" y="-334.3" font-family="Times,serif" font-size="14.00"> 1:m</text>
</g>
<!-- ronin_urls -->
<g id="node32" class="node"><title>ronin_urls</title>
<polygon fill="none" stroke="black" points="1848,-160.5 1848,-311.5 2048,-311.5 2048,-160.5 1848,-160.5"/>
<text text-anchor="middle" x="1948" y="-296.3" font-family="Times,serif" font-size="14.00">ronin_urls</text>
<polyline fill="none" stroke="black" points="1848,-288.5 2048,-288.5 "/>
<text text-anchor="middle" x="1948" y="-273.3" font-family="Times,serif" font-size="14.00">id: Serial</text>
<text text-anchor="middle" x="1948" y="-258.3" font-family="Times,serif" font-size="14.00">path: String</text>
<text text-anchor="middle" x="1948" y="-243.3" font-family="Times,serif" font-size="14.00">fragment: String</text>
<text text-anchor="middle" x="1948" y="-228.3" font-family="Times,serif" font-size="14.00">last_scanned_at: Time</text>
<text text-anchor="middle" x="1948" y="-213.3" font-family="Times,serif" font-size="14.00">created_at: DateTime</text>
<text text-anchor="middle" x="1948" y="-198.3" font-family="Times,serif" font-size="14.00">scheme_id: ronin_url_schemes</text>
<text text-anchor="middle" x="1948" y="-183.3" font-family="Times,serif" font-size="14.00">host_name_id: ronin_host_names</text>
<text text-anchor="middle" x="1948" y="-168.3" font-family="Times,serif" font-size="14.00">port_id: ronin_tcp_ports</text>
</g>
<!-- ronin_host_names&#45;&gt;ronin_urls -->
<g id="edge20" class="edge"><title>ronin_host_names&#45;&gt;ronin_urls</title>
<path fill="none" stroke="blue" d="M1373.59,-416.861C1407.48,-397.422 1447.95,-376.954 1487,-364 1634.02,-315.229 1689.54,-367.636 1838.49,-311.845"/>
<polygon fill="blue" stroke="blue" points="1839.89,-315.055 1847.97,-308.197 1837.38,-308.522 1839.89,-315.055"/>
<text text-anchor="middle" x="1796" y="-334.3" font-family="Times,serif" font-size="14.00"> 1:m</text>
</g>
<!-- ronin_mac_addresses -->
<g id="node5" class="node"><title>ronin_mac_addresses</title>
<polygon fill="none" stroke="black" points="536.5,-417 536.5,-523 753.5,-523 753.5,-417 536.5,-417"/>
<text text-anchor="middle" x="645" y="-507.8" font-family="Times,serif" font-size="14.00">ronin_mac_addresses</text>
<polyline fill="none" stroke="black" points="536.5,-500 753.5,-500 "/>
<text text-anchor="middle" x="645" y="-484.8" font-family="Times,serif" font-size="14.00">id: Serial</text>
<text text-anchor="middle" x="645" y="-469.8" font-family="Times,serif" font-size="14.00">type: Discriminator</text>
<text text-anchor="middle" x="645" y="-454.8" font-family="Times,serif" font-size="14.00">address: String</text>
<text text-anchor="middle" x="645" y="-439.8" font-family="Times,serif" font-size="14.00">created_at: DateTime</text>
<text text-anchor="middle" x="645" y="-424.8" font-family="Times,serif" font-size="14.00">organization_id: ronin_organizations</text>
</g>
<!-- ronin_mac_addresses&#45;&gt;ronin_targets -->
<g id="edge22" class="edge"><title>ronin_mac_addresses&#45;&gt;ronin_targets</title>
<path fill="none" stroke="blue" d="M597.199,-416.935C562.242,-378.86 515.015,-327.42 480.01,-289.292"/>
<polygon fill="blue" stroke="blue" points="482.52,-286.851 473.179,-281.852 477.364,-291.586 482.52,-286.851"/>
<text text-anchor="middle" x="539" y="-334.3" font-family="Times,serif" font-size="14.00"> 1:m</text>
</g>
<!-- ronin_mac_addresses&#45;&gt;ronin_ip_address_mac_addresses -->
<g id="edge24" class="edge"><title>ronin_mac_addresses&#45;&gt;ronin_ip_address_mac_addresses</title>
<path fill="none" stroke="blue" d="M648.142,-416.935C650.382,-379.812 653.389,-329.984 655.67,-292.177"/>
<polygon fill="blue" stroke="blue" points="659.185,-292.045 656.293,-281.852 652.197,-291.623 659.185,-292.045"/>
<text text-anchor="middle" x="667" y="-334.3" font-family="Times,serif" font-size="14.00"> 1:m</text>
</g>
<!-- ronin_authors -->
<g id="node6" class="node"><title>ronin_authors</title>
<polygon fill="none" stroke="black" points="1322.5,-629 1322.5,-765 1447.5,-765 1447.5,-629 1322.5,-629"/>
<text text-anchor="middle" x="1385" y="-749.8" font-family="Times,serif" font-size="14.00">ronin_authors</text>
<polyline fill="none" stroke="black" points="1322.5,-742 1447.5,-742 "/>
<text text-anchor="middle" x="1385" y="-726.8" font-family="Times,serif" font-size="14.00">name: String</text>
<text text-anchor="middle" x="1385" y="-711.8" font-family="Times,serif" font-size="14.00">id: Serial</text>
<text text-anchor="middle" x="1385" y="-696.8" font-family="Times,serif" font-size="14.00">organization: String</text>
<text text-anchor="middle" x="1385" y="-681.8" font-family="Times,serif" font-size="14.00">pgp_signature: Text</text>
<text text-anchor="middle" x="1385" y="-666.8" font-family="Times,serif" font-size="14.00">email: String</text>
<text text-anchor="middle" x="1385" y="-651.8" font-family="Times,serif" font-size="14.00">site: URI</text>
<text text-anchor="middle" x="1385" y="-636.8" font-family="Times,serif" font-size="14.00">biography: Text</text>
</g>
<!-- ronin_campaigns -->
<g id="node8" class="node"><title>ronin_campaigns</title>
<polygon fill="none" stroke="black" points="360.5,-417 360.5,-523 507.5,-523 507.5,-417 360.5,-417"/>
<text text-anchor="middle" x="434" y="-507.8" font-family="Times,serif" font-size="14.00">ronin_campaigns</text>
<polyline fill="none" stroke="black" points="360.5,-500 507.5,-500 "/>
<text text-anchor="middle" x="434" y="-484.8" font-family="Times,serif" font-size="14.00">name: String</text>
<text text-anchor="middle" x="434" y="-469.8" font-family="Times,serif" font-size="14.00">description: Description</text>
<text text-anchor="middle" x="434" y="-454.8" font-family="Times,serif" font-size="14.00">id: Serial</text>
<text text-anchor="middle" x="434" y="-439.8" font-family="Times,serif" font-size="14.00">created_at: DateTime</text>
<text text-anchor="middle" x="434" y="-424.8" font-family="Times,serif" font-size="14.00">updated_at: DateTime</text>
</g>
<!-- ronin_campaigns&#45;&gt;ronin_targets -->
<g id="edge26" class="edge"><title>ronin_campaigns&#45;&gt;ronin_targets</title>
<path fill="none" stroke="blue" d="M433.551,-416.935C433.231,-379.812 432.802,-329.984 432.476,-292.177"/>
<polygon fill="blue" stroke="blue" points="435.973,-291.822 432.387,-281.852 428.973,-291.882 435.973,-291.822"/>
<text text-anchor="middle" x="446" y="-334.3" font-family="Times,serif" font-size="14.00"> 1:m</text>
</g>
<!-- ronin_credentials -->
<g id="node9" class="node"><title>ronin_credentials</title>
<polygon fill="none" stroke="black" points="1353,-8.5 1353,-99.5 1597,-99.5 1597,-8.5 1353,-8.5"/>
<text text-anchor="middle" x="1475" y="-84.3" font-family="Times,serif" font-size="14.00">ronin_credentials</text>
<polyline fill="none" stroke="black" points="1353,-76.5 1597,-76.5 "/>
<text text-anchor="middle" x="1475" y="-61.3" font-family="Times,serif" font-size="14.00">id: Serial</text>
<text text-anchor="middle" x="1475" y="-46.3" font-family="Times,serif" font-size="14.00">user_name_id: ronin_user_names</text>
<text text-anchor="middle" x="1475" y="-31.3" font-family="Times,serif" font-size="14.00">email_address_id: ronin_email_addresses</text>
<text text-anchor="middle" x="1475" y="-16.3" font-family="Times,serif" font-size="14.00">password_id: ronin_passwords</text>
</g>
<!-- ronin_service_credentials -->
<g id="node10" class="node"><title>ronin_service_credentials</title>
<polygon fill="none" stroke="black" points="2137,-1 2137,-107 2381,-107 2381,-1 2137,-1"/>
<text text-anchor="middle" x="2259" y="-91.8" font-family="Times,serif" font-size="14.00">ronin_service_credentials</text>
<polyline fill="none" stroke="black" points="2137,-84 2381,-84 "/>
<text text-anchor="middle" x="2259" y="-68.8" font-family="Times,serif" font-size="14.00">id: Serial</text>
<text text-anchor="middle" x="2259" y="-53.8" font-family="Times,serif" font-size="14.00">user_name_id: ronin_user_names</text>
<text text-anchor="middle" x="2259" y="-38.8" font-family="Times,serif" font-size="14.00">email_address_id: ronin_email_addresses</text>
<text text-anchor="middle" x="2259" y="-23.8" font-family="Times,serif" font-size="14.00">password_id: ronin_passwords</text>
<text text-anchor="middle" x="2259" y="-8.8" font-family="Times,serif" font-size="14.00">open_port_id: ronin_open_ports</text>
</g>
<!-- ronin_web_credentials -->
<g id="node11" class="node"><title>ronin_web_credentials</title>
<polygon fill="none" stroke="black" points="1875,-1 1875,-107 2119,-107 2119,-1 1875,-1"/>
<text text-anchor="middle" x="1997" y="-91.8" font-family="Times,serif" font-size="14.00">ronin_web_credentials</text>
<polyline fill="none" stroke="black" points="1875,-84 2119,-84 "/>
<text text-anchor="middle" x="1997" y="-68.8" font-family="Times,serif" font-size="14.00">id: Serial</text>
<text text-anchor="middle" x="1997" y="-53.8" font-family="Times,serif" font-size="14.00">user_name_id: ronin_user_names</text>
<text text-anchor="middle" x="1997" y="-38.8" font-family="Times,serif" font-size="14.00">email_address_id: ronin_email_addresses</text>
<text text-anchor="middle" x="1997" y="-23.8" font-family="Times,serif" font-size="14.00">password_id: ronin_passwords</text>
<text text-anchor="middle" x="1997" y="-8.8" font-family="Times,serif" font-size="14.00">url_id: ronin_urls</text>
</g>
<!-- ronin_user_names -->
<g id="node12" class="node"><title>ronin_user_names</title>
<polygon fill="none" stroke="black" points="1496,-432 1496,-508 1630,-508 1630,-432 1496,-432"/>
<text text-anchor="middle" x="1563" y="-492.8" font-family="Times,serif" font-size="14.00">ronin_user_names</text>
<polyline fill="none" stroke="black" points="1496,-485 1630,-485 "/>
<text text-anchor="middle" x="1563" y="-469.8" font-family="Times,serif" font-size="14.00">name: String</text>
<text text-anchor="middle" x="1563" y="-454.8" font-family="Times,serif" font-size="14.00">id: Serial</text>
<text text-anchor="middle" x="1563" y="-439.8" font-family="Times,serif" font-size="14.00">created_at: DateTime</text>
</g>
<!-- ronin_user_names&#45;&gt;ronin_credentials -->
<g id="edge28" class="edge"><title>ronin_user_names&#45;&gt;ronin_credentials</title>
<path fill="none" stroke="blue" d="M1573.6,-431.904C1588.7,-371.907 1610.44,-251.11 1571,-160 1562.65,-140.715 1549.25,-122.651 1535.08,-107.127"/>
<polygon fill="blue" stroke="blue" points="1537.49,-104.581 1528.07,-99.7155 1532.4,-109.388 1537.49,-104.581"/>
<text text-anchor="middle" x="1607" y="-232.3" font-family="Times,serif" font-size="14.00"> 1:m</text>
</g>
<!-- ronin_user_names&#45;&gt;ronin_email_addresses -->
<g id="edge30" class="edge"><title>ronin_user_names&#45;&gt;ronin_email_addresses</title>
<path fill="none" stroke="blue" d="M1526.46,-431.982C1488.38,-393.405 1428.4,-332.632 1385.52,-289.191"/>
<polygon fill="blue" stroke="blue" points="1387.77,-286.492 1378.25,-281.833 1382.79,-291.409 1387.77,-286.492"/>
<text text-anchor="middle" x="1448" y="-334.3" font-family="Times,serif" font-size="14.00"> 1:m</text>
</g>
<!-- ronin_email_addresses&#45;&gt;ronin_credentials -->
<g id="edge32" class="edge"><title>ronin_email_addresses&#45;&gt;ronin_credentials</title>
<path fill="none" stroke="blue" d="M1369.22,-190.043C1388.81,-165.035 1413.29,-133.776 1433.77,-107.633"/>
<polygon fill="blue" stroke="blue" points="1436.58,-109.726 1439.99,-99.6958 1431.07,-105.41 1436.58,-109.726"/>
<text text-anchor="middle" x="1431" y="-130.3" font-family="Times,serif" font-size="14.00"> 1:m</text>
</g>
<!-- ronin_licenses -->
<g id="node16" class="node"><title>ronin_licenses</title>
<polygon fill="none" stroke="black" points="2461.5,-651.5 2461.5,-742.5 2570.5,-742.5 2570.5,-651.5 2461.5,-651.5"/>
<text text-anchor="middle" x="2516" y="-727.3" font-family="Times,serif" font-size="14.00">ronin_licenses</text>
<polyline fill="none" stroke="black" points="2461.5,-719.5 2570.5,-719.5 "/>
<text text-anchor="middle" x="2516" y="-704.3" font-family="Times,serif" font-size="14.00">name: String</text>
<text text-anchor="middle" x="2516" y="-689.3" font-family="Times,serif" font-size="14.00">id: Serial</text>
<text text-anchor="middle" x="2516" y="-674.3" font-family="Times,serif" font-size="14.00">description: Text</text>
<text text-anchor="middle" x="2516" y="-659.3" font-family="Times,serif" font-size="14.00">url: URI</text>
</g>
<!-- ronin_repositories -->
<g id="node22" class="node"><title>ronin_repositories</title>
<polygon fill="none" stroke="black" points="2437.5,-364.5 2437.5,-575.5 2594.5,-575.5 2594.5,-364.5 2437.5,-364.5"/>
<text text-anchor="middle" x="2516" y="-560.3" font-family="Times,serif" font-size="14.00">ronin_repositories</text>
<polyline fill="none" stroke="black" points="2437.5,-552.5 2594.5,-552.5 "/>
<text text-anchor="middle" x="2516" y="-537.3" font-family="Times,serif" font-size="14.00">name: String</text>
<text text-anchor="middle" x="2516" y="-522.3" font-family="Times,serif" font-size="14.00">title: Text</text>
<text text-anchor="middle" x="2516" y="-507.3" font-family="Times,serif" font-size="14.00">description: Text</text>
<text text-anchor="middle" x="2516" y="-492.3" font-family="Times,serif" font-size="14.00">id: Serial</text>
<text text-anchor="middle" x="2516" y="-477.3" font-family="Times,serif" font-size="14.00">scm: String</text>
<text text-anchor="middle" x="2516" y="-462.3" font-family="Times,serif" font-size="14.00">path: FilePath</text>
<text text-anchor="middle" x="2516" y="-447.3" font-family="Times,serif" font-size="14.00">uri: URI</text>
<text text-anchor="middle" x="2516" y="-432.3" font-family="Times,serif" font-size="14.00">installed: Boolean</text>
<text text-anchor="middle" x="2516" y="-417.3" font-family="Times,serif" font-size="14.00">domain: String</text>
<text text-anchor="middle" x="2516" y="-402.3" font-family="Times,serif" font-size="14.00">source: URI</text>
<text text-anchor="middle" x="2516" y="-387.3" font-family="Times,serif" font-size="14.00">website: URI</text>
<text text-anchor="middle" x="2516" y="-372.3" font-family="Times,serif" font-size="14.00">license_id: ronin_licenses</text>
</g>
<!-- ronin_licenses&#45;&gt;ronin_repositories -->
<g id="edge34" class="edge"><title>ronin_licenses&#45;&gt;ronin_repositories</title>
<path fill="none" stroke="blue" d="M2516,-651.278C2516,-632.3 2516,-609.219 2516,-585.996"/>
<polygon fill="blue" stroke="blue" points="2519.5,-585.689 2516,-575.689 2512.5,-585.689 2519.5,-585.689"/>
<text text-anchor="middle" x="2529" y="-598.3" font-family="Times,serif" font-size="14.00"> 1:m</text>
</g>
<!-- ronin_open_ports&#45;&gt;ronin_service_credentials -->
<g id="edge36" class="edge"><title>ronin_open_ports&#45;&gt;ronin_service_credentials</title>
<path fill="none" stroke="blue" d="M2230.32,-175.063C2234.77,-156.424 2239.69,-135.843 2244.17,-117.063"/>
<polygon fill="blue" stroke="blue" points="2247.63,-117.673 2246.55,-107.133 2240.82,-116.046 2247.63,-117.673"/>
<text text-anchor="middle" x="2255" y="-130.3" font-family="Times,serif" font-size="14.00"> 1:m</text>
</g>
<!-- ronin_organizations -->
<g id="node18" class="node"><title>ronin_organizations</title>
<polygon fill="none" stroke="black" points="160.5,-651.5 160.5,-742.5 307.5,-742.5 307.5,-651.5 160.5,-651.5"/>
<text text-anchor="middle" x="234" y="-727.3" font-family="Times,serif" font-size="14.00">ronin_organizations</text>
<polyline fill="none" stroke="black" points="160.5,-719.5 307.5,-719.5 "/>
<text text-anchor="middle" x="234" y="-704.3" font-family="Times,serif" font-size="14.00">name: String</text>
<text text-anchor="middle" x="234" y="-689.3" font-family="Times,serif" font-size="14.00">description: Description</text>
<text text-anchor="middle" x="234" y="-674.3" font-family="Times,serif" font-size="14.00">id: Serial</text>
<text text-anchor="middle" x="234" y="-659.3" font-family="Times,serif" font-size="14.00">created_at: DateTime</text>
</g>
<!-- ronin_organizations&#45;&gt;ronin_addresses -->
<g id="edge38" class="edge"><title>ronin_organizations&#45;&gt;ronin_addresses</title>
<path fill="none" stroke="blue" d="M234,-651.278C234,-617.541 234,-570.838 234,-533.421"/>
<polygon fill="blue" stroke="blue" points="237.5,-533.132 234,-523.132 230.5,-533.132 237.5,-533.132"/>
<text text-anchor="middle" x="247" y="-598.3" font-family="Times,serif" font-size="14.00"> 1:m</text>
</g>
<!-- ronin_os -->
<g id="node20" class="node"><title>ronin_os</title>
<polygon fill="none" stroke="black" points="1012.5,-432 1012.5,-508 1109.5,-508 1109.5,-432 1012.5,-432"/>
<text text-anchor="middle" x="1061" y="-492.8" font-family="Times,serif" font-size="14.00">ronin_os</text>
<polyline fill="none" stroke="black" points="1012.5,-485 1109.5,-485 "/>
<text text-anchor="middle" x="1061" y="-469.8" font-family="Times,serif" font-size="14.00">name: String</text>
<text text-anchor="middle" x="1061" y="-454.8" font-family="Times,serif" font-size="14.00">id: Serial</text>
<text text-anchor="middle" x="1061" y="-439.8" font-family="Times,serif" font-size="14.00">version: String</text>
</g>
<!-- ronin_os&#45;&gt;ronin_os_guesses -->
<g id="edge40" class="edge"><title>ronin_os&#45;&gt;ronin_os_guesses</title>
<path fill="none" stroke="blue" d="M1042.94,-431.917C1032.3,-411.291 1018.02,-385.519 1003,-364 984.933,-338.108 962.48,-311.407 942.579,-289.211"/>
<polygon fill="blue" stroke="blue" points="944.96,-286.626 935.657,-281.556 939.768,-291.321 944.96,-286.626"/>
<text text-anchor="middle" x="1003" y="-334.3" font-family="Times,serif" font-size="14.00"> 1:m</text>
</g>
<!-- ronin_script_paths -->
<g id="node21" class="node"><title>ronin_script_paths</title>
<polygon fill="none" stroke="black" points="2419,-183 2419,-289 2613,-289 2613,-183 2419,-183"/>
<text text-anchor="middle" x="2516" y="-273.8" font-family="Times,serif" font-size="14.00">ronin_script_paths</text>
<polyline fill="none" stroke="black" points="2419,-266 2613,-266 "/>
<text text-anchor="middle" x="2516" y="-250.8" font-family="Times,serif" font-size="14.00">id: Serial</text>
<text text-anchor="middle" x="2516" y="-235.8" font-family="Times,serif" font-size="14.00">path: FilePath</text>
<text text-anchor="middle" x="2516" y="-220.8" font-family="Times,serif" font-size="14.00">timestamp: Time</text>
<text text-anchor="middle" x="2516" y="-205.8" font-family="Times,serif" font-size="14.00">class_name: String</text>
<text text-anchor="middle" x="2516" y="-190.8" font-family="Times,serif" font-size="14.00">repository_id: ronin_repositories</text>
</g>
<!-- ronin_repositories&#45;&gt;ronin_script_paths -->
<g id="edge42" class="edge"><title>ronin_repositories&#45;&gt;ronin_script_paths</title>
<path fill="none" stroke="blue" d="M2516,-364.199C2516,-342.01 2516,-319.268 2516,-299.263"/>
<polygon fill="blue" stroke="blue" points="2519.5,-299.069 2516,-289.069 2512.5,-299.069 2519.5,-299.069"/>
<text text-anchor="middle" x="2529" y="-334.3" font-family="Times,serif" font-size="14.00"> 1:m</text>
</g>
<!-- ronin_ports -->
<g id="node23" class="node"><title>ronin_ports</title>
<polygon fill="none" stroke="black" points="2191,-432 2191,-508 2295,-508 2295,-432 2191,-432"/>
<text text-anchor="middle" x="2243" y="-492.8" font-family="Times,serif" font-size="14.00">ronin_ports</text>
<polyline fill="none" stroke="black" points="2191,-485 2295,-485 "/>
<text text-anchor="middle" x="2243" y="-469.8" font-family="Times,serif" font-size="14.00">id: Serial</text>
<text text-anchor="middle" x="2243" y="-454.8" font-family="Times,serif" font-size="14.00">protocol: String</text>
<text text-anchor="middle" x="2243" y="-439.8" font-family="Times,serif" font-size="14.00">number: Integer</text>
</g>
<!-- ronin_ports&#45;&gt;ronin_open_ports -->
<g id="edge44" class="edge"><title>ronin_ports&#45;&gt;ronin_open_ports</title>
<path fill="none" stroke="blue" d="M2238.69,-431.982C2234.79,-398.418 2228.92,-348.052 2224.14,-306.918"/>
<polygon fill="blue" stroke="blue" points="2227.61,-306.474 2222.98,-296.946 2220.66,-307.284 2227.61,-306.474"/>
<text text-anchor="middle" x="2241" y="-334.3" font-family="Times,serif" font-size="14.00"> 1:m</text>
</g>
<!-- ronin_tcp_ports -->
<g id="node24" class="node"><title>ronin_tcp_ports</title>
<polygon fill="none" stroke="black" points="1955,-432 1955,-508 2059,-508 2059,-432 1955,-432"/>
<text text-anchor="middle" x="2007" y="-492.8" font-family="Times,serif" font-size="14.00">ronin_tcp_ports</text>
<polyline fill="none" stroke="black" points="1955,-485 2059,-485 "/>
<text text-anchor="middle" x="2007" y="-469.8" font-family="Times,serif" font-size="14.00">id: Serial</text>
<text text-anchor="middle" x="2007" y="-454.8" font-family="Times,serif" font-size="14.00">protocol: String</text>
<text text-anchor="middle" x="2007" y="-439.8" font-family="Times,serif" font-size="14.00">number: Integer</text>
</g>
<!-- ronin_tcp_ports&#45;&gt;ronin_open_ports -->
<g id="edge46" class="edge"><title>ronin_tcp_ports&#45;&gt;ronin_open_ports</title>
<path fill="none" stroke="blue" d="M2024.81,-431.563C2035.73,-410.584 2050.88,-384.582 2068,-364 2085.84,-342.558 2107.52,-321.764 2128.73,-303.422"/>
<polygon fill="blue" stroke="blue" points="2131.18,-305.933 2136.52,-296.779 2126.64,-300.609 2131.18,-305.933"/>
<text text-anchor="middle" x="2110" y="-334.3" font-family="Times,serif" font-size="14.00"> 1:m</text>
</g>
<!-- ronin_tcp_ports&#45;&gt;ronin_urls -->
<g id="edge48" class="edge"><title>ronin_tcp_ports&#45;&gt;ronin_urls</title>
<path fill="none" stroke="blue" d="M1997.59,-431.982C1990.06,-402.389 1979.21,-359.734 1969.58,-321.862"/>
<polygon fill="blue" stroke="blue" points="1972.89,-320.665 1967.03,-311.836 1966.1,-322.39 1972.89,-320.665"/>
<text text-anchor="middle" x="1987" y="-334.3" font-family="Times,serif" font-size="14.00"> 1:m</text>
</g>
<!-- ronin_udp_ports -->
<g id="node25" class="node"><title>ronin_udp_ports</title>
<polygon fill="none" stroke="black" points="2313,-432 2313,-508 2419,-508 2419,-432 2313,-432"/>
<text text-anchor="middle" x="2366" y="-492.8" font-family="Times,serif" font-size="14.00">ronin_udp_ports</text>
<polyline fill="none" stroke="black" points="2313,-485 2419,-485 "/>
<text text-anchor="middle" x="2366" y="-469.8" font-family="Times,serif" font-size="14.00">id: Serial</text>
<text text-anchor="middle" x="2366" y="-454.8" font-family="Times,serif" font-size="14.00">protocol: String</text>
<text text-anchor="middle" x="2366" y="-439.8" font-family="Times,serif" font-size="14.00">number: Integer</text>
</g>
<!-- ronin_udp_ports&#45;&gt;ronin_open_ports -->
<g id="edge50" class="edge"><title>ronin_udp_ports&#45;&gt;ronin_open_ports</title>
<path fill="none" stroke="blue" d="M2344.84,-431.671C2333.15,-411.431 2318.16,-386.105 2304,-364 2291.59,-344.619 2277.61,-323.962 2264.51,-305.063"/>
<polygon fill="blue" stroke="blue" points="2267.34,-303.009 2258.76,-296.798 2261.6,-307.006 2267.34,-303.009"/>
<text text-anchor="middle" x="2304" y="-334.3" font-family="Times,serif" font-size="14.00"> 1:m</text>
</g>
<!-- ronin_services -->
<g id="node26" class="node"><title>ronin_services</title>
<polygon fill="none" stroke="black" points="2077.5,-439.5 2077.5,-500.5 2172.5,-500.5 2172.5,-439.5 2077.5,-439.5"/>
<text text-anchor="middle" x="2125" y="-485.3" font-family="Times,serif" font-size="14.00">ronin_services</text>
<polyline fill="none" stroke="black" points="2077.5,-477.5 2172.5,-477.5 "/>
<text text-anchor="middle" x="2125" y="-462.3" font-family="Times,serif" font-size="14.00">name: String</text>
<text text-anchor="middle" x="2125" y="-447.3" font-family="Times,serif" font-size="14.00">id: Serial</text>
</g>
<!-- ronin_services&#45;&gt;ronin_open_ports -->
<g id="edge52" class="edge"><title>ronin_services&#45;&gt;ronin_open_ports</title>
<path fill="none" stroke="blue" d="M2136.71,-439.145C2149.81,-405.738 2171.48,-350.494 2188.86,-306.194"/>
<polygon fill="blue" stroke="blue" points="2192.22,-307.219 2192.61,-296.632 2185.7,-304.663 2192.22,-307.219"/>
<text text-anchor="middle" x="2192" y="-334.3" font-family="Times,serif" font-size="14.00"> 1:m</text>
</g>
<!-- ronin_softwares -->
<g id="node27" class="node"><title>ronin_softwares</title>
<polygon fill="none" stroke="black" points="2612.5,-424.5 2612.5,-515.5 2769.5,-515.5 2769.5,-424.5 2612.5,-424.5"/>
<text text-anchor="middle" x="2691" y="-500.3" font-family="Times,serif" font-size="14.00">ronin_softwares</text>
<polyline fill="none" stroke="black" points="2612.5,-492.5 2769.5,-492.5 "/>
<text text-anchor="middle" x="2691" y="-477.3" font-family="Times,serif" font-size="14.00">id: Serial</text>
<text text-anchor="middle" x="2691" y="-462.3" font-family="Times,serif" font-size="14.00">name: String</text>
<text text-anchor="middle" x="2691" y="-447.3" font-family="Times,serif" font-size="14.00">version: String</text>
<text text-anchor="middle" x="2691" y="-432.3" font-family="Times,serif" font-size="14.00">vendor_id: ronin_vendors</text>
</g>
<!-- ronin_vendors -->
<g id="node28" class="node"><title>ronin_vendors</title>
<polygon fill="none" stroke="black" points="2643.5,-666.5 2643.5,-727.5 2738.5,-727.5 2738.5,-666.5 2643.5,-666.5"/>
<text text-anchor="middle" x="2691" y="-712.3" font-family="Times,serif" font-size="14.00">ronin_vendors</text>
<polyline fill="none" stroke="black" points="2643.5,-704.5 2738.5,-704.5 "/>
<text text-anchor="middle" x="2691" y="-689.3" font-family="Times,serif" font-size="14.00">name: String</text>
<text text-anchor="middle" x="2691" y="-674.3" font-family="Times,serif" font-size="14.00">id: Serial</text>
</g>
<!-- ronin_vendors&#45;&gt;ronin_softwares -->
<g id="edge54" class="edge"><title>ronin_vendors&#45;&gt;ronin_softwares</title>
<path fill="none" stroke="blue" d="M2691,-666.122C2691,-630.412 2691,-569.948 2691,-525.773"/>
<polygon fill="blue" stroke="blue" points="2694.5,-525.766 2691,-515.766 2687.5,-525.766 2694.5,-525.766"/>
<text text-anchor="middle" x="2704" y="-598.3" font-family="Times,serif" font-size="14.00"> 1:m</text>
</g>
<!-- ronin_url_schemes -->
<g id="node29" class="node"><title>ronin_url_schemes</title>
<polygon fill="none" stroke="black" points="1817,-439.5 1817,-500.5 1937,-500.5 1937,-439.5 1817,-439.5"/>
<text text-anchor="middle" x="1877" y="-485.3" font-family="Times,serif" font-size="14.00">ronin_url_schemes</text>
<polyline fill="none" stroke="black" points="1817,-477.5 1937,-477.5 "/>
<text text-anchor="middle" x="1877" y="-462.3" font-family="Times,serif" font-size="14.00">name: String</text>
<text text-anchor="middle" x="1877" y="-447.3" font-family="Times,serif" font-size="14.00">id: Serial</text>
</g>
<!-- ronin_url_schemes&#45;&gt;ronin_urls -->
<g id="edge56" class="edge"><title>ronin_url_schemes&#45;&gt;ronin_urls</title>
<path fill="none" stroke="blue" d="M1874.56,-439.397C1873.19,-410.657 1873.75,-366.192 1886,-330 1887.04,-326.921 1888.21,-323.847 1889.49,-320.79"/>
<polygon fill="blue" stroke="blue" points="1892.68,-322.237 1893.63,-311.685 1886.31,-319.341 1892.68,-322.237"/>
<text text-anchor="middle" x="1899" y="-334.3" font-family="Times,serif" font-size="14.00"> 1:m</text>
</g>
<!-- ronin_url_query_param_names -->
<g id="node30" class="node"><title>ronin_url_query_param_names</title>
<polygon fill="none" stroke="black" points="1642,-205.5 1642,-266.5 1830,-266.5 1830,-205.5 1642,-205.5"/>
<text text-anchor="middle" x="1736" y="-251.3" font-family="Times,serif" font-size="14.00">ronin_url_query_param_names</text>
<polyline fill="none" stroke="black" points="1642,-243.5 1830,-243.5 "/>
<text text-anchor="middle" x="1736" y="-228.3" font-family="Times,serif" font-size="14.00">name: String</text>
<text text-anchor="middle" x="1736" y="-213.3" font-family="Times,serif" font-size="14.00">id: Serial</text>
</g>
<!-- ronin_url_query_params -->
<g id="node31" class="node"><title>ronin_url_query_params</title>
<polygon fill="none" stroke="black" points="1615,-8.5 1615,-99.5 1857,-99.5 1857,-8.5 1615,-8.5"/>
<text text-anchor="middle" x="1736" y="-84.3" font-family="Times,serif" font-size="14.00">ronin_url_query_params</text>
<polyline fill="none" stroke="black" points="1615,-76.5 1857,-76.5 "/>
<text text-anchor="middle" x="1736" y="-61.3" font-family="Times,serif" font-size="14.00">id: Serial</text>
<text text-anchor="middle" x="1736" y="-46.3" font-family="Times,serif" font-size="14.00">value: Text</text>
<text text-anchor="middle" x="1736" y="-31.3" font-family="Times,serif" font-size="14.00">name_id: ronin_url_query_param_names</text>
<text text-anchor="middle" x="1736" y="-16.3" font-family="Times,serif" font-size="14.00">url_id: ronin_urls</text>
</g>
<!-- ronin_url_query_param_names&#45;&gt;ronin_url_query_params -->
<g id="edge58" class="edge"><title>ronin_url_query_param_names&#45;&gt;ronin_url_query_params</title>
<path fill="none" stroke="blue" d="M1736,-205.277C1736,-179.44 1736,-141.336 1736,-109.964"/>
<polygon fill="blue" stroke="blue" points="1739.5,-109.61 1736,-99.61 1732.5,-109.61 1739.5,-109.61"/>
<text text-anchor="middle" x="1749" y="-130.3" font-family="Times,serif" font-size="14.00"> 1:m</text>
</g>
<!-- ronin_urls&#45;&gt;ronin_web_credentials -->
<g id="edge62" class="edge"><title>ronin_urls&#45;&gt;ronin_web_credentials</title>
<path fill="none" stroke="blue" d="M1968.28,-160.488C1972.2,-146.09 1976.27,-131.147 1980.07,-117.192"/>
<polygon fill="blue" stroke="blue" points="1983.53,-117.796 1982.78,-107.228 1976.78,-115.958 1983.53,-117.796"/>
<text text-anchor="middle" x="1990" y="-130.3" font-family="Times,serif" font-size="14.00"> 1:m</text>
</g>
<!-- ronin_urls&#45;&gt;ronin_url_query_params -->
<g id="edge60" class="edge"><title>ronin_urls&#45;&gt;ronin_url_query_params</title>
<path fill="none" stroke="blue" d="M1860.24,-160.488C1838.72,-142.216 1816.17,-123.066 1796.27,-106.173"/>
<polygon fill="blue" stroke="blue" points="1798.39,-103.377 1788.5,-99.5729 1793.85,-108.713 1798.39,-103.377"/>
<text text-anchor="middle" x="1849" y="-130.3" font-family="Times,serif" font-size="14.00"> 1:m</text>
</g>
<!-- ronin_passwords -->
<g id="node33" class="node"><title>ronin_passwords</title>
<polygon fill="none" stroke="black" points="1452,-205.5 1452,-266.5 1562,-266.5 1562,-205.5 1452,-205.5"/>
<text text-anchor="middle" x="1507" y="-251.3" font-family="Times,serif" font-size="14.00">ronin_passwords</text>
<polyline fill="none" stroke="black" points="1452,-243.5 1562,-243.5 "/>
<text text-anchor="middle" x="1507" y="-228.3" font-family="Times,serif" font-size="14.00">id: Serial</text>
<text text-anchor="middle" x="1507" y="-213.3" font-family="Times,serif" font-size="14.00">clear_text: String</text>
</g>
<!-- ronin_passwords&#45;&gt;ronin_credentials -->
<g id="edge64" class="edge"><title>ronin_passwords&#45;&gt;ronin_credentials</title>
<path fill="none" stroke="blue" d="M1501.72,-205.277C1497.1,-179.327 1490.29,-141.005 1484.7,-109.555"/>
<polygon fill="blue" stroke="blue" points="1488.13,-108.843 1482.93,-99.61 1481.24,-110.068 1488.13,-108.843"/>
<text text-anchor="middle" x="1504" y="-130.3" font-family="Times,serif" font-size="14.00"> 1:m</text>
</g>
</g>
</svg>
