<?xml version="1.0" encoding="UTF-8" standalone="no"?>
<svg
   xmlns:dc="http://purl.org/dc/elements/1.1/"
   xmlns:cc="http://creativecommons.org/ns#"
   xmlns:rdf="http://www.w3.org/1999/02/22-rdf-syntax-ns#"
   xmlns:svg="http://www.w3.org/2000/svg"
   xmlns="http://www.w3.org/2000/svg"
   xmlns:xlink="http://www.w3.org/1999/xlink"
   xmlns:sodipodi="http://sodipodi.sourceforge.net/DTD/sodipodi-0.dtd"
   xmlns:inkscape="http://www.inkscape.org/namespaces/inkscape"
   width="3.76389in"
   height="1.5277801in"
   viewBox="0 0 271 110"
   id="logo"
   version="1.1"
   inkscape:version="0.48.1 r9760"
   sodipodi:docname="logo.svg">
  <metadata
     id="metadata9">
    <rdf:RDF>
      <cc:Work
         rdf:about="">
        <dc:format>image/svg+xml</dc:format>
        <dc:type
           rdf:resource="http://purl.org/dc/dcmitype/StillImage" />
        <dc:title />
      </cc:Work>
    </rdf:RDF>
  </metadata>
  <defs
     id="defs7" />
  <sodipodi:namedview
     pagecolor="#ffffff"
     bordercolor="#666666"
     borderopacity="1"
     objecttolerance="10"
     gridtolerance="10"
     guidetolerance="10"
     inkscape:pageopacity="0"
     inkscape:pageshadow="2"
     inkscape:window-width="1024"
     inkscape:window-height="731"
     id="namedview5"
     showgrid="false"
     inkscape:zoom="4"
     inkscape:cx="97.00774"
     inkscape:cy="63.92784"
     inkscape:window-x="0"
     inkscape:window-y="0"
     inkscape:window-maximized="1"
     inkscape:current-layer="layer4" />
  <g
     inkscape:groupmode="layer"
     id="layer3"
     inkscape:label="Cloud"
     style="display:inline"
     sodipodi:insensitive="true">
    <path
       id="cloud outline"
       d="m 111.27795,91.622912 c -16.207819,0.161373 -31.270694,-9.408616 -47.424301,-10.74294 -7.031681,-0.580833 -13.751371,0.565685 -21.13137,1.225685 9.399999,-6.18 11.289998,-5.41 16.799998,-6.4 -18.67044,-10.256552 -24.183104,8.360962 -46.799997,-1.6 9.729999,-0.78 13.969998,0.960001 20.399998,-5.799999 -4.33,1.799999 -13.359999,3.03 -18.399998,-3.2 14.120885,3.589796 18.425912,-6.259521 31.999998,-5.800001 -1.768438,-3.129375 -4.260035,-4.221921 -7.999999,-4.149999 -7.700037,0.148078 -26.59,8.42 -35.999997,-2.05 21.321553,4.334503 29.98647,-9.374823 48.221703,-7.2559 3.048368,0.38139 9.166548,3.394787 10.49337,0.15799 -1.433671,-3.919982 -9.517508,-3.956108 -12.182249,-3.73428 -7.738186,0.704617 -18.472351,3.676016 -28.947039,-2.479354 7.339999,1.12 15.17907,0.66296 21.414212,-1.697056 11.715876,-9.136227 18.52277,-5.776307 22.271542,-7.719878 -6.14501,-5.269891 -13.805738,-2.64163 -20.766454,0.133096 4.44,-5.229999 8.995444,-6.583572 14.294913,-7.614639 5.954528,-1.158516 12.041112,2.244084 18.098071,1.909695 6.652372,-0.367261 12.905215,-3.523666 19.525474,-4.272741 6.064245,-0.686163 12.265495,0.675912 18.307925,-0.18137 5.67086,-0.804564 10.85724,-3.997165 16.55138,-4.615787 6.26908,-0.681084 12.63767,1.880286 18.88873,1.05 6.61314,-0.878377 12.34177,-5.872274 18.99998,-6.28863 8.21567,-0.513749 16.01262,4.266937 24.22843,4.778528 4.17743,0.260125 8.34773,-1.137175 12.5255,-0.88264 7.05211,0.429656 13.82274,2.97204 20.80587,4.045687 6.77559,1.041737 13.84789,0.419386 20.43432,2.3201 6.19033,1.786406 13.60077,3.194054 17.41431,8.387158 3.58098,4.876419 2.08181,11.933953 2.62,17.959999 0.51547,5.771575 1.80645,11.71104 0.57863,17.37401 -1.19113,5.493747 -3.68377,10.973534 -7.49157,15.108832 -3.76725,4.091261 -8.95711,7.029003 -14.28706,8.617157 -5.43432,1.619251 -11.40531,-0.303743 -16.99999,0.62 -4.59124,0.758062 -8.74046,3.573562 -13.37401,4.002842 -8.94946,0.829131 -17.84622,-3.484369 -26.81189,-2.854112 -5.38028,0.378216 -10.34149,3.266205 -15.69192,3.946897 -4.32783,0.550595 -4.8163,0.60394 -13.08786,0.08732 3.07704,-0.598775 12.42718,-1.917116 12.36079,-6.132951 -3.61847,-4.933198 -17.04338,2.024271 -25.59512,1.840012 -4.80911,-0.103619 -13.7175,-0.505001 -14.33562,-1.653751 9.05562,-0.95625 12.62562,-1.29625 18.53562,-5.956249 -16.56809,-7.222451 -25.24336,9.385838 -38.44432,9.517269 z"
       inkscape:connector-curvature="0"
       style="fill:#000000;stroke:#ffffff;stroke-width:1;stroke-opacity:1"
       sodipodi:nodetypes="aaccccccsccccccccaaaaaaaaaaaaaaaaaaaaccacca" />
  </g>
  <g
     inkscape:groupmode="layer"
     id="layer4"
     inkscape:label="Text"
     style="display:inline"
     sodipodi:insensitive="true">
    <a
       id="a2989"
       xlink:href="http://ronin-ruby.github.io/">
      <text
         sodipodi:linespacing="125%"
         id="text2987"
         y="70.40242"
         x="63.057808"
         style="font-size:54.39998627px;font-style:normal;font-variant:normal;font-weight:bold;font-stretch:normal;line-height:125%;letter-spacing:0px;word-spacing:0px;fill:#ffffff;fill-opacity:1;stroke:none;font-family:Sans;-inkscape-font-specification:System Bold"
         xml:space="preserve"><tspan
           y="70.40242"
           x="63.057808"
           id="tspan2989"
           sodipodi:role="line">RONIN</tspan></text>
    </a>
  </g>
  <g
     inkscape:groupmode="layer"
     id="layer5"
     inkscape:label="Overlays"
     style="display:inline"
     sodipodi:insensitive="true">
    <path
       style="fill:#000000;fill-opacity:1;stroke:#000000;stroke-width:0.92330045px;stroke-linecap:butt;stroke-linejoin:miter;stroke-opacity:1"
       d="m 108.64007,72.106692 c 0,0 1.7009,-2.390762 4.23355,-3.530069 2.03083,-0.913615 3.55262,-1.635008 5.43119,-2.144379 1.71922,-0.466165 3.50618,-0.72912 5.28104,-0.81721 6.99176,-0.347015 7.64489,2.060166 20.97108,1.145899 -0.14538,3.697077 -0.0695,5.345755 -0.0695,5.345755 -9.48902,0 -26.35837,0 -35.84739,4e-6 z"
       id="path3867"
       inkscape:connector-curvature="0"
       sodipodi:nodetypes="csaacccc" />
    <path
       style="fill:#000000;fill-opacity:1;stroke:#000000;stroke-width:0.74636501px;stroke-linecap:butt;stroke-linejoin:miter;stroke-opacity:1"
       d="m 154.37538,70.808057 0,-5.088068 c 1.79033,-0.425107 3.95594,-0.642179 5.94587,-0.872029 2.28063,-0.263428 6.86288,-0.580407 6.86288,-0.580407 l 0.12508,6.47049 z"
       id="path3869"
       inkscape:connector-curvature="0"
       sodipodi:nodetypes="ccaccc" />
  </g>
</svg>
