<?xml version="1.0" encoding="UTF-8" standalone="no"?>
<!-- Created with Inkscape (http://www.inkscape.org/) -->
<svg
   xmlns:dc="http://purl.org/dc/elements/1.1/"
   xmlns:cc="http://creativecommons.org/ns#"
   xmlns:rdf="http://www.w3.org/1999/02/22-rdf-syntax-ns#"
   xmlns:svg="http://www.w3.org/2000/svg"
   xmlns="http://www.w3.org/2000/svg"
   xmlns:sodipodi="http://sodipodi.sourceforge.net/DTD/sodipodi-0.dtd"
   xmlns:inkscape="http://www.inkscape.org/namespaces/inkscape"
   width="744.09448819"
   height="1052.3622047"
   id="svg2481"
   sodipodi:version="0.32"
   inkscape:version="0.46"
   sodipodi:docname="cloud_2.svg"
   inkscape:output_extension="org.inkscape.output.svg.inkscape">
  <defs
     id="defs2483">
    <inkscape:perspective
       sodipodi:type="inkscape:persp3d"
       inkscape:vp_x="0 : 526.18109 : 1"
       inkscape:vp_y="0 : 1000 : 0"
       inkscape:vp_z="744.09448 : 526.18109 : 1"
       inkscape:persp3d-origin="372.04724 : 350.78739 : 1"
       id="perspective2489" />
  </defs>
  <sodipodi:namedview
     id="base"
     pagecolor="#ffffff"
     bordercolor="#666666"
     borderopacity="1.0"
     gridtolerance="10000"
     guidetolerance="10"
     objecttolerance="10"
     inkscape:pageopacity="0.0"
     inkscape:pageshadow="2"
     inkscape:zoom="1.4142136"
     inkscape:cx="354.53076"
     inkscape:cy="580.56854"
     inkscape:document-units="px"
     inkscape:current-layer="layer1"
     showgrid="false"
     inkscape:window-width="641"
     inkscape:window-height="710"
     inkscape:window-x="315"
     inkscape:window-y="36" />
  <metadata
     id="metadata2486">
    <rdf:RDF>
      <cc:Work
         rdf:about="">
        <dc:format>image/svg+xml</dc:format>
        <dc:type
           rdf:resource="http://purl.org/dc/dcmitype/StillImage" />
      </cc:Work>
    </rdf:RDF>
  </metadata>
  <g
     inkscape:label="Layer 1"
     inkscape:groupmode="layer"
     id="layer1">
    <path
       style="fill:#000000;fill-rule:evenodd;stroke:#000000;stroke-width:1px;stroke-linecap:butt;stroke-linejoin:miter;stroke-opacity:1"
       d="M 96,438.36218 C 99.308298,430.29587 115.76112,422.04134 126,414.36218 C 137.28783,405.89631 151.28741,398.71848 164,392.36218 C 179.27806,384.72315 196.02037,383.55811 212,380.36218 C 223.85869,377.99044 238.84567,382.13132 250,384.36218 C 261.9549,386.75316 271.92077,389.32257 282,394.36218 C 291.07806,398.90121 300.04853,407.38645 310,412.36218 C 321.09197,417.90817 327.06747,421.12905 340,424.36218 C 353.38647,427.7088 369.36089,426.36218 384,426.36218 C 395.24856,426.36218 408.88655,420.91891 418,416.36218 C 429.786,410.46918 438.149,404.21318 448,394.36218 C 456.09131,386.27087 464.77511,376.81197 470,366.36218 C 474.20277,357.95665 484.41792,350.04874 492,344.36218 C 501.48984,337.24481 512.53284,335.22897 524,332.36218 C 535.2824,329.54158 543.65809,328.36218 556,328.36218 C 568.15248,328.36218 575.46345,332.09391 584,336.36218 C 595.76972,342.24704 602.79896,347.16114 612,356.36218 C 619.77559,364.13777 626.8067,373.97558 632,384.36218 C 637.12908,394.62033 639.31463,403.6207 642,414.36218 C 644.55123,424.56709 644,435.55305 644,446.36218 C 644,457.22728 638.47384,466.46684 636,476.36218 C 634.03928,484.20508 621.87803,495.19148 618,500.36218 C 612.96092,507.08096 602.76975,513.59243 596,520.36218 C 589.0796,527.28258 574.46083,532.13177 566,536.36218 C 557.03828,540.84305 545.8499,541.89971 536,544.36218 C 526.24884,546.79997 516.35866,546.36218 506,546.36218 C 496,546.36218 485.29289,546.36218 475.29289,546.36218 C 464.21481,546.36218 452.90475,545.30977 443.17157,543.53375 C 418.44107,539.1045 417.68346,540.98135 407.84315,538.94797 C 397.89483,536.89227 379.38052,534.55796 370.47918,531.61954 C 361.10478,528.52495 348.46464,522.61599 341.13604,517.11954 C 331.61726,509.98046 332.24695,509.7004 326,501.86218 C 312.87003,485.38766 318.3804,489.69711 306,476.36218 C 295.77323,465.34692 284.58889,456.0078 280,451.36218 C 271.27617,442.5305 274.42676,446.18225 264,438.36218 C 254.00972,430.86947 245.75627,429.30125 234,426.36218 C 223.44856,423.72432 214.40552,420.96356 204,418.36218 C 195.27868,416.18185 183.04292,418.36218 174,418.36218 C 166.12507,418.36218 151.35542,421.02333 146,422.36218 C 135.09091,425.08946 127.36332,430.02135 118,432.36218 C 110.44672,434.2505 104.32247,436.28156 96,438.36218 z"
       id="path2521"
       sodipodi:nodetypes="csssssssssssssssssssssssssccssssssssssssc" />
  </g>
</svg>
