<?xml version="1.0" encoding="UTF-8" standalone="no"?>
<!-- Created with Inkscape (http://www.inkscape.org/) -->
<svg
   xmlns:dc="http://purl.org/dc/elements/1.1/"
   xmlns:cc="http://creativecommons.org/ns#"
   xmlns:rdf="http://www.w3.org/1999/02/22-rdf-syntax-ns#"
   xmlns:svg="http://www.w3.org/2000/svg"
   xmlns="http://www.w3.org/2000/svg"
   xmlns:sodipodi="http://sodipodi.sourceforge.net/DTD/sodipodi-0.dtd"
   xmlns:inkscape="http://www.inkscape.org/namespaces/inkscape"
   width="744.09448819"
   height="1052.3622047"
   id="svg2"
   sodipodi:version="0.32"
   inkscape:version="0.46"
   sodipodi:docname="cloud_1.svg"
   inkscape:output_extension="org.inkscape.output.svg.inkscape">
  <defs
     id="defs4">
    <inkscape:perspective
       sodipodi:type="inkscape:persp3d"
       inkscape:vp_x="0 : 526.18109 : 1"
       inkscape:vp_y="0 : 1000 : 0"
       inkscape:vp_z="744.09448 : 526.18109 : 1"
       inkscape:persp3d-origin="372.04724 : 350.78739 : 1"
       id="perspective10" />
  </defs>
  <sodipodi:namedview
     id="base"
     pagecolor="#ffffff"
     bordercolor="#666666"
     borderopacity="1.0"
     gridtolerance="10000"
     guidetolerance="10"
     objecttolerance="10"
     inkscape:pageopacity="0.0"
     inkscape:pageshadow="2"
     inkscape:zoom="0.5"
     inkscape:cx="367.36134"
     inkscape:cy="493.10658"
     inkscape:document-units="px"
     inkscape:current-layer="layer1"
     showgrid="false"
     inkscape:window-width="641"
     inkscape:window-height="710"
     inkscape:window-x="199"
     inkscape:window-y="25" />
  <metadata
     id="metadata7">
    <rdf:RDF>
      <cc:Work
         rdf:about="">
        <dc:format>image/svg+xml</dc:format>
        <dc:type
           rdf:resource="http://purl.org/dc/dcmitype/StillImage" />
      </cc:Work>
    </rdf:RDF>
  </metadata>
  <g
     inkscape:label="Layer 1"
     inkscape:groupmode="layer"
     id="layer1">
    <path
       style="fill:#000000;fill-rule:evenodd;stroke:#000000;stroke-width:1px;stroke-linecap:butt;stroke-linejoin:miter;stroke-opacity:1"
       d="M 154.36396,481.53375 C 162.41788,479.52027 167.57316,477.5756 178,472.36218 C 190.0655,466.32943 199.51793,460.60322 212,454.36218 C 223.66236,448.531 234.24049,442.24194 246,436.36218 C 255.44517,431.6396 267.21706,429.05792 278,426.36218 C 287.96524,423.87087 295.56979,422.96974 306,420.36218 C 313.73571,418.42825 327.79894,424.36218 336,424.36218 C 346.39966,424.36218 356.41804,429.96669 366,432.36218 C 376.77347,435.05555 386.56329,439.64383 396,444.36218 C 405.78786,449.25611 417.23281,451.67038 428,454.36218 C 440.08789,457.38415 453.2166,456.36218 466,456.36218 C 478.19942,456.36218 495.60659,442.75559 504,434.36218 C 514.80092,423.56126 527.6344,415.63639 540,406.36218 C 552.09895,397.28797 567.84693,397.90045 582,394.36218 C 594.56361,391.22128 615.47112,393.09774 626,398.36218 C 639.34551,405.03494 637.37039,400.07716 649.97918,409.53375 C 662.73254,419.09878 663.11529,419.31195 673.4939,432.34136 C 680.94101,441.69053 688.1281,450.51437 692.90812,462.22004 C 696.45544,470.907 700.44365,483.49715 700.44365,493.63426 C 700.44365,505.67104 701.18832,514.43373 698.56497,524.92715 C 695.76175,536.14003 693.73077,550.6036 686.22183,559.63426 C 677.98353,569.54207 684.92342,570.6499 671.77817,577.14898 C 654.64778,585.61834 653.63394,591.04092 642.48528,594.32055 C 631.32998,597.60214 625.54319,599.46508 614.6066,602.19923 C 603.08332,605.08005 595.76538,607.02766 583.55635,607.02766 C 572.51301,607.02766 564.37913,609.64757 554.38478,607.14898 C 544.27192,604.62077 534.25239,601.73476 523.67767,601.73476 C 514.34465,601.73476 500.67479,597.0011 492.97056,593.14898 C 485.42685,589.37713 464.42234,582.21956 455.77818,576.90634 C 447.64144,571.905 442.53624,570.86274 430.02082,560.80583 C 421.37272,553.85655 412.33165,550.9292 404.24264,542.82665 C 397.81467,536.38792 392.05914,534.83323 382.94975,528.72614 C 372.98457,522.04532 368.14493,516.29271 357.19239,513.55457 C 346.05157,510.76937 339.03919,506.84746 326.48528,506.84746 C 315.47573,506.84746 301.42017,512.2587 292.24264,516.84746 C 281.50867,522.21445 263.27458,528.3805 255.75736,535.89771 C 246.97081,544.68426 239.41377,545.30185 230,552.36218 C 222.10397,558.2842 210.08696,562.34044 202,564.36218 C 191.43101,567.00443 183.35501,570.36218 172,570.36218 C 163.02583,570.36218 152.15684,572.36218 142,572.36218 C 132.31664,572.36218 119.93509,566.32973 112,562.36218 C 102.65198,557.68817 92.346955,554.53566 84,550.36218 C 74.379229,545.5518 69.043131,540.36218 56,540.36218 C 46.57191,540.36218 74.57191,536.36218 84,536.36218 C 94.671854,536.36218 103.06934,538.36218 114,538.36218 C 123.17562,538.36218 134.07148,540.36218 144,540.36218 C 154.30883,540.36218 164.02093,537.35172 170,534.36218 C 181.70574,528.50931 184.55781,529.24656 190,518.36218 C 196.76297,504.83625 185.48684,500.36218 174,500.36218 C 164.0695,500.36218 154.79847,504.36218 144,504.36218 C 131.6341,504.36218 126.24707,505.42395 114,502.36218 C 101.81559,499.31608 83.156177,483.63968 77.272078,477.75558 C 61.783092,462.2666 94.955666,482.8992 104.12132,485.19061 C 113.87248,487.6284 118.10748,485.59025 128.46447,485.77639 C 139.98223,485.9834 132.07668,486.03047 154.36396,481.53375 z"
       id="path2459"
       sodipodi:nodetypes="csssssssssssssssssssssssssssssssssssssssssssssssssssssc" />
  </g>
</svg>
