<?xml version="1.0" encoding="UTF-8" standalone="no"?>
<!-- Created with Inkscape (http://www.inkscape.org/) -->
<svg
   xmlns:dc="http://purl.org/dc/elements/1.1/"
   xmlns:cc="http://creativecommons.org/ns#"
   xmlns:rdf="http://www.w3.org/1999/02/22-rdf-syntax-ns#"
   xmlns:svg="http://www.w3.org/2000/svg"
   xmlns="http://www.w3.org/2000/svg"
   xmlns:sodipodi="http://sodipodi.sourceforge.net/DTD/sodipodi-0.dtd"
   xmlns:inkscape="http://www.inkscape.org/namespaces/inkscape"
   width="744.09448819"
   height="1052.3622047"
   id="svg2597"
   sodipodi:version="0.32"
   inkscape:version="0.46"
   sodipodi:docname="cloud_3.svg"
   inkscape:output_extension="org.inkscape.output.svg.inkscape">
  <defs
     id="defs2599">
    <inkscape:perspective
       sodipodi:type="inkscape:persp3d"
       inkscape:vp_x="0 : 526.18109 : 1"
       inkscape:vp_y="0 : 1000 : 0"
       inkscape:vp_z="744.09448 : 526.18109 : 1"
       inkscape:persp3d-origin="372.04724 : 350.78739 : 1"
       id="perspective2605" />
  </defs>
  <sodipodi:namedview
     id="base"
     pagecolor="#ffffff"
     bordercolor="#666666"
     borderopacity="1.0"
     gridtolerance="10000"
     guidetolerance="10"
     objecttolerance="10"
     inkscape:pageopacity="0.0"
     inkscape:pageshadow="2"
     inkscape:zoom="1"
     inkscape:cx="329.81837"
     inkscape:cy="559.5939"
     inkscape:document-units="px"
     inkscape:current-layer="layer1"
     showgrid="false"
     inkscape:window-width="641"
     inkscape:window-height="710"
     inkscape:window-x="-5"
     inkscape:window-y="25" />
  <metadata
     id="metadata2602">
    <rdf:RDF>
      <cc:Work
         rdf:about="">
        <dc:format>image/svg+xml</dc:format>
        <dc:type
           rdf:resource="http://purl.org/dc/dcmitype/StillImage" />
      </cc:Work>
    </rdf:RDF>
  </metadata>
  <g
     inkscape:label="Layer 1"
     inkscape:groupmode="layer"
     id="layer1">
    <path
       style="fill:#000000;fill-rule:evenodd;stroke:#000000;stroke-width:1px;stroke-linecap:butt;stroke-linejoin:miter;stroke-opacity:1"
       d="M 180.32199,509.21788 C 213.75968,492.74107 219.22787,491.24639 224.53592,487.54421 C 235.44904,479.9327 265.56675,469.19627 277.1777,466.01411 C 292.50502,461.81341 300.20631,457.63051 327.16317,457.95392 C 341.95076,458.13133 342.66416,462.19596 370.93836,464.97422 C 391.53309,466.99789 378.44621,467.96109 415.48949,469.49453 C 424.83247,469.88129 444.10782,463.00035 440.63014,463.38846 C 437.15246,463.77657 467.50141,446.18884 468.19362,444.63775 C 486.8344,430.46488 488.46514,431.94449 500.53046,426.44412 C 519.7051,417.70274 527.29849,416.38952 542.85714,412.36218 C 556.98354,408.70558 565.55513,406.6479 582.85714,406.6479 C 599.37849,406.6479 612.32923,410.94898 625.71429,418.07647 C 640.40017,425.89664 646.79711,429.59485 662.02031,445.95464 C 672.17631,456.86891 680.69326,481.59799 680.69326,496.893 C 680.69326,514.07992 679.65404,542.1278 671.4583,553.05544 C 661.88489,565.82 656.06785,571.27196 644.07034,580.27009 C 630.75726,590.25489 620.62211,596.27993 604.90719,604.13739 C 591.57254,610.80471 558.15216,610.68851 542.85714,610.68851 C 526.57189,610.68851 510.4712,605.34724 496.96954,598.59641 C 481.66932,590.9463 470.07146,581.95112 455.95939,578.4231 C 441.24765,574.74517 431.57455,571.6114 417.14286,575.21933 C 401.41018,579.15249 388.03981,585.48513 374.28571,592.36218 C 361.8027,598.60369 345.05467,603.24137 331.42857,606.6479 C 318.0214,609.99969 303.03167,611.35203 288.57143,611.35203 C 285.38513,611.35203 244.54852,597.97972 231.39884,594.69938 C 218.83023,591.56399 271.12696,602.57501 283.69398,599.43325 C 299.69519,595.43295 324.35554,588.93929 338.67296,581.28025 C 357.21294,571.36235 361.32738,556.87679 359.33647,547.65805 C 355.20907,528.54639 342.03698,524.79444 328.57143,520.93361 C 314.64673,516.94113 299.56966,514.53795 285.71429,515.21933 C 271.10414,515.93783 273.9817,514.93667 254.97897,518.07647 C 241.63863,520.28068 218.86812,530.27589 206.06092,533.37233 C 189.91741,537.27541 168.72176,541.73381 154.1124,542.95392 C 142.38656,543.9332 117.55313,542.10149 116.13271,542.11708 C 101.84785,542.27389 88.571429,538.07647 74.285714,538.07647 C 62.509618,538.07647 45.391955,526.48673 34.285714,520.93361 C 17.561948,512.57173 15.75578,504.52579 37.142857,515.21933 C 51.729532,522.51266 82.181752,519.32068 96.162441,518.59641 C 156.13538,515.48951 174.90569,511.88683 180.32199,509.21788 z"
       id="path2607"
       sodipodi:nodetypes="cssssszcsssssssssssssssssssssssssssssss" />
  </g>
</svg>
