<?xml version="1.0" encoding="UTF-8" standalone="no"?>
<!-- Created with Inkscape (http://www.inkscape.org/) -->
<svg
   xmlns:dc="http://purl.org/dc/elements/1.1/"
   xmlns:cc="http://creativecommons.org/ns#"
   xmlns:rdf="http://www.w3.org/1999/02/22-rdf-syntax-ns#"
   xmlns:svg="http://www.w3.org/2000/svg"
   xmlns="http://www.w3.org/2000/svg"
   xmlns:sodipodi="http://sodipodi.sourceforge.net/DTD/sodipodi-0.dtd"
   xmlns:inkscape="http://www.inkscape.org/namespaces/inkscape"
   width="512.86865"
   height="503.45557"
   id="svg2413"
   sodipodi:version="0.32"
   inkscape:version="0.46"
   version="1.0"
   sodipodi:docname="flower.svg"
   inkscape:output_extension="org.inkscape.output.svg.inkscape">
  <defs
     id="defs2415">
    <inkscape:perspective
       sodipodi:type="inkscape:persp3d"
       inkscape:vp_x="0 : 526.18109 : 1"
       inkscape:vp_y="6.123234e-14 : 1000 : 0"
       inkscape:vp_z="744.09448 : 526.18109 : 1"
       inkscape:persp3d-origin="372.04724 : 350.78739 : 1"
       id="perspective2421" />
  </defs>
  <sodipodi:namedview
     id="base"
     pagecolor="#ffffff"
     bordercolor="#666666"
     borderopacity="1.0"
     gridtolerance="10000"
     guidetolerance="10"
     objecttolerance="10"
     inkscape:pageopacity="0.0"
     inkscape:pageshadow="2"
     inkscape:zoom="0.35355339"
     inkscape:cx="298.22621"
     inkscape:cy="182.886"
     inkscape:document-units="px"
     inkscape:current-layer="layer1"
     showgrid="false"
     inkscape:window-width="682"
     inkscape:window-height="710"
     inkscape:window-x="165"
     inkscape:window-y="60" />
  <metadata
     id="metadata2418">
    <rdf:RDF>
      <cc:Work
         rdf:about="">
        <dc:format>image/svg+xml</dc:format>
        <dc:type
           rdf:resource="http://purl.org/dc/dcmitype/StillImage" />
      </cc:Work>
    </rdf:RDF>
  </metadata>
  <g
     inkscape:label="Layer 1"
     inkscape:groupmode="layer"
     id="layer1"
     style="display:inline"
     transform="translate(-14.143519,-104.08196)">
    <path
       sodipodi:type="star"
       style="fill:#000000;fill-opacity:0;stroke-width:1.5;stroke-miterlimit:4;stroke-dasharray:none"
       id="path2425"
       sodipodi:sides="5"
       sodipodi:cx="331.42856"
       sodipodi:cy="418.07648"
       sodipodi:r1="408.93091"
       sodipodi:r2="106.64328"
       sodipodi:arg1="0.96922866"
       sodipodi:arg2="1.5975472"
       inkscape:flatsided="false"
       inkscape:rounded="2.398783"
       inkscape:randomized="0"
       d="M 562.85713,755.21933 C -87.179337,1201.4308 1116.7432,545.77078 328.5761,524.6816 C -459.59097,503.59242 707.54665,1222.6955 82.302012,742.361 C -542.94263,262.02651 452.65962,1204.4148 229.1596,448.30642 C 5.6595861,-307.80192 -317.58271,1024.427 -53.968686,281.35248 C 209.64534,-461.72203 -378.96113,776.36596 271.07533,330.15449 C 921.11179,-116.05699 -445.80056,-11.797311 342.36651,9.2918774 C 1130.5336,30.381066 -228.84748,-146.82673 396.39717,333.50775 C 1021.6418,813.84224 500.08582,-453.95064 723.58583,302.1577 C 947.08584,1058.266 695.54862,-289.34239 431.9346,453.73212 C 168.32058,1196.8066 1212.8936,309.00787 562.85713,755.21933 z" />
    <path
       sodipodi:type="star"
       style="opacity:1;fill:#000000;fill-opacity:1;stroke:#000000;stroke-width:1.5;stroke-miterlimit:4;stroke-dasharray:none"
       id="path3237"
       sodipodi:sides="7"
       sodipodi:cx="265.71429"
       sodipodi:cy="352.36218"
       sodipodi:r1="2.337734"
       sodipodi:r2="233.77339"
       sodipodi:arg1="-1.5871884"
       sodipodi:arg2="-1.1385865"
       inkscape:flatsided="false"
       inkscape:rounded="-3.301"
       inkscape:randomized="0"
       d="M 265.67598,350.02476 C -498.95878,362.71055 1057.9899,460.55629 363.63693,140.08605 C -330.71726,-180.38475 754.17884,940.78196 267.51787,350.87487 C -219.14225,-239.0312 675.1005,1039.2461 492.73222,296.56918 C 310.36362,-446.10906 110.22185,1101.1329 268.00164,352.84495 C 425.78115,-395.44167 -16.065069,1100.6983 450.87839,495.06557 C 917.82265,-110.56825 -416.64615,697.64418 266.76299,354.4515 C 950.17094,11.259413 -495.04503,598.63817 269.59221,586.10341 C 1034.2308,573.56863 -429.68283,34.151107 264.73465,354.48475 C 959.15092,674.81784 -401.15771,-88.872845 85.385888,501.12933 C 571.93033,1091.1325 80.928719,-389.72254 263.44401,352.91967 C 445.95897,1095.5606 194.89784,-444.12488 36.970532,304.13056 C -120.95705,1052.3873 730.68757,-254.79125 263.86293,350.93478 C -202.96089,956.65977 844.27962,-199.60591 160.80389,143.45118 C -522.67302,486.50887 1030.3121,337.33895 265.67598,350.02476 z"
       transform="matrix(0.8899478,9.5602612e-3,-9.5602612e-3,0.8899478,37.662988,31.58258)" />
    <path
       sodipodi:type="star"
       style="opacity:1;fill:#ffffff;fill-opacity:1;stroke:#ffffff;stroke-width:1.5;stroke-miterlimit:4;stroke-dasharray:none"
       id="path3239"
       sodipodi:sides="5"
       sodipodi:cx="552.85712"
       sodipodi:cy="279.50504"
       sodipodi:r1="224.20396"
       sodipodi:r2="2.2420397"
       sodipodi:arg1="-1.5299398"
       sodipodi:arg2="-0.90162127"
       inkscape:flatsided="false"
       inkscape:rounded="-1.461"
       inkscape:randomized="0"
       d="M 562.01476,55.488172 C 237.36825,42.216858 809.09181,479.30568 554.24794,277.74653 C 299.40408,76.187375 856.4392,531.8477 768.73968,218.98946 C 681.04016,-93.868789 442.01628,584.9405 554.95935,280.28438 C 667.90241,-24.371743 406.677,646.20693 677.12223,466.12121 C 947.56746,286.0355 228.11902,268.47389 552.76554,281.7452 C 877.41206,295.01652 158.93075,253.7966 413.77462,455.35576 C 668.61848,656.91491 462.99877,-32.748055 550.69829,280.11019 C 638.39781,592.96844 455.57735,-103.08555 342.63429,201.57058 C 229.69123,506.2267 822.0597,97.553158 551.61447,277.63887 C 281.16923,457.72459 886.66128,68.759486 562.01476,55.488172 z"
       transform="matrix(0.6529752,-3.2575944e-2,3.2575944e-2,0.6529752,-96.836216,184.09494)" />
  </g>
</svg>
